<?xml version="1.0" encoding="utf-8"?>
<!-- Generator: Adobe Illustrator 19.0.0, SVG Export Plug-In . SVG Version: 6.00 Build 0)  -->
<svg version="1.1" id="Layer_1" xmlns="http://www.w3.org/2000/svg" xmlns:xlink="http://www.w3.org/1999/xlink" x="0px" y="0px"
	 viewBox="30 -161 980 839" style="enable-background:new 30 -161 980 839;" xml:space="preserve">
<style type="text/css">
	.st0{fill:#FFFFFF;}
</style>
<g>
	<path class="st0" d="M901.1,500.5H454.7L170,678l23.3-177.5h-54.4C78.8,500.5,30,451.1,30,390.2v-441C30-111.6,78.8-161,138.9-161
		h762.2c60.1,0,108.9,49.4,108.9,110.3v441C1010,451.1,961.2,500.5,901.1,500.5L901.1,500.5z M955.6-50.7
		c0-30.4-24.4-55.2-54.5-55.2H138.9c-30.1,0-54.5,24.7-54.5,55.2v441c0,30.4,24.4,55.1,54.5,55.1h54.4h54.4l-11.9,128.5L411,445.5
		h109h381.1c30.1,0,54.5-24.7,54.5-55.1V-50.7L955.6-50.7z M737.8,224.8c-30.1,0-54.4-24.7-54.4-55.1s24.3-55.2,54.4-55.2
		c30.1,0,54.5,24.7,54.5,55.2C792.2,200.2,767.8,224.8,737.8,224.8L737.8,224.8z M520,224.8c-30.1,0-54.4-24.7-54.4-55.1
		s24.3-55.2,54.4-55.2c30.1,0,54.4,24.7,54.4,55.2C574.4,200.2,550.1,224.8,520,224.8L520,224.8z M302.2,224.8
		c-30.1,0-54.5-24.7-54.5-55.1s24.4-55.2,54.5-55.2s54.4,24.7,54.4,55.2C356.7,200.2,332.3,224.8,302.2,224.8L302.2,224.8z"/>
</g>
</svg>
