<?xml version="1.0" encoding="utf-8"?>
<!-- Generator: Adobe Illustrator 19.0.0, SVG Export Plug-In . SVG Version: 6.00 Build 0)  -->
<svg version="1.1" id="Layer_1" xmlns="http://www.w3.org/2000/svg" xmlns:xlink="http://www.w3.org/1999/xlink" x="0px" y="0px"
	 viewBox="0 0 160 31" style="enable-background:new 0 0 160 31;" xml:space="preserve">
<style type="text/css">
	.st0{fill:#FFFFFF;}
</style>
<g id="XMLID_3_">
	<path id="XMLID_43_" class="st0" d="M0.4,17L2.9,5.5h3.3L3.7,17H0.4z M3.4,3l0.5-2.5h3.3L6.7,3H3.4z M16.1,12.8
		c-0.2,1.5-0.8,2.6-1.6,3.4c-0.8,0.7-1.9,1.1-3.4,1.1c-1.4,0-2.4-0.3-3.2-1c-0.7-0.7-1.1-1.6-1.1-2.9c0-0.4,0-0.8,0.1-1.3
		c0.1-0.5,0.2-1,0.3-1.5c0.2-0.7,0.3-1.4,0.5-1.9c0.2-0.5,0.4-1,0.6-1.3c0.5-0.7,1-1.3,1.7-1.6c0.7-0.3,1.5-0.5,2.5-0.5
		c1.4,0,2.4,0.3,3.1,0.9c0.7,0.6,1,1.5,1,2.8c0,0.1,0,0.4,0,0.7c0,0,0,0.1,0,0.1h-3.1c0-0.2,0.1-0.3,0.1-0.5c0-0.2,0-0.3,0-0.5
		c0-0.4-0.1-0.8-0.3-1c-0.2-0.2-0.5-0.3-0.8-0.3c-0.3,0-0.6,0.1-0.9,0.3c-0.2,0.2-0.4,0.5-0.6,1C11,8.8,11,9,10.9,9.3
		c-0.1,0.3-0.2,0.7-0.3,1.1c0,0.1-0.1,0.4-0.1,0.6c-0.3,1.5-0.5,2.4-0.5,2.7c0,0.5,0.1,0.8,0.3,1c0.2,0.2,0.5,0.4,0.8,0.4
		c0.4,0,0.8-0.2,1.1-0.5c0.3-0.3,0.5-0.9,0.7-1.8H16.1z M17.2,17l2.5-11.5h3.3L20.5,17H17.2z M20.2,3l0.5-2.5H24L23.5,3H20.2z
		 M32.9,12.8c-0.2,1.5-0.8,2.6-1.6,3.4c-0.8,0.7-1.9,1.1-3.4,1.1c-1.4,0-2.4-0.3-3.2-1c-0.7-0.7-1.1-1.6-1.1-2.9
		c0-0.4,0-0.8,0.1-1.3c0.1-0.5,0.2-1,0.3-1.5c0.2-0.7,0.3-1.4,0.5-1.9c0.2-0.5,0.4-1,0.6-1.3c0.5-0.7,1-1.3,1.7-1.6
		c0.7-0.3,1.5-0.5,2.5-0.5c1.4,0,2.4,0.3,3.1,0.9c0.7,0.6,1,1.5,1,2.8c0,0.1,0,0.4,0,0.7c0,0,0,0.1,0,0.1h-3.1
		c0-0.2,0.1-0.3,0.1-0.5c0-0.2,0-0.3,0-0.5c0-0.4-0.1-0.8-0.3-1c-0.2-0.2-0.5-0.3-0.8-0.3c-0.3,0-0.6,0.1-0.9,0.3
		c-0.2,0.2-0.4,0.5-0.6,1c0,0.1-0.1,0.4-0.2,0.7c-0.1,0.3-0.2,0.7-0.3,1.1c0,0.1-0.1,0.4-0.1,0.6c-0.3,1.5-0.5,2.4-0.5,2.7
		c0,0.5,0.1,0.8,0.3,1c0.2,0.2,0.5,0.4,0.8,0.4c0.4,0,0.8-0.2,1.1-0.5c0.3-0.3,0.5-0.9,0.7-1.8H32.9z M34,17l2.5-11.5h3.3L37.3,17
		H34z M37,3l0.5-2.5h3.3L40.3,3H37z M39.9,17l3.5-16.5h3.3L43.1,17H39.9z M46.3,13.5c0-0.4,0-0.8,0.1-1.3c0.1-0.5,0.2-1,0.3-1.6
		c0.2-0.7,0.3-1.4,0.5-1.9c0.2-0.6,0.4-1,0.6-1.3c0.5-0.7,1-1.3,1.7-1.6c0.7-0.3,1.5-0.5,2.5-0.5c1.4,0,2.4,0.3,3.2,1
		c0.7,0.7,1.1,1.6,1.1,2.9c0,0.4,0,0.8-0.1,1.3c-0.1,0.5-0.1,1-0.3,1.5c-0.2,0.7-0.3,1.4-0.5,1.9c-0.2,0.6-0.4,1-0.6,1.4
		c-0.5,0.7-1,1.3-1.7,1.6c-0.7,0.3-1.5,0.5-2.5,0.5c-1.4,0-2.4-0.3-3.2-1C46.7,15.6,46.3,14.7,46.3,13.5z M52,7.2
		c-0.4,0-0.6,0.1-0.9,0.3c-0.2,0.2-0.4,0.5-0.6,1c-0.1,0.1-0.1,0.3-0.2,0.6c-0.1,0.3-0.1,0.6-0.2,1c0,0.2-0.1,0.5-0.2,1
		c-0.3,1.5-0.5,2.5-0.5,2.8c0,0.5,0.1,0.8,0.3,1c0.2,0.2,0.5,0.4,0.9,0.4c0.4,0,0.6-0.1,0.9-0.3c0.2-0.2,0.4-0.5,0.6-1
		c0.1-0.2,0.2-0.6,0.3-1.1c0.1-0.5,0.2-1.1,0.4-1.7c0.1-0.6,0.2-1.1,0.3-1.5c0.1-0.5,0.1-0.8,0.1-1.1c0-0.4-0.1-0.8-0.3-1
		C52.7,7.3,52.4,7.2,52,7.2z M57,17l2-9.4c0.1-0.3,0.1-0.6,0.2-0.9c0.1-0.3,0.1-0.7,0.2-1.2h3.1l-0.2,1.3c0.4-0.5,0.8-0.9,1.2-1.2
		c0.5-0.3,1-0.4,1.6-0.4c0.6,0,1.2,0.2,1.5,0.5C67.1,6,67.3,6.4,67.4,7c0.4-0.6,0.9-1.1,1.4-1.3c0.5-0.3,1.1-0.4,1.7-0.4
		c0.7,0,1.3,0.2,1.7,0.6c0.4,0.4,0.6,1,0.6,1.8c0,0.2,0,0.5,0,0.7c0,0.3-0.1,0.5-0.1,0.8L71.1,17h-3.2l1.7-7.9
		c0-0.1,0.1-0.3,0.1-0.4c0-0.1,0-0.3,0-0.4c0-0.3-0.1-0.5-0.2-0.7c-0.1-0.1-0.3-0.2-0.6-0.2c-0.4,0-0.7,0.2-1,0.6
		c-0.3,0.4-0.5,1-0.7,1.8L65.6,17h-3.2l1.7-7.9c0-0.1,0.1-0.3,0.1-0.4c0-0.1,0-0.3,0-0.4c0-0.3-0.1-0.5-0.2-0.7
		c-0.1-0.1-0.3-0.2-0.6-0.2c-0.4,0-0.7,0.2-1,0.6c-0.3,0.4-0.5,1-0.7,1.8L60.3,17H57z M73.4,17c0.1-0.3,0.1-0.5,0.2-0.8
		c0.1-0.3,0.1-0.6,0.2-1l3.1-14.7h3.3l-1.3,6.1c0.4-0.5,0.8-0.8,1.2-1c0.4-0.2,1-0.3,1.7-0.3c0.9,0,1.6,0.2,2,0.7
		c0.4,0.5,0.7,1.2,0.7,2.2c0,0.4,0,0.9-0.1,1.5c-0.1,0.6-0.2,1.3-0.4,2c-0.2,0.8-0.4,1.5-0.5,2.1c-0.2,0.6-0.4,1.1-0.6,1.4
		c-0.4,0.7-0.8,1.2-1.3,1.5c-0.5,0.3-1.1,0.5-1.8,0.5c-0.7,0-1.3-0.1-1.7-0.4c-0.5-0.3-0.8-0.7-1-1.3L76.6,17H73.4z M80,7.4
		c-0.3,0-0.6,0.1-0.8,0.3c-0.2,0.2-0.4,0.5-0.6,1c-0.1,0.2-0.2,0.5-0.3,1c-0.1,0.4-0.2,0.9-0.4,1.5c-0.1,0.7-0.2,1.3-0.3,1.8
		c-0.1,0.4-0.1,0.8-0.1,1c0,0.4,0.1,0.6,0.3,0.9c0.2,0.2,0.5,0.3,0.8,0.3c0.4,0,0.6-0.1,0.9-0.3c0.2-0.2,0.4-0.6,0.6-1.2
		c0.3-0.9,0.5-1.8,0.7-2.7c0.2-0.9,0.2-1.6,0.2-2.2c0-0.4-0.1-0.7-0.3-0.9C80.6,7.5,80.4,7.4,80,7.4z M91.1,15.8
		c-0.4,0.4-0.8,0.8-1.3,1c-0.5,0.2-0.9,0.3-1.5,0.3c-0.9,0-1.6-0.3-2.1-0.8c-0.5-0.5-0.8-1.2-0.8-2.1c0-1.7,0.4-2.9,1.3-3.6
		c0.9-0.7,2.4-1.1,4.4-1.1c0.3,0,0.5,0,0.7,0c0.2,0,0.3,0,0.5,0c0.1-0.4,0.1-0.7,0.1-0.9c0-0.2,0-0.4,0-0.5c0-0.4-0.1-0.7-0.3-0.9
		c-0.2-0.2-0.5-0.3-0.8-0.3c-0.4,0-0.7,0.1-0.9,0.4C90.2,7.7,90,8,89.9,8.5h-3.1c0.1-1.1,0.6-2,1.3-2.5c0.7-0.5,1.8-0.8,3.2-0.8
		c1.5,0,2.6,0.2,3.2,0.7c0.7,0.5,1,1.3,1,2.3c0,0.3,0,0.6-0.1,0.9c0,0.3-0.1,0.7-0.2,1l-0.9,4.4c-0.1,0.4-0.1,0.8-0.2,1.2
		C94.1,16.2,94,16.6,94,17h-3L91.1,15.8z M91.9,11.4h-0.3c-1.1,0-1.8,0.2-2.3,0.6c-0.5,0.4-0.7,1-0.7,1.8c0,0.4,0.1,0.8,0.3,1
		c0.2,0.2,0.4,0.4,0.7,0.4c0.6,0,1.1-0.3,1.4-0.9C91.4,13.5,91.7,12.6,91.9,11.4z M96.2,17l1.9-9c0.1-0.4,0.2-0.9,0.2-1.3
		c0.1-0.4,0.1-0.8,0.2-1.3h3.1l-0.3,1.7c0.4-0.6,0.8-1,1.3-1.3c0.5-0.3,1.1-0.4,1.7-0.4c0.1,0,0.2,0,0.3,0c0.1,0,0.1,0,0.2,0
		l-0.6,2.9c0,0,0,0-0.1,0c-0.4-0.1-0.6-0.1-0.8-0.1c-0.8,0-1.3,0.2-1.8,0.7c-0.4,0.4-0.7,1.2-1,2.3L99.5,17H96.2z M110.2,15.9
		c-0.3,0.5-0.7,0.8-1.1,1c-0.4,0.2-0.9,0.3-1.5,0.3c-1,0-1.7-0.2-2.2-0.7c-0.5-0.5-0.7-1.2-0.7-2.2c0-0.4,0-0.9,0.1-1.5
		c0.1-0.6,0.2-1.3,0.4-2c0.2-0.8,0.4-1.5,0.5-2c0.2-0.6,0.4-1.1,0.6-1.4c0.4-0.7,0.8-1.2,1.3-1.5c0.5-0.3,1.1-0.5,1.8-0.5
		c0.6,0,1.1,0.1,1.5,0.3c0.4,0.2,0.8,0.6,1.1,1.1l1.4-6.3h3.2l-3.1,14.7c0,0.2-0.1,0.5-0.1,0.8c0,0.3-0.1,0.6-0.1,1H110L110.2,15.9z
		 M110.4,7.5c-0.4,0-0.6,0.1-0.8,0.3c-0.2,0.2-0.4,0.6-0.6,1.1c-0.3,0.9-0.5,1.8-0.7,2.7c-0.2,0.9-0.3,1.6-0.3,2.2
		c0,0.4,0.1,0.7,0.3,0.9c0.2,0.2,0.4,0.3,0.8,0.3c0.3,0,0.6-0.1,0.8-0.3c0.2-0.2,0.4-0.5,0.6-1c0.1-0.2,0.2-0.6,0.3-1
		c0.1-0.4,0.2-0.9,0.3-1.5c0.1-0.6,0.2-1.1,0.3-1.5c0.1-0.4,0.1-0.8,0.1-1c0-0.4-0.1-0.8-0.3-1C111.1,7.6,110.8,7.5,110.4,7.5z
		 M115.9,17l0.6-2.9h2.8l-0.6,2.9H115.9z M131.2,12.8c-0.2,1.5-0.8,2.6-1.6,3.4c-0.8,0.7-1.9,1.1-3.4,1.1c-1.4,0-2.4-0.3-3.2-1
		c-0.7-0.7-1.1-1.6-1.1-2.9c0-0.4,0-0.8,0.1-1.3c0.1-0.5,0.2-1,0.3-1.5c0.2-0.7,0.3-1.4,0.5-1.9c0.2-0.5,0.4-1,0.6-1.3
		c0.5-0.7,1-1.3,1.7-1.6c0.7-0.3,1.5-0.5,2.5-0.5c1.4,0,2.4,0.3,3.1,0.9c0.7,0.6,1,1.5,1,2.8c0,0.1,0,0.4,0,0.7c0,0,0,0.1,0,0.1
		h-3.1c0-0.2,0.1-0.3,0.1-0.5c0-0.2,0-0.3,0-0.5c0-0.4-0.1-0.8-0.3-1c-0.2-0.2-0.5-0.3-0.8-0.3c-0.3,0-0.6,0.1-0.9,0.3
		c-0.2,0.2-0.4,0.5-0.6,1c0,0.1-0.1,0.4-0.2,0.7c-0.1,0.3-0.2,0.7-0.3,1.1c0,0.1-0.1,0.4-0.1,0.6c-0.3,1.5-0.5,2.4-0.5,2.7
		c0,0.5,0.1,0.8,0.3,1c0.2,0.2,0.5,0.4,0.8,0.4c0.4,0,0.8-0.2,1.1-0.5c0.3-0.3,0.5-0.9,0.7-1.8H131.2z M133,13.5
		c0-0.4,0-0.8,0.1-1.3c0.1-0.5,0.2-1,0.3-1.6c0.2-0.7,0.3-1.4,0.5-1.9c0.2-0.6,0.4-1,0.6-1.3c0.5-0.7,1-1.3,1.7-1.6
		c0.7-0.3,1.5-0.5,2.5-0.5c1.4,0,2.4,0.3,3.2,1c0.7,0.7,1.1,1.6,1.1,2.9c0,0.4,0,0.8-0.1,1.3c-0.1,0.5-0.1,1-0.3,1.5
		c-0.2,0.7-0.3,1.4-0.5,1.9c-0.2,0.6-0.4,1-0.6,1.4c-0.5,0.7-1,1.3-1.7,1.6c-0.7,0.3-1.5,0.5-2.5,0.5c-1.4,0-2.4-0.3-3.2-1
		C133.4,15.6,133,14.7,133,13.5z M138.7,7.2c-0.4,0-0.6,0.1-0.9,0.3c-0.2,0.2-0.4,0.5-0.6,1c-0.1,0.1-0.1,0.3-0.2,0.6
		c-0.1,0.3-0.1,0.6-0.2,1c0,0.2-0.1,0.5-0.2,1c-0.3,1.5-0.5,2.5-0.5,2.8c0,0.5,0.1,0.8,0.3,1c0.2,0.2,0.5,0.4,0.9,0.4
		c0.4,0,0.6-0.1,0.9-0.3c0.2-0.2,0.4-0.5,0.6-1c0.1-0.2,0.2-0.6,0.3-1.1c0.1-0.5,0.2-1.1,0.4-1.7c0.1-0.6,0.2-1.1,0.3-1.5
		c0.1-0.5,0.1-0.8,0.1-1.1c0-0.4-0.1-0.8-0.3-1C139.3,7.3,139.1,7.2,138.7,7.2z M143.7,17l2-9.4c0.1-0.3,0.1-0.6,0.2-0.9
		c0.1-0.3,0.1-0.7,0.2-1.2h3.1l-0.2,1.3c0.4-0.5,0.8-0.9,1.2-1.2c0.5-0.3,1-0.4,1.6-0.4c0.6,0,1.2,0.2,1.5,0.5
		c0.4,0.3,0.6,0.7,0.7,1.3c0.4-0.6,0.9-1.1,1.4-1.3c0.5-0.3,1.1-0.4,1.7-0.4c0.7,0,1.3,0.2,1.7,0.6c0.4,0.4,0.6,1,0.6,1.8
		c0,0.2,0,0.5,0,0.7c0,0.3-0.1,0.5-0.1,0.8l-1.7,7.8h-3.2l1.7-7.9c0-0.1,0.1-0.3,0.1-0.4c0-0.1,0-0.3,0-0.4c0-0.3-0.1-0.5-0.2-0.7
		c-0.1-0.1-0.3-0.2-0.6-0.2c-0.4,0-0.7,0.2-1,0.6c-0.3,0.4-0.5,1-0.7,1.8l-1.5,7.2h-3.2l1.7-7.9c0-0.1,0.1-0.3,0.1-0.4
		c0-0.1,0-0.3,0-0.4c0-0.3-0.1-0.5-0.2-0.7c-0.1-0.1-0.3-0.2-0.6-0.2c-0.4,0-0.7,0.2-1,0.6c-0.3,0.4-0.5,1-0.7,1.8l-1.5,7.2H143.7z"
		/>
	<g id="XMLID_4_">
		<g id="XMLID_40_">
			<polygon id="XMLID_42_" class="st0" points="26.9,26.9 0.4,26.9 0.4,26.4 26.9,26.4 26.9,26.9 			"/>
			<polygon id="XMLID_41_" class="st0" points="159.6,26.9 133.1,26.9 133.1,26.4 159.6,26.4 159.6,26.9 			"/>
		</g>
		<g id="XMLID_5_">
			<path id="XMLID_37_" class="st0" d="M38,28.9h-1.9c-0.1,0-0.3,0-0.6,0.1C35.3,29,35.1,29,35,29c-0.7,0-1.2-0.2-1.5-0.6
				c-0.4-0.4-0.5-0.9-0.5-1.6c0-0.5,0.1-1.1,0.3-1.6c0.2-0.5,0.5-1,0.8-1.4c0.3-0.3,0.7-0.6,1.1-0.8c0.4-0.2,0.9-0.2,1.4-0.2
				c0.7,0,1.3,0.2,1.6,0.5c0.4,0.3,0.6,0.8,0.6,1.5c0,0.6-0.1,1.2-0.4,1.8c-0.3,0.6-0.6,1-1,1.3h1.1L38,28.9z M36.4,23.7
				c-0.3,0-0.6,0.1-0.8,0.2c-0.2,0.1-0.4,0.4-0.6,0.7c-0.2,0.4-0.4,0.9-0.6,1.3c-0.1,0.4-0.2,0.8-0.2,1.2c0,0.4,0.1,0.6,0.3,0.8
				c0.2,0.2,0.4,0.3,0.8,0.3c0.3,0,0.5-0.1,0.8-0.2c0.2-0.1,0.4-0.4,0.6-0.6c0.1-0.1,0.2-0.3,0.2-0.4c0.1-0.2,0.2-0.4,0.2-0.6
				c0.1-0.3,0.2-0.6,0.2-0.8c0-0.2,0.1-0.5,0.1-0.7c0-0.3-0.1-0.6-0.3-0.8C36.9,23.7,36.7,23.7,36.4,23.7z"/>
			<path id="XMLID_35_" class="st0" d="M43.6,24.7l-0.8,2.9c0,0,0,0.1,0,0.1c-0.1,0.4-0.2,0.8-0.3,1.1h-1.2l0.1-0.7
				c-0.3,0.3-0.5,0.4-0.8,0.6C40.4,29,40.1,29,39.9,29c-0.3,0-0.6-0.1-0.8-0.3c-0.2-0.2-0.3-0.4-0.3-0.7c0-0.2,0.1-0.5,0.2-0.9
				c0-0.1,0-0.1,0-0.1l0.7-2.3H41l-0.8,2.7c0,0.1,0,0.1-0.1,0.2c0,0.1,0,0.1,0,0.2c0,0.1,0,0.2,0.1,0.3c0.1,0.1,0.2,0.1,0.3,0.1
				c0.2,0,0.5-0.1,0.7-0.3c0.2-0.2,0.4-0.5,0.5-0.9l0.7-2.2H43.6z"/>
			<path id="XMLID_32_" class="st0" d="M43.5,28.9l1.2-4.2H46l-1.2,4.2H43.5z M45,23.9l0.3-1h1.2l-0.3,1H45z"/>
			<path id="XMLID_30_" class="st0" d="M49.9,27.5c-0.1,0.5-0.4,0.9-0.7,1.2c-0.4,0.3-0.9,0.4-1.5,0.4c-0.5,0-0.9-0.1-1.2-0.4
				c-0.3-0.2-0.4-0.6-0.4-1c0-0.4,0.1-0.8,0.3-1.2c0.2-0.5,0.4-0.8,0.6-1.1c0.2-0.2,0.4-0.4,0.7-0.5c0.3-0.1,0.6-0.2,1-0.2
				c0.5,0,0.9,0.1,1.2,0.3c0.3,0.2,0.4,0.5,0.4,0.8c0,0.1,0,0.2,0,0.2c0,0.1,0,0.2-0.1,0.2H49c0,0,0-0.1,0-0.2c0-0.1,0-0.2,0-0.2
				c0-0.1,0-0.2-0.1-0.3c-0.1-0.1-0.2-0.1-0.4-0.1c-0.1,0-0.3,0-0.4,0.1c-0.1,0.1-0.2,0.2-0.3,0.4c-0.2,0.3-0.3,0.6-0.4,0.9
				c-0.1,0.4-0.2,0.6-0.2,0.8c0,0.1,0,0.3,0.1,0.4c0.1,0.1,0.2,0.1,0.4,0.1c0.2,0,0.4-0.1,0.5-0.2c0.1-0.1,0.3-0.3,0.3-0.6H49.9z"/>
			<path id="XMLID_28_" class="st0" d="M50.3,28.9l1.8-6h1.2l-1,3.5l1.6-1.7h1.5l-1.9,1.9l0.9,2.2H53l-0.8-2.3l-0.7,2.3H50.3z"/>
			<path id="XMLID_26_" class="st0" d="M70.3,28.9l1.7-6h3.9l-0.3,0.9h-2.6l-0.4,1.5h2.5l-0.3,0.9h-2.5L71.9,28h2.8l-0.3,0.9H70.3z"
				/>
			<path id="XMLID_23_" class="st0" d="M77.6,28.9c0-0.1,0-0.2,0-0.3c0-0.1,0-0.2,0-0.3c-0.2,0.2-0.4,0.4-0.6,0.5
				c-0.2,0.1-0.4,0.2-0.7,0.2c-0.3,0-0.6-0.1-0.8-0.3c-0.2-0.2-0.3-0.5-0.3-0.8c0-0.5,0.2-0.9,0.7-1.2c0.4-0.3,1.1-0.4,1.9-0.4
				c0.1,0,0.2,0,0.2,0c0,0,0.1,0,0.1,0c0-0.2,0.1-0.3,0.1-0.3c0-0.1,0-0.1,0-0.2c0-0.1,0-0.2-0.1-0.3c-0.1-0.1-0.2-0.1-0.3-0.1
				c-0.2,0-0.3,0-0.4,0.1c-0.1,0.1-0.2,0.2-0.2,0.4h-1.2c0.1-0.4,0.3-0.7,0.6-0.9c0.3-0.2,0.8-0.3,1.3-0.3c0.5,0,0.9,0.1,1.2,0.3
				c0.3,0.2,0.4,0.4,0.4,0.8c0,0.1,0,0.2,0,0.3c0,0.1-0.1,0.2-0.1,0.4l-0.4,1.4c-0.1,0.2-0.1,0.3-0.1,0.5c0,0.2-0.1,0.4-0.1,0.5
				H77.6z M78,26.9C78,26.9,78,26.9,78,26.9c-0.1,0-0.2,0-0.2,0c-0.4,0-0.7,0.1-1,0.3c-0.3,0.2-0.4,0.4-0.4,0.6c0,0.1,0,0.2,0.1,0.3
				c0.1,0.1,0.2,0.1,0.3,0.1c0.2,0,0.5-0.1,0.7-0.4C77.8,27.6,77.9,27.3,78,26.9z"/>
			<path id="XMLID_21_" class="st0" d="M80.8,27.6c0,0,0,0.1,0,0.1c0,0,0,0.1,0,0.1c0,0.2,0,0.3,0.1,0.4c0.1,0.1,0.2,0.1,0.4,0.1
				c0.2,0,0.4,0,0.6-0.1c0.1-0.1,0.2-0.2,0.2-0.4c0-0.2-0.2-0.3-0.5-0.5c-0.1-0.1-0.2-0.1-0.3-0.1c-0.4-0.2-0.7-0.4-0.8-0.6
				c-0.1-0.2-0.2-0.4-0.2-0.6c0-0.4,0.2-0.7,0.5-1c0.3-0.2,0.8-0.4,1.4-0.4c0.5,0,0.9,0.1,1.2,0.2c0.3,0.2,0.4,0.4,0.4,0.7
				c0,0,0,0.1,0,0.1c0,0.1,0,0.1,0,0.2l-1.1,0c0,0,0,0,0-0.1c0,0,0,0,0-0.1c0-0.2,0-0.3-0.1-0.4c-0.1-0.1-0.2-0.1-0.4-0.1
				c-0.2,0-0.3,0-0.4,0.1c-0.1,0.1-0.2,0.2-0.2,0.3c0,0.2,0.2,0.4,0.6,0.6c0,0,0.1,0,0.1,0c0.4,0.2,0.7,0.4,0.9,0.5
				c0.1,0.2,0.2,0.4,0.2,0.6c0,0.5-0.2,0.8-0.5,1.1c-0.4,0.3-0.8,0.4-1.5,0.4c-0.6,0-1-0.1-1.3-0.3c-0.3-0.2-0.4-0.5-0.4-0.8
				c0,0,0-0.1,0-0.1c0-0.1,0-0.1,0-0.2L80.8,27.6z"/>
			<path id="XMLID_19_" class="st0" d="M84.2,30.5l0.9-1.5l-0.9-4.2h1.2l0.5,2.9l1.4-2.9h1.2l-2.3,4.4l-0.6,1.4H84.2z"/>
			<path id="XMLID_17_" class="st0" d="M103.5,27.1l1.2,0c0,0,0,0.1,0,0.1c0,0,0,0.1,0,0.1c0,0.3,0.1,0.5,0.2,0.6
				c0.2,0.1,0.4,0.2,0.7,0.2c0.4,0,0.7-0.1,0.9-0.2c0.2-0.1,0.3-0.4,0.3-0.6c0-0.2-0.1-0.3-0.2-0.4c-0.1-0.1-0.4-0.3-0.8-0.5
				c-0.7-0.3-1.2-0.6-1.4-0.9c-0.2-0.2-0.3-0.5-0.3-0.9c0-0.5,0.2-1,0.6-1.3c0.4-0.3,1-0.5,1.7-0.5c0.7,0,1.2,0.1,1.5,0.4
				c0.4,0.3,0.5,0.7,0.5,1.1c0,0,0,0.1,0,0.1c0,0,0,0.1,0,0.2h-1.2c0,0,0,0,0-0.1c0,0,0-0.1,0-0.1c0-0.3-0.1-0.5-0.2-0.6
				c-0.2-0.1-0.4-0.2-0.6-0.2c-0.3,0-0.6,0.1-0.8,0.2c-0.2,0.2-0.3,0.4-0.3,0.6c0,0.3,0.3,0.6,1,0.9c0.1,0.1,0.2,0.1,0.3,0.2
				c0.6,0.3,0.9,0.5,1.1,0.7c0.2,0.2,0.3,0.5,0.3,0.8c0,0.6-0.2,1-0.7,1.4c-0.5,0.4-1.1,0.5-1.9,0.5c-0.7,0-1.2-0.1-1.6-0.4
				c-0.4-0.3-0.5-0.7-0.5-1.3C103.5,27.2,103.5,27.2,103.5,27.1C103.5,27.1,103.5,27.1,103.5,27.1z"/>
			<path id="XMLID_15_" class="st0" d="M108.5,28.9l0.9-2.9c0,0,0-0.1,0-0.1c0.1-0.4,0.2-0.8,0.3-1.2h1.2l-0.1,0.6
				c0.3-0.3,0.6-0.5,0.8-0.6c0.2-0.1,0.5-0.2,0.7-0.2c0.3,0,0.5,0.1,0.7,0.2c0.2,0.1,0.3,0.3,0.3,0.6c0.3-0.3,0.6-0.5,0.9-0.6
				c0.2-0.1,0.5-0.2,0.7-0.2c0.3,0,0.6,0.1,0.7,0.3c0.2,0.2,0.3,0.4,0.3,0.7c0,0.2-0.1,0.5-0.2,0.9l0,0.1l-0.7,2.3h-1.2l0.8-2.7
				c0-0.1,0-0.2,0.1-0.2c0-0.1,0-0.1,0-0.2c0-0.1,0-0.2-0.1-0.3c-0.1-0.1-0.2-0.1-0.3-0.1c-0.2,0-0.5,0.1-0.7,0.3
				c-0.2,0.2-0.4,0.5-0.5,0.9l-0.6,2.2h-1.2l0.8-2.7c0-0.1,0-0.2,0-0.2c0-0.1,0-0.1,0-0.2c0-0.1,0-0.2-0.1-0.3
				c-0.1-0.1-0.2-0.1-0.3-0.1c-0.2,0-0.5,0.1-0.7,0.3c-0.2,0.2-0.4,0.5-0.5,0.9l-0.6,2.2H108.5z"/>
			<path id="XMLID_12_" class="st0" d="M118.5,28.9c0-0.1,0-0.2,0-0.3c0-0.1,0-0.2,0-0.3c-0.2,0.2-0.4,0.4-0.6,0.5
				c-0.2,0.1-0.4,0.2-0.7,0.2c-0.3,0-0.6-0.1-0.8-0.3c-0.2-0.2-0.3-0.5-0.3-0.8c0-0.5,0.2-0.9,0.7-1.2c0.4-0.3,1.1-0.4,1.9-0.4
				c0.1,0,0.2,0,0.2,0c0,0,0.1,0,0.1,0c0-0.2,0.1-0.3,0.1-0.3c0-0.1,0-0.1,0-0.2c0-0.1,0-0.2-0.1-0.3c-0.1-0.1-0.2-0.1-0.3-0.1
				c-0.2,0-0.3,0-0.4,0.1c-0.1,0.1-0.2,0.2-0.2,0.4h-1.2c0.1-0.4,0.3-0.7,0.6-0.9c0.3-0.2,0.8-0.3,1.3-0.3c0.5,0,0.9,0.1,1.2,0.3
				c0.3,0.2,0.4,0.4,0.4,0.8c0,0.1,0,0.2,0,0.3c0,0.1-0.1,0.2-0.1,0.4l-0.4,1.4c-0.1,0.2-0.1,0.3-0.1,0.5c0,0.2-0.1,0.4-0.1,0.5
				H118.5z M118.9,26.9C118.9,26.9,118.8,26.9,118.9,26.9c-0.1,0-0.2,0-0.2,0c-0.4,0-0.7,0.1-1,0.3c-0.3,0.2-0.4,0.4-0.4,0.6
				c0,0.1,0,0.2,0.1,0.3c0.1,0.1,0.2,0.1,0.3,0.1c0.2,0,0.5-0.1,0.7-0.4S118.8,27.3,118.9,26.9z"/>
			<path id="XMLID_10_" class="st0" d="M120.5,28.9l1-3.3c0-0.1,0.1-0.2,0.1-0.4c0-0.2,0.1-0.3,0.1-0.5h1.2l-0.1,0.7
				c0.2-0.3,0.4-0.5,0.6-0.6c0.2-0.1,0.5-0.2,0.8-0.2h0.1l-0.3,1.1h-0.1c-0.4,0-0.7,0.1-0.9,0.3c-0.2,0.2-0.4,0.6-0.6,1.1l-0.5,1.7
				H120.5z"/>
			<path id="XMLID_8_" class="st0" d="M124.1,27.6l0.6-2.1h-0.8l0.2-0.7h0.8l0.3-0.9l1.3-0.3l-0.4,1.2h0.9l-0.2,0.7H126l-0.6,1.9
				c0,0.1,0,0.2-0.1,0.2c0,0.1,0,0.1,0,0.2c0,0.1,0,0.2,0.1,0.2c0.1,0.1,0.2,0.1,0.3,0.1c0.1,0,0.1,0,0.2,0c0.1,0,0.2,0,0.3,0
				l-0.3,0.8c-0.2,0-0.4,0.1-0.5,0.1c-0.1,0-0.3,0-0.4,0c-0.3,0-0.6-0.1-0.8-0.2c-0.2-0.1-0.3-0.3-0.3-0.6c0-0.1,0-0.2,0-0.3
				C124.1,27.8,124.1,27.7,124.1,27.6z"/>
			<polygon id="XMLID_7_" class="st0" points="62.5,24.9 61.3,24.9 63,26.7 61.3,28.4 62.5,28.4 64.3,26.7 			"/>
			<polygon id="XMLID_6_" class="st0" points="95.7,24.9 94.4,24.9 96.2,26.7 94.4,28.4 95.7,28.4 97.5,26.7 			"/>
		</g>
	</g>
</g>
</svg>
