<svg xmlns="http://www.w3.org/2000/svg" viewBox="0 0 145.37 125.66"><path d="M96 30.41c-10.52-13.1-30.76-14.54-44.79-6.56a30.48 30.48 0 0 0-13.93 16.34c-3 8.86.91 13.12 4.12 21 2.15 5.28 2.31 11.19 1.7 16.79-1.1 10.6-3.66 17.35 7.5 23.45 8.64 4.71 23.57 3.4 33.1 2.6a29.37 29.37 0 0 0 11.07-2.94C115 90.49 107.45 44.68 96 30.41z" fill="#f5f5f5"/><path d="M39 64.91a17.85 17.85 0 0 0-2.14-4.31 4.64 4.64 0 0 0-7.18-.51c-2.16 2.32-.81 5-.5 7.58a4.78 4.78 0 0 0 2.23 3.58c1.84 1.15 3.92.92 5.92.29a3.51 3.51 0 0 0 2.31-3.82 10.6 10.6 0 0 0-.64-2.81z" fill="#f5f5f5"/><path d="M89.53 47.4l-6.67 2.85V11.93h6.67zM76.81 53l-3.33 1.4-3.34-1.4V12h6.67zm-13-2.71l-6.65-2.89V11.93h6.67z" fill="#ddd"/><path d="M63.1 50.25l-6.67-2.85V11.93h6.67zM89 47.4l-6.67 2.85V11.93H89zM76 53l-3.33 1.4-3.32-1.4V12H76z" fill="#fb0"/><path d="M51.58 45.33v6.3l21.12 8.79 21.09-9.7v-5.39l-21.1 9zm15.07 27.46l25.59 2v3.86l-9.78 9.52 2.31 9.6v3.86l-12.08-6.39-12.08 6.34v-3.85l2.31-9.59-9.77-9.53v-3.86z" fill="#fb0"/><path d="M84.77 102a.47.47 0 0 1-.2-.06l-11.88-6.2L60.83 102a.45.45 0 0 1-.6-.19.46.46 0 0 1 0-.2v-3.88a.34.34 0 0 1 0-.1l2.25-9.35-9.59-9.36a.43.43 0 0 1-.14-.31v-3.86a.43.43 0 0 1 .38-.43l13.5-2h.1l25.59 2a.45.45 0 0 1 .41.44v3.85a.41.41 0 0 1-.14.31L83 88.27l2.25 9.36a.17.17 0 0 1 0 .1v3.85a.44.44 0 0 1-.25.42.43.43 0 0 1-.22.06zm-12.08-7.2a.42.42 0 0 1 .21.06l11.43 6v-3.08L82 88.25a.44.44 0 0 1 .12-.42l9.64-9.4v-3.26l-25.1-1.93-13.08 1.9v3.29l9.65 9.39a.46.46 0 0 1 .12.42l-2.3 9.54v3.07l11.45-6a.41.41 0 0 1 .19-.05z" fill="#777"/><path d="M72.69 60.54l6 12.23 13.51 2-9.78 9.54 2.31 13.45-12.04-6.38-12.08 6.35 2.31-13.45-9.77-9.53 13.5-2 6-12.23z" fill="#fff"/><path d="M84.77 98.17a.46.46 0 0 1-.2 0L72.7 91.88l-11.87 6.24a.44.44 0 0 1-.59-.19.36.36 0 0 1 0-.27l2.25-13.23-9.6-9.36a.44.44 0 0 1 0-.62.38.38 0 0 1 .25-.13l13.27-1.93 5.93-12a.44.44 0 0 1 .59-.2.39.39 0 0 1 .2.2L79 72.4l13.3 1.93a.44.44 0 0 1 .38.5.44.44 0 0 1-.13.24l-9.62 9.36 2.27 13.23a.44.44 0 0 1-.18.44.44.44 0 0 1-.25.08zm-12.08-7.24a.54.54 0 0 1 .21 0l11.29 5.94L82 84.36a.46.46 0 0 1 .13-.4l9.13-8.9-12.59-1.83a.45.45 0 0 1-.33-.23l-5.65-11.46L67.05 73a.46.46 0 0 1-.33.23l-12.63 1.82L63.23 84a.43.43 0 0 1 .12.39L61.2 96.91 72.5 91a.44.44 0 0 1 .2 0z" fill="#777"/><path d="M72.69 69.25l3.07 6.21 6.85 1-5 4.83 1.17 6.83-6.09-3.22-6.13 3.22 1.17-6.83-5-4.83 6.85-1z" fill="#fff"/><path d="M78.82 89.61a.46.46 0 0 1-.2 0l-5.93-3.12-5.92 3.12a.45.45 0 0 1-.6-.19.46.46 0 0 1 0-.2V88l1.13-5.54-4.78-4.67a.55.55 0 0 1-.14-.32v-1a.44.44 0 0 1 .38-.44l6.8-1.03h.1l13 1a.45.45 0 0 1 .41.44v1a.44.44 0 0 1-.13.31l-4.79 4.69 1.1 5.56v1.14a.44.44 0 0 1-.43.44zm-6.13-4.11a.54.54 0 0 1 .21 0l5.49 2.88v-.28l-1.17-5.73a.45.45 0 0 1 .13-.4l4.82-4.71v-.4l-12.52-1-6.42 1v.43L68.05 82a.45.45 0 0 1 .12.41L67 88.16v.28l5.5-2.89a.41.41 0 0 1 .19 0z" fill="#ddd"/><path d="M72.69 69.25l3.07 6.21 6.85 1-5 4.83 1.17 6.83-6.09-3.22-6.13 3.22 1.17-6.83-5-4.83 6.85-1z" fill="#fb0"/><path d="M78.82 88.55a.35.35 0 0 1-.2 0l-5.93-3.11-5.92 3.06a.45.45 0 0 1-.6-.19.44.44 0 0 1 0-.28l1.12-6.58-4.78-4.69a.44.44 0 0 1 0-.62.55.55 0 0 1 .25-.13l6.62-1 3-6a.44.44 0 0 1 .59-.2.39.39 0 0 1 .2.2l3 6 6.62 1a.44.44 0 0 1 .38.5.44.44 0 0 1-.13.24l-4.8 4.68L79.25 88a.43.43 0 0 1-.36.51zm-6.13-4.1a.54.54 0 0 1 .21 0l5.34 2.81-1-6a.4.4 0 0 1 .13-.38l4.31-4.22-6-.86a.45.45 0 0 1-.33-.24l-2.67-5.41L70 75.66a.45.45 0 0 1-.33.23l-6 .87L68 81a.47.47 0 0 1 .13.39l-1 5.95 5.37-2.84a.46.46 0 0 1 .2 0zm21.51-73h-43V51.9l21.53 9L94.22 51V11.48zM52 46l20.63 8.83L93.34 46v4.42l-20.65 9.5L52 51.33zm0-1V12.39h41.34V45l-20.65 8.86z" fill="#777"/><path fill="#fff" d="M69.29 52.26l-6.12-2.47v-37.4h6.12v39.87zm6.73 0l6.12-2.47v-37.4h-6.12v39.87zm12.93-39.87v34.52l4.39-1.88V12.39h-4.39zm-32.53 0v34.52l-4.39-1.88V12.39h4.39z"/></svg>