<svg xmlns="http://www.w3.org/2000/svg" viewBox="0 0 175.85 193.16"><title>3Artboard 93</title><path d="M65.09,52.16c0,10.51-11,18-20.82,14.19-15.35-6-10.9-29.5,5.51-29.5A15.3,15.3,0,0,1,65.09,52.16Z" style="fill:#f5f5f5"/><path d="M15.4,104c5.34-7.67,13.32-12.92,21.47-17.21C52.26,78.7,71,71.52,77.18,53.67a33,33,0,0,0,1.5-6.18C80.19,37,76.24,24.52,82.26,15c5.56-8.8,17.66-11.21,27.27-11.93a61.32,61.32,0,0,1,12.34.27,48.1,48.1,0,0,1,11.8,3A49.5,49.5,0,0,1,143.77,12a60.52,60.52,0,0,1,7.55,6.38,64.83,64.83,0,0,1,6.42,7.42A70.84,70.84,0,0,1,163,34.08a77.43,77.43,0,0,1,4.18,9,84.57,84.57,0,0,1,3.08,9.44,92.54,92.54,0,0,1,2,9.75,90.71,90.71,0,0,1,.9,9.87,89.7,89.7,0,0,1-.15,9.56,94.17,94.17,0,0,1-23.79,56.17c-19.73,21.83-49.43,32-78.38,31.3q-4.73-.1-9.42-.6c-17.16-1.83-35.42-7-46.2-21.52-7.09-9.52-8.52-22-4.79-33.13A38.71,38.71,0,0,1,15.4,104Z" style="fill:#f5f5f5"/><path d="M150.07,17c-.79-.68-1.59-1.33-2.4-2-2.84-2.2-6.38-5.47-9.89-6.67-1.48.89-3,1.68-4.58,2.48s-3,1.59-4.54,2.45-3,1.7-4.55,2.49c-.9.46-1.81.9-2.72,1.33-.44.21-.87.41-1.3.63l-.67.33a3.17,3.17,0,0,0-.66.34c-.72.38-1.41.81-2.13,1.18s-1.52.75-2.29,1.09c-1.55.7-3.12,1.34-4.64,2.07l-.59.29c-1.6.81-3.15,1.72-4.67,2.67-.87.3-1.73.6-2.6.87a18.57,18.57,0,0,0-5.35,2.83c-.11.09-.22.18-.31.27a53.43,53.43,0,0,0-8.27,3.65c-2.08,1.2-4.12,3.24-4,5.77a8.38,8.38,0,0,0-.67,3.79c0,1.85-.08,3.71,0,5.55.08,3.24-.07,6.69,0,9.92a17.34,17.34,0,0,0,2.56,9c.58,1,1.26,2.31,1.91,3.35a29.33,29.33,0,0,0,2.8,4.12c.25.28.27.65.55.81-.05.16.2.19.28.39.77,1.8,2.89.35,4.07,0a16.25,16.25,0,0,1,4.18-.74,7.62,7.62,0,0,0,1.72.1c.3,0,.87.3,1.13.13l.63.14h.08l.1.12a.79.79,0,0,0,.87.2,1,1,0,0,0,.35.07.84.84,0,0,0,.83-.52c.3-.71-.28-1.37-.71-1.9s-.93-.84-1.3-1.35c-.6-1.76-1.75-3.33-2.46-5-.33-.8-.63-1.62-.92-2.45a1.83,1.83,0,0,0,.87,0,7.16,7.16,0,0,0,1.53.58,24.82,24.82,0,0,0,4,1.23c.63,0,.15-.55.47-.92,0,1.39,0,2.79-.14,4.16-.19,2.14-1.33,8,.54,10.38.62,1.68,2.89,1.84,4.32,1.23A5.52,5.52,0,0,0,114.56,78a.55.55,0,0,0,0-.38c1.25-2.86,1.45-6.07,2-9.09.48-2.75,1.42-5.38,2.11-8.09,0,0,0-.05,0-.07a1.69,1.69,0,0,0,.43-2c.31.68.54-.64.74-1.06s.61-1.13.92-1.7c.78-1.46,1.62-2.88,2.43-4.32a6.87,6.87,0,0,1,2.44-3c1-.62,2-1.23,2.93-1.95a16.93,16.93,0,0,0,4.9-5.14c1.14-2,1.67-4.2,2.56-6.27l.21-.17c.17-.29.34-.57.5-.87a2.93,2.93,0,0,1,.21-.38,21.45,21.45,0,0,1,1.92-3,20.11,20.11,0,0,1,4.78-3.81c2.25-1.53,4.52-3,6.82-4.49.81-.51,1.93-.9,2.95-1.41C152.37,19.44,151.26,18.17,150.07,17Z" style="fill:#fff"/><path d="M102.85,109.72a9.41,9.41,0,0,0-.66-2.22s.21-.36.21-.39c.06-.59-.62-1-1.27-1h-.55a6.34,6.34,0,0,0-3-.07,1.18,1.18,0,0,0-.82,1.73h0l-.09.14a1.63,1.63,0,0,0-.11.17,2.53,2.53,0,0,0-.24.53.56.56,0,0,0,0,.12l0,0a1.1,1.1,0,0,0-.16,1A1,1,0,0,0,96,110c-.27,1.41.56,2.56,0,4a8.76,8.76,0,0,0-.42,4.34c.2,1.92-.67,3.59-1,5.42-.15,1,0,2-.24,3-.18.85-.38,1.68-.48,2.54-.26,2.06,0,7.15,3.41,6.18,1-.3,1.24-1.6,1.66-2.58.6-1.39,1-3,1.43-4.49a5.91,5.91,0,0,0,.05-1.83,9,9,0,0,1,.4-1.87c.34-1.42.1-2.89.38-4.37.19-1,.47-2,.6-3.06s-.07-2.17,0-3.24C102.15,112.45,103.18,111.31,102.85,109.72Z" style="fill:#fff"/><path d="M97,76.89l-.4.16a1.11,1.11,0,0,0-1.16.88.45.45,0,0,0-.12.31C95,79.48,98,81.67,98.79,82.07c3,1.56,6.38,2.11,9.37.56,0,0,.08,0,.12,0l.12,0c.08-.08.2-.12.28-.2a1.12,1.12,0,0,0,.28-.16,2.86,2.86,0,0,0,.63-.52,5.2,5.2,0,0,0,3.83-1.83l.24.24a16.77,16.77,0,0,1,1.12,1.75.45.45,0,0,1,0,.2h0a22.39,22.39,0,0,1-.12,6.64,48.55,48.55,0,0,1-1.88,7.81c-.67,2.4-1.95,4.43-2.83,6.74a.31.31,0,0,0,0,.32,10,10,0,0,1-2,2.11,9.6,9.6,0,0,1-3.35,1.56,3.06,3.06,0,0,1-2.11-.36,3.42,3.42,0,0,0-1.76-.8,4.28,4.28,0,0,0-2.71-.32c-.71,0-1.39.2-1.51,1v.1s0,0,0,.07a20.88,20.88,0,0,1-3.31-1.39.24.24,0,0,0-.16-.2c-.64-.4-1.23-.76-1.79-1.16A7.47,7.47,0,0,1,90,102.64a8.75,8.75,0,0,1-1.19-2.71,44.89,44.89,0,0,0-.08-6.86c.12-1.27.28-2.51.32-3.78a44.65,44.65,0,0,0,.59-4.75,36.77,36.77,0,0,1,.44-4.06c.12-.52.48-1.08.64-1.6a7.68,7.68,0,0,1,2.31-2.23,14.4,14.4,0,0,1,3.39-1.36c.07.25,9-.07,9.06.17v2s-8.1-.76-8.29-.6-.15.16-.15.16l-.06-.1" style="fill:#a7abad"/><path d="M110.58,81.29a6.47,6.47,0,0,1-.88.15h-.09l0,.08a2.36,2.36,0,0,1-.74.7,9,9,0,0,1-7.09.89,10.92,10.92,0,0,1-3-1.45c-.85-.59-3.09-2.52-2.84-3.49.15-.53.79-.6,1.25-.62a17.77,17.77,0,0,1,2.52.16l2.62.26a27.71,27.71,0,0,1,3.16.31c.63.14.72-.86.1-1a26.36,26.36,0,0,0-2.79-.28c-1-.12-2.1-.2-3.16-.26l-1.45-.07a10.33,10.33,0,0,0-1.47-.06,2.48,2.48,0,0,0-1.72.87,1.7,1.7,0,0,0-.28,1.35c.19,1.18,1.42,2.11,2.31,2.79l.19.15a11.37,11.37,0,0,0,7,2.67,9.67,9.67,0,0,0,3.24-.54,8.1,8.1,0,0,0,3.32-2.31l.32-.46Z" style="fill:#444"/><path d="M96.29,106.25c-3.27-.76-5.94-2.51-6.74-5.94a28.56,28.56,0,0,1-.12-8.61c.24-3.07.48-6.14.76-9.21.36-3.58,2.23-6.29,5.9-6.93.4-.08.24-.68-.16-.6A7.23,7.23,0,0,0,90,80a21.63,21.63,0,0,0-.6,5.07c-.16,2.23-.44,4.42-.59,6.65-.28,3.27-.68,7,.55,10.13,1.16,2.87,3.87,4.34,6.74,5,.41,0,.56-.56.16-.64Z" style="fill:#5c5a5c"/><path d="M113.63,79.5a2.25,2.25,0,0,1-.4.52,5.65,5.65,0,0,1,1.44,3.51,25.27,25.27,0,0,1-.52,6.66,59.15,59.15,0,0,1-3.31,11c-1.28,3.11-3.67,6.34-7.38,6.18-.39,0-.39.6,0,.64,3.43.16,5.86-2.36,7.34-5.23A46,46,0,0,0,115,89c.48-3.39.84-7-1.39-9.49Z" style="fill:#5c5a5c"/><path d="M114,79.19l-.22.19c2.25,2.45,1.95,6.11,1.45,9.66A46.59,46.59,0,0,1,111,102.85c-1,2-3.34,5.32-7.21,5.32l-.8,0a.56.56,0,0,1-.41-.37c-.08-.18.11-.47.22-.63s.53-.09.69-.07c4,.17,6.22-3.72,7.18-6A59.59,59.59,0,0,0,114,90.15a24.75,24.75,0,0,0,.52-6.6,5.51,5.51,0,0,0-1.38-3.38L113,80l.14-.13" style="fill:#444"/><path d="M97.49,106.71c0-.92,2.14-.44,2.58-.4a3.08,3.08,0,0,1,2.47,1.53c.18.27.62.14.79-.07s-.08-.66-.25-.9a2.86,2.86,0,0,0-.42-.5,2.68,2.68,0,0,0-1-.59,10.45,10.45,0,0,0-2.22-.33c-1-.12-2.9-.7-2.9.89" style="fill:#444"/><path d="M102.67,108a3.73,3.73,0,0,1,.16-1,.31.31,0,0,0-.24-.36.3.3,0,0,0-.36.19h0a3.29,3.29,0,0,0-.16,1.08,2.47,2.47,0,0,1,.6.08Z" style="fill:#5c5a5c"/><path d="M103.86,87.86a22.21,22.21,0,0,0-6.41,0,8.38,8.38,0,0,0-3.7,1.31,2.67,2.67,0,0,0-1.14,3.06c.46,1.09,1.85,1.69,3.12,2.11a27.16,27.16,0,0,0,11,1,6.11,6.11,0,0,0,2.87-.91,2.65,2.65,0,0,0,.63-3.38A5.74,5.74,0,0,0,107,88.71a9.92,9.92,0,0,0-3.16-.85" style="fill:#fb0"/><path d="M152.47,21.11a4.61,4.61,0,0,0,.55-.44,1.32,1.32,0,0,0,.22-.26l-.14-.29A3.81,3.81,0,0,0,151.84,19a4,4,0,0,0-1.75-.61,5.88,5.88,0,0,0-3.4,1.07,40,40,0,0,0-4.3,2.85,25.19,25.19,0,0,0-5.27,5.54c-1.67,2.4-3.46,5.19-2.11,8.14a2.84,2.84,0,0,0,.33.56c.06-.12.11-.24.14-.32.15-.39.27-.78.43-1.16a8.43,8.43,0,0,1,1-1.84,8.88,8.88,0,0,1,2-2.76,14.21,14.21,0,0,1,4.53-3.53c1.28-.95,2.61-1.84,3.93-2.79a28,28,0,0,1,3.13-2c.51-.27,1-.58,1.51-.82Z" style="fill:#e6e7e7"/><path d="M109.44,58.33a19.23,19.23,0,0,0-1.37-7,10.1,10.1,0,0,0-4.76-5.23,8.55,8.55,0,0,0-5-.68,6.5,6.5,0,0,0-3.42,1.54A7.61,7.61,0,0,0,93,50.33a19.44,19.44,0,0,0,.43,11.49,29.91,29.91,0,0,0,.83,3.42c.19.42.25,1.15.6,1.45.75.66,2.49-.09,3.3-.67a5.51,5.51,0,0,0,1.5-1.21c.24-.36.34-.84.66-1.13s.91-.39,1.32-.61A2.51,2.51,0,0,0,102.76,61a7.93,7.93,0,0,0-.29-2.26,10.6,10.6,0,0,1-.31-2.21,8.41,8.41,0,0,1,0-3,1.6,1.6,0,0,1,1.61-1.28c1,.2,1.4,1.9,1.7,2.75a18.9,18.9,0,0,1,.92,7.37,27.14,27.14,0,0,1-.06,3.49c-.27,3-1.34,6.49-.71,9.49a.66.66,0,0,1,0,.14,4.11,4.11,0,0,1,.17.6c.1.52,0,1.18.12,1.69a10.92,10.92,0,0,0,.53,1.65,2.54,2.54,0,0,0,.16.28c0,.16.2.26.5,0,.12-.08.13-.51.15-.63.07-.48.12-1,.18-1.45.25-2.15.46-4.31.8-6.45.08-.47.15-.93.22-1.4.14-.94.28-1.88.4-2.82.25-1.87.45-3.76.53-5.65C109.46,60.37,109.47,59.35,109.44,58.33Z" style="fill:#e6e7e7"/><path d="M122.36,155.91c-1.51-1.67-4.09-.91-6-.63-.82.12-1.67.33-2.49.45a3.33,3.33,0,0,0-.54,0c-.77.1,0,0,0-.34,1.33-.83,2.87-1.54,4.13-2.46,1.42-1,4-3.12,2.8-5a4.21,4.21,0,0,0-4-2c-1.84.08-3.61,1.73-5.19,2.65a16.82,16.82,0,0,0-3.17,2c-.12,0-.55.36-.67.43-4.74,2.69-10,3.68-15.35,4.36-5.72.73-11.29-.56-17-.59-.51-.09-.9-.21-1.4-.31-1.62-.35-3.05-.67-4.61-1.12s-2.35-.72-3.76-1.19a22.5,22.5,0,0,1-3.87-1.77,1.94,1.94,0,0,1-.81-.62,3.22,3.22,0,0,1-.54-.63c-.1-.06-.15-.1-.17-.38a1.43,1.43,0,0,1-.09-.27c0-.07,0-.15,0-.22-1.24-4,4.78-7.16,7.71-8.34h.06a37.72,37.72,0,0,0,4.58-2.78,8.33,8.33,0,0,0,1-.76,9.52,9.52,0,0,0,1.95-3.13c.49-1.33,1-3.64-.63-4.39a3.38,3.38,0,0,0-1.91-.2c-3.68.7-5.29,1.71-9,2.78-3.43,1-8.28,2.74-11.61,4-3.65,1.4-7.07,2.62-10.59,4.34a25.33,25.33,0,0,0-8.3,5.86,5.31,5.31,0,0,0-.44.4c-5.22,3.94-7.9,9.14-11.1,13.8-1.32,1.92-2.9,2.06-4.14,4s-3,4.36-4.26,6.42c-1.45,2.31-2.68,3.92-4.16,6.2-.68,1-1.65,2.3-2.23,3.39a37.88,37.88,0,0,0-2.2,3.76c-1,2.45,3,4.67,5.07,5.49,2.78,1.08,5.63,1,8.57.91,1,0,2.08-.13,3.1-.27a23.7,23.7,0,0,0,3.45-.7,14.41,14.41,0,0,0,3.21-1.3,9,9,0,0,0,1.09-.73c.19-.15.39-.29.57-.45a2,2,0,0,0,.41-.58c.33-.66.49-1.38.76-2.06a17,17,0,0,1,1-2,3.87,3.87,0,0,1,.27-.43,20.25,20.25,0,0,1,2.8-3.26A16.55,16.55,0,0,1,37.86,176s0,0,0,0l.46-.23a26,26,0,0,1,10.8-3.53,8.45,8.45,0,0,1,2.24-.29,80.59,80.59,0,0,1,10.54.15,46.92,46.92,0,0,0,9.84.16,4.36,4.36,0,0,1,.51,0c.82-.1,1.68,0,2.5-.14s1.81-.25,2.72-.36l.26,0,.74-.07c.73-.1,1.47-.32,2.19-.48l2.24-.51q2.24-.51,4.47-1.05c1.44-.35,2.88-.69,4.29-1.14,2.88-.91,5.72-1.91,8.63-2.71,1.39-.39,2.79-.74,4.17-1.14s2.93-.85,4.39-1.3,2.81-.86,4.2-1.33c1.57-.53,3.19-.92,4.78-1.44s3.55-.68,4.6-2.1A2,2,0,0,0,122.36,155.91Z" style="fill:#fff"/><path d="M41.8,174.12a47.16,47.16,0,0,1,9.67-2q-.34-.09-.69-.15c-7.1-1.2-14.87-.68-20.65,4.1a17.68,17.68,0,0,0-3.93,4.73,10.77,10.77,0,0,0-1.57,3.92c-.14,1.07,0,3.12,1.36,3.33a2.91,2.91,0,0,0,1.37-.12,4.76,4.76,0,0,0,2.49-2.1c.23-.47.41-1,.6-1.45A11.5,11.5,0,0,1,31.57,182c.55-.81,1.19-1.57,1.78-2.36a9.13,9.13,0,0,1,1-1.13,15.2,15.2,0,0,1,2.61-2,23.67,23.67,0,0,1,4.73-2.14A.19.19,0,0,1,41.8,174.12Z" style="fill:#e6e7e7"/><path d="M73.67,132a27.13,27.13,0,0,1-7.73,6c-1.65.78-3.27,1.64-4.88,2.51s-3.14,1.45-4.22,2.83A6.58,6.58,0,0,0,55.12,146a8.61,8.61,0,0,0-.26,5.19c.73,2.31,3,3.31,5.21,3.62a23.08,23.08,0,0,0,4.82.45c1.36-.09,2.89,0,4.24-.16a3.13,3.13,0,0,0,1.07-.39s.48-.55.54-.63-.81-.32-.9-.43a24.59,24.59,0,0,1-3.4-.88,21.4,21.4,0,0,1-2.95-1.19,9.17,9.17,0,0,1-3.15-2.13c-1.35-1.31-1.59-2.62-.67-4.09,0-.08.08-.12.16-.12a11.5,11.5,0,0,1,5.67-4.47c.12-.08,1.49-.62,1.61-.7l3.2-1.84c3.4-2.16,3.74-3,4.9-5.19C75.46,131.62,74.5,131,73.67,132Z" style="fill:#e6e7e7"/><path d="M74.58,130.56c-.29.25-1.22.89-1.54,1.09s-.75.42-1.13.61a6,6,0,0,1-2.48.72,1.46,1.46,0,0,1-1.09-.41A1.49,1.49,0,0,1,68,132a5.72,5.72,0,0,1-.12-1.43c0-.28,0-.13-.32-.25h0a.56.56,0,0,0-.74.3.14.14,0,0,1,0,.06,3,3,0,0,0,.68,2.87,2.71,2.71,0,0,0,2.15.56,8.72,8.72,0,0,0,2.64-.73,13.78,13.78,0,0,0,1.47-.78,7.28,7.28,0,0,0,1.83-1.44.72.72,0,0,0,.08-.88C75.17,129.49,74.92,130.27,74.58,130.56Z" style="fill:#5d5a5c"/><path d="M113.88,154.3a7.73,7.73,0,0,1-.64.49l-.67.49a8.87,8.87,0,0,1-1.36.81c-.48.22-1,.4-1.47.6s-1,.45-1.55.67-1,.44-1.58.65l-1.61.59-1.62.56-1.62.5c-.55.17-1.09.32-1.64.47l-1.65.42-.36.09-.56.14-.88.22-.21.06-1.55.39-1.59.4-1.61.38q-.81.2-1.62.36c-.54.12-1.07.23-1.61.33l-1.62.29-1.62.23c-.54.07-1.07.13-1.61.18s-1.08.08-1.62.11-.91,0-1.07.44a.63.63,0,0,0,.11.62.77.77,0,0,0,.66.16c.54,0,1.08,0,1.62-.09s1.08-.09,1.61-.16,1.09-.14,1.63-.22,1.08-.17,1.62-.27l1.62-.32,1.62-.35,1.6-.38,1.61-.4,1.59-.4.73-.19.46-.12.73-.19.18,0,1.5-.39,1.49-.41,1.45-.43,1.41-.44,1.36-.47,1.33-.48,1.28-.5,1.24-.52,1.2-.54,1.17-.56,1.13-.58a1.6,1.6,0,0,1,.3-.13l.4-.09.79-.18c.54-.1,1.07-.2,1.61-.28s1.07-.15,1.62-.21l1-.08,1-.05a6.39,6.39,0,0,1,1.45,0,1.9,1.9,0,0,1,1.18.64,1.17,1.17,0,0,1,.15,1.23,2.51,2.51,0,0,1-1,1,8.08,8.08,0,0,1-1.39.67c-.5.19-1,.32-1.54.48l-1.6.49-1.59.49-1.59.48-1.57.47-1.57.47-1.56.47-1.55.47-1.6.48-1.59.49-1.6.49-1.57.48-1.55.48-1.56.49-1.57.48-1.59.48-1.58.47-1.58.47-1.6.46-1.59.45-1.6.44-1.6.42c-.52.14-1,.29-1.57.42l-1.58.38-1.58.35-1.6.3c-.53.1-1.06.19-1.6.27l-1.61.23c-.53.07-1.07.14-1.61.19s-1.08.1-1.63.14-1.09.06-1.64.07l-1.64,0q-.82,0-1.65,0l-1.64,0-1.63,0-1.62,0-.62,0-.82,0-1.32,0-1.37,0-1.39,0H55.73l-1.45,0-1.46.05-1.48.09-1.49.14c-.5.05-1,.11-1.49.19s-1,.15-1.49.24-1,.19-1.48.3-1,.24-1.47.38-1,.28-1.45.45-.88.31-1.31.49-.84.35-1.25.54-.8.39-1.19.6-.77.44-1.15.67-.73.46-1.09.71-.7.5-1,.77-.66.53-1,.81-.63.56-.92.85-.58.59-.86.89-.53.61-.79.93-.49.63-.72,1-.44.65-.65,1-.39.67-.57,1-.35.68-.5,1a8.48,8.48,0,0,0-.39,1c-.08.27-.21.8.25.74a.77.77,0,0,0,.49-.33,3.64,3.64,0,0,0,.43-.6c.12-.23.22-.47.34-.7l.4-.68c.26-.42.48-.86.73-1.28s.5-.8.77-1.18.57-.74.88-1.1.63-.69,1-1,.69-.64,1-.94l.92-.77c.32-.25.64-.49,1-.71s.71-.46,1.07-.67.76-.42,1.16-.62.81-.39,1.23-.56.86-.36,1.3-.52.91-.31,1.38-.45.94-.27,1.42-.39,1-.23,1.47-.33,1-.21,1.56-.29,1.06-.17,1.59-.23,1.06-.12,1.6-.16,1.07-.08,1.6-.11l1.61-.06,1.61,0h1.61l1.61,0,1.59.05,1.6.06,1.64.06,1.65.05,1.66,0c.55,0,1.11,0,1.66,0l1.66,0c.53,0,1.06,0,1.6-.08l1.6-.12,1.58-.17,1.59-.22,1.57-.26,1.57-.29,1.56-.33,1.55-.35,1.55-.38,1.53-.41c.52-.13,1-.27,1.54-.42l1.52-.43,1.52-.44,1.51-.45,1.51-.46.79-.24,1-.31,1.59-.48,1.61-.48,1.59-.48,1.61-.48,1.58-.47,1.56-.46,1.56-.47,1.56-.46,1.58-.48,1.57-.47,1.59-.48,1.57-.48,1.58-.49,1.57-.49,1.57-.49a12.21,12.21,0,0,0,1.2-.43,7,7,0,0,0,1.09-.57,5.46,5.46,0,0,0,1-.75,3.34,3.34,0,0,0,.68-.9,2.32,2.32,0,0,0,.24-1.27,2.54,2.54,0,0,0-.49-1.23,2.25,2.25,0,0,0-.82-.68,3.15,3.15,0,0,0-1-.28,6.34,6.34,0,0,0-1.07-.05l-1,0c-.55,0-1.09.07-1.63.13s-1.09.13-1.63.21-.9.17-1.36.25c.6-.33,1.22-.62,1.81-1a17,17,0,0,0,1.77-1.12,9.52,9.52,0,0,0,1.5-1.33,4.92,4.92,0,0,0,1-1.55,2.9,2.9,0,0,0-.06-2.29,3.66,3.66,0,0,0-1.44-1.48,4.69,4.69,0,0,0-2.1-.61,6.59,6.59,0,0,0-2.3.25,11.86,11.86,0,0,0-2.28.93c-.77.41-1.51.87-2.23,1.35s-1.45,1-2.19,1.42-1.41.85-2.14,1.25-1.4.74-2.12,1.07-1.44.61-2.18.86-1.46.46-2.2.64-1.21.28-1.82.4-1.26.24-1.89.34-1.3.18-2,.26-1.36.14-2,.19l-2.13.12c-.74,0-1.47,0-2.21.05s-1.53,0-2.3,0-1.61,0-2.41-.09l-2.52-.16-2.62-.23c-.9-.09-1.79-.19-2.68-.31s-1.78-.28-2.66-.45-1.76-.39-2.63-.57c-.44-.1-.86-.21-1.28-.34s-.82-.31-1.24-.45c-.83-.27-1.65-.59-2.46-.93-.5-.21-1-.4-1.51-.63a7.76,7.76,0,0,1-2-1.25,3,3,0,0,1-.94-1.48,3,3,0,0,1,.17-1.76,5.74,5.74,0,0,1,1.21-1.86c.26-.28.54-.53.82-.79s.58-.51.88-.74a11,11,0,0,1,2-1.17c.31-.14.64-.24.95-.37l.4-.2,1.08-.53c.7-.35,1.4-.7,2.08-1.08a23.09,23.09,0,0,0,2-1.24,13.44,13.44,0,0,0,1.83-1.54,10.28,10.28,0,0,0,.92-1.06,9.56,9.56,0,0,0,1-1.56,6.18,6.18,0,0,0,.58-1.92,5.14,5.14,0,0,0-.21-2.13,2.76,2.76,0,0,0-1.3-1.57,3.57,3.57,0,0,0-2.19-.21,15.41,15.41,0,0,0-2.48.67l-2.6.87-2.62.86-2.6.86-2.61.87-2.43.8-2.12.71-2.15.73-2.16.77-2.18.82c-.73.28-1.46.57-2.18.87s-1.45.62-2.17,1-1.43.66-2.14,1-1.41.72-2.1,1.1-1.38.78-2,1.2-1.34.85-2,1.3-1.3.94-1.94,1.44-1.26,1-1.87,1.56-1.2,1.09-1.78,1.66-1.14,1.16-1.69,1.76-1.07,1.22-1.59,1.85-1,1.32-1.51,2-1,1.45-1.43,2.21-.88,1.5-1.35,2.23-1,1.41-1.5,2.09a7.19,7.19,0,0,1-.83.92,10.43,10.43,0,0,1-1,.8,17.25,17.25,0,0,0-1.88,1.64,18.88,18.88,0,0,0-1.59,2c-.42.61-.82,1.24-1.22,1.86s-1,1.53-1.48,2.3-.95,1.5-1.42,2.26l-1.41,2.26-1.4,2.3c-.47.77-.94,1.54-1.4,2.32s-.94,1.56-1.4,2.35-.93,1.57-1.39,2.35l-.34.59a.72.72,0,0,0-.12.47.62.62,0,0,0,.66.52c.35-.05.48-.41.64-.68l.55-.95c.39-.67.78-1.34,1.18-2s.85-1.44,1.28-2.16.89-1.5,1.35-2.25.93-1.54,1.4-2.31l1.44-2.32,1.47-2.31,1.46-2.29c.2-.32.4-.66.63-1a2.62,2.62,0,0,1,.22-.25q.19-.24.36-.48c.22-.33.42-.68.65-1a8.92,8.92,0,0,1,1.5-1.57c.56-.48,1.14-.93,1.69-1.42a12.28,12.28,0,0,0,1.55-1.75c.52-.69,1-1.41,1.44-2.14s.86-1.43,1.31-2.14.92-1.38,1.41-2,1-1.33,1.52-2,1.06-1.26,1.62-1.88,1.05-1.11,1.6-1.64,1-.92,1.49-1.36,1.05-.89,1.59-1.31,1.11-.85,1.68-1.25,1.17-.81,1.77-1.19,1.23-.78,1.86-1.14,1.31-.74,2-1.09,1.37-.71,2.07-1,1.44-.67,2.17-1,1.52-.64,2.28-.94,1.63-.63,2.46-.93l2.53-.92,2.53-.88,2.54-.86,2.54-.84,2.54-.82,2.52-.81,2.61-.84,2.61-.86a7.42,7.42,0,0,1,1.91-.42,1.91,1.91,0,0,1,1.53.54,2.76,2.76,0,0,1,.5,2.18,6,6,0,0,1-.67,1.92,8.34,8.34,0,0,1-1.25,1.71A11.57,11.57,0,0,1,71,137.13c-.71.48-1.43.92-2.18,1.34s-1.51.78-2.29,1.14-1.56.77-2.32,1.2A19,19,0,0,0,62.28,142,12.41,12.41,0,0,0,61,143.09a9.16,9.16,0,0,0-1.21,1.43,5.46,5.46,0,0,0-.78,1.72,4,4,0,0,0,0,1.89,3.69,3.69,0,0,0,.76,1.47A6.52,6.52,0,0,0,61,150.75a11.59,11.59,0,0,0,1.58.88c.52.25,1,.46,1.59.68l1.29.5c.79.29,1.59.56,2.4.8s1.61.45,2.43.64,1.63.36,2.45.5,1.63.27,2.45.38,1.62.19,2.44.26,1.61.13,2.42.18,1.58.08,2.36.11l2.31,0H87c.76,0,1.52,0,2.28,0s1.57,0,2.35-.09,1.58-.1,2.37-.18,1.6-.19,2.39-.31,1.6-.27,2.4-.45,1.6-.38,2.39-.61,1.57-.51,2.33-.81a20.63,20.63,0,0,0,2.29-1.05c.76-.39,1.5-.82,2.22-1.28s1.42-1,2.14-1.45,1.47-.94,2.23-1.36a13.42,13.42,0,0,1,2.31-1.07,6.27,6.27,0,0,1,2-.37,3.39,3.39,0,0,1,1.44.27c-.32.13-.65.23-1,.37s-.64.28-1,.43a10.4,10.4,0,0,0-1.73,1.11,3.3,3.3,0,0,0-1,1.54,3.22,3.22,0,0,0,0,1.92,2.44,2.44,0,0,0,.54.88,2.25,2.25,0,0,0,.37.31c.12.07.17.15.1.29a1,1,0,0,1-.31.29m.27-2.46A1.91,1.91,0,0,1,115,150a6.42,6.42,0,0,1,1.79-1.21,19.16,19.16,0,0,1,1.92-.83c.2-.08.45-.26.67-.12a.76.76,0,0,1,.27.57,3.34,3.34,0,0,1-1.28,2.46,15.51,15.51,0,0,1-2,1.56,2.1,2.1,0,0,1-.69.37.68.68,0,0,1-.49-.15,2.08,2.08,0,0,1-.38-.3A1.7,1.7,0,0,1,114.39,151.64Z" style="fill:#444"/><path d="M121.92,155.83l-.38.15a20.2,20.2,0,0,1-2.16.71,3.55,3.55,0,0,0-1.47.72,1.8,1.8,0,0,0-.11,2.37c.07.07.09.12.16.18.36.31.72-.13.85-.47a3,3,0,0,0-.19-.33,1.37,1.37,0,0,1-.09-.4.85.85,0,0,1,.41-.68,3.57,3.57,0,0,1,1.28-.46,11.19,11.19,0,0,0,1.45-.48l.61-.25c.17-.07.39-.13.48-.31a.5.5,0,0,0,0-.43A.63.63,0,0,0,121.92,155.83Z" style="fill:#5d5a5c"/><path d="M136.55,8a5.5,5.5,0,0,0-1.28.69c-.76.45-1.52.88-2.3,1.31-1.54.84-3.1,1.63-4.67,2.42-7.38,3.7-14.79,7.37-22.2,11.08-3.79,1.87-7.58,3.79-11.33,5.66a54.76,54.76,0,0,0-9,5.14,9.2,9.2,0,0,0-2.67,2.75c-.8,1.44-.64,3.19-.64,4.75-.08,4.26-.12,8.49-.2,12.75,0,4-.08,7.85,2,11.44,2.27,4,4.94,7.77,7.42,11.64a.59.59,0,0,0,.51.29,2.74,2.74,0,0,1,.65-.62.65.65,0,0,0-.09-.19c-2.07-3.27-4.18-6.49-6.26-9.76a18.11,18.11,0,0,1-2.55-5.34,24.2,24.2,0,0,1-.44-5.82c0-4.07.12-8.18.2-12.24a24.49,24.49,0,0,1,.24-5.42c.52-2,2.67-3.35,4.31-4.43a103.44,103.44,0,0,1,10-5.26c3.55-1.75,7.1-3.55,10.65-5.3C115.9,20,123,16.56,130,13c1.36-.7,2.71-1.41,4-2.15l2-1.12,1-.64a3.73,3.73,0,0,0,.7-.4c.36-.34,0-.44-.36-.58A1.29,1.29,0,0,0,136.55,8Z" style="fill:#444"/><path d="M101.57,75a1.12,1.12,0,0,0,.84,0,.53.53,0,0,0,.3-.36A21.9,21.9,0,0,1,101,72.51a20.26,20.26,0,0,1-3.62-6.93,10.92,10.92,0,0,1-.48-1.76,74.28,74.28,0,0,1-1.35-8.14.59.59,0,0,0-.06-.14.55.55,0,0,0-.85-.25.93.93,0,0,0-.3.47v.1c0,.35.08.69.13,1L94.7,59c.2,1.39.43,2.77.73,4.13a30.38,30.38,0,0,0,1.12,4,22.06,22.06,0,0,0,1.71,3.73,18.54,18.54,0,0,0,1.15,1.73c.21.28.43.56.66.82s.5.52.72.8A7.76,7.76,0,0,0,101.57,75Z" style="fill:#444"/><path d="M153.47,20.71a.66.66,0,0,0-.31-.61c-.54-.37-1.15.29-1.59.58l-2,1.36c-1.35.91-2.69,1.83-4,2.73a48.25,48.25,0,0,0-6.94,5c-3.58,3.35-4,8.17-6.34,12.23-1.31,2.28-3.34,3.59-5.42,5.07a18.83,18.83,0,0,0-5.14,5.38c-2.35,3.86-3.47,8.33-4.46,12.67-.72,3-1.4,6-2.12,9-.14.61-.27,1.22-.45,1.82a27,27,0,0,1-.61,2.66V75.46a7.3,7.3,0,0,0-.08-2.14c-.54-1.66-2.82-1.07-4.11-1.07-1.79,0-2.19.42-2.51,2.17-.27,1.46-.6,3-.74,4.5a8.19,8.19,0,0,1-.41-3.11c0-.58.18-1.15.2-1.72q0-1.25.15-2.49c.14-1.66.35-3.31.51-5,.44-4.51.44-9.21-1.59-13.35-1.6-3.23-4.63-6.14-8.41-6.22-5-.08-6,5-5.7,8.93a47.22,47.22,0,0,0,5.22,18.13l.06.09a5.77,5.77,0,0,0,.27.56l.07.13a1.09,1.09,0,0,0,.84.16A.66.66,0,0,0,98,75a.47.47,0,0,0,.17-.38l0,0s0,0,0,0-.11-.21-.16-.31a3.88,3.88,0,0,1-.28-.58.67.67,0,0,0-.09-.14,47.54,47.54,0,0,1-4.92-16.29c-.28-2.35-.56-5.34,1-7.37,2-2.75,6-1.52,8.13.36,3.35,2.91,4.39,7.61,4.39,11.91h-.08c-3.32.29-3.37-4.73-3.22-8.06-.06-.31-.09-.64-.16-1a1,1,0,0,0-.41-.47.55.55,0,0,0-.57.14c-.22,3.86-.69,10.82,4.4,10.52v.2c0,.42,0,.84-.07,1.26s0,.55-.07.83c0,.09,0,.54-.12.57a.11.11,0,0,1-.08,0c-.38-.1-.74-.24-1.13-.34s-.92-.25-1.38-.39q-1.36-.42-2.7-.93c-.79-3-.59-6.18-1.75-9.09-.28-.72-1.35-.2-1.08.52,1.28,3.19.92,6.77,2.08,10A44.25,44.25,0,0,0,104,74.05c.28.46.72.69,1,1.09s.25,1.36.3,2a18.82,18.82,0,0,0,.3,2.13c.71,3.18,4.1,4.06,6.77,2.51,3.75-2.2,4.15-8.06,5-11.8,1.11-4.83,2-9.85,4.06-14.43a18.06,18.06,0,0,1,4.19-6.06c1.87-1.72,4.22-2.83,6-4.67,3.5-3.62,3.54-9,6.57-12.91,2-2.47,4.95-4.11,7.54-5.86l4-2.7L151.79,22l1-.68c.19-.12.46-.19.6-.38A.52.52,0,0,0,153.47,20.71ZM105.59,68.12c-.06.57-.13,1.15-.2,1.72-.14,1.15-.26,2.3-.33,3.46,0,.19,0,.39,0,.58A42.26,42.26,0,0,1,100.93,66a33.92,33.92,0,0,0,3.95,1.2c.18,0,.6,0,.74.19S105.61,67.94,105.59,68.12Zm7.31,11.95a.32.32,0,0,1-.08.09l-.12.09a1.13,1.13,0,0,0-.19.14c-.15.1-.3.2-.46.29a5.19,5.19,0,0,1-1,.47,3.89,3.89,0,0,1-2,.22,2.59,2.59,0,0,1-.81-.32,3.6,3.6,0,0,1-.4-.28l-.08-.06a.66.66,0,0,1-.24-.33,1.68,1.68,0,0,1,0-.67c.18-.89.5-1.75.62-2.66.1-.72.18-1.41.32-2.13.05-.25.06-.52.12-.76.19-.8.37-.72,1.15-.72.62,0,1.24,0,1.85-.06,1.06,0,1.28.32,1.27,1.28s0,1.8.06,2.76a13.38,13.38,0,0,0,0,1.4A3.28,3.28,0,0,1,112.9,80.07Z" style="fill:#444"/><path d="M98.86,108.05a.38.38,0,0,0-.11.55.79.79,0,0,0,.71.27c.28,0,.78,0,.93-.29.28-.5-.54-.66-.86-.68A1.09,1.09,0,0,0,98.86,108.05Z" style="fill:#5d5a5c"/><path d="M103.11,117.44a3,3,0,0,0-.44-1.12c-.56-1.12-.68-1.63.2-2.59a3.35,3.35,0,0,0,1.27-2.27,6.47,6.47,0,0,0-1-2.55,2.36,2.36,0,0,1-.16-.66c0-.23,0-.46,0-.7a1.05,1.05,0,0,0-.33-.69l-.16-.1a.34.34,0,0,1-.09-.08l-.22-.07a2.42,2.42,0,0,0-.29,2.24,13.2,13.2,0,0,0,.6,1.33c.8,1.8-.12,2.15-1.12,3.31a2.33,2.33,0,0,0-.76,1.71c.08,1.32,1.48,1.6.76,3.27-.28.68-1,1.16-1.11,2s1.31,2.87.59,3.58c-.43.44-1.07.12-1.39.92-.44,1.08,2.15,4.43-.32,4.62a.61.61,0,0,0-.49.69.88.88,0,0,0,.05.15,2.9,2.9,0,0,1,.26,2.05.61.61,0,0,1,0,.23,6.84,6.84,0,0,1-.51,1.22c-.19.32-.57.87-1,.88h-.09a.49.49,0,0,1-.39-.51v-.1a219.32,219.32,0,0,0,2.94-23.78c0-.76-1.16-.88-1.2-.12-.08,1.61-.21,3.21-.35,4.82s-.32,3.22-.52,4.82-.4,3.21-.63,4.81-.47,3.21-.72,4.81c-.11.73-.22,1.47-.34,2.2q-.12.75-.21,1.5l-.09.75a.58.58,0,0,1-.23.49c-.4.23-.64-.19-.75-.52a2.07,2.07,0,0,1,0-1.41,3.61,3.61,0,0,0,.15-.65,3,3,0,0,0,0-1.12,2.62,2.62,0,0,0-.34-.64,1.72,1.72,0,0,1-.18-.78,3.21,3.21,0,0,1,.19-1.3c.19-.52.55-1,.71-1.51.4-1.52-.4-2.79-.12-4.23.24-1.16.56-1.08,1-1.87a1.88,1.88,0,0,0,.32-1c0-1.47-1.8-2.19-.72-3.75.48-.71,1.24-1.11,1.48-2,.28-1.24-.6-1.83-1-2.83-.64-1.55,1-2.55,1.16-4a.6.6,0,0,0-1.2-.12c-.16,1.24-1.44,1.88-1.52,3.15s1,1.76,1.32,2.79c.48,1.52-1.39,2.2-1.87,3.39a2.33,2.33,0,0,0,.32,2.11c.55.88.75,1.36.08,2.32-.24.32-.6.51-.8.87-.68,1.28.2,2.24.4,3.51.32,1.91-1.64,3-1.48,4.71a7.64,7.64,0,0,0,.66,1.84,2.28,2.28,0,0,1,0,1.32,3.41,3.41,0,0,0,.85,2.52,4.49,4.49,0,0,0,1,1.09,2.13,2.13,0,0,0,2.7,0c1.56-1.19,2.75-3.71,2.16-5.66a2.27,2.27,0,0,0,1.27-1.31,2.94,2.94,0,0,0,0-1.76c-.16-.64-.76-1.39-.52-2s1.32-.56,1.6-1.48c.48-1.51-1.28-2.79-.56-4.38C102.39,118.93,103.15,118.45,103.11,117.44Z" style="fill:#444"/><path d="M102.6,107.15a.43.43,0,0,0-.18.15l-.09,0,.09-.36a.1.1,0,0,1,0,0,.11.11,0,0,1,.08,0,.13.13,0,0,1,.1.12A.94.94,0,0,0,102.6,107.15Z" style="fill:#5d5a5c"/><path d="M105.27,74.92a27.39,27.39,0,0,0-5.57-.54,14.86,14.86,0,0,0-5.53.85,7.49,7.49,0,0,0-3.52,2.94,6.34,6.34,0,0,0-.81,1.8,21.74,21.74,0,0,0-.61,5.09c-.08,1.11-.19,2.24-.29,3.33s-.22,2.21-.3,3.32l0,.47c-.27,3.16-.59,6.74.61,9.75,1,2.54,3.4,4.32,6.9,5.14h.06a.56.56,0,0,0,.56-.47.47.47,0,0,0-.4-.54c-3.67-.85-5.89-2.8-6.58-5.79a27.83,27.83,0,0,1-.13-8.4l0-.23c.23-3,.48-6.08.75-9.12a8.54,8.54,0,0,1,1.45-4.2A6.34,6.34,0,0,1,95.09,76a16.8,16.8,0,0,1,6-.59l.69,0a27.27,27.27,0,0,1,3.37.45C105.81,76,105.9,75.05,105.27,74.92Z" style="fill:#444"/></svg>