<svg xmlns="http://www.w3.org/2000/svg" viewBox="0 0 195.88 191.77"><title>3Artboard 103</title><path d="M172.08,178.18c7.56-2.83,13.95-7.61,17.82-16.77,4.33-10.12,1.14-21.11-5.61-29.31-5.74-7-13.35-12.13-20.1-18S149.83,99.69,148,90.48c-1.46-7.06-3.06-13.81-6-20.51a56.31,56.31,0,0,0-4.79-7.7A74.54,74.54,0,0,0,112.5,41.12C90.94,30,63.05,36.56,42.72,49.6,28.27,58.85,16.88,76,10.31,95.77c-5.6,16.86-8.43,36.65-4.42,54.38,5.61,24.66,31.72,33.23,54,36,21.65,2.74,43.57,1.87,65.22-.54,8.39-1,16.87-1.65,25.26-2.83C157.9,181.64,165.47,180.64,172.08,178.18Z" style="fill:#f5f5f5"/><path d="M92.43,73.5c.32-1.09,1.7-9.84,1.89-11,.31-2,1.23-4.24.36-6.16l1.46-.59c2.55,0,4.19-1.87,5.1-4.1l1.43-3.43h0c.24-.81.51-1.62.81-2.41,0-.1,0-.19,0-.28v-.05a.88.88,0,0,0,.17-.12c.16-.42.34-.84.53-1.24,1.22-4.41,2.4-8.47,2.4-13.18a68.73,68.73,0,0,0-.18-6.92,10.38,10.38,0,0,0-.77-3.65,1.17,1.17,0,0,0-.46-.59,1,1,0,0,0-.23-.19c-.5-.36-1-.67-1.38-.3-1.19.18-1.76.2-2.9.34l-.71.1c-1-.46-2.16-.07-3.21-.07S95,19.53,94,19.62c-1.19-.13-2.7.23-3.88.05a.81.81,0,0,0-.37-.09h-.09c-.46,0-1-.38-1.18-.06a4.77,4.77,0,0,0-1.16.2c-.18-.09-.82.13-1.09.18-2.28.59-2,5.19-1.9,7.06a4.57,4.57,0,0,1-.39,1.86c-.18.68-.59.84-.54,1.57s-2.08,1.27-1.9,2c.23,1-1.6,1-1.73,1.92l-1.08,1-.94,6.9,1.08,4.22.26-.09a66.59,66.59,0,0,1,1.32,7.16c.18,2.28-.46,5.24.36,7.43.64,1.69,2.65,2.46,3.65,3.87.36.51,1,1.59,1.49,1.31.78,1.1,1.45,2.34,2.91,2.34.27,0,.56.49.74.4.09.27.8.62.74.51m.77.82.14.28" style="fill:#fff"/><path d="M142,142c-.14-4.33-1.14-8.15-1.87-12.43-.46-2.78-1.33-5.28-1.74-8.06-.14-.91-.1-1.84-.33-3,0-2.59-.84-5.61-4.21-5.06-1.91.32-3.87.82-5.79,1.28a25,25,0,0,0-4.69,1.14,1.72,1.72,0,0,0-2.12,1c-.28,1.19.43,2.86.71,4,.45,1.91,1,4,1.41,5.86.82,3.6,1.48,7.35,2.26,11,.36,1.78,1,3.5.84,5.32,0,.28-.41,1.74-.45,2-.46,1-.69.81-1.38,1.77-.41.46-.82,1-1.27,1.41-.23.23-.46.5-.69.73a28.79,28.79,0,0,0-3.1,3.15,17.68,17.68,0,0,0-2.91,3.87l-2,.5a11.37,11.37,0,0,0-3.78-2c-2.69-.91-5.34-.73-8.12-1-3.37-.36-6.65.6-9.89,1.46-1.46.39-2.91.82-4.33,1.35q-1,.39-2.07.84a8.73,8.73,0,0,1-2.23.94,2.3,2.3,0,0,1-1.66-.54,5.47,5.47,0,0,0-.76-.53c-.28-.13-.61-.13-.89-.28a125.26,125.26,0,0,0-16.36-7.16A36.4,36.4,0,0,1,59,146.87c-.76-.3-1.5-.61-2.22-1a9.55,9.55,0,0,1-4.43-2.46.82.82,0,0,1-.18-.29l-.12-.06-.11-.32,0-.06a.84.84,0,0,1-.14-.49l-.12-.36a3.42,3.42,0,0,1-.07-1.35,15.05,15.05,0,0,1,.37-3.2.4.4,0,0,1,0-.26c.05-.56.11-1.12.17-1.68s.17-1.27.28-1.9a15.73,15.73,0,0,1,.34-2.34c.5-2,.35-3.89,1-5.89.41-1.32.85-4,1.13-4.93.54-1.83-2.45-3.11-3.82-2.74a19.22,19.22,0,0,0-4.6-1c-2.24-.27-4.56-.18-6.8-.5-1.82-.28-2.55,1.64-2,3l0,.05c-1,1.64-1.14,3.73-1.41,5.6-.37,2.19-.26,4.38-.62,6.57A53.84,53.84,0,0,0,34.53,144c.23,3.83-.34,6.52,2.17,9.53A10.45,10.45,0,0,0,41.53,157a2.17,2.17,0,0,0,1.64.54c.55.05,1.14.61,1.69.75a2.55,2.55,0,0,0,.68.5c2.65,1.37,5.7,1.55,8.53,2.37,3.28,1,6.52,2,9.84,2.74,2.78.64,5.65,1,8.44,1.5,3.19.59,6.42.64,9.61,1.28.73.14.7.54,1.07.17.22,0-.91,1.06.25.17,0,0,0,.07-.08.08h.67c.55,0,0,.09.5.09-1.36.64-.45.26-1.86.9-1.82.82-4.65,1.6-5.83,3.33-.64.91-.65,1.59.13,2.22C74.92,174.87,76,177.57,78,177c.23,0,.72.84,1,.8.07,1.35,3.51,1.34,4,1.29a8.33,8.33,0,0,0,2.91-.5c1.39-.61,3-.46,4.46-.77a36.2,36.2,0,0,0,7.89-2.19,25.75,25.75,0,0,0,6.88-4.51c1.51-1.37,2.92-2.74,4.42-4,1-.36,2-.73,3.06-1a1.66,1.66,0,0,0,1.78-.51s.13-.09.18-.13c1.32-.41,2.69-.82,4-1.19a2.36,2.36,0,0,0,1-.64c.45-.18.91-.36,1.36-.59,2.47-1.05,5.82-2,8.14-3.35.6-.37,2.62-1.32,2.71-1.87,3-1.46,5.75-2.71,8.12-5.22C142.63,149.8,142.16,145.75,142,142Z" style="fill:#fff"/><path d="M182.31,87.33a18.55,18.55,0,0,0-4.88-10.85,24.94,24.94,0,0,0-5.38-4.24c.18.14.41.23.59.36-.45-.31-.95-.59-1.41-.91-2.83-1.87-5.65-3.14-9.16-2.73a12.33,12.33,0,0,0-10.9,13.58c.46,3,1.78,6.43,4.43,8.16a11,11,0,0,1,3.27,2.68c.95,1.44,1.45,2.83,2.74,4.11a11.77,11.77,0,0,0,9.85,3.47C178,99.86,183,94.16,182.31,87.33Z" style="fill:#f5f5f5"/><path d="M135.41,105.81c-.5-2.92-.55-6.56-1.28-9.44-.14-1-.27-2-.41-3-.23-.64-.3-1.39-.53-1.94-.32-2-1.34-3.63-1.61-5.63-.73-2.23-1.69-5.7-2.87-7.57-1.6-2.37-4.52-4-6.89-5.69-.19-.18-.4-.33-.6-.49A33.37,33.37,0,0,1,115.6,70l-.25,0c-.59-.27-1.44-.52-2-.84-1.09-.45-1.87-.54-3-1-2-.78-4.3-1.64-6.31-2.5h0a9.19,9.19,0,0,1-3.61-2.19l-.13-.18-.2-.18c-.9-1-2.17-6.06-4.16-5.52l-.09.21c0,1.44-.42,2.88-.57,4.31-.06.59.27,1.16.16,1.74,0,.39-.1.77-.17,1.15V65a17,17,0,0,1-1,4.83,7.8,7.8,0,0,1-1.45,2.79c-.14.73-.71,1.21-1.29.43-1.8-2.44-3.33-5.36-5.59-7.31a30.54,30.54,0,0,1-3-3s-.25-1.22-.86-.43c-.35-.32-.12-.5-.43-.86s-1.08-.85-1.29-1.29c-.22-.21.21-.35,0-.43-.14.4-1.21,1.4-1.32,1.81-.27.77-.18,1.87-.41,2.28s-1,.32-1.46.59c-.68.41-1,1.87-1.55,2.55a15.46,15.46,0,0,1-4,2.56c-1.51.63-3,.82-4.56,1.41C62,72.81,56.64,74.31,52.63,77.23a9.46,9.46,0,0,0-1.55,2,25.51,25.51,0,0,0-2.87,3.41c-1.32,2.6-1.41,6-2.28,9-1,3.42-1.73,7.2-2.73,10.57-.41,1.19-.23,2.24-.6,3.42-.86,3-2.37,6.89-2.28,10.44a8,8,0,0,0,1.55,0v.41a40.71,40.71,0,0,1,5.7,1c.91.23,2.91.58,3.76.8,1.68.43,3.09,1.13,5.19.35a2.49,2.49,0,0,0,.83-.49c.88-2.79,0-5.87.71-8.7a3.75,3.75,0,0,1,.09-.57,18.76,18.76,0,0,0,.59-3.88c.23.32.18,1,.41,1.42v.27c.55-.87.27-2.37.87-3.14.09-.28,0-.14.13-.28,1.05,2,2.24,4.15,3.15,6.29,1.64,3.83,2.46,8.48,3.74,12.45.77,2.41.54,5,1.27,7.43a78.93,78.93,0,0,1,3.15,23.47,28.55,28.55,0,0,1,7,2.87c.82.5,2.1,1.87,3.74,1.41.27-.09.64-.59.86-.59.6-.09,1.1.46,1.46.59a6.27,6.27,0,0,0,3.69,0c1.74-.54,3.47-1.68,5.29-2.27,2.24-.73,4.42-.83,7-1.42a13.25,13.25,0,0,1,5-.27c.82.23,1.82.77,2.73,1,1.14.29,2.24,0,3.4.29a4.28,4.28,0,0,1,2.07.57c.79.45,1.74,1.82,2.69,2.07a1.84,1.84,0,0,0,.27-.38,4.15,4.15,0,0,0,.23-1.68c0-1.23.39-2.11.48-3.34s.3-2.26.43-3.44c.23-1.6.77-3.57.86-5.16.13-3.19-.32-6.31.36-9.41,0-2.09.09-4.18.09-6.27,0-2.27-.1-4.53-.11-6.8,0-1-.06-2.06,0-3.09,0-1.73,0-3.47.06-5.21.19-4.83.68-9.63.64-14.47a.38.38,0,0,1,.54-.35v-.17c.64.91.41,3.15.73,4.42.77,3.15,1.32,6.61,2.28,9.53.45,1.37.45,2.92,1.18,4v.27c2.51-.5,5.61-.82,8.16-1.41,1.46-.36,2.64,0,3.42-1C137.32,111.6,135.77,107.86,135.41,105.81Z" style="fill:#bfbfbf"/><path d="M120.31,107.57l0-1.47c0-.13,0-.26,0-.4C120.32,106.33,120.31,107,120.31,107.57Z" style="fill:#bfbfbf"/><path d="M92.47,45.3a3.9,3.9,0,0,0,.87,2.56A9,9,0,0,0,95.08,50a5.63,5.63,0,0,0,2.12,1,4.62,4.62,0,0,0,3.09-.11,4.54,4.54,0,0,0,2-2.68,7,7,0,0,0,.51-2.91c0-.64-.26-1.06-.93-1.08L95.78,44C94.69,43.93,92.65,43.8,92.47,45.3Zm1.67.31c.14-.89,1.07-.71,1.7-.67a30.39,30.39,0,0,0,3.3.17c.66,0,2.21-.19,2.49.65h.13v.13c-.25.36-1.4.37-1.8.45-1.76.32-3.75.68-5.44-.14C94.27,46.07,94.09,45.91,94.14,45.61Z" style="fill:#444"/><line x1="90.28" y1="69.63" x2="92.43" y2="74.36" style="fill:#fff"/><path d="M106.94,25.93l-.14,0c0,.3-.06.38-.07.69s0,.79,0,1.08,0,.47,0,.7l0,1.68c0,.61,0,1.22,0,1.83s0,1.21-.08,1.82-.34.92-.39,1.47c-.22,1.19-.41,4.37-.4,4.46,4-.14,6.17-3.5,6.89-6.59C113.53,29.58,109.63,25.8,106.94,25.93Z" style="fill:#fb0"/><path d="M111.11,12.13c-.19-.83-.55-1-1-1.49A2.63,2.63,0,0,1,109.71,9a4.6,4.6,0,0,0-.37-1.7c-1-2.11-2.51-2.74-4.69-2.36-.59.11-1.25.47-1.86.07-.18-.11-.12-.54-.36-.69A3,3,0,0,0,99.87,4c-3.42.68-6.71,1.66-10.22,1.72A37.45,37.45,0,0,0,79.93,7a9.15,9.15,0,0,0-5.43,4.17c-3,5.22-1.38,11.8-1,17.42a.65.65,0,0,0,.75.52,12.79,12.79,0,0,1,5.22-.62c1.83.18,2.64.92,4.1,1.92a.64.64,0,0,0,.64.06c1.17-.63.77-2.73.85-3.83a12.22,12.22,0,0,1,.66-3.79C86.4,21.2,88,21,89.55,20.88c2.69-.21,5.38-.07,8.07-.25,1.35-.09,2.73-.16,4.08-.18a10.57,10.57,0,0,0,2.81,0c1.95,1.22,1.35,4.83,1.46,6.68,0,.37,0,.74,0,1.11a4.42,4.42,0,0,0-1.81-.47,6.18,6.18,0,0,0-2.77.25c-.79.25-.23,1.42.55,1.17a4.63,4.63,0,0,1,2.09-.13c.32,0,.68.12,1,.17s.64,0,.82.27.1.94.07,1.34c0,.81-.16,1.62-.26,2.42-.48,3.93-.7,8-1.38,11.92a.54.54,0,0,0,0,.61l0,.06a.65.65,0,0,0,1.22-.22c.44-2.34.53-4.85.85-7.23.37-2.66.63-5.34.9-8a31.38,31.38,0,0,0-.09-6.5c-.18-1.57-.38-2.94-1.31-3.94a4.26,4.26,0,0,0,1.36-.49,8.53,8.53,0,0,0,1.89-1.81C110.36,16.12,111.58,14.16,111.11,12.13Z" style="fill:#444"/><path d="M95,28.31a5.46,5.46,0,0,0-3.45-.5c-.86.14-2.43.48-2.74,1.44-.25.79,1,1.24,1.21.45.12-.36,1.58-.6,1.88-.63a4.22,4.22,0,0,1,2.36.3C94.9,29.83,95.64,28.77,95,28.31Z" style="fill:#444"/><path d="M104.26,32.05A1,1,0,0,0,103.07,31a1,1,0,0,0-.75,1.42,1.25,1.25,0,0,0,1.09.77.76.76,0,0,0,.71-.34A1.2,1.2,0,0,0,104.26,32.05Z" style="fill:#444"/><path d="M92.41,31.78a1.09,1.09,0,0,0-1.48,1.08,1.2,1.2,0,0,0,1.35,1.06.69.69,0,0,0,.48-.38l.19-.19A1,1,0,0,0,92.41,31.78Z" style="fill:#444"/><path d="M101.26,36.88c-.29-.76-.43-1.57-.75-2.32a8.45,8.45,0,0,1-1-2.53c-.09-.82-1.36-.6-1.27.23a8.11,8.11,0,0,0,.94,2.57c.46,1,.7,2.11,1.1,3.13.58,1.47.53,2.39-1.14,2.48a6.45,6.45,0,0,0-2,.28.64.64,0,0,0,.21,1.22h.09a.55.55,0,0,0,.26-.06c1.41-.45,3.81.25,4.33-1.72C102.35,39,101.65,37.92,101.26,36.88Z" style="fill:#444"/><path d="M87.77,72.21a1,1,0,0,0-1.52.7,1.6,1.6,0,0,0,.54,1.33.67.67,0,0,0,.54.43C88.69,74.81,88.74,72.74,87.77,72.21Z" style="fill:#444"/><path d="M142.13,136.09c-.39-1.51-.53-3-.87-4.56-.43-1.87-.81-3.7-1.11-5.6-.57-3.55-1.2-7.15-1.93-10.67-1.43-6.83-3.42-13.57-4.43-20.47-.81-5.51-.93-12.07-4.57-16.6-1.5-1.85-2.41-3.64-4.51-4.91a35.52,35.52,0,0,0-6.84-2.91c-3.23-1.13-6.27-2.57-9.44-3.83a34.66,34.66,0,0,1-4.45-2c-1.1-.62-2.93-1.45-3.66-2.51a.57.57,0,0,0-.33-.24c-.58-1.47-1.19-2.92-1.78-4.39,2.5-.63,4.1-3,5.11-5.47.32-.77-.89-1.22-1.21-.45-1.24,3.07-3.41,5.56-7,4.51-2.08-.61-5-2.32-5.91-4.44-.32-.76-1.49-.21-1.17.56,1,2.41,4,4.36,6.67,5.11-.29,2.94-.45,5.91-.86,8.82a60,60,0,0,1-1.68,7.22c-.07-.26-.14-.53-.23-.78a15.89,15.89,0,0,0-1.78-3.83c-1-1.38-2.52-2.29-3.66-3.53a35.55,35.55,0,0,0-2.75-3c-.68-.58-1.77-1-2.17-1.85s-.06-1.66-.12-2.43C81.23,55,81,52,80.55,49.14c-.27-1.62-.47-3.28-.83-4.88a3.31,3.31,0,0,0-.88-2c-.63-.54-1.37.52-.74,1.06s.59,2.4.69,3c.28,1.65.59,3.29.71,5,.09,1.17.22,2.35.35,3.52-2.2,1.83-3.18,3.48-3.19,6.22-1.83,2.75-4.45,4.18-7.5,5.35s-6,2.3-9.09,3.29A23.91,23.91,0,0,0,53.23,73a30.63,30.63,0,0,0-5.81,5.9c-1.61,2-2.16,4.65-3.09,7a62.13,62.13,0,0,0-2.69,9.76c-.78,3.54-1.43,7.11-2.32,10.63-.83,3.25-1.13,6.58-1.7,9.89a.53.53,0,0,0,0,.19c-.67,5.64-1.93,11.19-2.47,16.85-.48,4.94-2,10.39-.75,15.28.49,1.94.67,4.08,2.25,5.47a25.76,25.76,0,0,0,7.07,4.27,75.84,75.84,0,0,0,15.53,4.57c3.52.64,7,1.69,10.54,2.44,2.92.62,6.21.77,9.05,1.67a.77.77,0,0,0,.28.08h.06a.64.64,0,0,0,.28-1.24c-2.53-.83-5.48-1-8.11-1.51-3.8-.7-7.48-1.81-11.24-2.59-6.61-1.37-13.58-3-19.5-6.44-1.9-1.09-3.83-2.41-4.39-4.62a20.38,20.38,0,0,1-1-5,87.77,87.77,0,0,1,.86-9.45c.39-3.22.8-6.43,1.17-9.65s1.12-6.33,1.53-9.51c1-.22,2.78.3,3.67.42,1.74.23,3.49.39,5.23.62,2.49.33,4.85.94,7.27,1.45a17.69,17.69,0,0,0-.85,3.5c-.61,2.48-.86,5-1.25,7.49-.37,2.34-1,4.66-1.32,7s-.2,4.92,1.57,6.71c3.32,3.37,8.54,4.55,12.76,6.39,2.4,1,4.72,2.24,7.13,3.25s4.51,2.52,6.93,3.37a.64.64,0,0,0,.44-1.21c-2-.71-3.78-2-5.7-2.88s-3.84-1.53-5.7-2.44q-.73-.36-1.47-.69a.88.88,0,0,0,0-.17v-.1c0-3.62-.44-7.24-.73-10.85a105.41,105.41,0,0,0-1.28-11.64c-1.34-6.77-4.22-13.09-5.76-19.8a.68.68,0,0,0-.26-.75c.12-.57.25-1.14.39-1.7a.6.6,0,0,0,.21-.21c.11-.18.44-.24.61-.35.38-.22.72-.5,1.1-.7a17.12,17.12,0,0,1,2.06-.9c.77-.3.22-1.46-.56-1.17a13.9,13.9,0,0,0-2.53,1.19c-.13.07-.24.15-.36.23.24-.81.5-1.6.8-2.38a.51.51,0,0,0,.23-.45V100a.65.65,0,0,0-1.25-.28c-1.42,3.36-2.07,7.22-2.87,10.77a16.31,16.31,0,0,0-.52,2.72,20.05,20.05,0,0,0-5.94-1c-1.76-.16-3.53-.08-5.28-.34-1.26-.19-4.7-.5-5.51-1.73a.78.78,0,0,0-.15-.16c.25-1.48.54-3,.92-4.42.82-3.15,1.36-6.37,2.05-9.54a76.51,76.51,0,0,1,2.79-10c1-2.69,1.76-5,3.6-7.29a21.15,21.15,0,0,1,6.64-5.88,67.61,67.61,0,0,1,7.91-3.17c4.62-1.73,9.7-2.92,13-6.68.26,2.33.86,4.6,1.13,6.94.23,2,.49,4.6,3.09,3.62a21,21,0,0,0,3.59-2.19c.91-.57,2.78-2.48,3.84-2.18a.66.66,0,0,0,.37,0c3.16,4.08,2.62,9.82,3,14.8.07,1,.17,2,.14,3.11a4.74,4.74,0,0,0,.06,2c.56,1.23,2.44.9,3.51.73a.63.63,0,0,0,.49-.41c.63-2.67.38-5.72.45-8.45.08-3.13-.71-7.25,1.3-10a.56.56,0,0,0,.12-.41A11.7,11.7,0,0,1,100,72.07c.47.39,1,.91,1.64.81,1.23-.18,1.13-1.49,1-2.4A36.38,36.38,0,0,0,101,64.39a26,26,0,0,0,3.76,2c2.39,1.09,4.81,2.17,7.22,3.2,2.75,1.18,5.62,2.08,8.41,3.15,2.58,1,4.91,2,6.51,4.38a27.55,27.55,0,0,1,3.55,6c1.19,3.21,1.37,7,1.88,10.37.79,5.18,2,10.29,3.13,15.39-2.26.46-4.59.83-6.81,1.45a48.26,48.26,0,0,1-7.33,1.75c-.39-2-.91-4.05-1.17-6.06,0-1.15.06-2.29.07-3.44,0-3,.21-6,0-9a58.88,58.88,0,0,1,0-9.39A.64.64,0,0,0,118.9,84a64.9,64.9,0,0,0,0,8.82c.11,3.46.06,6.9,0,10.36,0,.77,0,1.54,0,2.31a.6.6,0,0,0,0,.24v.06a.37.37,0,0,0,0,.11c0,.07,0,.15,0,.22,0,2.34-.09,4.68-.1,7,0,3.13-.4,6.27-.33,9.41s.24,6.26,0,9.43,0,6.53-.32,9.74-.9,6.63-1.26,9.94c-.16,1.46-.36,2.88-.41,4.35,0,.39-.11.8-.16,1.2l-.55-.75a.27.27,0,0,1-.19-.25q-.18-.25-.39-.51c-1.17-1.49-2.42-1.71-4.23-1.8a23,23,0,0,1-3.51-.41c-1.5-.32-2.93-1.07-4.43-1.35-2-.38-4.34.71-6.2,1.37-1.65.58-3.29,1.16-4.94,1.71a17.44,17.44,0,0,1-3.36,1.05c-.82.09-.6,1.36.23,1.27a21.44,21.44,0,0,0,4.55-1.42c2.34-.84,4.66-1.72,7.06-2.36s4.14.38,6.42.93c1.74.42,3.51.22,5.24.55,2.13.41,2.77,2.44,4.06,3.86a7.75,7.75,0,0,1,1.8,2.78c.48,1.33,0,1.17-.79.21-1.06-1.33-1.76-3-3.38-3.71a24.84,24.84,0,0,0-3.21-.85c-1.13-.31-2.19-.82-3.31-1.13-.8-.21-1.25,1-.45,1.22,1,.26,1.88.62,2.82.93-.21.75,1.06,2,1.41,2.66a25.61,25.61,0,0,1,1.52,3.33c.21.53,1,2.07.51,2.47-.8.68-1.89-1.23-2.21-1.72-.86-1.33-1.3-2.83-2.42-4a27.19,27.19,0,0,0-4.45-3.19.61.61,0,0,0-.34-.26l-.18-.07a.65.65,0,0,0-.59,1.14c1.78,1.3,4,2.23,5.25,4.14.63,1,3.33,6.55.46,5.2a12.12,12.12,0,0,0-.93-1.26c-.76-1-1.5-2.1-2.3-3.12A7.46,7.46,0,0,0,103,162c-.68-.41-2.14-.91-2.6-1.58s-1.45.16-1,.84c.73,1.06,2.45,1.45,3.49,2.21a10.07,10.07,0,0,1,2.2,2.4c.4.55,1.53,1.62,1.66,2.27.28,1.41-1.29,0-1.79-.45a17.2,17.2,0,0,0-1.35-1.35,10.85,10.85,0,0,0-3.55-1.77c-1.28-.35-2.59-.11-3.87-.41-1-.22-1.72-.63-2.57.11-.62.54-.92,1.42-1.55,2a6.42,6.42,0,0,1-2.69,1.3,9.07,9.07,0,0,1-6.21-1.26c-.71-.43-1.45.62-.74,1.06a10.51,10.51,0,0,0,1.33.7c-2.36.94-5,1.46-7,3-.83.66-1.67,2-1.38,2.87-1.06.72-1.9,1.61-1.81,2.59.12,1.21,1,1.55,1.94,1.52a.28.28,0,0,0,0,.09c.45,2.29,2.63,2.13,4.52,1.65,0,1,1.3,1.66,2.27,1.68a26.38,26.38,0,0,0,4.06-.71c1.4-.21,2.78-.57,4.19-.78,3.33-.51,7.19-1.05,10.11-2.87a15.61,15.61,0,0,0,3.08-2.83c1.17-1.29,2.51-2.53,3.55-3.92a1.35,1.35,0,0,0,1.27-.7,1.93,1.93,0,0,0,2.47-2c1.16,1,2.66,1.51,3.27.13a1.55,1.55,0,0,0,.13-.48.51.51,0,0,0,.35-.22c1.53-.87,3.51-1.34,5.1-2.1,2-1,4-2,6-3A84.28,84.28,0,0,0,136.85,155c2.69-1.94,5.75-4.25,6-7.77a40.75,40.75,0,0,0,0-6.25,26.93,26.93,0,0,0-.68-4.81Zm-84-20.32c.2-1.37-.06-2.64.26-4,.18-.78.35-1.58.53-2.38,1.53,5.85,3.91,11.44,5.17,17.37a94.29,94.29,0,0,1,1.31,11.14c.34,3.82.83,7.7.85,11.54-3.17-1.35-6.43-2.51-9.48-4.12a9.11,9.11,0,0,1-3.09-2.41c-1-1.39-1-3.31-.86-5,.2-1.9.75-3.85,1.06-5.75.34-2.14.61-4.31,1-6.45.19-1.12.48-2.24.78-3.34a25.74,25.74,0,0,1,.62-2.57l.05,0a.68.68,0,0,0,.6-.43A11.64,11.64,0,0,0,58.1,115.77Zm-15.8-3.28a25.6,25.6,0,0,0,4.67.86c3,.22,7.05-.25,9.73,1.26l.15.06a8.14,8.14,0,0,1-.94,3.72c-1.37-.31-2.67-.8-4-1-1.74-.31-3.51-.52-5.26-.73s-3.72-.42-5.57-.69a12.35,12.35,0,0,0-2-.21c.23-1.39.43-2.77.64-4.15A8.36,8.36,0,0,0,42.3,112.49ZM84.91,69.68c-.8.56-1.66,1-2.48,1.55-.45.29-1.43,1.27-2,1.2-.85-.1-1.12-1.69-1.2-2.29-.3-2.33-1-4.6-1.17-6.92A16.23,16.23,0,0,1,78,59.67,5.73,5.73,0,0,1,80,56.42q.09.9.15,1.8c.12,1.9-.06,2.87,1.56,4,2.17,1.57,3.68,3.77,5.7,5.52l.26.24A9,9,0,0,0,84.91,69.68Zm11.73.64C95,72.57,95,76,95,78.7c0,1.9,0,3.77,0,5.68,0,1.05.54,4.83-1.25,4.34-.8-.22-.59-.31-.58-1.17s.06-1.45,0-2.17c-.05-1.31-.13-2.58-.14-3.89a40.62,40.62,0,0,0-.31-5.3.88.88,0,0,0,0-.15c.39-1.73.88-3.44,1.34-5.15a.79.79,0,0,0,.23-.22c.51-.79,1.44-.8,2.41-.48Zm4.7.54c-.15.53,0,.42-.64.15-.31-.14-.61-.58-.9-.77a9,9,0,0,0-3.18-1.34,3.94,3.94,0,0,0-2,0c.21-.91.39-1.83.52-2.77.4-2.86.56-5.78.85-8.67l.21,0a6.39,6.39,0,0,0,.75,0,.5.5,0,0,0,0,.23c.72,1.8,1.59,3.51,2.25,5.34a32.6,32.6,0,0,1,1.2,4.1C100.65,68.26,101.61,69.93,101.34,70.86ZM101,175.16c-2.16,1.88-5.28,2.53-8,3-2.38.45-4.76.9-7.15,1.28-.87.14-1.73.39-2.6.53-.21,0-2.17.3-1.8-.43a.75.75,0,0,0,.07-.23l.44-.14c1.79-.54,3.62-.91,5.43-1.42,1.58-.45,3.23-1.1,4.81-1.48.66-.16.72-1.3,0-1.28H92c-2.2.53-4.38,1.42-6.6,2-1.48.36-8.19,2.8-8.56.91a.14.14,0,0,0,0-.06,12,12,0,0,0,1.64-.55c1.93-.76,3.73-1.59,5.74-2.17a25,25,0,0,1,4.38-1.26c.83-.06.6-1.33-.22-1.27a16,16,0,0,0-2.85.83c-1.2.33-2.41.64-3.6,1s-2.3,1-3.46,1.45c-.48.2-1.9,1-2.4.8-1.63-.63-.35-1.26.14-1.59q.31-.21.63-.39a.59.59,0,0,0,.53-.29,39.63,39.63,0,0,1,5.37-2c1.35-.47,3.84-.39,4.81-1.51.54-.63-.52-1.36-1.06-.74-.23.27-1.57.3-1.92.38-.62.15-1.26.32-1.86.52-1.33.44-2.73.76-4,1.25a18.35,18.35,0,0,0-1.88.82,4.27,4.27,0,0,1,.66-.95,6.83,6.83,0,0,1,1.13-.83c.71-.35,1.65-.59,2.38-.86,1.46-.55,2.95-1,4.36-1.71a.64.64,0,0,0,.2-.14,8.29,8.29,0,0,0,7-1.09c.73-.52,1.08-1.33,1.75-1.87.88-.72,1.8-.16,2.84-.09,2.14.14,4.08.4,5.84,1.79,1,.82,1.84,2.09,3,2.67A39.74,39.74,0,0,1,101,175.16Zm13.33-9.28a18.11,18.11,0,0,0-1-2.59,25.59,25.59,0,0,0-2.27-4.27,6,6,0,0,1,4.05,2.64c.53.72,1.54,2.44,2.7,2.84A26,26,0,0,0,114.34,165.88Zm14.49-54.35c2.23-.63,4.61-1,6.88-1.46.18.77.36,1.53.53,2.3a19.44,19.44,0,0,0-2.8.81c-1.55.44-3.09.84-4.65,1.27-2.21.62-4.52.58-6.74,1.09-.19-.75-.36-1.5-.52-2.26A45.38,45.38,0,0,0,128.83,111.53Zm-10.52,38.08c.37-3,1.11-6.07,1.2-9.14.19-6,.31-12,.2-18-.07-3.57.06-7.15.2-10.74,0,.23.09.46.13.7.46,2.41,1.11,4.73,1.65,7.12,1.06,4.7,1.89,9.57,2.57,14.33.28,2,.79,3.95,1.14,5.94a11.06,11.06,0,0,1,.44,2.59c-.11,1.21-1.22,2.59-2,3.49-1.24,1.47-2.67,2.76-3.89,4.25-.56.69-1.28,1.36-1.93,2.07C118.11,151.31,118.2,150.46,118.31,149.61Zm23.38-3.23c-.19,4.37-4.39,6.66-7.53,9a70.78,70.78,0,0,1-10.4,6.19c-1.44.73-2.86,1.49-4.31,2.2a4.49,4.49,0,0,0-.41-2.51c-.39-1-1.33-1.78-1.61-2.85a9.3,9.3,0,0,1,.31-3.51.56.56,0,0,0,.08-.3,15.77,15.77,0,0,1,2.12-2.48c.74-.85,1.43-1.74,2.19-2.57a32,32,0,0,0,3.93-4.55c1.93-3.08.38-6.55-.3-9.86-1-4.84-1.6-9.77-2.54-14.63-.24-1.26-.55-2.49-.86-3.73,1.83-.4,3.76-.39,5.59-.79,1.41-.31,2.85-.66,4.24-1,1.2-.33,3.05-1.35,4.34-1.33.83,3.74,1.45,7.54,2.14,11.32.34,1.87.56,3.75,1,5.6A58.07,58.07,0,0,1,141.69,146.38Z" style="fill:#444"/><path d="M91.18,6A11.39,11.39,0,0,0,88.84,6l-1,.08a14.86,14.86,0,0,0-2.58.27,5.35,5.35,0,0,0-1.86,1,12.27,12.27,0,0,0-2.74,3.34,25.71,25.71,0,0,0-1.86,4c-.55,1.42-1.1,2.86-1.54,4.32-.32,1.05-2,6.2-1,7.29.73.55,3,.27,4.15.27.63,0,.67-.78.76-1.22l.15-.9.3-1.83A26.13,26.13,0,0,1,82.4,19,31.37,31.37,0,0,1,85,13.2a27.41,27.41,0,0,1,3.43-5,5.68,5.68,0,0,1,1.21-.84,3.59,3.59,0,0,1,1.21-.51.56.56,0,0,0,.5-.37C91.43,6.27,91.4,6.07,91.18,6Z" style="fill:#fb0"/><path d="M84.36,30.78C82.94,28.46,78.8,27,75.06,28a6.57,6.57,0,0,0-4,4.28,7.41,7.41,0,1,0,13.31-1.46Z" style="fill:#fb0"/><path d="M103.55,45.51a3.44,3.44,0,0,0-2,.27c-2.65,1.32-2.06,2.73-2.06,2.92.23,2.09,1.87,3,4.61,2.37a4.48,4.48,0,0,0,1.91-.78.62.62,0,0,0,.23-.09,2.09,2.09,0,0,0,.82-2.83A3.48,3.48,0,0,0,103.55,45.51Z" style="fill:#fb0"/><path d="M110.66,41.49c-.41-.13-1.19.32-1.42,1.14-.15.57.24,1.26.14,1.87a3,3,0,0,1-.84,1.49c-.39.42-1,.73-1,1.35a1.72,1.72,0,0,0,.45,1.31c.47.41,1,0,1.49-.26a6.71,6.71,0,0,0,1.88-2.22c.74-1.27,1.28-3,.24-4.25C111.27,41.57,111,41.62,110.66,41.49Z" style="fill:#fb0"/><path d="M83.08,155c-1.11.34-1.38,1.11-2,1.47-1,.73-1.74,1.61-1.75,2.31a2.06,2.06,0,0,0,.25,1c.3.59,3.61,1.88,4.33,1.34,1.43-.33,1.72-1,2.64-1.79.39-.21,1-1.19,1.31-1.39a2,2,0,0,0,.35-2.2A7.05,7.05,0,0,0,83.08,155Z" style="fill:#fb0"/><path d="M78.93,160.87a8.38,8.38,0,0,0,.13,6.36.36.36,0,0,1,.16.14c.5.81,2.83,1.22,3.57.41a6.75,6.75,0,0,1-.39-.76,7.39,7.39,0,0,1,.27-4.87A9.11,9.11,0,0,0,78.93,160.87Z" style="fill:#fb0"/></svg>