<svg xmlns="http://www.w3.org/2000/svg" xmlns:xlink="http://www.w3.org/1999/xlink" viewBox="0 0 262.48 193.96"><defs><clipPath id="a"><path d="M178.26,119.45V57a46.17,46.17,0,0,1-5.95-.79c-2.6-.25-5.2-.49-7.8-.7h-3.1c-1.32-.33-3.22-.21-4.62-.5h-1.86c-.58-.12-1.57,0-2.27-.08a21.16,21.16,0,0,0-3.68-.08h-7c-3,.12-5.95.29-8.92.41-1.36.29-3.05.12-4.42.41H127c-.87.21-2.06.21-3,.42H122.6c-3.34.74-7.18.53-10.36,1.32-1.11.29-2.19.12-3.3.49-2.15.75-4.67,1.2-6.77,2.07-1.4.58-2.93,1.36-4.29,1.94s-2.48.78-3.68,1.32-2.48,1.4-3.67,1.94c-.91.41-1.9.78-2.89,1.16v1.52L89.49,67c1.57-.71,3.18-1.78,4.71-2.48,1-.46,2.07-.83,3.06-1.2-1,.37-2,.74-3.06,1.2-1.57.7-3.14,1.77-4.71,2.48l-1.85.86v12h1.65c1.15,0,2.35,0,3.51.08a5.38,5.38,0,0,0,2.68-.08h1c.13,0,.25.12.37.16h1.65c2.19.17,4.63-.2,6.73.25H108a22.68,22.68,0,0,0,6.48.08c.7,0,1.36-.08,2.07-.08a8.5,8.5,0,0,0,2.18-1.07l.25-.13A5,5,0,0,0,120.46,78a37.75,37.75,0,0,0,5.9-4.59c.91-.94,1.78-1.89,2.68-2.89,1.37-1,2.48-2.39,3.89-3.38,1.19-.83,3.34-2.23,3.88-3.59a3.14,3.14,0,0,0,.12-.91,3.14,3.14,0,0,1-.12.91c-.54,1.36-2.73,2.76-3.88,3.59-1.41,1-2.52,2.35-3.89,3.38-.9,1-1.77,1.9-2.68,2.89a36,36,0,0,1-5.9,4.59A6.57,6.57,0,0,1,119,79.11l-.25.13a7.91,7.91,0,0,1-2.18,1.07c-.71,0-1.37.08-2.07.08a24.25,24.25,0,0,1-6.48-.08h-2.77c-2.06-.45-4.54-.08-6.73-.25H96.84c-.12,0-.24-.12-.37-.16h-1A5,5,0,0,1,92.8,80c-1.16,0-2.36,0-3.51-.08H87.64V91l6.27-2.06c2.19-.75,4.38-.91,6.57-1.66,2.35-.78,4.83-1.27,7.18-2.14a20.17,20.17,0,0,1,3.47-1.32,19,19,0,0,0-3.47,1.32c-2.35.87-4.83,1.4-7.18,2.14-2.19.71-4.38.91-6.57,1.66-2,.66-4.17,1.36-6.27,2.06v3.22c1.07-.16,2.1-.33,3.09-.58.79-.2,1.74,0,2.36-.29a7.83,7.83,0,0,1,3.67.5c.08.29.21.54.29.82-.08-.28-.21-.53-.29-.82a7,7,0,0,0-3.67-.5c-.62.38-1.61.13-2.36.29-1,.25-2,.37-3.09.58V103a19.52,19.52,0,0,0,4.13-1.82c.86-.54,1.65-1.2,2.47-1.73,1.57-1,3.64-1.9,4.21-3.89v0c-.57,2-2.64,2.85-4.21,3.89-.78.53-1.61,1.23-2.47,1.73A19.52,19.52,0,0,1,87.64,103v28s.57.53,1.52,1.24a20.89,20.89,0,0,0,2.65,1.52,1.36,1.36,0,0,1-.42,0A13.53,13.53,0,0,0,98,136.08c1.4,0,2.81.09,4.21.09a21.64,21.64,0,0,1,4.67-.21h.29a19.4,19.4,0,0,1,2.76.25,23.08,23.08,0,0,0,7.23-2.77h-.09a17.76,17.76,0,0,0,7-8.34,16.77,16.77,0,0,0,.75-2.68,4.49,4.49,0,0,0,1.32,3.3c1.15.87,2.84.83,4.91.83,2.76-.09,5.53-.13,8.3-.21,4.91,0,10.19-.21,15.4-.21,3,0,6.56.38,9.24-.2h2.89c1.82,0,3.64-.08,5.45-.08a23.49,23.49,0,0,0,3.88-.09h2.07v-6.31Zm-87.61,3.38A6,6,0,0,1,89,124.65c-.16.16-.29.33-.45.49.16-.16.29-.33.45-.49A6,6,0,0,0,90.65,122.83Zm28-9.29a10.47,10.47,0,0,0-.78-1.07A10.47,10.47,0,0,1,118.68,113.54Zm-2.6-10.9h0l-1.28-.53C115.17,102.27,115.63,102.48,116.08,102.64Zm-5.74-1.77c.37-.08.75-.21,1.12-.29a5.17,5.17,0,0,1,1.86.83,4.81,4.81,0,0,0-1.86-.83c-.33.08-.7.16-1.12.29-.24,0-.49,0-.74.08A4.78,4.78,0,0,1,110.34,100.87Zm1,8.92c2.93.7,5.66,2.35,6.77,4.83a8.93,8.93,0,0,1,.7,2.8,7.55,7.55,0,0,0-.7-2.8c-1.15-2.48-3.84-4.13-6.77-4.83-1.81-.46-4.54.45-5.82,1.28C106.75,110.24,109.43,109.33,111.29,109.79Zm5.33,12.38-3.8-1.44c1.28.49,2.52,1,3.8,1.44H117a5.83,5.83,0,0,1,.17-.58v0c0,.17-.13.38-.17.58h-.41Zm.12,2.89c0,.08-.12.12-.16.21l0,0C116.62,125.23,116.66,125.14,116.74,125.06Zm-1.9.46Zm-.08.24a8.66,8.66,0,0,0-1.24.87c-.16-.08-.08,0-.2-.08a3.86,3.86,0,0,1-.46-.7,2.5,2.5,0,0,0,.46.7c.12.08,0,0,.2.08A6.33,6.33,0,0,1,114.76,125.76Zm-2.23-8.58c1.36-.71,2.23-2.23,3.55-3C114.72,115,113.89,116.43,112.53,117.18Zm-3,4.62a29.7,29.7,0,0,0-1.24,4.17,4.69,4.69,0,0,0-.21.78,4.91,4.91,0,0,1,.21-.82A32.71,32.71,0,0,1,109.56,121.8Zm-.74-5.78a0,0,0,0,0,0,0,3.3,3.3,0,0,1,.82-.25,2.19,2.19,0,0,0-.82.25Zm.2,2.72c0-.86.25-.9.7-1.36a2.41,2.41,0,0,1,.83.08c.41.13.37.38.62.62-.25-.24-.21-.45-.62-.62a1.34,1.34,0,0,0-.83-.08C109.31,117.8,109,117.88,109,118.74Zm1.65-3.38V115l.25-1.86-.25,1.86Zm.46-3.76a.24.24,0,0,1,0-.16l.08-.09-.08.09C111.17,111.52,111.13,111.56,111.13,111.6Zm-1.36,9.79a5.52,5.52,0,0,0,1.52-.21c.37.78.7,2.11,1.12,3.3a33.87,33.87,0,0,0-1.12-3.3,7.63,7.63,0,0,1-1.52.21c0,.08,0,.16-.09.2A.27.27,0,0,1,109.77,121.39Zm2.1-5.58a17.68,17.68,0,0,1,1.32-3.75A17.68,17.68,0,0,0,111.87,115.81Zm1.61-1.77a5.47,5.47,0,0,1,.7-.91,6,6,0,0,0-.7.91Zm-.66,7s0,.08,0,.08A.14.14,0,0,0,112.82,121Zm3.34-7.15Zm1.08,10.49,0,0a1.39,1.39,0,0,1-.17.21C117.11,124.57,117.15,124.48,117.24,124.36Zm-12.35,1.57a8.84,8.84,0,0,1,2-2.44A8.7,8.7,0,0,0,104.89,125.93Zm1.61.7c0,.08,0,.12,0,.21A1.58,1.58,0,0,1,106.5,126.63Zm1.24-3.63a11.78,11.78,0,0,0-1,2.52A18.4,18.4,0,0,1,107.74,123Zm-.29-.13.37-.49h0Zm-4.66-8.67c-.17.09-.08,0-.21.09a0,0,0,0,1,0,0,0,0,0,0,1,0,0c.08-.09,0-.05.21-.09l4,3C105.43,116.19,104.11,115.19,102.79,114.2Zm1.53-12.84a5,5,0,0,1,1.73-.08,6.27,6.27,0,0,0-1.73.08c-.09,0-.13,0-.21,0C104.19,101.41,104.23,101.36,104.32,101.36Zm.45,10.2a1.75,1.75,0,0,0-.66.58A1.75,1.75,0,0,1,104.77,111.56Zm-.74.74s0,0,0,.09a.14.14,0,0,1,0-.09Zm-8-6.85a2,2,0,0,0-.17.54,1.49,1.49,0,0,1,.17-.54c1.15-1.86,4.87-3.18,7.59-3.92h0C100.85,102.31,97.13,103.63,96,105.45Zm6.52,8.88a5.28,5.28,0,0,0-1,2.1A5.56,5.56,0,0,1,102.54,114.33Zm-2,7.18c0-.25-.08-.49-.13-.78a12.33,12.33,0,0,1-.33-2.93,10.94,10.94,0,0,0,.33,2.93C100.48,121.06,100.52,121.3,100.56,121.51Zm.78-2.6c2.19,0,3.76-.41,5.87-.41C105.1,118.5,103.53,118.91,101.34,118.91Zm3.51,7.18ZM101.51,119v0Zm17.42,4.79c-.12.25-.25.5-.37.7-1.57,2.65-4,3.55-7.47,4.3a7.87,7.87,0,0,1-4.09-.62c-2.85-.95-3.47-1.36-5-3.59a8.55,8.55,0,0,0-.62-.79c.21.29.42.54.62.79,1.57,2.23,2.15,2.64,5,3.59a9,9,0,0,0,4.09.62c3.51-.75,5.9-1.65,7.47-4.3C118.68,124.32,118.81,124.07,118.93,123.82Zm1-4.21c0-.16,0-.37,0-.54C120,119.24,119.92,119.45,119.92,119.61Zm0-2.52c0,.42.08.83.08,1.24C120,117.92,120,117.51,119.92,117.09Zm4.58-5a20.38,20.38,0,0,0-1.44-3.06A15.84,15.84,0,0,1,124.5,112.14Zm12.43-49.87v0Zm-10.4,62.13s0-.08-.09-.08Zm4.33,1a11.94,11.94,0,0,1-2.93-.29A11.94,11.94,0,0,0,130.86,125.43Zm.62-43.72c-.33-.29-.37-.82-.83-1a8.93,8.93,0,0,0-.08,1,8.93,8.93,0,0,0,.08-1C131.07,80.85,131.15,81.42,131.48,81.71Zm.5-1.36a4.21,4.21,0,0,1,3.17-4.29A2.62,2.62,0,0,1,136,76a.91.91,0,0,1,.08.17s.05.08.05.12a.13.13,0,0,0-.05-.12A.91.91,0,0,0,136,76a2.62,2.62,0,0,0-.87.09A4.24,4.24,0,0,0,132,80.35Zm3.51,38a1.56,1.56,0,0,1,.08-.49c0-.08,0-.17.08-.21s0,.13-.08.21A1.56,1.56,0,0,0,135.49,118.37Zm38.06,6.32-1.53-.25a1.32,1.32,0,0,0-1.11.25,1.17,1.17,0,0,1,1.11-.25A8.43,8.43,0,0,0,173.55,124.69Zm3.18-5.16c-1.49-.12-3.64.33-5.33,0a15.27,15.27,0,0,0-2.35,0,23.51,23.51,0,0,0-5.12.21c-1.57,0-3.14.08-4.71.08-2.23.12-4.87.08-7.26.08h-4.42a10.48,10.48,0,0,1-1.94,0h-2.15c-1.69-.37-3.55-.41-5-1-.66-.29-.91-.87-1.41-1.28a.8.8,0,0,1-.37.58,1.35,1.35,0,0,1-.62.08,2.27,2.27,0,0,0-.29-.41,1.22,1.22,0,0,1,.29.41,1.35,1.35,0,0,0,.62-.08.8.8,0,0,0,.37-.58c.46.41.75,1,1.41,1.28,1.48.62,3.34.66,5,1h2.15a10.48,10.48,0,0,0,1.94,0H152c2.39,0,5,0,7.26-.08,1.57,0,3.14-.08,4.71-.08a23.61,23.61,0,0,1,5.12-.21,15.27,15.27,0,0,1,2.35,0c1.69.33,3.84-.17,5.33,0a11.24,11.24,0,0,0,1.53-.08A10.67,10.67,0,0,1,176.73,119.53Z" style="fill:none"/></clipPath></defs><title>3Artboard 113</title><path d="M243.44,137.67c-5.88-8-19.6-11.14-29.64-13.42-13.13-3-26.69-4.36-40.2-5.19-4.75-.29-9.51-.49-14.27-.52-26-.16-52.51-.65-78.34,1.55-15.53,1.33-31,3.63-45.75,8.21-5.85,1.82-11.57,4.92-15.51,9.13C5.53,152.57,28,165,42.15,170.66c30.21,12.15,65.56,15,98.5,14.34,29.44-.58,60.23-2.46,86.11-15.87,9.56-5,20.35-13.27,19.51-23.89A14.47,14.47,0,0,0,243.44,137.67Z" style="fill:#f5f5f5"/><path d="M65.34,101.28c.09.21,0,.08,0,.29h-.08A1.17,1.17,0,0,1,65.34,101.28Z" style="fill:#e6e7e7"/><path d="M135.86,61.77c-.58-.29-1.16-.62-1.74-.91-1.15-.37-2.68-.2-3.88-.49h-2.35c-2.4-.5-5.66-.29-8.51-.29-2.35,0-4.7,0-7.06.08l-6.56.62c-1.49-.25-3.3,1-4.5,1.53-2.27.95-4.46,1.57-6.69,2.56-1.52.7-3.14,1.77-4.7,2.48a103.08,103.08,0,0,0-14.37,8c-2,1.27-4,2.51-6.23,3.63h1.57c-5.17,1.4-12.13,1.92-17.18,3.4-9,2.66-18.38,3.76-27.49,6.19-6.42,1.71-11.89,4.3-14.49,10.85a17,17,0,0,0-.6,11c.21.88.49,2,.83,3-3.61,5.36,2.06,14.42,9.47,11a11.31,11.31,0,0,0,3.19-2.29c.29.09.57.2.88.28,10.55,2.67,21.37-5.54,30.65-9.2,9-3.53,20.94-2.86,28.92-8.4,2.24-1.55,1.38-4.75,1.15-7.24-.17-2,1-3.56.69-5.27a14.26,14.26,0,0,0,.46-12.88,7.16,7.16,0,0,0-2.16-2.72H87a20.07,20.07,0,0,1,5-.08,5.83,5.83,0,0,0,1.45.29,35.17,35.17,0,0,1,11.68.49c1,.12,1.94.29,2.89.41a8.58,8.58,0,0,1,2.07.71c.28.28.53.61.82.9H114c.49-.29,1.48.09,2.14-.08a13.07,13.07,0,0,0,3.68-1.73c1-.66,1.77-1.61,2.68-2.27a43,43,0,0,0,4.83-4.21,44.66,44.66,0,0,1,4-3.89C132.68,66.31,136.76,64.08,135.86,61.77Z" style="fill:#fff"/><path d="M162.45,9.57q-25.09-.12-50.2,0c-8.86.06-25.31-1.19-27.07,10.69a11.17,11.17,0,0,0,3.06,10.11c-.38,3.4-.84,6.8-1,10.21-.39,6.66-2.32,13.54-1.38,20.14.67,4.74,6.06,8.85,10.86,7.61,5.32-1.38,9.84-3.48,15.46-4.47,8.07-1.43,15.83-1.21,24-1.35,4.72-.09,9.29-.53,13.94-.5h0c-2.89.83-6.15,1.45-8.51,2.89a77.84,77.84,0,0,0-6.69,4.71c-1.69,1.28-2.72,3.42-4.41,4.7a39.09,39.09,0,0,0-4,3.8c-.62.62-1.4.91-1.44,2.15.29.33.33.66.82.82.79.54,2.56.42,3.8.42a3.64,3.64,0,0,1,.62-1.45c.25-.25.91-.33,1.12-.62s.12-.86.28-1.24a5.3,5.3,0,0,1,3.39-3c.91-.21,2,.13,3-.08,3.76-.74,6.69-.25,8,2.27a4.12,4.12,0,0,1,.41,2.77,6.33,6.33,0,0,1-.9,1.73h4.7c.46-.25,1.32,0,1.94-.08a32.67,32.67,0,0,1,5.74-.21c5.33,0,10.49-.5,16.1-.5a1,1,0,0,0,.08-.28,8.46,8.46,0,0,1-.08-2.69,19.62,19.62,0,0,0-.29-4.21V72.84c-.45-2.07-.29-4.42-.91-6.28a18.92,18.92,0,0,0-2-4.53,11.05,11.05,0,0,0,1.91-1.48c4.15-4,3-8.62,3.31-13.79.28-5.36,1.3-10.7,1.46-16.06C177.79,18.88,176.17,9.63,162.45,9.57Z" style="fill:#fff"/><path d="M69.06,96.49c2.31-.74,4.58-1.24,6.77-1.94,2.11-.49,4.25-1,6.36-1.53,3.75-1.23,7.84-2.55,11.47-3.79,2.19-.75,4.38-.91,6.57-1.65,2.35-.79,4.83-1.28,7.18-2.15a20.49,20.49,0,0,1,3.47-1.32v-.42a60.58,60.58,0,0,0-10.24,2.36c-2.56.82-5.12,1-7.68,1.86s-5.24,1.81-7.8,2.68c-3.92,1.32-7.89,2.06-11.81,3.38-1.9.62-4,1.24-5.86,2.07a15.14,15.14,0,0,1-3.1,1.32.65.65,0,0,1,.09.29,18.17,18.17,0,0,0,4.58-1.16ZM55.52,112.06a1.64,1.64,0,0,0,1.53-.62c.86-1.28,1.23-3.43,2.06-4.83s2.23-2.15,2.89-3.47a5.17,5.17,0,0,1-.7-.62v-1.86c.12-.45.7-.91.62-1.24-.79.54-1.74.71-2.48,1.24-1.16.87-1.53,2.36-2.15,3.8-.45,1.07-1.19,1.9-1.73,3.18-.33.74-1.53,2.68-.83,3.59.13.54.42.54.79.83Zm-42.81-.83a16.49,16.49,0,0,1,3.67,2.07h.08c-.53-2.36-2.27-4-3.46-5.74-.62-.87-1.16-1.78-2.56-1.86a7.06,7.06,0,0,0,.2,4.42c.29.74,1.36.82,2.07,1.11Z" style="fill:#e6e7e7"/><path d="M246.91,99.55a20.27,20.27,0,0,0,.17-4.34c-.54-3.3-1-6.6-1.57-9.91l-.37-.37a4.82,4.82,0,0,0-.71-.08c-.45-.29-.78-1-1.24-1.32a21.54,21.54,0,0,0-3.88-2.48c-3.3-1.4-7-1.73-10.77-2.68-1.65-.41-3.22-.25-4.83-.7a65.79,65.79,0,0,1-9.12-3.31,22.83,22.83,0,0,1-3-1.32c-1.73-1.07-3.3-2.43-5-3.46a33.58,33.58,0,0,0-4.21-2.07,50,50,0,0,1-6-3.38,21.41,21.41,0,0,0-3.1-1.33c-1-.45-2.14-1.11-3.17-1.52a7.93,7.93,0,0,0-1.24-.09c-.38-.2-.17-1-.42-1.32-1-.74-3.67-.74-5.12-1.11-1.94-.54-4.21-.79-6.27-1.24h-5.95c-4.12,0-7.8,0-12,0L148.7,58.76a23.53,23.53,0,0,0-3.31.82,24.17,24.17,0,0,0-3.46,2.07c-1,.58-2,1-2.89,1.53-1.9,1.19-3.64,2.84-5.45,4.21L131.11,70a20.38,20.38,0,0,0-3.3,3A25.64,25.64,0,0,1,123,77.63c-1.08,1.07-2.11,2.18-3.18,3.3-5,3.71-10,7.31-15,11-4.54,3.39-8.63,7.31-13.54,10.36a24.54,24.54,0,0,1-3.3,1.12c-2.65,1.07-5.58,1.94-8.42,2.89-1.24.29-2.48.53-3.68.82-2.72,1-5.49,2-8.21,3-2,.74-4,1-5.87,1.85-1.36.62-2.72,1.61-4,2.36-.13.45-.33.9,0,1.32a.86.86,0,0,0,.62.62c.82.57,2.39-.29,3.18-.62,2.06-.87,4.41-1.65,6.56-2.48,1.16-.41,2.64-.54,3.59-1.24h.42a2.54,2.54,0,0,0,.61,2.35c.38.13,1,.5,1.45.21h.91c.66.7,1.28,1.45,1.94,2.15.2.16.45.12.62.29a3,3,0,0,0,2.27-.83c.41-1.73.12-3.84-.91-4.71-.33-.28-.78-.41-1.11-.7.7-.24,1.56,0,2.47-.2,2.56-.58,3.64-.54,4.79.49,1.94.7,2,3.59,1.12,5.62-1.37,3-4.63,6.27-8.22,6.52-5.33,1.44-12.84.91-19.36.91-4.46,0-10-.33-13.75.49-1.16.25-2.44,0-3.47.21-3.09,0-6.23.08-9.33.08a6.21,6.21,0,0,0-1.94-.08,22.47,22.47,0,0,1-3.8.08,31.06,31.06,0,0,1-5.94-.2H18.36a13.87,13.87,0,0,1-5-.62c-1.66-.71-2-2.15-3.18-3v-.2h-.09c.09,1.44.87,1.61,1.33,2.47.2.38.08.71.28,1,1,1.61,4.71,3.92,8,3.18a22.42,22.42,0,0,1,4.42,0h9.54c9.49,0,19.36-.09,29-.09,4.33,0,9.29.37,13-.41,1.52-.33,4.58.5,5.24-.62,1.2,0,2.72.54,4.09.21.62-.17,1.4-.54,1.94-.62.29,0,.57.2.9,0s.54-.62.83-.91c2.11-1.57,2.19-3.3,3.1-6.07,1.15-3.51,2.06-7.18,3.38-10.44.21-.54.29-2.27.5-2.69,1.24-2,5.57-3.38,8.3-4.08,1-.25,1.89,0,3-.21,1-.08,2.06-.21,3.09-.29.38-.08.75-.21,1.12-.29a12.4,12.4,0,0,1,3,1.45,29.61,29.61,0,0,1,5.24,2.56c1.45,1,4.22,5.65,4.83,7.59v4.21a17.85,17.85,0,0,0,.5,2.69l.41.41c.21.41-.62,1.69-.41,2.56a6.22,6.22,0,0,0,2.06,2.89c1.7.91,6,.49,8.51.49,6.32,0,12.67-.2,19.2-.2H168c.7-.08,1.44-.13,2.14-.21.5-.16.71-.7,1.53-.49,1.65.37,3.55.41,5.33.82h2.27a12,12,0,0,0,4.7,0,30.55,30.55,0,0,1,3.18-.08h2.07c2.89-.66,6-.79,8-2.27,1.73-1.28,2.23-3.68,3-6s1.4-4.74,2.15-7c.37-1.12.37-2.11.82-3.18.58-1.45,3.34-3.18,3.59-4.5,1.94-.46,3.88-.7,5.86-1.24a17.27,17.27,0,0,1,4-.83c1.24,0,4-.2,4.71.29a.88.88,0,0,1,.12.46.6.6,0,0,1,.45,0c4.67,1.69,7.93,6.11,9.71,10.9a.58.58,0,0,1,.24.41c.09.37.17.74.29,1.11a21.87,21.87,0,0,1,1,5.74.17.17,0,0,1,0,.13,6.77,6.77,0,0,0,.78,2.85,14.14,14.14,0,0,1,2.48.49,8.82,8.82,0,0,0,4-.41,8.93,8.93,0,0,1,1-.08c2.52-1,3.88-3.56,4.62-6.36.08-.62.13-1.24.21-1.86a9.8,9.8,0,0,0,.29-4.21c-.17-.74.7-1.74.49-2.52-.24-1-1-3.43-.66-4.87.33-1.16.29-2,.58-3.26ZM133,81.8c-.79,0-.75-.21-1.45-.21v.49c-.33.33-.82.91-1.44.42l-.29-.29a1.56,1.56,0,0,1,.2-1,1,1,0,0,1,1.12-.5c-.66-2.48,2-3.47,2.89-4.83.58.08.74.5,1.11.29.5,0,.58,0,.71.29s-.5,1-.71,1.32C134.33,79,133.67,80.56,133,81.8Zm61.3,38.06c-2.06.45-4.5.66-6.68,1.11h-1.45c-1.82.42-3.92.25-5.66.62a2.57,2.57,0,0,1-.9-.08,8.76,8.76,0,0,0-2.56.08h-3.68c-3.67,0-7.92-.41-11.19.29h-3.38c-2.64.58-6.61-.12-8.63.21h-3.88c-3.55,0-7.93-.37-10-1.86-.46-.33-.66-1-1-1.32a1.65,1.65,0,0,1,.08-.7c.08-.29.16-.29.29-.5a1,1,0,0,0,.29-.08c1.07.17,1.24,1.24,2.14,1.65,1.49.62,3.35.66,5,1h2.15a9.67,9.67,0,0,0,1.94,0h4.41c2.4,0,5,0,7.27-.08,1.57,0,3.14-.08,4.71-.08a24.26,24.26,0,0,1,5.12-.21,15.27,15.27,0,0,1,2.35,0c1.69.33,3.84-.12,5.32,0,.54,0,1.37-.08,2.07-.08a29.79,29.79,0,0,0,5.45-.08h5c.66-.17,4-.54,4.5-.21a4.87,4.87,0,0,1,.9.08c.09,0,0,.13,0,.21Z" style="fill:#fff"/><path d="M117.86,113.3c-.25-.34-.29-.71-.5-1-1.32-1.94-4.79-3.42-8.21-3.38-.42.25-1,.08-1.53.2a18.39,18.39,0,0,0-2.27.71c-2.69,1.11-4.46,3.88-5.33,6.77a9.87,9.87,0,0,0,.08,4.5,18.41,18.41,0,0,0,.42,2.14,6.09,6.09,0,0,0,1.11,1.74c1.57,2.23,2.15,2.64,5,3.59a9,9,0,0,0,4.09.62c3.51-.74,5.9-1.65,7.47-4.3a13.19,13.19,0,0,0,.7-10.15c-.17-.58-.7-.91-1.07-1.4Zm-15.57,1.32c.13-.09,0-.05.21-.09l4,3v.08c-1.65-.13-3.67-.33-5.24-.5A5.12,5.12,0,0,1,102.29,114.62Zm3.88,12.55c-.7-.13-1-.54-1.65-.71.46-1.32,2.23-2.51,3-3.67h.09c-.25,1.49-1.2,2.77-1.41,4.38Zm-.2-4.83c-1,.78-1.78,1.94-3,2.56a10.14,10.14,0,0,1-1.94-5.66c2.19,0,3.76-.41,5.87-.41a2.23,2.23,0,0,0,.82,1.94A7.16,7.16,0,0,1,106,122.34Zm9.74,3.79a9.3,9.3,0,0,1-2.35,1.12c-1,.37-4.3,1.32-5.54.41-.12-.25.09-.91.21-1.32a28.19,28.19,0,0,1,1.32-4.29.84.84,0,0,0,.08-.29,5.18,5.18,0,0,0,1.53-.21c.62,1.36,1.2,4.34,2.07,5.33.12.08,0,0,.2.08a9.69,9.69,0,0,1,1.32-.91,17.65,17.65,0,0,0-2.06-4.62v-.29l3.8,1.44h.41a6.07,6.07,0,0,0,.41-2.14c-1.07-.13-3.59-.58-4.29-1.12-.21-.12-.5-1.44-.62-1.73,1.4-.74,2.27-2.35,3.68-3.1a2.28,2.28,0,0,0-1.45-1.44c-.12-.09,0,0-.21-.09-.78,1.24-1.85,2.36-2.68,3.6h-.08a17.82,17.82,0,0,1,1.44-4.21c-.29-.5-1.15-.42-1.65-.71a1,1,0,0,0-.29.09c-.7,1,0,3.13-.7,4.21v.2a4.93,4.93,0,0,0-2.56.62c-.41.13-.82-.62-1.11-.91-1-.94-1.74-2.31-2.89-3.09.12-.54.57-.62.9-.91.91-.83,4.22-2.15,6.36-1.65,2.93.7,5.66,2.35,6.77,4.83,1.7,3.55.33,9.33-2,11.1Zm-7-6.89c0-1,.25-1.07.7-1.53a2.11,2.11,0,0,1,.83.09c.41.12.37.37.62.61a1.54,1.54,0,0,1-.41,1.24.79.79,0,0,0-.5.09A1.17,1.17,0,0,1,108.73,119.24Zm116.42-7.68c-.24-.33-.29-.7-.49-1-1.32-1.94-4.79-3.43-8.22-3.39-.41.25-1,.09-1.52.21a18.42,18.42,0,0,0-2.28.7c-2.68,1.12-4.45,3.88-5.32,6.77a9.73,9.73,0,0,0,.08,4.5,21,21,0,0,0,.41,2.15,6.29,6.29,0,0,0,1.12,1.73c1.57,2.23,2.15,2.65,5,3.6a9.08,9.08,0,0,0,4.08.61c3.51-.74,5.91-1.65,7.48-4.29a13.21,13.21,0,0,0,.7-10.16c-.17-.57-.7-.9-1.08-1.4Zm-15.56,1.32c.12-.08,0,0,.21-.08l4,3v.08c-1.65-.12-3.67-.33-5.24-.49A5.28,5.28,0,0,1,209.59,112.88Zm3.88,12.51c-.7-.12-1-.54-1.65-.7.45-1.32,2.23-2.52,3-3.67h.08C214.63,122.54,213.68,123.78,213.47,125.39Zm-.21-4.79c-1,.79-1.77,1.94-3,2.56a10,10,0,0,1-1.94-5.65c2.19,0,3.76-.42,5.86-.42A2.21,2.21,0,0,0,215,119,7,7,0,0,1,213.26,120.6Zm12.43-.41a11.78,11.78,0,0,1-3.3,4.83,8.9,8.9,0,0,1-2.27.7c-1,.29-4,1-5,.21a2.7,2.7,0,0,1,.21-1.32c.29-.91.86-3.68,1.32-4.3a.74.74,0,0,0,.08-.29,5.68,5.68,0,0,0,1.53-.2c.7,1.86,1.36,3.67,2.06,5.53a3,3,0,0,0,1.53-.91c.08-.12-.17-.82-.29-1.11a18.93,18.93,0,0,0-1.73-3.59v-.29c1.44.41,2.76,1.23,4.29,1.52a4.11,4.11,0,0,0,.5-2.27,13.39,13.39,0,0,1-4.5-1.11,8.22,8.22,0,0,1-.62-1.74c1.48-.78,2.39-2.35,3.79-3.17-.16-.83-1-1-1.44-1.53-.37.08-2.68,3.22-3,3.67h-.09c.25-1.61,1.12-2.89,1.45-4.41a8.93,8.93,0,0,1-1.73-.62h-.21c-.17.82-.37,3.84-.7,4.41v.21A4.9,4.9,0,0,0,215,115c-.41.12-.83-.62-1.12-.91-.95-1-1.73-2.31-2.89-3.1.17-.61,1-1,1.53-1.32,1.16-.62,3.76-1.73,5.86-1.24,3,.71,5.54,2.23,6.69,4.84a13.49,13.49,0,0,1,.62,6.89ZM216,117.51c0-1,.25-1.08.7-1.53a2.41,2.41,0,0,1,.83.08c.41.13.37.37.62.62a1.55,1.55,0,0,1-.42,1.24.83.83,0,0,0-.49.08C216.44,118,216.4,117.88,216,117.51Z" style="fill:#e6e7e7"/><path d="M72.82,101.82a1.93,1.93,0,0,0,1-3,1,1,0,0,0-1-.71,8.93,8.93,0,0,1-.83.62,10.62,10.62,0,0,0-.08,2.27Zm-61.06-3.3a13.22,13.22,0,0,1-1.24,4.21v.62A34.89,34.89,0,0,0,14,102c0-.66-1.78-3.17-2.23-3.5Z" style="fill:#fcb813"/><path d="M89.54,96.24c-1.57.42-3.35.5-5,.91a9.53,9.53,0,0,1-2.56.5,7,7,0,0,1,.29,3.47,2.4,2.4,0,0,1-3.47,1.32c-1.16-.75-.62-1.82-1.24-2.89v-.5h.21c.21.66.54,1.41.7,2.07.45.12.83.33,1.24,0a.88.88,0,0,0,.62-.62,2.17,2.17,0,0,0-.08-1.94c-.17-.46-.42-.46-.71-.71a2,2,0,0,0-1.73.91c-.08-.12-.08-.16-.08-.41a16.86,16.86,0,0,1-2.56.41c.74,2.6.08,4.09-2.77,3.8-1-1-1.36-1.15-1.24-3.1a30.43,30.43,0,0,0-5.86.83c-.91.21-1.86,0-2.48.5-1,.33-1,2.14-1.11,3.38,1.11.08,2.27.13,3.38.21a4,4,0,0,0,1.24.29A45,45,0,0,0,71,104h1.94c2-.08,4-.12,5.94-.2.58-.13,1.45-.29,1.94-.41l1.33.08c3.79-1,7.92-1.69,10.77-3.59,1.49-1,4.5-2.85,4.71-4.92A30.34,30.34,0,0,0,90.94,96l-1.4.2Zm158.61.62a16.62,16.62,0,0,1-.33-2.56c-.46-2.89-.5-6.52-1.82-9.28-1.48,1.19-4,2.22-4.66,4.17a3.54,3.54,0,0,0,.2,2.47c.54,1,1.53,1.53,2.15,2.36.21.24.41.57.62.86a.66.66,0,0,1,.74.21,25.5,25.5,0,0,0,3,2.68v-.12c0-.25,0-.54.08-.79Z" style="fill:#fcb813"/><path d="M148.28,64.87c1,1.32,2.4,2.35,3.39,3.67,2.1,2.85,4.7,5.25,6.85,8.09,1,1.41,2.56,2.48,3.47,4,1.36,0,2.77.25,4,.29a4.85,4.85,0,0,0,2-.41h.62c-.9-1.41.29-5.66-1-6.65-.7-.74-4.09-.37-4.79-1.07-2.56-1.94-4.91-4.26-7.47-6.2-1.24-.95-2.19-2-3.39-2.89-.45-.29-1.36-.24-1.69-.7l-.66,0a8.73,8.73,0,0,1-2.15.87C147.54,64.37,148,64.5,148.28,64.87Z" style="fill:#bfbebe"/><path d="M178.83,64.08c.83.62,1.49,1.49,2.36,2.15l2.06,2.07c2.23,1.69,4.09,3.79,6.28,5.45a16.77,16.77,0,0,1,3.88,3.38,21.68,21.68,0,0,0,4-.62h.21c-1.82-3.1-4.25-5.61-6.36-8.42a26.32,26.32,0,0,0-2.89-3.59c-1.11-.62-3-.17-4-.83H184c.91,1.36,2.4,2.35,3.39,3.68a10.75,10.75,0,0,0,1.94,2.35v.21c-1.9-1.28-3.43-3.1-5.25-4.5-.7-.5-1.52-1.82-2.27-2.15-1.56-.21-3.13-.46-4.7-.7A7.61,7.61,0,0,0,178.83,64.08Z" style="fill:#bfbebe"/><path d="M142.38,68.34c2.72,3.59,6.36,6.4,9,10,.74,1,1.86,1.73,2.56,2.76,0,0,1.2.87,1.24.87a22,22,0,0,0-1.57-3.06c-1-1.36-2.39-2.93-3.39-4.25-2.39-3.18-5.53-5.41-7.88-8.63-.54-.7-1.57-1-2.06-1.69H140a4.57,4.57,0,0,1-.83.74C140,66.36,141.47,67.14,142.38,68.34Z" style="fill:#bfbebe"/><path d="M166.9,63.92c1,.78,1.94,1.77,3,2.56.33.37.71.74,1,1.11a6.54,6.54,0,0,1,1.65,1.53h.2c-.41-1.11-.41-3.47-.82-4.62s-1.28-1.08-1.53-2.27H165A9.82,9.82,0,0,0,166.9,63.92Z" style="fill:#bfbebe"/><path d="M232.3,135.75s0,0,0-.06a5.32,5.32,0,0,0-1.35-1.37c-1.41,0-2.95,0-4,0-.54,0-1.12,0-1.65.08-1.12-.2-2.77.21-4-.08a23.53,23.53,0,0,0-3.88-.08c-1.86,0-3.67,0-5.53-.09s-3.92,0-5.86.09a7.37,7.37,0,0,1-2.77.2,25.2,25.2,0,0,0-4.83-.2H196.5c-2-.46-4.46,0-6.56,0-3.35,0-7-.21-10.65-.21-2.4,0-4.79,0-7.19.08-1.65-.37-4,.17-5.73-.2-.29,0-3.35-.17-3.8-.09a5,5,0,0,1-1.45.09c-3.09-.7-6.85.08-10.15.08-1.7,0-4.54.12-5.74-.29H135a22.75,22.75,0,0,0-5.12.21h-1.73c-1.32,0-2.69,0-4,.08a6.78,6.78,0,0,1-2.35-.21c-2.31,0-4.67,0-7-.08-.7.5-4.42.33-5.53.29-5,0-10,0-15.07-.08a12.68,12.68,0,0,1-3.47.08H86.65a40.08,40.08,0,0,0-4.71-.21c-5.08,0-10.11,0-15.19.09-2.48,0-6-.42-8.22.08H55.85c-2.11,0-4.67,0-6.07.08H41.89a16.83,16.83,0,0,0-2.89.08c-.49.13-2.14-.16-2.35-.08,0,0-.16.37-.29.41h-4.5c-1.5,0-3.56-.05-5.35,0a2.13,2.13,0,0,0-.32.26,1.94,1.94,0,0,0,.52.83c.34,0,.66.09.94.14a2.67,2.67,0,0,0,1-.08,3,3,0,0,1,1.45.21,4.53,4.53,0,0,0,1.86-.09h3.46l.29.29c1-.08,1.94-.2,2.89-.29a8.54,8.54,0,0,0,1.74.29c.2,0,.82-.33,1.11-.29s.46.29.91.21a7.61,7.61,0,0,1,3.1-.21c.12,0,.33.38.49.42.46.16.83-.17,1-.21a6.09,6.09,0,0,1,1.94.21c1.53.37,2.48-.5,3.88-.29,4.63.66,10.28-.58,14.45.49.75.21,1.28-.41,2.15-.2,1.12.24,4.09.41,5-.09a9.57,9.57,0,0,0,4.62.5c.46-.08,1-.37,1.53-.5.91-.2,1.15.66,2.15.42a21.56,21.56,0,0,1,8.29.2,4.57,4.57,0,0,0,2.36-.41,5,5,0,0,1,2.14.21,5.75,5.75,0,0,0,2.27-.21c1.41,0,2.81,0,4.21.08a27.13,27.13,0,0,1,8,.09c1.28.33,2.36-.21,3.6-.21,2.93,0,6.52-.25,9.33.41h1.85c2.48,0,4.09-.29,6.57-.29h1.94c1.4.33,3.26-.45,4.42-.08a7,7,0,0,0,.82.41,3.06,3.06,0,0,0,1.94-.29c1,0,2,.05,3,.09a16.09,16.09,0,0,1,3.68-.29c1.57,0,3.14,0,4.7.08a15.85,15.85,0,0,1,1.86-.08,13.36,13.36,0,0,0,4.5.2,23.16,23.16,0,0,1,7.6-.2c1,.2,1.9-.17,2.76,0a7.93,7.93,0,0,0,2.77-.08c.95-.21,2.27.33,3.39.08a34.05,34.05,0,0,1,8.71.08,13.88,13.88,0,0,0,5.53-.08c1.16-.25,2.72,0,3.67-.21a6.55,6.55,0,0,1,2.36.08,7.22,7.22,0,0,0,2.56-.08c1-.21,2.27.08,3.09-.08,1.86-.41,3.39,1,5.53.41a23.06,23.06,0,0,1,8.63-.2c.95.2,1.82-.34,2.56-.21a24.64,24.64,0,0,0,6.48-.08c2.4-.21,5,.37,7.06-.09Z" style="fill:#bfbebe"/><path d="M78.51,79.73a13.07,13.07,0,0,1,4,.08H84a41.28,41.28,0,0,0,4.42.42c1.36,0,2.72,0,4.09.08a5,5,0,0,0,2.68-.08H96.6l-.09-.09c-.24-.33-.53-.24-.91-.49-.66-.37-1.32-1-2.06-1.32a28.7,28.7,0,0,0-4.21-1.24c-1.16-.33-2.68-.21-3.59-.83h-.21v-.2a56.13,56.13,0,0,1,6.69-4.83c5-3.55,10.61-6.32,16.31-9.25,1.19-.62,2.6-.74,3.88-1.32.37-.17.7-.5,1.11-.7a2.27,2.27,0,0,0-.08-.62c-.62,0-.7.37-1.12.49-1.19.42-2.76-.12-3.67.5-.29-.17-.21-.42-.08-.7-1.08.2-2.19.62-3.18.9a20,20,0,0,0-2.77.5c-4.58,1.82-8.54,4.42-12.51,6.85-3.26,2-6.48,3.72-9.66,5.74-2.6,1.69-5.24,3.59-7.88,5.24A4,4,0,0,0,72.36,80,29.06,29.06,0,0,0,78.51,79.73Z" style="fill:#bfbebe"/><path d="M205.71,77.34a.8.8,0,0,1,.29.08C205.79,77.38,205.79,77.42,205.71,77.34Z" style="fill:#bfbebe"/><path d="M205.5,77.42h.21v.08C205.5,77.46,205.59,77.5,205.5,77.42Z" style="fill:#bfbebe"/><path d="M205.17,77.54c.21,0,.21,0,.29.09C205.3,77.58,205.3,77.63,205.17,77.54Z" style="fill:#bfbebe"/><path d="M205,77.63h.2v.08C205,77.67,205.09,77.71,205,77.63Z" style="fill:#bfbebe"/><path d="M154.1,81c.21.12.21.12.29.41h-.08l-.08-.08C154.19,81.22,154.15,81.13,154.1,81Z" style="fill:#bfbebe"/><path d="M75.17,111.07c-.91-.25-2.44.33-3,.2-.09,0-.42-.29-.5-.29H70c-.5.13-1,.29-1.45.42a13.09,13.09,0,0,1-4.42,2.14l-3.09.62c-.54.25-.62.87-1,1.12-.25.16-.54.08-.83.2a4.57,4.57,0,0,0-.49.42c.08,1,1,.7,1.65,1.11.41.25.62.66,1.24.83a2.42,2.42,0,0,0,1.23-.21h4.83c.71,0,1.37-.08,2.07-.08.33.08.78.41,1.11.49.7.09,1.45.21,2.15.29l3.67-.08a3,3,0,0,0,.91-.5c1-.74,1.12-3.38.42-4.62a4.62,4.62,0,0,0-2.77-2.06Zm-62.46.41c-.13.08-.17.08-.42.08-.37.37-.74.46-.9,1-.62.87.2,1.86.7,2.27.74.58,1.4,2.19,3,1.53a5,5,0,0,0,.91-.7A3.46,3.46,0,0,0,12.71,111.48ZM203.81,77c1.2-.46,2.39-.87,3.59-1.24a.72.72,0,0,1,.58,0,1,1,0,0,1,.12-.21h.09V73.75c-.17-.42-1.45-1.24-1.86-1.53-1.28-1-2.44-2.69-4-3.31-.53-.2-1.44.13-1.85,0-.17,0-.46-.41-.62-.49a9,9,0,0,0-1.45-.74,0,0,0,0,0,0,0c.33,1.07.95,2.06,1.2,3.18.17.74.21,1.57.41,2.31a16,16,0,0,1,.54,4.66H202a8.53,8.53,0,0,1,1.78-.86ZM96.55,80.35h5.78c4.92,0,12.93.58,16.31-.95,1.65-.74,2.68-2.64,3.88-3.88.91-1,2.52-1.32,3.59-2.11.29-.2.29-.53.54-.82s.87-.5,1.16-.83a17.55,17.55,0,0,1,2.1-2.51c.21-.17.46,0,.74-.13l1.16-1.28c1.07-.82,4.21-3.38,4.62-4.62,1-1.65-1.77-3.84-3.67-3.39-.12,0-.33.25-.54.21s-1-.33-1.36-.41c-1-.25-2.43.08-3.38-.13-4.5,0-9.54-.16-14-.2-.41,1-1.86,1.15-3,1.52a26.51,26.51,0,0,0-3.88,1.94A131.24,131.24,0,0,0,90.2,72.42c-1.16.83-4.38,2.44-4.83,3.68h-.13v.2a47.34,47.34,0,0,1,8.22,2.11c1.15.54,2.06,1.53,3.09,1.94Zm9.91,37.4a20.88,20.88,0,0,0-4-3c-.13-.08,0,0-.21-.08a8.23,8.23,0,0,0-1,2.56,41.65,41.65,0,0,1,4.83.49Zm-1.94,8.59a2.28,2.28,0,0,0,1.65.91,13.75,13.75,0,0,1,1.45-4.09v-.29C106.3,123.74,105.72,125.43,104.52,126.34ZM50.23,105.12c-1,0-1.19.58-1.85.83-1.41,0-2.81-.09-4.22-.09-3.09,0-6.23.09-9.33.09a10.77,10.77,0,0,0-2.35-.83v.29c.21.08.41.21.62.29s0,.08.08.21a1.22,1.22,0,0,1-.29.9,30.51,30.51,0,0,1-3.46.09,2.53,2.53,0,0,0-.5-.42A1.56,1.56,0,0,1,29,106c-.53-.25-1.19-.25-1.32-.91a6.36,6.36,0,0,1-3.38.45c-1.16-.24-3.88-1.07-4.83-.66-.5.21-.66.66-1,1a.87.87,0,0,1,.91.57A13,13,0,0,1,20,109v.17a18,18,0,0,1,3.6-.13,9,9,0,0,0,1.85.21,61.72,61.72,0,0,1,6.77.08c3.47,0,6.24-.29,9.54-.29,2.06,0,4.13-.16,5.95-.2.94,0,2.47.2,3.09-.21.91-.25,1.82-2.48,2.48-3.18v-.08C52.34,105.45,50.65,105.66,50.23,105.12Zm-22.66-1.65c1.24.25,2.56,0,3.67.21h2.89a26.19,26.19,0,0,0,4.71.08,38,38,0,0,0,7.27-.29h1.52c1.45-.33,3.31.16,4.92-.21a3.94,3.94,0,0,1,1.52-.08c-.08-1.07-.08-1.24-.53-1.82a5.87,5.87,0,0,0-1-1.15c-.67-.54-3.84-.83-5.25-.5-2.1.46-4.79.21-7.18.21h-3c-.21,0-.5-.37-.71-.41-.7,0-1.44.08-2.14.08L28,99.38a18.81,18.81,0,0,0-6.27.08c-1,.21-1.78-.28-2.69,0s-2.56,1.41-2.06,3c.12.37.54.62.7.91.25-.09.25-.25.41-.29h2.56a37.12,37.12,0,0,1,6.9.41Zm20.72,8.34c0-.37-.12-.62-.41-.7a5.07,5.07,0,0,0-1.77-.13c-.58,0-2.56.17-3.35.33-2.1.46-5,.09-7.26.09-2,.08-4.05.12-6.07.2a54.85,54.85,0,0,0-8.92-.41,14.69,14.69,0,0,0,1.11,3.47c2.32.58,5.91.29,8.71.29,4.22.08,8.43.12,12.64.2a16.68,16.68,0,0,1,3.59-.29c.45-.49.95-1.07,1.44-1.52,0-.62,0-.79-.62-.83a2.92,2.92,0,0,1,.91-.7ZM37.64,122.38c2.19-.33,4.75.33,6.77-.08h1.94a29,29,0,0,0,3.8-.21c.91-.13,2.19.25,2.77-.21.37-.12.62-.37.41-.7a3.24,3.24,0,0,0-1.11-.83c-2.11.09-4.26.13-6.36.21a36.57,36.57,0,0,1-11.07-.21H33.35c-2.19-.45-6.15-.12-8.63-.08-.91.58-2.85-.25-3.8.29a4.57,4.57,0,0,0-1.94.21,1.38,1.38,0,0,0,.29,1,26.28,26.28,0,0,0,5.24.29h2.27a43.34,43.34,0,0,0,10.86.29Zm63.37-3c0,2.06.75,4.58,1.94,5.53.13.12,1.08-.62,1.32-.83s.5-.54.71-.82a11.58,11.58,0,0,0,2.56-2.27c0-.42-.71-1.08-.71-2.07-2.06,0-3.63.46-5.82.46Zm-43.47,8.71c-1.9.41-4.58.08-6.69.08s-4.7.29-6.56-.08c-2.81-.05-5.62-.09-8.42-.09a8.79,8.79,0,0,0-2.48-.49c.29.29.66.25,1,.49l.62.62c0,.5-.33.79-.21,1.32.42,1.57,2.4,2.15,3.8,2.77a21.41,21.41,0,0,0,12.43,1.44c1.82-.41,3.43-.28,4.91-.9a14.32,14.32,0,0,0,4.91-3.6,7,7,0,0,1,1.33-1.52V128c-1.37.21-3.18-.16-4.67.17Zm157.05-19.28a15.11,15.11,0,0,0-3.6,2.06c.25.7,1,1,1.45,1.53.74.95,1.69,1.77,2.35,2.76.46-.16.74-.57,1.24-.7s1,.21,1.53-.08a35.17,35.17,0,0,0,.7-4.5,4.62,4.62,0,0,1,1.94.62,2.39,2.39,0,0,1-.21.91,15.35,15.35,0,0,1-1.24,3.18v.29c1.28-.83,1.66-2.73,2.89-3.6v-.08c.71.25,1.08.87,1.66,1.24-.17.74-3,3-3.68,3.47a7.09,7.09,0,0,1,.29,1.73c1.53.25,3,1,4.62,1.12l.09.08a5.87,5.87,0,0,1-.5,2.15,13.93,13.93,0,0,1-4.09-1.53h-.28c.53,1,1.15,2.23,1.65,3.3.2.45.2.91.49,1.24,0,1-.78,1-1.32,1.44-1-.53-1.4-4.41-2.27-5.45a2.93,2.93,0,0,0-1.53.21c-.37.45-.29,1.12-.49,1.73-.42,1.28-.79,2.77-1.24,4.09a9.08,9.08,0,0,0,4.83-.08,8,8,0,0,0,2.56-.83,12.41,12.41,0,0,0,3.18-4.41,14.6,14.6,0,0,0-.41-7.19c-1.28-2.93-5.95-6.4-10.61-4.7Z" style="fill:gray"/><path d="M211.9,124.52c-.08.17,0,.09-.08.21a2.9,2.9,0,0,0,1.32.7c.41.17,1.82-4,1.65-4.29a20.53,20.53,0,0,1-2.89,3.38Z" style="fill:gray"/><path d="M232.71,115c-.37-1.08-.58-2.19-.91-3.18-1.94-5.9-8.59-11.52-16.64-11.4-.37.21-1,0-1.52.09-1.12.24-2.23.29-3.31.62a23.35,23.35,0,0,0-5,2.68c.29,1.57-.83,2.77-1.45,3.88a25.76,25.76,0,0,0-2.48,6.36c-.16.78.54,1,.29,1.94-.37,1.53-1.32,4.87-2.56,5.32.5,6.57,6.73,12,12.1,13.75a14.73,14.73,0,0,0,4.5.21,1.64,1.64,0,0,1,.83-.08,10.28,10.28,0,0,0,3.09-.5c.58-.08,1.16-.12,1.74-.21,2.8-1,5.86-2.23,7.47-4.41a15.87,15.87,0,0,0,1.94-2.89,35,35,0,0,0,1.94-3.51c0-.58.41-1.61.37-2.19a14,14,0,0,0-.49-4.75c0-.58.28-1.28.12-1.73Zm-6.15,5.61a16.8,16.8,0,0,1-1.12,2.89c-1.52,2.48-3.88,3.39-7.18,4.09a9.2,9.2,0,0,1-4.42-.62c-4-1.28-5.32-3.1-6.48-7.27a9.44,9.44,0,0,1-.08-4.7c.86-2.77,2.39-5.33,4.83-6.57a12.62,12.62,0,0,1,2.68-.9c.5-.13,1.07,0,1.45-.21,7.06-.08,12.63,5.61,10.32,13.29ZM107.7,110.45a11.61,11.61,0,0,0-2.89,1.11c-.41.29-.58.74-1.11.91.12.7.78.87,1.11,1.32.62.83,1.9,2.73,2.89,3.1.29-.33,1.61-1.16,2.27-.7h.29c.21-1.49.41-2.94.62-4.42l.08-.08c.79.12,1.24.41,1.94.49a19.7,19.7,0,0,1-1.44,4.09v.29c1.24-.83,1.61-2.65,2.76-3.47.13-.08,0,0,.21-.08a7.69,7.69,0,0,0,1.45,1.23c-.17.79-2.94,2.69-3.6,3.39-.12.21.29,1.16.29,1.73a25.53,25.53,0,0,0,4.5,1.12,7.6,7.6,0,0,1-.41,2.15,11.13,11.13,0,0,1-4-1.45h-.16a25.89,25.89,0,0,0,2.06,4.62,1.66,1.66,0,0,1-1.32,1.12c-.12.08,0,0-.2.08-.5-1-.91-2.27-1.32-3.38a6.56,6.56,0,0,0-.71-1.94.65.65,0,0,0-.62.08,4,4,0,0,0-1,.08c-.53,1.9-1.11,3.76-1.65,5.66.08.16,0,.08.08.2,1.28.91,4.59,0,5.54-.41a9.34,9.34,0,0,0,1.52-.49c2.4-1.57,4.54-5.83,3.39-10.16-1-3.55-5.33-7.6-10.53-6.19Zm141,3.79c-.25-.24.08-1.11-.09-1.4a13.73,13.73,0,0,0-2.39.17,7,7,0,0,1-2.27.2,6.06,6.06,0,0,0-.91.7c-.25.33-.12.71-.29,1.12-.41,1.11-1.11,1.73-1,3.18.33.37.37.66.91.82.7.5,1.32-.12,1.86-.29.86-.24,1.52.25,2.27,0,1.15-.37,2.06-3,1.94-4.5Z" style="fill:gray"/><path d="M214.25,120c.29-.2.34-.45.71-.62-.29-.82-.83-1-.83-2.14-2.1,0-3.67.41-5.86.41,0,1.86.91,4.71,1.94,5.53v.08C211.37,122.87,213.22,120.81,214.25,120Zm-89.62-2.06c-.09-1.69-.7-3.35-.75-5-1.61-5-6.52-9.62-12.79-11-4.13-.16-8.38.21-11.6,2.23A12.12,12.12,0,0,0,94.86,110a33.58,33.58,0,0,1-.7,4.63c-.74,2.64-1.73,5.24-2.48,7.92a.71.71,0,0,1-.41.5c.16.7.37,1.32.45,1.57a16.32,16.32,0,0,0,7.06,9.24,15.15,15.15,0,0,0,8.63,2.48h1.94a28.28,28.28,0,0,0,4.42-1,17.83,17.83,0,0,0,10-9.87c.29-.7,1.32-4.54,1-5.53a18.63,18.63,0,0,0-.12-2Zm-5.37,3.84a13.27,13.27,0,0,1-1,3.3c-1.57,2.64-4,3.55-7.47,4.29a8.42,8.42,0,0,1-4.09-.61c-4.25-1.37-5.45-3.06-6.57-7.48a9.87,9.87,0,0,1-.08-4.5c.87-2.89,2.64-5.65,5.33-6.77a16.42,16.42,0,0,1,2.27-.7c.53-.12,1.11,0,1.53-.21C115.92,109,121.28,114.53,119.26,121.76Zm54.66-41.29c0-1.56-.16-2.6-.21-4.17a27.91,27.91,0,0,0-.78-5.53c-.08-.58-.12-1.15-.21-1.73-.37-.66-1.32-1.16-1.85-1.65a45,45,0,0,0-5.74-5v-.08h5.45c.33.25.95,2.76,1.32,3.3v.21H172c-.21-1.7-1.16-4.05-2.35-4.83-1.41-.87-4.92-.46-7-.42a62.12,62.12,0,0,0-16.72,2.15c-1.11.33-2.15.33-3.18.7a19.79,19.79,0,0,0-2.06,1c.49,1.37,2.31,2.85,3.18,4,2.51,3.47,5.53,6.44,8.09,9.87.91,1.23,2.14,2.27,3,3.59a21.92,21.92,0,0,1-3.39-3.8l-2.06-1.94c-1.4-1.86-3.14-3.3-4.5-5.12-.5-.5-1-1-1.53-1.44-1-1.28-2.19-2.32-3.18-3.6-.2-.29-.53-.37-.7-.7-.91.17-.58.74-1.11,1.12a18.62,18.62,0,0,1-1.86,1.11c-.5.25-1,.33-1.45.62a30.94,30.94,0,0,0-5.44,4.71,35.43,35.43,0,0,0-3.47,3.67c-.66.91-1.9,1.61-2.64,2.44a.8.8,0,0,1,.45.66,4.63,4.63,0,0,0,1.73,2.68.43.43,0,0,1,.13.21l1.11,0c.08,0,.08-.37.21-.41.29-.09,1,.41,1.44.08.83-.33.33-1.28.7-1.74s.71-.45,1-.7a19.69,19.69,0,0,0,3.67-3.8c1.86.13,4,.09,6.07.09a7,7,0,0,1,2.48.08A2.38,2.38,0,0,1,144.69,78v1.52a2,2,0,0,1,.08,1c-.16.49-.53.78-.62,1.52h7.27l.5.5a4.87,4.87,0,0,0,2.06-.21h1.24c-.08-.24,0-.16-.21-.29v0c1,.54,4.21.13,5.66-.08.78-.12,4.21-.74,4.91-.49.21.08.58.33.83.41l2.47-.08c1.45,0,2.81.28,3.8.2a1,1,0,0,0,.08-.41.94.94,0,0,0,1.12-.08,1.35,1.35,0,0,0-.08-.62c-.09-.37.41-.33.12-.42Zm-8.38.13h-3.39a13.19,13.19,0,0,1-1.32-1.74c-.82-1.07-1.85-2-2.68-3.09-1.49-2-3.43-3.64-4.91-5.66-.37-.33-.75-.7-1.12-1-1.11-1.49-2.39-2.64-3.59-4a5.28,5.28,0,0,0-1-1.12c.37-.58,1.86-.25,2.48-.62h.28a11.1,11.1,0,0,0,2.48,2.07c1.94,1.44,3.59,3.34,5.53,4.83l2.07,2.06a50.6,50.6,0,0,1,5.74,5.33l2.43,2.8.25.09a19.33,19.33,0,0,0-3.22.08ZM213.76,116a19.47,19.47,0,0,0-4.21-3.18c-.25.87-.7,1.69-1,2.56,1.11.41,3.79,0,4.7.62ZM198.28,75c-.62-2.6-.91-5.49-2.15-7.47-.78-1.24-3.63-2.76-5.24-3.18-.33,0-1.08-.58-1.41-.53a22.15,22.15,0,0,1-3.22-.71c-2.72-.9-5.4-1.15-8.21-1.94a12.35,12.35,0,0,0-3.68-.82c-.33.2-.82.2-1.11.41l-.5.5c.05.12.17.57.33,1.07a.78.78,0,0,1,1.28.41,22.3,22.3,0,0,1,.71,3.22.64.64,0,0,1-.33.66,3.6,3.6,0,0,1,.29.79,10.66,10.66,0,0,1,.28,2.31.65.65,0,0,1,.83.58,42.62,42.62,0,0,1,.5,10.28.88.88,0,0,1-.17.45,1.17,1.17,0,0,0,.41.46c1.45.94,4.54-.46,5.87-.83,1.73-.5,3.38-.54,5.11-1A45.88,45.88,0,0,1,198.73,78c-.49-.79-.2-1.94-.45-3Zm-.83,1.53c-1,.21-2.52,0-3.3.5a53,53,0,0,1-4.29-3.26c-2.27-1.7-4.21-3.72-6.49-5.45l-2.06-2.07c-.87-.66-1.53-1.53-2.35-2.15a6.9,6.9,0,0,1-1.74-1.52c.87,0,4.38.82,4.92.82a25.73,25.73,0,0,0,3.84,4,39.52,39.52,0,0,0,3.34,2.6h.08c-.25-.7-1-1.16-1.44-1.74-1-1.24-2.65-3.59-3.88-4.41l.33,0a22.4,22.4,0,0,0,3.88.79c.58.33,2,2.64,2.47,3.26,1.61,2.15,3.55,4.21,5.12,6.4a11,11,0,0,0,1.65,2.15l-.08.16Z" style="fill:gray"/><path d="M172,65.82c.08.12,0,.08.08.29H172Zm.08.41c.09.13.05,0,.09.21h-.09Z" style="fill:gray"/><path d="M213.55,117.75a27.85,27.85,0,0,1-4.91.91c.25,1.2.54,3,1.32,3.68v.2c1.32-1.52,3.39-2.52,4.5-4.21h.08a2.23,2.23,0,0,1-.41-.62h-.58Zm-98.79,8.3c1.24-.62,1.12-1.28,1.86-2.27v-.49a21.5,21.5,0,0,0-3.8-1.74c.58,1.2,1.78,3.14,1.94,4.5Zm0-10.57c-.74.54-1.36,1.61-2.27,1.94a13.16,13.16,0,0,1,.29,1.86,20.93,20.93,0,0,0,4.09,1c-.05-2.06-.38-4.17-1.45-5.24C115.46,115,115,115.36,114.76,115.48Zm-12,8.92h.08a7.06,7.06,0,0,1,1.86-1.44c1-.75,1.65-1.9,2.68-2.56a8,8,0,0,1-.29-1.53c-2.1,0-3.63.41-5.86.41,0,2.4,1,3.47,1.53,5.12Zm-1.36-7.27c.45.05,3.55.29,3.79.42h1v-.09c-1.45-.49-2.65-1.89-4.22-2.14-.12.66-.49,1-.61,1.81Zm4.12-5.86c-.62.21-1.11.87-1.65,1.24.21.58.79.79,1.12,1.24.62.82,1.9,2.72,2.89,3.1.29-.33,1.61-1.16,2.27-.71h.2c0-1.57.09-3.3.09-4.7-1.32-.17-3.47-.62-4.92-.17Zm7.48,1.24c-.38.91-.58,2.56-1.24,3.3v.42h.08c.62-1.08,1.24-2.11,1.86-3.18A5.22,5.22,0,0,0,113,112.51ZM111,121.63c-.25.05-.29,0-.41.09a4,4,0,0,0-1,.08c-.54,1.9-1.12,3.76-1.65,5.66.08.16,0,.08.08.2.7.5,4,.33,4.62-.08h.21c-.46-1.07-.62-2.19-1-3.39a20.85,20.85,0,0,1-.79-2.56Zm106.31-11.06a5.68,5.68,0,0,0-.08-1.24h-2.56c-.54.33-1.24.08-1.94.29s-.83.83-1.45,1c.12.7.79.87,1.12,1.32.57.79,1.73,2.56,2.68,2.89a7.79,7.79,0,0,1,1.73-.49C217.1,113.25,216.65,111.48,217.27,110.57ZM105.55,126.88a27.75,27.75,0,0,0,1.53-3.39l-2.35,2.77C104.89,126.59,105.22,126.71,105.55,126.88Zm107.18-11.19c-1.08-.54-2-1.49-3.18-1.86-.13-.08,0,0-.21-.08a5,5,0,0,0-.62,1.65c.46,0,3.55.29,3.8.41h.21ZM172.64,86.75c-1.16.7-4.25-.54-5.33.49a1,1,0,0,0-.2,1.45c.49,1.4,6.23,1.24,7.47.5a5.46,5.46,0,0,0,.08-1.45l-.49-.62A14.31,14.31,0,0,0,172.64,86.75Zm.91,1.77a14.14,14.14,0,0,1-5.45-.2.46.46,0,0,1-.08-.21c.53-.16,4.91-.29,5.32,0h.21v.41Z" style="fill:#595a5a"/><path d="M208.93,75.48a1.66,1.66,0,0,0,.08-.91c0-1.94-1.24-2.35-2.35-3.18a72,72,0,0,0-13.75-7.26,71,71,0,0,0-10.65-3.31c-2.35-.29-4.71-.53-7.06-.82-3.59,0-7.18-.09-10.77-.09-3.93,0-8.18-.2-11.4.5l-2.68.21c-1.45.37-2.93.74-4.3,1.11-.82.25-1.52.21-2.27.5-4.7,2-9.74,5.12-12.63,8.91a13.49,13.49,0,0,1-2.77,2.56l-3.09,3.1c-1.16,1.16-2.31,1.73-2.15,4,.5.54.7,1.24,1.45,1.53a14.75,14.75,0,0,0,3,.5c.54.12,1.32-.25,1.65-.09.16.05.41.46.62.5a3.12,3.12,0,0,0,2.35-.29,29.94,29.94,0,0,0,1.86,3,14.43,14.43,0,0,1,1.32,3.88c.62,2.48.21,6.4.21,9.25,0,6.69-.21,12.72-.21,19.2a1.52,1.52,0,0,1,.29.41,1.37,1.37,0,0,0,.62-.08c.49-.25.49-1.2.29-1.94a15.89,15.89,0,0,1,0-5.24v-1.94c.2-.83-.13-2.11.08-3.1a29.79,29.79,0,0,0,.08-5.45c0-7.6.42-14.24-3.38-18v-.21H143c1.65.66,8.17.66,10.24.21,1.15-.25,2.68.12,3.67-.08h2.35A32.81,32.81,0,0,0,165,82.5h1.94c1.74-.25,4.21.16,5.95-.21.58-.12,1.32.17,1.73-.08h1.32c.09.12.13.29.21.41a7.94,7.94,0,0,1,2.77,4.5c.08.66.12,1.28.2,1.94a23.64,23.64,0,0,1,.08,9.33c-.24,1.16-.08,2.4-.28,3.47v1.94c-.46,2.19-.13,4.66-.62,6.85v2.07a25.87,25.87,0,0,1-.29,4.41c-.17.79.16,1.94-.21,2.56v.09H179a11.78,11.78,0,0,1,.21-2.56c.29-1.32-.05-2.73.2-3.88v-2.56c.37-1.65.17-3.76.5-5.33.08-1.61.12-3.22.2-4.83.5-2.35.95-6.93.42-9.45,0-.7-.09-1.37-.09-2.07-.57-2.6-.78-5.53-2.68-6.77v-.2a18.39,18.39,0,0,0,4.71-.62c1.44-.33,2.72-.21,4-.62s2.48-1,3.68-1.45c1.44-.29,2.89-.62,4.29-.91.7,0,1.36-.08,2.06-.08,1.61-.37,3.68-.2,5.45-.62.95-.2,2,.13,2.69-.29.78.21,1.11,1.2,1.44,1.86a22.19,22.19,0,0,1,1.45,4.91c0,1.28.08,2.52.08,3.8.95,4.13-1,7.56-2.48,9.66l-2.06,2.07a24.37,24.37,0,0,0-3.59,6.77c-.58,2.47-1.16,4.91-1.74,7.39-.16.57-.82,3,.42,2.27.82-.42.66-2.31.9-3.31.66-2.39,1-5.16,1.94-7.38a22,22,0,0,1,3.1-5.25l1.94-1.94a17,17,0,0,0,2.15-3.67c.91-2.15.53-5.49.49-8.3a14.68,14.68,0,0,0-.41-3.47c-.5-2-.78-4.09-2.06-5.32.45-.83,2.31-1.12,2.68-2.15Zm-77.74,6.65a5,5,0,0,1-.91-.09,9,9,0,0,0,.09-1c.41.21.49.74.82,1Zm13-1.53c-.42,1.15-4.88.91-6.49.91-.57,0-1.77.16-2.14-.09h-3.39c-.16-.24-.33-.49-.49-.7a4.2,4.2,0,0,1,3.18-4.29c1.07-.29,3.09.29,3.88-.21,2.93-.08,4.41-.2,5.45,1.74a2.55,2.55,0,0,1,0,2.64Zm29.14.53c-5.61,0-10.77.46-16.1.5a32.67,32.67,0,0,0-5.74.21c-.62.12-1.48-.17-1.94.08h-4.7a6.33,6.33,0,0,0,.9-1.73,4.12,4.12,0,0,0-.41-2.77c-1.32-2.52-4.25-3-8-2.27-1,.21-2.06-.13-3,.08a5.26,5.26,0,0,0-3.38,3c-.17.38-.09.87-.29,1.24s-.87.37-1.12.62a3.64,3.64,0,0,0-.62,1.45c-1.24,0-3,.12-3.8-.42-.49-.16-.53-.49-.82-.82,0-1.24.82-1.53,1.44-2.15a39.09,39.09,0,0,1,4-3.8c1.69-1.28,2.72-3.42,4.42-4.7a76.15,76.15,0,0,1,6.68-4.71c2.36-1.44,5.62-2.06,8.51-2.89,2.31-.29,4.66-.62,7-.91,1.16-.25,3.64.41,4.5-.08h8.3l.91.91a18.81,18.81,0,0,1,2.07,4.62c.61,1.86.45,4.21.9,6.28V74a19.62,19.62,0,0,1,.29,4.21,8.16,8.16,0,0,0,.09,2.69,1.1,1.1,0,0,1-.09.28ZM175,81a5.52,5.52,0,0,1-.41-.62c0-1.73-.08-3.47-.08-5.24-.37-1.69-.13-3.63-.5-5.45-.7-3.06-1.24-6.77-3.09-8.63V61a10.36,10.36,0,0,0,1.11.08c1.82,1.9,2.48,5.12,3.18,8.09l.21,2.69a39,39,0,0,1,.82,9A9.3,9.3,0,0,0,175,81Zm22.46-4.21c-.29.62-1,.25-1.73.41l-3.8.62c-4.33,1.28-8.79,3.22-14.45,3.1,0-5.24-.7-11.44-2.06-15.48-.46-1.37-.66-3-1.53-4v-.2A44.91,44.91,0,0,1,189.15,64c1.37.5,2.61.91,3.8,1.45a2.17,2.17,0,0,0,.5.08,1.49,1.49,0,0,1,.08.41c.41.58,1.11,1.08,1.53,1.65.33.42.41.87.7,1.32a18.06,18.06,0,0,1,1.94,5.74,2.93,2.93,0,0,1-.25,2.15Zm1.45,0a15.31,15.31,0,0,0-1.65-7.8c-.42-.75-.66-1.7-1.33-2.15v-.21c2.32,1.08,3.89,6.53,3.8,10.16Zm2.06-.08a19.39,19.39,0,0,0-1.11-6.15c-.29-.79-.33-1.7-.91-2.15v-.21c1.15.58,2.23,1.32,3.3,1.94,1.69,1,3.39,1.74,4.91,2.89.33.25.46.71.71,1C207.86,76.51,203.48,76.8,201,76.72ZM74.34,109.41c-.24.17-.66.09-1,.21s-1,.54-1.32.7c-.66.29-1.36.25-2.06.5-1.66.62-3.47,1.4-5.12,2.06s-3.72.79-5.33,1.53c-.29.25-.54.5-.82.7a4.49,4.49,0,0,0-.21,1.24c.45.5.78,1.16,1.44,1.45,1.41.61,3.27.28,5,.28h8.63c2.48,0,5.32.25,6.36-1.23a6.2,6.2,0,0,0-.09-5.95c-1-1.28-3-1.53-5.49-1.49Zm4.21,7.11c-3.46.82-8.67.33-12.42.49-2.64.12-5,.17-6.48-.91.33-.95,3.26-1.28,4.41-1.65,2.19-.7,4.42-1.77,6.57-2.56,1.28-.49,2.52-.54,3.59-1.24,2.56,0,3.14.17,4.62,1.12.54,2,.79,3.14-.29,4.75Zm14.5-24.11c-.67.41-1.86.12-2.69.28-1.32.33-2.72.46-4.21.83C80.33,95,73.81,95.58,67.9,97c-3.13.78-6.23.25-7.39,3.09a4.9,4.9,0,0,0-.08,2.77c1.4,3.84,8.3,2.27,12.84,2.27,6.89,0,13.91-1,18.25-3.59.86-.54,1.65-1.2,2.47-1.73,1.57-1,3.64-1.9,4.22-3.89a4.75,4.75,0,0,0-.21-1c-.66-2.35-2-2.56-5-2.47Zm.08,6.44a27.64,27.64,0,0,1-8.22,3.88c-1.44.45-3,.49-4.42.82-2.64.08-5.28.21-7.88.29-2.4.12-8.51,1-10-.29-1.08-.37-1.12-1.77-1-3.09.28-.29.37-.79.7-1,1.57-1.07,5.36-1,7.59-1.52,5-1.28,10.82-1.82,15.82-3.1,1.65-.41,3.3-.54,4.83-.91.78-.2,1.73,0,2.35-.29a7.83,7.83,0,0,1,3.67.5c.09.29.21.53.29.82,0,2.4-2.27,3-3.67,3.93Z" style="fill:#595a5a"/><path d="M199.81,85.72c.53.33,1.61,0,2.06-.09H205a4.12,4.12,0,0,0,1.11-.7,2.11,2.11,0,0,0-.08-1.52c-.21-.54-.79-.54-1.53-.5-1,.66-3.26-.12-4.29.5a1.65,1.65,0,0,0-1.12.49c0,.37-.12.5,0,.7a1,1,0,0,0,.75,1.12Zm.33-1.2a23.55,23.55,0,0,1,4.91-.5v.42c-1,.16-3-.21-3.8.29h-1.11Z" style="fill:#595a5a"/><path d="M249.88,93.31a11.68,11.68,0,0,0,0-4c-1-4-2.72-7.14-5.74-9a9.51,9.51,0,0,0-2.35-.7c-1.24-.42-2.64-.87-3.88-1.24-.87-.25-1.65-.17-2.56-.42-1.65-.45-3.47-.61-5.24-1.11-2-.58-4.17-1.2-6.15-1.73-2.15-.62-4.13-.71-6.15-1.32-3.22-1-5.83-2.89-8.43-4.5-1.61-1-3.51-1.49-5.12-2.48a53.79,53.79,0,0,0-7.39-4.09,104.47,104.47,0,0,0-14.65-4.62c-3.22-.83-6.94-.7-10.16-1.45-2.6-.25-5.2-.49-7.8-.7h-3.1c-1.32-.33-3.22-.21-4.62-.5h-1.86c-.58-.12-1.57.05-2.27-.08a22.1,22.1,0,0,0-3.67-.08h-7c-3,.12-5.94.29-8.92.41-1.36.29-3.05.13-4.41.42h-1.66c-.86.2-2.06.2-3,.41h-1.44c-3.35.74-7.19.54-10.37,1.32-1.11.29-2.18.12-3.3.49-2.15.75-4.66,1.16-6.77,2.07-1.4.58-2.93,1.36-4.29,1.94s-2.48.78-3.68,1.32-2.47,1.4-3.67,1.94A47.06,47.06,0,0,0,85,67.92c-2.27,1.41-4.7,2.65-7,4.09-1.86,1.16-3.72,2.77-5.74,3.68-.13.12-.87-.25-1.12-.29a17.28,17.28,0,0,0-4.21-.21,6.05,6.05,0,0,0-4,3.47c-.17.33-.08,1-.29,1.32s-2.31.62-3,.82c-3,.91-6.4,1-9.66,1.86-7.89,2-16.6,3.1-24,5.53-2.68.91-5.45,1.53-7.68,2.89-4.09,2.48-5.9,5.25-7.68,10a14.46,14.46,0,0,0-.7,5.12v1.65a18.76,18.76,0,0,0,.41,2.06c.33,1,1.2,2.68.83,4.29-.25,1-.7,2-.91,3a8.42,8.42,0,0,0,.08,2.89c0,.74.09,1.48.09,2.27a7.48,7.48,0,0,0,2.89,4.5l.9,1c1,.7,3.18.12,4,.62h9c.58.25,1.82,2.19,2.48,2.68a23.59,23.59,0,0,0,6.68,3.18c1.08.37,2.11.13,3.31.41a10.94,10.94,0,0,0,4,.09,2.49,2.49,0,0,1,.7.08,10.72,10.72,0,0,0,3.1-.41h.21c-.62-.46-1.65-.09-2.56-.29A26.88,26.88,0,0,1,41,133a16.19,16.19,0,0,1-3.6-2.48A5.77,5.77,0,0,0,36,128.74v-.21h15c2.84,0,6.15.21,8.62-.29H63c2.85-.62,6.4.21,9.25-.41h2.27a35.81,35.81,0,0,0,6.69-.21c1-.21,2.31.25,3.09-.21,1.08,0,.91,1,1.33,1.66a13.81,13.81,0,0,0,1.85,2.27,19.4,19.4,0,0,0,11.81,4.83c1.45.08,3.88.37,5.16-.13a11.09,11.09,0,0,1-1.69-.74,7.72,7.72,0,0,1-1-.25c-1.12-.41-1.9-1.48-2.77-2.14-2.52-1.9-3.92-5-4.83-8.51a4.85,4.85,0,0,1,.21-2.27V120.6c.33-1.28.9-2.8,1.32-4.08,1.36-4.17,1.44-8,4.62-10.37.62-.49,1.12-1.28,1.86-1.65,1.15-.62,2.56-.62,3.88-1,1.16-.37,3.8-1.2,5.45-.83,2.81.66,7.26,2.65,8.71,4.63,1.9,2.56,2.93,5.78,4,9.12.91,2.85-.33,8.13,1.86,9.74,1.16.87,2.85.83,4.91.83,2.77-.08,5.54-.12,8.3-.21,4.92,0,10.2-.2,15.4-.2,3,0,6.57.37,9.25-.21h2.89c1.82,0,3.63-.08,5.45-.08a24.69,24.69,0,0,0,3.88-.08h4.42c2.14-.09,4.29-.21,6.48-.29,1,0,4,.29,4.62-.09h1.24c.08.09.7,2,.83,2.27a10.85,10.85,0,0,0,2.89,3.39,22.14,22.14,0,0,0,8.83,3.8h7c-.79-.62-2.11-.58-3-1.12a16.22,16.22,0,0,1-7-10.36,4.85,4.85,0,0,1,.21-2.27V120c.37-1.4,1-3,1.44-4.5,1-3.18,1.45-7.06,3.18-9.45.29-.29.62-.54.91-.83,1.94-1.94,3.38-2.39,6.56-3.18a14.46,14.46,0,0,1,5-.28c2.81.66,7.26,2.64,8.71,4.62.66.87,1,1.94,1.53,2.89a14.38,14.38,0,0,1,1.73,3.59c.5,1.69.74,3.06,1.12,4.71.45,2-.34,4.7.41,6.48a4.31,4.31,0,0,0,3,2.06h1.94c3.14,0,3.76-.24,5.66-1.44a12.57,12.57,0,0,0,5.24-6.69c.54-1.69.33-3.39.7-5.24a23.18,23.18,0,0,0,.08-5.66,20.49,20.49,0,0,1-.7-5.12,16.57,16.57,0,0,1,.83-4.7,18.4,18.4,0,0,1-.17-3.93Zm-183-16.8a4.23,4.23,0,0,1,2.15,0h1.53v.21c-2,1-4.13,2.8-6.69,3.09A3.93,3.93,0,0,1,66.87,76.51ZM13.12,97.94a6.27,6.27,0,0,1,.49,3.18,11.73,11.73,0,0,0-1.23,1.32h-1C11.8,100.74,12.75,99.51,13.12,97.94ZM247.94,116.6a12.37,12.37,0,0,0-.41,1.44,7.93,7.93,0,0,1-4.83.29c-.33-1.4.33-4.17,1.53-4.7.62-.29,1.73,0,2.35-.42h1.86c-.17,1.16-.33,2.27-.5,3.39Zm.58-4.5c-2.44,0-5.08.12-6.07,1.53a8.26,8.26,0,0,0-.62,2.14c-.25.83-.86,2.07-.2,2.89.33,1,1.81,1.16,3.09.91.66-.12,1.41.12,1.86-.21h.08c-.53,2.11-3.42,4.34-5.45,5-.66.21-1.28,0-2.06.21a7.21,7.21,0,0,1-2.68.08,13.12,13.12,0,0,1-2.15-1c-.12-.46-.29-1-.41-1.45v-1.86a19.37,19.37,0,0,0-.29-4.41c-1.24-4.63-3.06-10.08-6.48-12.51a20.65,20.65,0,0,0-3.89-1.74,19.53,19.53,0,0,0-3.09-1.32c-1.69-.45-7.14,0-8.51.42a26.63,26.63,0,0,0-6.15,2.68c-3.51,2.56-4,8.13-5.32,12.92-1,3.68-.87,6.44-4.21,7.8-1.33.54-3.1,0-4.71.29-1.45.33-3.43-.24-5,.09-3.05.66-7,0-10.36.28-2.68.25-5.32.09-8.09.09h-3.59c-2.85.62-7.52.2-10.78.2h-9.66a28.17,28.17,0,0,1-5.32.21h-1.94c-1.24.29-3-.21-4.42.08a9.49,9.49,0,0,1-3.8.21,16.83,16.83,0,0,1-2.15-1c-.12-.46-.29-1-.41-1.45V121.3a19.37,19.37,0,0,0-.29-4.41c-1.28-4.67-3-10.08-6.48-12.51a22.67,22.67,0,0,0-4.29-1.94c-.5-.21-1-.66-1.53-.83a16.24,16.24,0,0,0-7.47-.08,15.83,15.83,0,0,0-2.15.21,28.24,28.24,0,0,0-6.15,2.68c-4.42,3.22-4.13,11-6.28,16.22-.53,1.37-.57,2.89-1.44,3.88-1.12,1.37-3.39,1.16-5.45,1.66h-1c-2.11.49-4.83.28-7.19.28a16,16,0,0,0-2.89.09h-4a33.58,33.58,0,0,1-6.77.29H59.89c-.45.08-1.28,0-1.85.08-2.32.54-5.41.21-8,.21-5.29,0-11,.08-16.43.08-4.34,0-8.67-.08-13-.08-1.53,0-4.62.24-5.66-.29-.28-.29-.53-.62-.82-.91a6.28,6.28,0,0,1-2.56-3.8l-.08-1.44a7.19,7.19,0,0,1-.21-2.89,16.06,16.06,0,0,0,.62-2.48c.33.2.58.58.91.7a6.15,6.15,0,0,0,4.42-.5c.45-2.14-1.2-3-2.15-4.08-.21-.25-.33-.62-.62-.83a2.29,2.29,0,0,0-2.07.08c-1.56-.33-1.4-5.2-1.32-7.18,3.6,0,4.13-2.27,3.39-5.32-.17-.75,0-1.74-.08-2.36a5.17,5.17,0,0,0,1.23-1.44c.54.24.83.78,1.45,1,.87.33,1.73.08,2.77.29a43,43,0,0,0,8.83.49h3.67c2.48.38,5.29.13,7.6.62,1.28.29,2.64,0,3.8.21h2.68c1.53.33,3.35.21,4.71.49h3.3a15.49,15.49,0,0,0,5.53-.2c.79-.17,1.7,0,2.27-.41a1.29,1.29,0,0,0,.62-.21,1.26,1.26,0,0,0-.29-.83,14,14,0,0,0-2.76.42c-1.4.33-3.47-.17-4.62,0a6.35,6.35,0,0,1-2.15.08c-2.27-.5-4.87-.13-7.19-.62H43.3c-1.08-.25-2.4,0-3.59-.21a46.87,46.87,0,0,0-8.3-.62c-3.55-.08-7.47.25-10.45-.41-1.4-.29-3,.17-3.88-.62-.08-.16-.12,0,0-.2,0-.91.87-1,1.45-1.45a26.43,26.43,0,0,1,6.56-2.77c5.2-1.73,11.31-2.76,16.93-4.21,1-.12,2-.29,3-.41,1.32-.33,2.81-.66,4.09-1,.7-.08,1.44-.21,2.14-.29,4-1,8.18-1.45,11.89-2.56.91-.29,1.74-.17,2.69-.5a18.72,18.72,0,0,0,1.73-1c2.6-1.36,5-2.81,7.39-4.29a104.7,104.7,0,0,1,14.37-8c1.57-.7,3.18-1.78,4.7-2.48,2.23-1,4.42-1.61,6.69-2.56,1.2-.49,3-1.77,4.5-1.52l6.57-.62c2.35-.05,4.7-.09,7.06-.09,2.84,0,6.11-.2,8.5.29h2.35c1.2.29,2.73.13,3.88.5.58.29,1.16.62,1.74.91.91,2.31-3.18,4.54-4.5,5.53a44.5,44.5,0,0,0-4,3.88,41.15,41.15,0,0,1-4.83,4.21c-.9.66-1.73,1.61-2.68,2.27a13.14,13.14,0,0,1-3.67,1.73c-.66.17-1.66-.2-2.15.09h-3.1c-.29-.29-.53-.62-.82-.91a8.56,8.56,0,0,0-2.07-.7c-1-.13-1.9-.29-2.89-.42a35.15,35.15,0,0,0-11.68-.49,5.92,5.92,0,0,1-1.45-.29,20.55,20.55,0,0,0-5,.08H84.13c-3.35,0-7.27-.33-8,2.27H71.91a5.09,5.09,0,0,0-1.65.09c-.62.2-.33.66-.09,1,2,.37,4.63.08,6.77.08,4.67,0,9.29-.08,14-.08H97c2.43.53,5.45-.13,7.88.41h2.77a22.68,22.68,0,0,0,6.48.08c.7,0,1.36-.08,2.06-.08A14.21,14.21,0,0,0,120,78.08,36.53,36.53,0,0,0,126,73.46c.91-.95,1.77-1.9,2.68-2.89,1.37-1,2.48-2.4,3.88-3.39,1.2-.82,3.35-2.23,3.88-3.59a7.15,7.15,0,0,0,.09-2.15,6.82,6.82,0,0,0-2.27-1.86c-1.41-.57-3.39-.37-4.92-.7h-2.27a24.59,24.59,0,0,0-4.29-.29c-.37,0-1.12.13-1.32.09-2.27-.33-6.36,0-9.33,0,.82-.58,2.35-.25,3.47-.5,2-.45,4.41-.37,6.48-.82h1.44c1.9-.42,4.09-.17,6.07-.62H131c1.44-.33,3.26-.09,4.7-.42H138c.83-.16,2.11.13,3.1-.08a22.27,22.27,0,0,1,4.42-.08c3,0,6.07,0,8.91.08a39.21,39.21,0,0,1,7.06.62c1.57,0,3.14.08,4.71.08,2.85.62,6,.5,8.63,1.12,1.15.08,2.31.2,3.47.29,2.93.66,6.07.82,8.83,1.73,3.14,1.07,6.28,2.19,9.46,3.39a43,43,0,0,1,6.56,3.67c1.73,1.07,3.8,1.57,5.53,2.68a53.68,53.68,0,0,0,6.85,4,43.94,43.94,0,0,0,5.66,1.65c.7.08,1.45.21,2.15.29,3.75,1,7.88,1.9,11.8,3,.91.25,1.66.17,2.56.41,1.37.37,2.89.91,4.22,1.32a9.58,9.58,0,0,1,1.11.21c1.28.58,1.82,2.07,3.1,2.68-.29.66-1.28,1-1.86,1.33a11.54,11.54,0,0,0-3.1,3.09c-1.44,2.35-.33,4.13,1.24,5.33.62.66,1.24,1.28,1.86,1.94.37.25.74.37,1.11.62.83.57,1.61,1.69,2.77,1.85a13.54,13.54,0,0,1-.41,2.28v4.08c.2.87.49,1.82.7,2.77v5.45Zm-235.9.08V112a1.56,1.56,0,0,0,.62-.2h.5c.45.74,1.24,1.15,1.73,1.86.25.33.33.66.62.9,0,.25,0,.29-.08.42a3.09,3.09,0,0,1-2.27.08,1.26,1.26,0,0,1-.83-.29C12.79,114.2,12.17,112.84,12.62,112.18Zm95.49-32.82c-.45.29-1.32,0-1.94,0a27.59,27.59,0,0,1-5.24-.21c-.62-.12-1.57.21-2.06-.08A3.18,3.18,0,0,1,96.1,78a32.33,32.33,0,0,1,6.15.29l5.86,1.11ZM95.27,79V79H90.36V79c.66-.25,1.28-.5,1.94-.7a18.76,18.76,0,0,1,3,.7Zm-5.61-1a4,4,0,0,0-.7,1.11H77.69l.08-.08c.91-1.28,3.92-.91,6.07-.91A6,6,0,0,0,86,78h3.67Zm159,18.12v.5c-.16.08-.08,0-.2.08-.87-.17-1.45-1-2.07-1.45-.45-.33-1-.49-1.44-.82-.74-.54-1.28-1.37-2.07-1.94-.45-.33-.7-1-1.11-1.32,0-2.94,1.78-4.3,3.47-5.45a5.11,5.11,0,0,0,1.53-1c.49.25.57,1,.82,1.45.91,1.73,1.12,4.09,1.12,6.77,0,.87.33,2.64-.05,3.22Z" style="fill:#595a5a"/><path d="M223,112.92c-.79,1.16-2.23,1.86-3.18,2.89-.13.21.29,1.16.29,1.74,1.24.33,2.47.7,3.67,1h.5c.37-1.61-.25-5.24-1.28-5.66Zm-2.89,6.86c.53,1.15,1.11,2.31,1.65,3.46l.08.09a11.51,11.51,0,0,1,1.24-1.53A12.38,12.38,0,0,0,220.12,119.78Zm.33-9.33-1.12,3.09v.29h.09a11.79,11.79,0,0,1,1.73-2.89C221.07,110.57,220.86,110.49,220.45,110.45Zm-3.59,9.66c-.42,1.61-1.24,3.22-1.33,4.91,1.12,0,2.94.21,3.6-.29.2-.54-1.32-3.8-1.53-4.71A1.19,1.19,0,0,0,216.86,120.11ZM49.94,99.05c-.57,0-1.15-.08-1.73-.08a40,40,0,0,0-6.69-.21H39.38c-1.24-.29-3,.21-4.42-.08-1.65-.37-4-.08-5.86-.08-3.06,0-5.7-.25-8.63-.21-.37.25-.95.08-1.45.21a3.06,3.06,0,0,0-2.14,1.86c-.46,1.19.16,2.72.49,3.59.54,1.19,1.12,2.39,1.65,3.59s.66,2.52,1,3.59c.62,1.73.5,3.43,1.74,4.42,2.52,2,6.77,1.65,11.19,1.65,1,.08,2,.12,3,.21h3.59a10.62,10.62,0,0,0,4.09,0c2.23-.71,3.47-2.69,4.7-4.42,1.61-2.27,3.6-4.34,5.12-6.69.29-.41.33-.87.62-1.32a8.17,8.17,0,0,0,.83-1.45c1.11-3.34-3-4-5-4.58Zm-6.15,17c-1.24.54-6.73.33-8.29,0-1.08-.2-2.44.09-3.39-.08-2.27-.5-5.82.5-7.8-.29a4.91,4.91,0,0,1-2.56-2.35c-.25-.66-.09-1.36-.42-1.86.13-.25.17-.17.29-.29a17.09,17.09,0,0,1,3.6.41c5,0,10-.08,15-.08h5a5.76,5.76,0,0,0,1.94-.08h1c-.91,1.36-2.85,3.92-4.42,4.62ZM50,109c-.25.33-.58.5-.7.91a91.86,91.86,0,0,1-10.78.29c-3.84,0-7.68.08-11.48.08-2.23,0-4-.45-6.15-.21-.16-1.23-.74-3.75-1.44-4.49v-.21a25.06,25.06,0,0,0,4.7.41,9,9,0,0,1,2.77.08h.83A10.11,10.11,0,0,0,29,107.31c1.65,1,5.37.78,5.66-1.24,4.09,0,9.21.87,13.25,0,1.16-.25,3,.25,3.88-.29h.5A26.42,26.42,0,0,1,50,109Zm-20.81-3a1.75,1.75,0,0,0,.7-.21c.79,0,2.56-.08,3.1.29a.74.74,0,0,0,.29.08c-.46,1-3.43.58-3.88-.08C29.26,106,29.34,106,29.22,106ZM53,104.63c-.21.08-.78-.13-1.24,0-1.11.28-2.6,0-3.8.28a38.29,38.29,0,0,1-11.06.09c-1-.21-2.81.12-3.3,0-.17,0-.5-.37-.7-.42a11,11,0,0,0-4.22.29,16.48,16.48,0,0,0-2.06-.29H24.6a19.93,19.93,0,0,1-3.6-.28c-.61-.13-1.73.24-2.14-.09s-.33-1.07-.5-1.52-.53-.91-.29-1.33c0-.7.33-.86.62-1.32a6.13,6.13,0,0,0,1.74-.41c3.05,0,5.82.21,9,.21a34.5,34.5,0,0,1,5.86.08c1.4.29,3.22-.17,4.5.08H42.1c1.32,0,2.73.08,3.88.08s2.19.09,3.3.09a17,17,0,0,1,3,.7,6.14,6.14,0,0,0,1.32.7A3.33,3.33,0,0,1,53,104.63Zm-7.1,14.94a34,34,0,0,0-6.56.41H28.19a36.72,36.72,0,0,0-7.8-.62c-.34.21-.83.17-1.12.42-1.44.45-.58,1.57-.08,2.27a4.7,4.7,0,0,0,.7.08l.41-.41a1.06,1.06,0,0,0-.49-.83v-.08a17.65,17.65,0,0,1,7,.29h3.88c7.6,0,14.29-.42,21.76-.42a7.73,7.73,0,0,1,1.32,1.53c.25,0,.29,0,.42-.08s.24-.25.41-.41c-.41-3.22-5.29-2.15-8.63-2.15Z" style="fill:#595a5a"/><path d="M111.71,116.19c.08.12,0,0,.08.2h-.08Zm-5.45,1.36h.2v.08C106.3,117.59,106.38,117.63,106.26,117.55Z" style="fill:#595a5a"/><path d="M178.26,119.45V57a46.17,46.17,0,0,1-5.95-.79c-2.6-.25-5.2-.49-7.8-.7h-3.1c-1.32-.33-3.22-.21-4.62-.5h-1.86c-.58-.12-1.57,0-2.27-.08a21.16,21.16,0,0,0-3.68-.08h-7c-3,.12-5.95.29-8.92.41-1.36.29-3.05.12-4.42.41H127c-.87.21-2.06.21-3,.42H122.6c-3.34.74-7.18.53-10.36,1.32-1.11.29-2.19.12-3.3.49-2.15.75-4.67,1.2-6.77,2.07-1.4.58-2.93,1.36-4.29,1.94s-2.48.78-3.68,1.32-2.48,1.4-3.67,1.94c-.91.41-1.9.78-2.89,1.16v1.52L89.49,67c1.57-.71,3.18-1.78,4.71-2.48,1-.46,2.07-.83,3.06-1.2-1,.37-2,.74-3.06,1.2-1.57.7-3.14,1.77-4.71,2.48l-1.85.86v12h1.65c1.15,0,2.35,0,3.51.08a5.38,5.38,0,0,0,2.68-.08h1c.13,0,.25.12.37.16h1.65c2.19.17,4.63-.2,6.73.25H108a22.68,22.68,0,0,0,6.48.08c.7,0,1.36-.08,2.07-.08a8.5,8.5,0,0,0,2.18-1.07l.25-.13A5,5,0,0,0,120.46,78a37.75,37.75,0,0,0,5.9-4.59c.91-.94,1.78-1.89,2.68-2.89,1.37-1,2.48-2.39,3.89-3.38,1.19-.83,3.34-2.23,3.88-3.59a3.14,3.14,0,0,0,.12-.91,3.14,3.14,0,0,1-.12.91c-.54,1.36-2.73,2.76-3.88,3.59-1.41,1-2.52,2.35-3.89,3.38-.9,1-1.77,1.9-2.68,2.89a36,36,0,0,1-5.9,4.59A6.57,6.57,0,0,1,119,79.11l-.25.13a7.91,7.91,0,0,1-2.18,1.07c-.71,0-1.37.08-2.07.08a24.25,24.25,0,0,1-6.48-.08h-2.77c-2.06-.45-4.54-.08-6.73-.25H96.84c-.12,0-.24-.12-.37-.16h-1A5,5,0,0,1,92.8,80c-1.16,0-2.36,0-3.51-.08H87.64V91l6.27-2.06c2.19-.75,4.38-.91,6.57-1.66,2.35-.78,4.83-1.27,7.18-2.14a20.17,20.17,0,0,1,3.47-1.32,19,19,0,0,0-3.47,1.32c-2.35.87-4.83,1.4-7.18,2.14-2.19.71-4.38.91-6.57,1.66-2,.66-4.17,1.36-6.27,2.06v3.22c1.07-.16,2.1-.33,3.09-.58.79-.2,1.74,0,2.36-.29a7.83,7.83,0,0,1,3.67.5c.08.29.21.54.29.82-.08-.28-.21-.53-.29-.82a7,7,0,0,0-3.67-.5c-.62.38-1.61.13-2.36.29-1,.25-2,.37-3.09.58V103a19.52,19.52,0,0,0,4.13-1.82c.86-.54,1.65-1.2,2.47-1.73,1.57-1,3.64-1.9,4.21-3.89v0c-.57,2-2.64,2.85-4.21,3.89-.78.53-1.61,1.23-2.47,1.73A19.52,19.52,0,0,1,87.64,103v28s.57.53,1.52,1.24a20.89,20.89,0,0,0,2.65,1.52,1.36,1.36,0,0,1-.42,0A13.53,13.53,0,0,0,98,136.08c1.4,0,2.81.09,4.21.09a21.64,21.64,0,0,1,4.67-.21h.29a19.4,19.4,0,0,1,2.76.25,23.08,23.08,0,0,0,7.23-2.77h-.09a17.76,17.76,0,0,0,7-8.34,16.77,16.77,0,0,0,.75-2.68,4.49,4.49,0,0,0,1.32,3.3c1.15.87,2.84.83,4.91.83,2.76-.09,5.53-.13,8.3-.21,4.91,0,10.19-.21,15.4-.21,3,0,6.56.38,9.24-.2h2.89c1.82,0,3.64-.08,5.45-.08a23.49,23.49,0,0,0,3.88-.09h2.07v-6.31Zm-87.61,3.38A6,6,0,0,1,89,124.65c-.16.16-.29.33-.45.49.16-.16.29-.33.45-.49A6,6,0,0,0,90.65,122.83Zm28-9.29a10.47,10.47,0,0,0-.78-1.07A10.47,10.47,0,0,1,118.68,113.54Zm-2.6-10.9h0l-1.28-.53C115.17,102.27,115.63,102.48,116.08,102.64Zm-5.74-1.77c.37-.08.75-.21,1.12-.29a5.17,5.17,0,0,1,1.86.83,4.81,4.81,0,0,0-1.86-.83c-.33.08-.7.16-1.12.29-.24,0-.49,0-.74.08A4.78,4.78,0,0,1,110.34,100.87Zm1,8.92c2.93.7,5.66,2.35,6.77,4.83a8.93,8.93,0,0,1,.7,2.8,7.55,7.55,0,0,0-.7-2.8c-1.15-2.48-3.84-4.13-6.77-4.83-1.81-.46-4.54.45-5.82,1.28C106.75,110.24,109.43,109.33,111.29,109.79Zm5.33,12.38-3.8-1.44c1.28.49,2.52,1,3.8,1.44H117a5.83,5.83,0,0,1,.17-.58v0c0,.17-.13.38-.17.58h-.41Zm.12,2.89c0,.08-.12.12-.16.21l0,0C116.62,125.23,116.66,125.14,116.74,125.06Zm-1.9.46Zm-.08.24a8.66,8.66,0,0,0-1.24.87c-.16-.08-.08,0-.2-.08a3.86,3.86,0,0,1-.46-.7,2.5,2.5,0,0,0,.46.7c.12.08,0,0,.2.08A6.33,6.33,0,0,1,114.76,125.76Zm-2.23-8.58c1.36-.71,2.23-2.23,3.55-3C114.72,115,113.89,116.43,112.53,117.18Zm-3,4.62a29.7,29.7,0,0,0-1.24,4.17,4.69,4.69,0,0,0-.21.78,4.91,4.91,0,0,1,.21-.82A32.71,32.71,0,0,1,109.56,121.8Zm-.74-5.78a0,0,0,0,0,0,0,3.3,3.3,0,0,1,.82-.25,2.19,2.19,0,0,0-.82.25Zm.2,2.72c0-.86.25-.9.7-1.36a2.41,2.41,0,0,1,.83.08c.41.13.37.38.62.62-.25-.24-.21-.45-.62-.62a1.34,1.34,0,0,0-.83-.08C109.31,117.8,109,117.88,109,118.74Zm1.65-3.38V115l.25-1.86-.25,1.86Zm.46-3.76a.24.24,0,0,1,0-.16l.08-.09-.08.09C111.17,111.52,111.13,111.56,111.13,111.6Zm-1.36,9.79a5.52,5.52,0,0,0,1.52-.21c.37.78.7,2.11,1.12,3.3a33.87,33.87,0,0,0-1.12-3.3,7.63,7.63,0,0,1-1.52.21c0,.08,0,.16-.09.2A.27.27,0,0,1,109.77,121.39Zm2.1-5.58a17.68,17.68,0,0,1,1.32-3.75A17.68,17.68,0,0,0,111.87,115.81Zm1.61-1.77a5.47,5.47,0,0,1,.7-.91,6,6,0,0,0-.7.91Zm-.66,7s0,.08,0,.08A.14.14,0,0,0,112.82,121Zm3.34-7.15Zm1.08,10.49,0,0a1.39,1.39,0,0,1-.17.21C117.11,124.57,117.15,124.48,117.24,124.36Zm-12.35,1.57a8.84,8.84,0,0,1,2-2.44A8.7,8.7,0,0,0,104.89,125.93Zm1.61.7c0,.08,0,.12,0,.21A1.58,1.58,0,0,1,106.5,126.63Zm1.24-3.63a11.78,11.78,0,0,0-1,2.52A18.4,18.4,0,0,1,107.74,123Zm-.29-.13.37-.49h0Zm-4.66-8.67c-.17.09-.08,0-.21.09a0,0,0,0,1,0,0,0,0,0,0,1,0,0c.08-.09,0-.05.21-.09l4,3C105.43,116.19,104.11,115.19,102.79,114.2Zm1.53-12.84a5,5,0,0,1,1.73-.08,6.27,6.27,0,0,0-1.73.08c-.09,0-.13,0-.21,0C104.19,101.41,104.23,101.36,104.32,101.36Zm.45,10.2a1.75,1.75,0,0,0-.66.58A1.75,1.75,0,0,1,104.77,111.56Zm-.74.74s0,0,0,.09a.14.14,0,0,1,0-.09Zm-8-6.85a2,2,0,0,0-.17.54,1.49,1.49,0,0,1,.17-.54c1.15-1.86,4.87-3.18,7.59-3.92h0C100.85,102.31,97.13,103.63,96,105.45Zm6.52,8.88a5.28,5.28,0,0,0-1,2.1A5.56,5.56,0,0,1,102.54,114.33Zm-2,7.18c0-.25-.08-.49-.13-.78a12.33,12.33,0,0,1-.33-2.93,10.94,10.94,0,0,0,.33,2.93C100.48,121.06,100.52,121.3,100.56,121.51Zm.78-2.6c2.19,0,3.76-.41,5.87-.41C105.1,118.5,103.53,118.91,101.34,118.91Zm3.51,7.18ZM101.51,119v0Zm17.42,4.79c-.12.25-.25.5-.37.7-1.57,2.65-4,3.55-7.47,4.3a7.87,7.87,0,0,1-4.09-.62c-2.85-.95-3.47-1.36-5-3.59a8.55,8.55,0,0,0-.62-.79c.21.29.42.54.62.79,1.57,2.23,2.15,2.64,5,3.59a9,9,0,0,0,4.09.62c3.51-.75,5.9-1.65,7.47-4.3C118.68,124.32,118.81,124.07,118.93,123.82Zm1-4.21c0-.16,0-.37,0-.54C120,119.24,119.92,119.45,119.92,119.61Zm0-2.52c0,.42.08.83.08,1.24C120,117.92,120,117.51,119.92,117.09Zm4.58-5a20.38,20.38,0,0,0-1.44-3.06A15.84,15.84,0,0,1,124.5,112.14Zm11.6-55.9c-1.44.33-3.3.08-4.7.41H130c-1.94.42-4.17.21-6.07.62h-1.44c-2,.46-4.46.37-6.48.83-1.16.25-2.64-.08-3.47.49.83-.57,2.35-.24,3.47-.49,2-.46,4.42-.37,6.48-.83h1.44c1.9-.41,4.09-.16,6.07-.62h1.45c1.4-.29,3.22-.08,4.7-.41h2.27c.83-.16,2.11.12,3.1-.08a22.27,22.27,0,0,1,4.42-.08c3,0,6.07,0,8.92.08a38.48,38.48,0,0,1,7.06.62c1.56,0,3.13.08,4.7.08.54.12,1.08.21,1.61.29-.53-.08-1.07-.17-1.61-.29-1.57,0-3.14-.08-4.7-.08a38.8,38.8,0,0,0-7.06-.62c-2.85,0-5.91-.08-8.92-.08a25.77,25.77,0,0,0-4.42.08c-.95.2-2.23-.08-3.1.08Zm.83,6v0Zm-10.4,62.13s0-.08-.09-.08Zm4.33,1a11.94,11.94,0,0,1-2.93-.29A11.94,11.94,0,0,0,130.86,125.43Zm.62-43.72c-.33-.29-.37-.82-.83-1a8.93,8.93,0,0,0-.08,1,8.93,8.93,0,0,0,.08-1C131.07,80.85,131.15,81.42,131.48,81.71Zm.5-1.36a4.21,4.21,0,0,1,3.17-4.29A2.62,2.62,0,0,1,136,76a.91.91,0,0,1,.08.17s.05.08.05.12a.13.13,0,0,0-.05-.12A.91.91,0,0,0,136,76a2.62,2.62,0,0,0-.87.09A4.24,4.24,0,0,0,132,80.35Zm3.51,38a1.56,1.56,0,0,1,.08-.49c0-.08,0-.17.08-.21s0,.13-.08.21A1.56,1.56,0,0,0,135.49,118.37Zm38.06,6.32-1.53-.25a1.32,1.32,0,0,0-1.11.25,1.17,1.17,0,0,1,1.11-.25A8.43,8.43,0,0,0,173.55,124.69Zm3.18-5.16c-1.49-.12-3.64.33-5.33,0a15.27,15.27,0,0,0-2.35,0,23.51,23.51,0,0,0-5.12.21c-1.57,0-3.14.08-4.71.08-2.23.12-4.87.08-7.26.08h-4.42a10.48,10.48,0,0,1-1.94,0h-2.15c-1.69-.37-3.55-.41-5-1-.66-.29-.91-.87-1.41-1.28a.8.8,0,0,1-.37.58,1.35,1.35,0,0,1-.62.08,2.27,2.27,0,0,0-.29-.41,1.22,1.22,0,0,1,.29.41,1.35,1.35,0,0,0,.62-.08.8.8,0,0,0,.37-.58c.46.41.75,1,1.41,1.28,1.48.62,3.34.66,5,1h2.15a10.48,10.48,0,0,0,1.94,0H152c2.39,0,5,0,7.26-.08,1.57,0,3.14-.08,4.71-.08a23.61,23.61,0,0,1,5.12-.21,15.27,15.27,0,0,1,2.35,0c1.69.33,3.84-.17,5.33,0a11.24,11.24,0,0,0,1.53-.08A10.67,10.67,0,0,1,176.73,119.53Z" style="fill:#fb0"/><path d="M101.54,146.42a4.7,4.7,0,0,1-3.28-1.35,5,5,0,0,1-1.34-2.54,7.06,7.06,0,0,1-.15-1.88,4.9,4.9,0,0,1-.29-.84,5.49,5.49,0,0,1,.6-4.19,3.73,3.73,0,0,1,5.1-1.28l.12.07a3.72,3.72,0,0,1,6.94.73,16.43,16.43,0,0,1-.16,7.42.13.13,0,0,1,0,.06,4.28,4.28,0,0,1-4.45,3.74,4.39,4.39,0,0,1-1.39-.23A5.17,5.17,0,0,1,101.54,146.42Z" style="fill:#fff"/><path d="M98.12,147.11a3.72,3.72,0,0,1-3.7-3.45,19.72,19.72,0,0,1,.53-6.18,5.89,5.89,0,0,1,1.37-2.81,4.31,4.31,0,0,1,.37-.37A6.24,6.24,0,0,1,99.34,133a17.13,17.13,0,0,1,5.83-.39,3.71,3.71,0,1,1-.8,7.38A9.45,9.45,0,0,0,102,140a12.42,12.42,0,0,0-.17,3.09,3.72,3.72,0,0,1-3.44,4Zm2.92-6.88h0Z" style="fill:#fff"/><path d="M166,27.07a.23.23,0,0,1-.11,0,.3.3,0,0,1-.17-.4,27,27,0,0,1,2.5-4.8,30.3,30.3,0,0,1-3.75.1.3.3,0,0,1-.27-.16.33.33,0,0,1,0-.32l2.68-4a.31.31,0,1,1,.52.34l-2.37,3.54a30.06,30.06,0,0,0,3.77-.18.31.31,0,0,1,.29.49,25.71,25.71,0,0,0-2.82,5.22A.3.3,0,0,1,166,27.07Z" style="fill:#5a585a"/><path d="M165.62,27.94a.31.31,0,0,1-.13,0,.32.32,0,0,1-.17-.22,14.73,14.73,0,0,1-.21-3.59.33.33,0,0,1,.33-.29.3.3,0,0,1,.28.33,13.83,13.83,0,0,0,.14,3,19.55,19.55,0,0,0,2.74-2,.29.29,0,0,1,.43,0,.3.3,0,0,1,0,.43,20,20,0,0,1-3.23,2.35A.29.29,0,0,1,165.62,27.94Zm-67.89-.86c-1.09,0-1.22-.06-1.32-.18a.38.38,0,0,1-.08-.27.3.3,0,0,1,.36-.25.21.21,0,0,1,.13.05c.47.08,2.9,0,5.07-.07,1.5-.05,3.07-.1,4.32-.11a.24.24,0,0,0,.23-.23c0-.49,0-1.07,0-1.67a23.27,23.27,0,0,1,0-2.69s0-.08-.06-.08a9.77,9.77,0,0,0-1.2,0,10.31,10.31,0,0,1-1.23,0,.32.32,0,0,1-.24-.14c-.1-.17-.21-.33-.32-.49l-.34-.5c-.06-.1-.11-.21-.17-.33a1,1,0,0,0-.23-.37,1.66,1.66,0,0,0-.88-.08c-.45,0-.75,0-1.1,0l-.82,0h-.12a.44.44,0,0,0-.1.11,3.63,3.63,0,0,0-.3.64,3,3,0,0,1-.51.93.67.67,0,0,1-.32.26,3.66,3.66,0,0,1-1.45.16l-.07,0a.87.87,0,0,1-.27,0H96.2V22c0,.24,0,.44,0,.63a11.48,11.48,0,0,1,0,1.16c0,.37,0,.85,0,1.33s0,1,0,1.35a.32.32,0,0,1-.33.29.3.3,0,0,1-.29-.32c0-.37,0-.85,0-1.33s0-1,0-1.36a10.5,10.5,0,0,0,0-1.11c0-.19,0-.39,0-.64v-.21a.6.6,0,0,1,.09-.51.31.31,0,0,1,.22-.09h1l.16,0h.09a3.14,3.14,0,0,0,1.19-.11s0,0,0,0a2.34,2.34,0,0,0,.45-.81,4.62,4.62,0,0,1,.34-.72,1.32,1.32,0,0,1,.24-.3.47.47,0,0,1,.09-.06.9.9,0,0,1,.43-.08l.79,0c.35,0,.65,0,1.09,0a1.94,1.94,0,0,1,1.28.2,1.31,1.31,0,0,1,.43.61,2,2,0,0,0,.13.25l.33.49.25.38c.36,0,.68,0,1,0a11,11,0,0,1,1.27,0h0a.63.63,0,0,1,.48.24.61.61,0,0,1,.13.51,24.78,24.78,0,0,0,0,2.63c0,.61,0,1.2,0,1.69a.86.86,0,0,1-.85.84c-1.24,0-2.81.06-4.3.11C99.78,27.05,98.51,27.08,97.73,27.08Z" style="fill:#5a585a"/><path d="M101.68,25.21a4.38,4.38,0,0,1-.73-.08,2.27,2.27,0,0,1-.71-.29,1.53,1.53,0,0,1-.65-1.4,2.26,2.26,0,0,1,1.76-2,1.43,1.43,0,0,1,1.64.95,1,1,0,0,1,.15.58,2,2,0,0,1-.21,1.39,1.75,1.75,0,0,1-1.2.85Zm0-3.18-.17,0a1.66,1.66,0,0,0-1.26,1.42v0a.94.94,0,0,0,.37.84,1.47,1.47,0,0,0,.49.19,3.78,3.78,0,0,0,.6.08,1.16,1.16,0,0,0,.72-.55,1.51,1.51,0,0,0,.14-1,.81.81,0,0,0-.08-.35C102.26,22.24,102,22,101.64,22ZM99.9,23.46h0Z" style="fill:#5a585a"/><g style="clip-path:url(#a)"><path d="M115.42,126.05c1.24-.62,1.12-1.28,1.86-2.27v-.49a21.5,21.5,0,0,0-3.8-1.74A19.93,19.93,0,0,1,115.42,126.05Z" style="fill:#fff"/><path d="M209.59,75.48a1.66,1.66,0,0,0,.08-.91c0-1.94-1.24-2.35-2.35-3.18a72,72,0,0,0-13.75-7.26,71,71,0,0,0-10.65-3.31c-2.35-.29-4.71-.53-7.06-.82-3.59,0-7.18-.09-10.77-.09-3.93,0-8.18-.2-11.4.5l-2.68.21c-1.45.37-2.93.74-4.3,1.11-.82.25-1.52.21-2.27.5-4.7,2-9.74,5.12-12.63,8.91A13.49,13.49,0,0,1,129,73.7L126,76.8c-1.16,1.16-2.31,1.73-2.15,4,.5.54.7,1.24,1.45,1.53a14.75,14.75,0,0,0,3,.5c.54.12,1.32-.25,1.65-.09.17.05.41.46.62.5a3.12,3.12,0,0,0,2.35-.29,29.94,29.94,0,0,0,1.86,3A14.43,14.43,0,0,1,136,89.8c.62,2.48.21,6.4.21,9.25,0,6.69-.21,12.72-.21,19.2a1.33,1.33,0,0,1,.29.41,1.37,1.37,0,0,0,.62-.08c.5-.25.5-1.2.29-1.94a15.89,15.89,0,0,1,0-5.24v-1.94c.21-.83-.12-2.11.08-3.1a29.79,29.79,0,0,0,.08-5.45c0-7.6.42-14.24-3.38-18v-.21h9.66c1.65.66,8.17.66,10.24.21,1.15-.25,2.68.12,3.67-.08h2.36a32.75,32.75,0,0,0,5.73-.29h1.94c1.74-.25,4.21.16,6-.21.58-.12,1.32.17,1.73-.08h1.32c.09.12.13.29.21.41a7.89,7.89,0,0,1,2.77,4.5c.08.66.12,1.28.2,1.94a22.38,22.38,0,0,1,.48,4.27c0,1-.08,2-.1,3.08a18.43,18.43,0,0,1-.29,2c-.25,1.16-.09,2.4-.29,3.47v1.94c-.46,2.19-.13,4.66-.62,6.85v2.07a25.87,25.87,0,0,1-.29,4.41c-.17.79.16,1.94-.21,2.56v.09h1.24a11.78,11.78,0,0,1,.21-2.56c.29-1.32,0-2.73.2-3.88v-2.56a21.93,21.93,0,0,0,.31-3.6c.48.61,1.65.54,1.65-.42,0-5.34-.28-11,.26-16.28a.91.91,0,0,0-1.17-1c0-.14,0-.28,0-.42-.58-2.6-.79-5.53-2.69-6.77v-.2a18.39,18.39,0,0,0,4.71-.62c1.44-.33,2.72-.21,4-.62s2.48-1,3.68-1.45c1.44-.29,2.89-.62,4.29-.91.7,0,1.36-.08,2.06-.08,1.61-.37,3.68-.2,5.45-.62.95-.2,2,.13,2.69-.29.78.21,1.11,1.2,1.44,1.86a22.19,22.19,0,0,1,1.45,4.91c0,1.28.08,2.52.08,3.8.95,4.13-.95,7.56-2.48,9.66l-2.06,2.07a24.37,24.37,0,0,0-3.59,6.77c-.58,2.47-1.16,4.91-1.74,7.39-.16.57-.82,3,.42,2.27.82-.42.66-2.31.9-3.31.66-2.39,1-5.16,1.94-7.38a22,22,0,0,1,3.1-5.25l1.94-1.94a17,17,0,0,0,2.15-3.67c.91-2.15.53-5.49.49-8.3A14.68,14.68,0,0,0,209,83c-.49-2-.78-4.09-2.06-5.32C207.32,76.8,209.18,76.51,209.59,75.48ZM144.86,80.6c-.42,1.15-4.88.91-6.49.91-.57,0-1.77.16-2.14-.09h-3.39c-.16-.24-.33-.49-.49-.7a4.2,4.2,0,0,1,3.18-4.29c1.07-.29,3.09.29,3.88-.21,2.93-.08,4.41-.2,5.45,1.74A2.65,2.65,0,0,1,144.86,80.6Zm30.75.41a5.52,5.52,0,0,1-.41-.62c0-1.73-.08-3.47-.08-5.24-.37-1.69-.13-3.63-.5-5.45-.7-3.06-1.24-6.77-3.09-8.63V61a10.36,10.36,0,0,0,1.11.08c1.82,1.9,2.48,5.12,3.18,8.09l.21,2.69a37.42,37.42,0,0,1,.82,9.08A10.76,10.76,0,0,0,175.61,81Zm22.46-4.21c-.29.62-1,.25-1.73.41l-3.8.62c-4.34,1.28-8.79,3.22-14.45,3.1,0-5.24-.7-11.44-2.06-15.48-.46-1.37-.66-3-1.53-4v-.2A44.91,44.91,0,0,1,189.77,64c1.37.5,2.6.91,3.8,1.45a2.17,2.17,0,0,0,.5.08,1.49,1.49,0,0,1,.08.41c.41.58,1.11,1.08,1.53,1.65.33.42.41.87.7,1.32a18.06,18.06,0,0,1,1.94,5.74A2.58,2.58,0,0,1,198.07,76.8Zm1.45,0a15.31,15.31,0,0,0-1.65-7.8c-.42-.75-.67-1.7-1.33-2.15v-.21c2.32,1.08,3.88,6.57,3.8,10.16Zm2.06-.08a19.39,19.39,0,0,0-1.11-6.15c-.29-.79-.33-1.7-.91-2.15v-.21c1.15.58,2.23,1.32,3.3,1.94,1.69,1,3.39,1.74,4.91,2.89.33.25.46.71.71,1C208.52,76.51,204.14,76.8,201.58,76.72Z" style="fill:#fff"/><path d="M115.42,115.48c-.74.54-1.36,1.61-2.27,1.94a13.16,13.16,0,0,1,.29,1.86,20.93,20.93,0,0,0,4.09,1c0-2.06-.38-4.17-1.45-5.24C116.08,115,115.59,115.36,115.42,115.48Z" style="fill:#fff"/><path d="M111.62,121.63c-.24.05-.29,0-.41.09a4,4,0,0,0-1,.08c-.54,1.9-1.12,3.76-1.65,5.66.08.16,0,.08.08.2.7.5,4,.33,4.62-.08h.21c-.45-1.07-.62-2.19-1-3.39A12.54,12.54,0,0,1,111.62,121.63Z" style="fill:#fff"/><path d="M106.92,117.55v-.09c-1.45-.49-2.65-1.89-4.21-2.14-.13.66-.54,1-.62,1.81.45.05,3.55.29,3.79.42Z" style="fill:#fff"/><path d="M101.88,119.28c0,2.4,1,3.47,1.53,5.12h.08a7.06,7.06,0,0,1,1.86-1.44c1-.75,1.65-1.9,2.68-2.56a8,8,0,0,1-.29-1.53C105.64,118.87,104.07,119.28,101.88,119.28Z" style="fill:#fff"/><path d="M105.68,113.75c.62.82,1.9,2.72,2.89,3.1.29-.33,1.61-1.16,2.27-.71h.2c0-1.57.09-3.3.09-4.7-1.32-.09-3.47-.58-4.92-.09-.61.21-1.11.87-1.65,1.24C104.73,113.09,105.31,113.3,105.68,113.75Z" style="fill:#fff"/><path d="M106.17,126.88a27.75,27.75,0,0,0,1.53-3.39l-2.35,2.77C105.51,126.59,105.84,126.71,106.17,126.88Z" style="fill:#fff"/><path d="M249.68,101.94a16.59,16.59,0,0,1,.82-4.7c-.08-1.45,0-2.69,0-3.93a11.68,11.68,0,0,0,0-4c-1-4-2.72-7.14-5.74-9a9.51,9.51,0,0,0-2.35-.7c-1.24-.42-2.64-.87-3.88-1.24-.87-.25-1.65-.17-2.56-.42-1.65-.45-3.47-.61-5.24-1.11-2-.58-4.17-1.2-6.15-1.73-2.15-.62-4.13-.71-6.16-1.32-3.22-1-5.82-2.89-8.42-4.5-1.61-1-3.51-1.49-5.12-2.48a54.38,54.38,0,0,0-7.39-4.09,104.47,104.47,0,0,0-14.65-4.62c-3.22-.83-6.94-.7-10.16-1.45-2.6-.25-5.2-.49-7.8-.7h-3.1c-1.32-.33-3.22-.21-4.62-.49H155.3c-.58-.13-1.57,0-2.27-.09a22.1,22.1,0,0,0-3.67-.08h-7c-3,.12-5.95.29-8.92.41-1.36.29-3.05.13-4.42.42h-1.65c-.86.2-2.06.2-3,.41H123c-3.35.74-7.19.54-10.37,1.32-1.11.29-2.18.12-3.3.49-2.15.75-4.66,1.2-6.77,2.07-1.4.58-2.93,1.36-4.29,1.94s-2.48.78-3.68,1.32S92.1,65,90.9,65.57a47.06,47.06,0,0,0-5.33,2.35c-1.22.76-2.48,1.47-3.75,2.18a35.54,35.54,0,0,1-.2-4.93c0-.29-.46-.29-.45,0a29.24,29.24,0,0,0,.21,5.18c-.94.54-1.88,1.08-2.78,1.66-1.86,1.16-3.72,2.77-5.74,3.68-.13.12-.87-.25-1.12-.29a17.3,17.3,0,0,0-4.21-.21,6.05,6.05,0,0,0-4,3.47c-.17.33-.09,1-.29,1.32s-2.31.62-3,.82c-3,.91-6.4,1-9.67,1.86-7.88,2-16.59,3.1-24,5.53-2.68.91-5.45,1.53-7.68,2.89-4.09,2.48-5.9,5.25-7.68,10a14.24,14.24,0,0,0-.7,5.12v1.65A18.76,18.76,0,0,0,11,110c.33,1,1.2,2.68.83,4.29-.25,1-.7,2-.91,3a8.42,8.42,0,0,0,.08,2.89c0,.74.08,1.48.08,2.27a7.57,7.57,0,0,0,2.89,4.5l.91,1c1,.7,3.18.12,4,.62h9c.58.25,1.82,2.19,2.48,2.68a23.46,23.46,0,0,0,6.68,3.18c1.08.37,2.11.13,3.31.41a10.94,10.94,0,0,0,4,.09,2.49,2.49,0,0,1,.7.08,10.72,10.72,0,0,0,3.1-.41h.21c-.62-.46-1.66-.09-2.56-.29A26.88,26.88,0,0,1,41.61,133a16.19,16.19,0,0,1-3.6-2.48,5.77,5.77,0,0,0-1.44-1.73v-.21H51.39c2.85,0,6.15.21,8.63-.29h3.47c2.84-.62,6.39.21,9.24-.41H75a35.81,35.81,0,0,0,6.69-.21c1-.21,2.31.25,3.1-.21,1.07,0,.91,1,1.32,1.66A13.87,13.87,0,0,0,88,131.34a19.34,19.34,0,0,0,11.8,4.83c1.45.08,3.89.37,5.16-.13a12,12,0,0,1-1.69-.74,7.72,7.72,0,0,1-1-.25c-1.11-.41-1.9-1.48-2.77-2.14-2.51-1.9-3.92-5-4.83-8.51a5.12,5.12,0,0,1,.21-2.27V120.6c.33-1.28.91-2.8,1.32-4.08,1.36-4.17,1.45-8,4.63-10.37.61-.49,1.11-1.28,1.85-1.65,1.16-.62,2.56-.62,3.88-1,1.16-.37,3.8-1.2,5.45-.83,2.81.66,7.27,2.65,8.71,4.63,1.9,2.56,2.94,5.78,4,9.12.91,2.85-.33,8.13,1.86,9.74,1.15.87,2.85.83,4.91.83,2.77-.08,5.53-.12,8.3-.21,4.91,0,10.19-.2,15.4-.2,3,0,6.56.37,9.24-.21h2.89c1.82,0,3.64-.08,5.45-.08a24.69,24.69,0,0,0,3.88-.08H181c2.15-.09,4.29-.21,6.48-.29,1,0,4,.29,4.63-.09h1.24c.08.09.7,2,.82,2.27a11,11,0,0,0,2.89,3.39,22.18,22.18,0,0,0,8.84,3.8h7c-.78-.62-2.1-.58-3-1.12a16.25,16.25,0,0,1-7-10.36,5.12,5.12,0,0,1,.21-2.27V120c.37-1.4,1-3,1.44-4.5.95-3.18,1.45-7.06,3.18-9.45.29-.29.62-.54.91-.83,1.94-1.94,3.39-2.39,6.57-3.18a14.42,14.42,0,0,1,5-.28c2.81.66,7.27,2.64,8.71,4.62.66.87.95,1.94,1.53,2.89a14.38,14.38,0,0,1,1.73,3.59c.5,1.69.75,3.06,1.12,4.71.45,2-.33,4.7.41,6.48a4.35,4.35,0,0,0,3,2.06h1.95c3.13,0,3.75-.24,5.65-1.44a12.52,12.52,0,0,0,5.24-6.69c.54-1.69.33-3.39.71-5.24a23.69,23.69,0,0,0,.08-5.66A20.49,20.49,0,0,1,249.68,101.94ZM102.87,78.25l5.86,1.11c-.45.29-1.32,0-1.94,0a27.59,27.59,0,0,1-5.24-.21c-.62-.12-1.57.21-2.06-.08A3.18,3.18,0,0,1,96.72,78,32.33,32.33,0,0,1,102.87,78.25ZM91,79c.66-.25,1.28-.5,1.94-.7a21.11,21.11,0,0,1,3,.7V79H91ZM78.39,79c.91-1.28,3.92-.91,6.07-.91A6,6,0,0,0,86.6,78h3.65a4,4,0,0,0-.67,1.07H78.31Zm-10.9-2.48a4.23,4.23,0,0,1,2.15,0h1.52v.21c-2,1-4.12,2.8-6.68,3.09A4,4,0,0,1,67.49,76.51ZM13.74,97.94a6.27,6.27,0,0,1,.49,3.18A10.88,10.88,0,0,0,13,102.44H12C12.42,100.74,13.37,99.51,13.74,97.94ZM248.56,116.6a12.37,12.37,0,0,0-.41,1.44,7.93,7.93,0,0,1-4.83.29c-.33-1.4.33-4.17,1.53-4.7.62-.29,1.73,0,2.35-.42h1.86C248.89,114.37,248.73,115.48,248.56,116.6Zm-5.45-3a8.26,8.26,0,0,0-.62,2.14c-.24.83-.86,2.07-.2,2.89.33,1,1.81,1.16,3.09.91.66-.12,1.41.12,1.86-.21h.08c-.53,2.11-3.42,4.34-5.45,5-.66.21-1.28,0-2.06.21a7.21,7.21,0,0,1-2.68.08,13.12,13.12,0,0,1-2.15-1c-.12-.46-.29-1-.41-1.45v-1.86a19.37,19.37,0,0,0-.29-4.41c-1.24-4.63-3.06-10.08-6.48-12.51a20.84,20.84,0,0,0-3.88-1.74,20.06,20.06,0,0,0-3.1-1.32c-1.69-.45-7.14,0-8.51.42a26.63,26.63,0,0,0-6.15,2.68c-3.51,2.56-4,8.13-5.32,12.92-1,3.68-.87,6.44-4.21,7.8-1.32.54-3.1,0-4.71.29-1.44.33-3.43-.24-5,.09-3,.66-7,0-10.36.28-2.68.25-5.32.09-8.09.09h-3.59c-2.85.62-7.52.2-10.78.2H144.4a28.17,28.17,0,0,1-5.32.21h-1.94c-1.24.29-3-.21-4.42.08a9.49,9.49,0,0,1-3.8.21,16.83,16.83,0,0,1-2.15-1c-.12-.46-.29-1-.41-1.45V121.3a19.37,19.37,0,0,0-.29-4.41c-1.28-4.67-3-10.08-6.48-12.51a22.67,22.67,0,0,0-4.29-1.94c-.5-.21-1-.66-1.53-.83a16.24,16.24,0,0,0-7.47-.08,15.83,15.83,0,0,0-2.15.21A28.24,28.24,0,0,0,98,104.42c-4.42,3.22-4.13,11-6.28,16.22-.53,1.37-.57,2.89-1.44,3.88-1.12,1.37-3.39,1.16-5.45,1.66h-1c-2.11.49-4.83.28-7.19.28a15.94,15.94,0,0,0-2.89.09h-4a33.61,33.61,0,0,1-6.77.29H60.47c-.45.08-1.28,0-1.86.08-2.31.54-5.4.21-8,.21-5.28,0-11,.08-16.43.08-4.33,0-8.67-.08-13-.08-1.53,0-4.63.24-5.66-.29-.29-.29-.53-.62-.82-.91a6.28,6.28,0,0,1-2.56-3.8L12,120.68a7.31,7.31,0,0,1-.2-2.88,19.13,19.13,0,0,0,.62-2.48c.33.2.58.58.91.7a6.12,6.12,0,0,0,4.41-.5c.46-2.14-1.19-3-2.14-4.08-.21-.25-.33-.62-.62-.83a2.29,2.29,0,0,0-2.07.08c-1.57-.33-1.4-5.2-1.32-7.18,3.59,0,4.13-2.27,3.39-5.32-.17-.75,0-1.74-.09-2.36a5.2,5.2,0,0,0,1.24-1.44c.54.24.83.78,1.45,1,.86.33,1.73.08,2.76.29a43.15,43.15,0,0,0,8.84.49h3.67c2.48.38,5.29.13,7.6.62,1.28.29,2.64,0,3.8.21h2.68c1.53.33,3.34.21,4.71.49h3.3a15.49,15.49,0,0,0,5.53-.2c.79-.17,1.69,0,2.27-.41a1.37,1.37,0,0,0,.62-.21,1.26,1.26,0,0,0-.29-.83,13.87,13.87,0,0,0-2.76.42c-1.41.33-3.47-.17-4.63,0a6.28,6.28,0,0,1-2.14.08c-2.27-.5-4.88-.13-7.19-.62H43.88c-1.08-.25-2.4,0-3.6-.21A46.68,46.68,0,0,0,32,94.92c-3.55-.08-7.48.25-10.45-.41-1.4-.29-3,.17-3.88-.62-.08-.16-.12,0,0-.2,0-.91.87-1,1.45-1.45a26.11,26.11,0,0,1,6.56-2.77c5.2-1.73,11.31-2.76,16.93-4.21,1-.12,2-.29,3-.41,1.32-.33,2.81-.66,4.09-1,.7-.08,1.44-.21,2.14-.29,4-1,8.18-1.45,11.89-2.56.91-.29,1.74-.17,2.69-.5a3.87,3.87,0,0,0,.9-.49l.2,0c-.06.08-.14.14-.2.22a.94.94,0,0,0,1.54,1.07,4.64,4.64,0,0,1,1.31-1.13c2.65,0,6.06-.1,7.52-.1C82.31,80,86.93,80,91.6,80h6.07c2.43.54,5.45-.12,7.88.41h2.77a22.68,22.68,0,0,0,6.48.08c.7,0,1.36-.08,2.07-.08a14.25,14.25,0,0,0,3.88-2.27,36.45,36.45,0,0,0,5.94-4.62c.91-1,1.78-1.9,2.68-2.89,1.37-1,2.48-2.4,3.89-3.39,1.19-.82,3.34-2.23,3.88-3.59a7.5,7.5,0,0,0,.08-2.15A6.68,6.68,0,0,0,135,59.63c-1.41-.58-3.39-.38-4.91-.71h-2.28a24.62,24.62,0,0,0-4.29-.28c-.37,0-1.11.12-1.32.08-2.27-.33-6.36,0-9.33,0,.83-.58,2.35-.25,3.47-.5,2-.45,4.42-.37,6.48-.82h1.44c1.9-.42,4.09-.17,6.07-.62h1.45c1.44-.33,3.26-.09,4.7-.42h2.28c.82-.16,2.1.13,3.09-.08a22.28,22.28,0,0,1,4.42-.08c3,0,6.07,0,8.92.08a39.38,39.38,0,0,1,7.06.62c1.56,0,3.13.08,4.7.08,2.85.62,5.95.5,8.63,1.12,1.16.08,2.31.2,3.47.29,2.93.66,6.07.82,8.83,1.73,3.14,1.07,6.28,2.19,9.46,3.39a43,43,0,0,1,6.56,3.67c1.74,1.07,3.8,1.57,5.53,2.68a52,52,0,0,0,6.86,4,43.33,43.33,0,0,0,5.65,1.65c.7.08,1.45.21,2.15.29,3.76,1,7.88,1.9,11.81,3,.9.25,1.65.17,2.56.41,1.36.38,2.89.91,4.21,1.33a7.91,7.91,0,0,1,1.11.2c1.28.58,1.82,2.07,3.1,2.69-.29.66-1.28,1-1.86,1.32a11.83,11.83,0,0,0-3.1,3.09c-1.44,2.36-.33,4.13,1.24,5.33.62.66,1.24,1.28,1.86,1.94.37.25.74.37,1.11.62.83.58,1.62,1.69,2.77,1.86a13.61,13.61,0,0,1-.41,2.27v4.08c.2.87.49,1.82.7,2.77l0,5.41C246.75,112.06,244.1,112.22,243.11,113.63ZM13.24,112.18V112a1.56,1.56,0,0,0,.62-.2h.5c.45.74,1.24,1.15,1.73,1.86.25.33.33.66.62.9,0,.25,0,.29-.08.42a3.09,3.09,0,0,1-2.27.08,1.26,1.26,0,0,1-.83-.29C13.41,114.2,12.83,112.84,13.24,112.18Zm236-16.1v.5c-.16.08-.08,0-.2.08-.87-.17-1.45-1-2.07-1.45-.45-.33-1-.49-1.44-.82-.74-.54-1.28-1.37-2.07-1.94-.45-.33-.7-1-1.11-1.32,0-2.94,1.77-4.3,3.47-5.45a4.94,4.94,0,0,0,1.52-1c.5.25.58,1,.83,1.45.91,1.73,1.12,4.09,1.12,6.77C249.39,93.73,249.64,95.5,249.26,96.08Z" style="fill:#fff"/></g><path d="M112.86,59a65.47,65.47,0,0,0-22.75,8.91l-.2-.49s12.92-8.34,23-8.42Z" style="fill:#fb0"/><path d="M123.6,57.64s-9.91.33-16.06,2-3.31,1.57-3.31,1.57a44.61,44.61,0,0,1,16.39-2.52c8.84.41,3-1.08,3-1.08Z" style="fill:#fb0"/><path d="M83.07,90.3c-1.8-2.14-1-5.75-.4-8.17,0-.07-.1-.1-.12,0-.58,2.53-1.68,6.19.36,8.36A.11.11,0,1,0,83.07,90.3Z" style="fill:#fff"/><path d="M85.12,79.7a.6.6,0,0,0-.89-.5c-2.06.92-3.14.89-4.08,3.23-.11.29-.21.57-.29.86A8.58,8.58,0,0,0,79,87.44c.21,3,2.91,5.61,5.43,6.92a.46.46,0,0,0,.68-.39c.08-2.29,0-4.54,0-6.83C85.06,84.68,85.3,82.15,85.12,79.7Z" style="fill:#fff"/><path d="M85.14,115.9c0-2.69.1-5.37,0-8.07a.54.54,0,0,0-.82-.42,10.91,10.91,0,0,0-1.75-.47,7.28,7.28,0,0,0-3.47-.11c-4,.91-6.4,2.22-7.28,6.41-.68,3.28,0,5.27,2.82,7.16a17.86,17.86,0,0,0,5.07,2.14c1.64.46,3.39.46,5,1a.45.45,0,0,0,.55-.31C85.78,121,85.18,118.16,85.14,115.9Z" style="fill:#fff"/><path d="M85.09,144.4a.49.49,0,0,0,.12-.56c-.6-1.42-2.31-1.18-3.44-.68a7.23,7.23,0,0,0-4.18,5.39c-.43,2-.4,4,1.24,5.45a8.94,8.94,0,0,0,6.3,1.69.51.51,0,0,0,.41-.45A80.17,80.17,0,0,0,85.09,144.4Z" style="fill:#fff"/><path d="M102.84,172.92a19.2,19.2,0,0,1-5.62-.74A15.94,15.94,0,0,1,85.86,160a4.56,4.56,0,0,1,.33-3.24,3.78,3.78,0,0,1,.26-.43,3,3,0,0,1,.22-.28,5.07,5.07,0,0,1-.72-1.67c-1.34-4.57-1.22-13.45-1.21-14.46l0-68.44c-.07-1.38-1-19.9-1.07-29.32s.78-18.85,1.62-28l.08-.93a3.27,3.27,0,0,1,.57-1.54,3.18,3.18,0,0,1,1.42-2.17A16.32,16.32,0,0,1,94,7.4a247.9,247.9,0,0,1,48.5-2.16,146.19,146.19,0,0,1,26.15.23,3.16,3.16,0,0,1,2.28,1.32l.18,0A11,11,0,0,1,176.81,9c1.82,1.54,2.83,3.79,3.13,6.9a106.85,106.85,0,0,1,.35,12.47c0,1.81,0,3.68,0,5.5,0,1.29,0,2.55-.07,3.77a32.2,32.2,0,0,0,.3,7.41,3.36,3.36,0,0,1,.06.63V160.81c-.07,5.16-5.89,8.62-9.54,9.6-5,1.35-10,1.22-14.86,1.09-1.55,0-3.18-.08-4.73-.07a27.88,27.88,0,0,1-5.05-.41,10.51,10.51,0,0,0-5.22.22,3.18,3.18,0,0,1-3-5.43,5.54,5.54,0,0,1,1.08-1.49c1.49-1.6,1.28-6.22,1.16-9v-.2a3.18,3.18,0,0,1,3.14-3.33A135,135,0,0,0,162,150.73l.54-.08c2.54-.4,5.41-.85,8.34.18a8.75,8.75,0,0,1,3.32,2.14v-107a38.34,38.34,0,0,1-.36-8.57c0-1.2.08-2.34.07-3.47,0-1.89,0-3.8,0-5.64a101.48,101.48,0,0,0-.33-11.77c-.16-1.73-.56-2.39-.87-2.66a5.52,5.52,0,0,0-2.38-.69l-.23.12a6.05,6.05,0,0,1-4.1.83l-1.75-.26a42.07,42.07,0,0,1-7.69.92c-11.25,0-22.66.13-33.69.29-10.27.15-20.87.29-31.36.3-.8,8.79-1.61,17.86-1.54,26.71.08,9.61,1.06,28.94,1.07,29.14a.86.86,0,0,1,0,.16l0,68.57a77.11,77.11,0,0,0,.5,10.36,98.84,98.84,0,0,1,15.48-.06c2.86.14,5.81.27,8.69.27,5,0,8.46,3.24,9.59,9,0,.1,1.72,10.41-2.4,12.1a3.28,3.28,0,0,1-3.22-.41l-.16.11a6.49,6.49,0,0,1-4.65.71,4.64,4.64,0,0,0-.81-.08c-1.26.08-2.64.26-4.11.44A57.6,57.6,0,0,1,102.84,172.92Zm21.48-6Zm45-3.78a2.81,2.81,0,0,1,.17.72c0,.14,0,.27,0,.41a10.25,10.25,0,0,0,2.74-1.33C171.31,163,170.34,163,169.36,163.09Zm-63.47-.58q2.3.13,4.56.21A30.09,30.09,0,0,0,105.89,162.51Zm41-4.38c0,.29,0,.59,0,.89a10.1,10.1,0,0,1,.94-.91Zm18-1.4c1.19.05,2.39.05,3.59,0A9.36,9.36,0,0,0,164.89,156.73ZM92.17,153h0Zm78-139.87Z" style="fill:#e6e6e6"/><path d="M168.52,167.1h-.28a10.51,10.51,0,0,1-5.78-2.41,12.72,12.72,0,0,0-1.75-1.11,11.15,11.15,0,0,0-2.48-.7c-4.21-.86-8.5-1.75-12.63-1.48a3.21,3.21,0,0,1-2.95-1.56,23.47,23.47,0,0,0-3.82-2.58,3.18,3.18,0,0,1-1.27-5.94c1.72-1,3.46-.09,4.29.34a23,23,0,0,1,4.93,3.33,60.16,60.16,0,0,1,12.67,1.64,16.9,16.9,0,0,1,3.9,1.16,18,18,0,0,1,2.79,1.7l0,0-.42-5.1a4.48,4.48,0,0,1,1-3.56,3.07,3.07,0,0,1,.78-.65,4.42,4.42,0,0,1,2.06-.66,45.34,45.34,0,0,1,5.88-.21,3.19,3.19,0,0,1-.07,6.37h-.07c-1.11,0-2.13,0-3.08,0l.53,6.53a4.93,4.93,0,0,1-.22,2.15,3.4,3.4,0,0,1-.51,1A4.48,4.48,0,0,1,168.52,167.1Zm-26.29-8.53Zm0,0Zm-1.56-1.71Zm29.17-1h0Z" style="fill:#e6e6e6"/><path d="M132.47,171.84h-.08l-6.31-.28a4.94,4.94,0,0,1-2.58-.64,1.86,1.86,0,0,1-.76-2.51,1.61,1.61,0,0,1,.21-.3,8.09,8.09,0,0,1-2-4,14.67,14.67,0,0,1,.1-5.9,7.27,7.27,0,0,1,2.15-3.51c-.79.09-1.57.19-2.36.3a1.86,1.86,0,0,1-.5-3.69A127.32,127.32,0,0,1,138,150.2a1.92,1.92,0,0,1,1.37.61,1.85,1.85,0,0,1,.47,1.42.34.34,0,0,1,0,.1,1.88,1.88,0,0,1,.23-.16,1.38,1.38,0,0,1,.34-.18,4.68,4.68,0,0,1,2.07-.34l8.18-.08h0a1.86,1.86,0,0,1,0,3.71l-8.26.08h-.19a.67.67,0,0,0-.2,0,.16.16,0,0,0,0,.1,7.5,7.5,0,0,0,.4,1.76,1.21,1.21,0,0,1,0,.18,10.9,10.9,0,0,1,0,5.08,1.85,1.85,0,1,1-3.61-.85,7.37,7.37,0,0,0,0-3.27,12.26,12.26,0,0,1-.56-2.5,4,4,0,0,1,.22-1.77,3.56,3.56,0,0,1-1.84.28,15.7,15.7,0,0,0-9.37,1.91,5.12,5.12,0,0,0-2.66,2.81,11,11,0,0,0-.06,4.35,4.27,4.27,0,0,0,1.69,2.67,7.8,7.8,0,0,0,3.08.86c.84.12,2.64.2,4.23.26,1.85.08,3.59.15,4.55.29a1.86,1.86,0,0,1-.52,3.68c-.68-.1-2.15-.17-3.58-.23A1.86,1.86,0,0,1,132.47,171.84Z" style="fill:#e6e6e6"/><path d="M127.43,166.55a7.29,7.29,0,0,0,8.43.91c5.61-3.34,3.84-12.84-2.77-13.67s-10.2,8.51-5.66,12.76Z" style="fill:#fff"/><path d="M132.28,168.7a7.55,7.55,0,0,1-5-1.92h0c-2.62-2.46-2.5-6.29-1.22-9,1.13-2.39,3.61-4.77,7.13-4.29a7.37,7.37,0,0,1,6.21,6,7.56,7.56,0,0,1-3.33,8.22A7.66,7.66,0,0,1,132.28,168.7Zm-4.64-2.38a6.72,6.72,0,0,0,11.09-6.68,6.71,6.71,0,0,0-5.68-5.54c-3.21-.43-5.45,1.76-6.49,4C125.37,160.55,125.25,164.08,127.64,166.32Z" style="fill:#5a585a"/><path d="M120.3,150.9c-20.26,0-28.74-.3-29.39-1a.5.5,0,0,1-.12-.28c.2-7.55.1-17.11,0-25.46L89.47,47.53c-.06-3.19-.11-6.49-.16-9.78s-.11-6.58-.17-9.78c0-1-.07-2-.14-3.1a33.27,33.27,0,0,1,0-6.15c.44-3.56,4.54-3.82,4.59-3.82.52,0,52-1.61,76.47-.91h.45c1.39,0,3.48-.06,4.16,1.2a2.42,2.42,0,0,1,.24,1.14c.65,11.23.66,22.18.62,34.31q0,10.62-.1,21.22c-.07,10.4-.13,21.15-.11,31.74,0,3,.09,32.24.42,42.52a11,11,0,0,1-.54,3.65.92.92,0,0,1-.26.5.31.31,0,0,1-.17.09,1.21,1.21,0,0,1-.5.08c-4.55,0-9.6.11-14.49.21-6.58.12-13.39.25-19.45.2-.79,0-2.86,0-5.72,0Q126.64,150.89,120.3,150.9Zm-28.88-1.37c2.24.9,31.9.76,43.16.71l5.74,0c6.05.05,12.85-.08,19.43-.2,4.89-.1,9.94-.19,14.5-.21a.56.56,0,0,0,.24,0l0,0,0,0s0-.07,0-.1a10.31,10.31,0,0,0,.53-3.48c-.35-11.13-.42-42.24-.42-42.54,0-10.59,0-21.34.11-31.75q.06-10.61.1-21.21c0-12.12,0-23.06-.62-34.29a1.85,1.85,0,0,0-.17-.87c-.49-.92-2.43-.89-3.6-.87a3.48,3.48,0,0,0-.47,0c-24.43-.7-75.92.89-76.44.9-.14,0-3.62.24-4,3.28a32.1,32.1,0,0,0,0,6c.06,1,.13,2.11.14,3.13.06,3.2.12,6.49.17,9.78s.1,6.58.16,9.78l1.28,76.67C91.5,132.5,91.61,142,91.42,149.53Zm0,.14Z" style="fill:#5a585a"/><path d="M132,149.22a16.36,16.36,0,0,1-5.28-1,9.18,9.18,0,0,1-4.51-2.75,8,8,0,0,1-1.51-5.27,12.41,12.41,0,0,1,3.21-8.34h0a11,11,0,0,1,18.32,5.65v.17a10.16,10.16,0,0,1-8.65,11.42A11.94,11.94,0,0,1,132,149.22Zm-7.63-16.93a11.75,11.75,0,0,0-3.05,7.92,7.63,7.63,0,0,0,1.37,4.89,8.64,8.64,0,0,0,4.23,2.54,14,14,0,0,0,6.59.85,9.54,9.54,0,0,0,8.12-10.75v-.17a10.37,10.37,0,0,0-17.26-5.28Zm-26.32,14.1H96.51a1.18,1.18,0,0,1-.92-.37,3.12,3.12,0,0,1-.4-2.28l0-.31c.12-2.77,0-8.51,0-8.57a.31.31,0,0,1,.31-.31h0a.3.3,0,0,1,.31.3c0,.06.08,5.82,0,8.61l0,.32c0,.58-.1,1.47.23,1.82a.59.59,0,0,0,.47.17c3.27.05,9.84-.08,9.9-.08.44.08,1.55.18,1.8-.32a2.86,2.86,0,0,0,.14-1.37c0-.24,0-.48,0-.7,0-.82.08-1.55.12-2.27s.09-1.44.13-2.27l0-.44c.09-1.15.22-2.73-.32-3.59-.43-.69-1.56-.7-2.46-.71h-.51c-1.27,0-2.55,0-3.83,0-.84,0-1.38,0-1.85,0a17.32,17.32,0,0,1-2.46,0,.31.31,0,0,1-.28-.34.29.29,0,0,1,.33-.28,16.08,16.08,0,0,0,2.37,0c.49,0,1-.05,1.9,0,1.29,0,2.57,0,3.85,0h.49c1,0,2.37,0,3,1s.51,2.73.41,4l0,.43c0,.82-.09,1.54-.13,2.27s-.08,1.44-.12,2.26c0,.2,0,.42,0,.64a3.2,3.2,0,0,1-.21,1.68c-.5,1-2.21.7-2.4.66C106.36,146.3,101.52,146.39,98.08,146.39Z" style="fill:#5a585a"/><path d="M102.87,145.81a.27.27,0,0,1-.17-.06,10.23,10.23,0,0,1-2-1.78,4.17,4.17,0,0,1-1.07-2.55c0-.15,0-.29,0-.43,0-.58,0-.94-.23-1.16a1.21,1.21,0,0,0-.8-.18,5.8,5.8,0,0,0-2.57.75.31.31,0,1,1-.3-.54,6.34,6.34,0,0,1,2.82-.82,1.72,1.72,0,0,1,1.23.3,1.87,1.87,0,0,1,.47,1.68c0,.13,0,.26,0,.39a3.55,3.55,0,0,0,.91,2.15,9.65,9.65,0,0,0,1.92,1.68.31.31,0,0,1,.09.43A.31.31,0,0,1,102.87,145.81Zm5.33-3.26a.37.37,0,0,1-.2-.07,1.34,1.34,0,0,1-.35-1.22,1.73,1.73,0,0,0,0-.46,2.05,2.05,0,0,0-.55-.81l-2.45-2.41a9.59,9.59,0,0,0-1.81-1.48,8.35,8.35,0,0,0-1-.43,4.2,4.2,0,0,1-2-1.21.31.31,0,0,1,.06-.44.31.31,0,0,1,.43.06,3.7,3.7,0,0,0,1.7,1,8.73,8.73,0,0,1,1.09.47,9.81,9.81,0,0,1,1.94,1.59l2.42,2.39a2.59,2.59,0,0,1,.74,1.11,2.45,2.45,0,0,1,0,.65c0,.35,0,.58.12.69a.33.33,0,0,1,0,.44A.3.3,0,0,1,108.2,142.55Z" style="fill:#5a585a"/><path d="M105.26,172c-6.71,0-14.94-.75-18-7-1.59-3.31-1.71-7.19-1.83-10.94,0-.9-.06-1.8-.1-2.68-.24-4.74-.37-9.7-.42-15.16s0-10.79.08-16.07c0-4.34.09-8.83.09-13.16,0-5,0-10,.07-14.85.09-12.38.18-25.18-.32-37.74-.19-4.69-.25-9.46-.31-14.08s-.12-9.35-.31-14c0-.45,0-.91-.06-1.4-.3-6.23-.74-15.65,6.3-18,4.18-1.37,8.9-1.44,13.47-1.51,1.25,0,2.47,0,3.67-.08,17.27-.7,34.83-.66,51.81-.62H162c17.71.08,17.77,7,17.9,19.66.08,7.43.12,14.91.16,22.13q0,7.7.08,15.4c0,5.17.07,10.35.09,15.53.08,10.48.12,21.14.16,31.45l.13,28.74c0,6,.08,12.14.08,18.25,0,6.4-.82,14.92-7.87,14.92a.31.31,0,0,1,0-.62c5,0,7.25-4.41,7.25-14.3,0-6.11,0-12.28-.08-18.25l-.13-28.74c0-10.31-.08-21-.16-31.45,0-5.18-.06-10.35-.09-15.53s-.06-10.27-.08-15.39c0-7.23-.08-14.7-.16-22.13-.13-12.63-.19-19-17.28-19.06h-2.57c-17,0-34.53-.08-51.79.62-1.2.05-2.43.07-3.68.08-4.52.07-9.2.13-13.29,1.48-6.59,2.18-6.16,11.32-5.87,17.36,0,.49,0,1,.06,1.4.19,4.69.25,9.45.31,14s.12,9.38.31,14.07c.5,12.57.41,25.38.32,37.76,0,4.87-.07,9.9-.07,14.85,0,4.33,0,8.82-.09,13.16,0,5.28-.1,10.73-.08,16.06s.18,10.41.41,15.14c.05.88.08,1.78.11,2.69.11,3.69.23,7.5,1.76,10.69,3.38,7,13.76,6.79,20.63,6.65h.76c11-.2,21.77-.31,32.16-.41,9.06-.09,18.42-.18,28-.33a.29.29,0,0,1,.32.3.31.31,0,0,1-.31.31c-9.57.16-18.94.25-28,.34-10.39.1-21.13.21-32.16.41h-.76C107.47,171.93,106.39,172,105.26,172Z" style="fill:#5a585a"/><path d="M254.75,179.86a.72.72,0,0,0-.11-.19,8.53,8.53,0,0,0-1.76-3.11,2.16,2.16,0,0,0-.63-.49,33.17,33.17,0,0,0-5.54-8.07c-.52-.58-1.06-1.23-1.61-1.88-1.11-2-2.34-4.34-3.31-5.94a40.18,40.18,0,0,0-2.21-3.44c-.49-.65-1.45-2.73-.87-1.07a7.81,7.81,0,0,0-4.74-4.58,9.13,9.13,0,0,0-.55-2.25,30.34,30.34,0,0,0-3.68-6.21,75.52,75.52,0,0,0-5.85-6.94c-1-1.93-2.1-3.85-3.29-5.72-4.4-6.93-9.28-19.5-17.13-23.45-.16-.33-.34-.66-.49-1-1.85-4.16-6.14-4.43-9.17-2.59a6.2,6.2,0,0,0-.94-.34c-2.85-2.38-7.45-2.43-9.54.3a13.12,13.12,0,0,1-.23-1.92,1,1,0,0,0,.09-.83c-.05-.14-.08-.3-.13-.44,0-1.08,0-2.13,0-2.89a24.27,24.27,0,0,0-.38-4.19c.08-.73.19-1.46.3-2.15a.77.77,0,0,0-.63-.93c0-.79,0-1.58-.07-2.38.37,1.18.77,2.34,1.16,3.46s2.08.32,1.69-.81c0-.07,0-.15-.08-.23a41.55,41.55,0,0,0,2.8,4.37c.73,1,2.16-.26,1.43-1.22a25.64,25.64,0,0,1-1.44-2.13,1,1,0,0,0,.54-.49c1.89,1.9,4,3.57,5.61,5.79.71,1,2.13-.24,1.43-1.21-2.64-3.67-6.64-5.86-8.74-10-.81-1.58-1.73-3.23-2.61-4.89-1.25-1.74-2.26-3.76-3.94-5.06v3.1l.1,2q0,.93,0,1.86c0,1.24.06,2.48.13,3.73s.13,2.47.17,3.72c0,.38,0,.76,0,1.15a1.3,1.3,0,0,0,0,.21.81.81,0,0,0-.21.56c0,1.06.06,2.11.14,3.16a.81.81,0,0,0-.14.46c0,3.9-.22,7.93.44,11.79a.92.92,0,0,0,1.4.61c0,6.31-1.29,12.46-1.61,18.75a.69.69,0,0,1,0,.25c0,.33-.05.67-.08,1,0,.75-.09,1.54-.14,2.35-.05,2.55.13,5.14.13,7.63a.9.9,0,0,1-.14.47q.09.8.24,1.53a7,7,0,0,0,1.11,2.54,7.88,7.88,0,0,0-2.39,6c0,4.75.92,9.69.74,14.39-.07,2-.86,3.87-.7,5.93.12,1.56,1.56,5.39.8,2,1.38,6.16,3,11.06,7.88,14.11,2.32,4.3,10.11,5.41,14.24,6.27,10.25,2.14,21.53,1.7,32,1.27C240.49,191.38,258.49,191.05,254.75,179.86Z" style="fill:#fff"/><path d="M229.57,166.28a.31.31,0,0,1-.3-.24c-.54-2.51-3-4-5.46-5.41l-26.42-14.41a.31.31,0,1,1,.29-.54l26.43,14.41c2.59,1.43,5.17,3,5.76,5.82a.31.31,0,0,1-.23.37ZM85.66,156.66a.32.32,0,0,1-.14,0,7.9,7.9,0,0,0-2.73-.65,8.2,8.2,0,0,1-3-.76,6.28,6.28,0,0,1-1.93-1.29c-1.37-1.47-1.21-3.67-1-4.86a8.2,8.2,0,0,1,2.88-5.26c.82-.63,3.67-2.56,5.71-.91a.32.32,0,0,1,0,.44.3.3,0,0,1-.43,0c-1.69-1.36-4.21.36-5,.92a7.66,7.66,0,0,0-2.64,4.88c-.2,1.07-.35,3,.83,4.32A5.59,5.59,0,0,0,80,154.67a7.49,7.49,0,0,0,2.82.69,8.18,8.18,0,0,1,2.93.72.31.31,0,0,1-.13.58Zm-1-32.28h-.09c-1.34-.41-2.23-.73-3.08-1s-1.79-.65-3.2-1.07c-3.21-1-6.31-2.28-7.22-5.16-.86-2.63.62-5.87,1.09-6.79a5.85,5.85,0,0,1,4.18-3.18c3.61-.86,5.57-1.13,9.19,0a.31.31,0,0,1,.21.38.32.32,0,0,1-.39.21c-3.48-1-5.29-.81-8.88,0a5.31,5.31,0,0,0-3.76,2.86c-.92,1.8-1.68,4.41-1.05,6.33.83,2.6,3.76,3.82,6.81,4.75,1.42.42,2.34.76,3.23,1.08s1.72.62,3,1a.31.31,0,0,1,.2.39A.31.31,0,0,1,84.71,124.38Zm.57-29.6H85.2a13.25,13.25,0,0,1-1.85-.68,10.35,10.35,0,0,1-2.64-2.19,9.09,9.09,0,0,1-1.65-2.33,7.15,7.15,0,0,1,0-5.69c1-2.83,2.55-5.45,6.61-5.45a.31.31,0,0,1,0,.62c-3.48,0-4.93,2-6,5a6.58,6.58,0,0,0,0,5.21,8.16,8.16,0,0,0,1.55,2.18,9.8,9.8,0,0,0,2.46,2.06,13.2,13.2,0,0,0,1.73.63.31.31,0,0,1-.08.61Z" style="fill:#5a585a"/><path d="M180.61,74.61c3.84,3.76,4.21,6.9,8,10.69,8.3,8.18,16.68,16.35,23.57,25.72,9.91,13.46,16.6,29,26.05,42.77,4.63,6.73,9.87,13,13.75,20.15,1.11,2.07,2.15,4.21,3.14,6.36M191,128.9a12.64,12.64,0,0,1-11,8.92c-7.27.49-14.66-5-21.84-6.24-3.1-.53-10.36-1.9-13.5-1.56-4.83.49-9.83,0-14.53,1.36-4.13,1.15-10,5.57-8.55,10.61.62,2.19,2.64,3.67,4.75,4.58a66.75,66.75,0,0,0,17.42,4.25c8.42,1.08,17.3.7,24.24,6.24,6.23,4.95,7.22,12.59,12.26,18.62,1.57,1.85,1.61,2.1,3.26,3.79" style="fill:#fff"/><path d="M255.17,180.61a.31.31,0,0,1-.28-.18c-1.21-2.61-2.17-4.56-3.13-6.34a123.53,123.53,0,0,0-9.13-13.7c-1.53-2.09-3.11-4.25-4.6-6.42-4.38-6.37-8.23-13.23-11.95-19.87-4.32-7.7-8.78-15.67-14.1-22.89-6.67-9.07-14.87-17.15-22.8-24.95l-.74-.73a25.39,25.39,0,0,1-4.06-5.41,24.3,24.3,0,0,0-4-5.29.3.3,0,0,1,0-.43.29.29,0,0,1,.43,0,25,25,0,0,1,4.09,5.41,24.74,24.74,0,0,0,4,5.28l.74.73c7.94,7.83,16.16,15.92,22.86,25,5.34,7.25,9.81,15.24,14.14,23,3.71,6.62,7.55,13.48,11.92,19.82,1.49,2.17,3.07,4.32,4.59,6.41a124.15,124.15,0,0,1,9.17,13.76c1,1.8,1.94,3.76,3.15,6.38a.32.32,0,0,1-.15.41A.31.31,0,0,1,255.17,180.61Zm-71.67-.83a.31.31,0,0,1-.22-.09,24.71,24.71,0,0,1-2.08-2.35c-.3-.38-.66-.83-1.2-1.47a40.31,40.31,0,0,1-5-8.27c-1.9-3.85-3.7-7.49-7.24-10.3-5.5-4.39-12.4-5-19.07-5.65-1.64-.15-3.35-.31-5-.52a65.75,65.75,0,0,1-17.5-4.28c-1.86-.8-4.22-2.28-4.93-4.78a6.24,6.24,0,0,1,.65-4.93c1.7-3.08,5.4-5.3,8.11-6.06a40.29,40.29,0,0,1,9.51-1.09c1.68-.05,3.4-.11,5.08-.28,2.91-.31,9.27.81,12.69,1.41l.89.16a45.42,45.42,0,0,1,9,3c4.22,1.73,8.59,3.52,12.8,3.24a12.23,12.23,0,0,0,10.7-8.7.31.31,0,1,1,.6.18A12.88,12.88,0,0,1,180,138.13c-4.37.29-8.8-1.53-13.08-3.28a45.48,45.48,0,0,0-8.84-3l-.9-.16c-3.39-.59-9.7-1.71-12.52-1.41-1.69.18-3.43.24-5.12.29a39.89,39.89,0,0,0-9.36,1.07,13.61,13.61,0,0,0-7.74,5.76,5.68,5.68,0,0,0-.59,4.46c.64,2.27,2.84,3.64,4.57,4.39a65.37,65.37,0,0,0,17.34,4.22c1.65.22,3.35.37,5,.53,6.76.62,13.75,1.27,19.4,5.77,3.64,2.9,5.56,6.77,7.41,10.51a39.93,39.93,0,0,0,4.89,8.16c.55.64.91,1.09,1.21,1.47a25.34,25.34,0,0,0,2,2.31.29.29,0,0,1,0,.43A.29.29,0,0,1,183.5,179.78Z" style="fill:#5a585a"/><path d="M83.48,81.73c0-.19-.28-.19-.29,0-.21,2.59-.53,5.74.19,8.29.06.21.42.18.4,0A55.39,55.39,0,0,1,83.48,81.73Z" style="fill:#fff"/></svg>