<svg xmlns="http://www.w3.org/2000/svg" viewBox="0 0 232.89 191.73"><title>3Artboard 133</title><path d="M224.38,123.71c-5.59-7.6-18.61-10.58-28.15-12.75-12.46-2.84-25.33-4.13-38.16-4.93-4.51-.27-9-.46-13.55-.49-24.69-.15-49.84-.61-74.37,1.48-14.74,1.25-29.45,3.44-43.43,7.79-5.56,1.73-11,4.67-14.73,8.66C-1.49,137.85,19.85,149.62,33.28,155c28.69,11.54,62.24,14.24,93.51,13.62,28-.55,57.18-2.34,81.75-15.08,9.07-4.7,19.32-12.59,18.52-22.67A13.66,13.66,0,0,0,224.38,123.71Z" style="fill:#f5f5f5"/><path d="M172.53,129.64h-.12a12.13,12.13,0,0,1-5.92-2.32c-.56-.39-1.1-.79-1.62-1.18a23,23,0,0,0-2.61-1.77,2,2,0,1,1,1.9-3.54l0,0a26.68,26.68,0,0,1,3.07,2.08c.51.38,1,.74,1.48,1.07a8,8,0,0,0,3.9,1.64,2,2,0,0,1-.12,4Zm-114.62-.73a1.94,1.94,0,0,1-1.12-.34,9.49,9.49,0,0,0-2.81-.73c-3.32-.56-8.34-1.41-11.8-7.26a2,2,0,1,1,3.45-2c2.51,4.24,6,4.83,9,5.35A11.1,11.1,0,0,1,59,125.24a2,2,0,0,1,.55,2.79A2,2,0,0,1,57.91,128.91Z" style="fill:#ddd"/><path d="M185.5,125.31c-3.14,0-6.23-.29-9.25-.57a84.14,84.14,0,0,0-9.91-.53,27.21,27.21,0,0,1-6.29-.81,35.06,35.06,0,0,0-3.93-.67,58.3,58.3,0,0,0-9.71,0c-2.06.15-4.15.35-6.17.56a111.63,111.63,0,0,1-12.62.78c-2.31,0-4.62-.19-6.85-.35a65,65,0,0,0-10.77-.2c-1.35.13-2.67.34-4.07.56-1.73.27-3.51.56-5.33.67-4.74.3-9.43-.56-14-1.39-5.4-1-10.52-1.92-15.5-1l-.17.11a2.43,2.43,0,0,1-2.38,0l0,0-33.05-.72a8.66,8.66,0,0,1-6.09-2l-3.61-2.55a2,2,0,1,1,2.32-3.27h0l3.69,2.6.16.13a4.61,4.61,0,0,0,3.35,1.13,1.08,1.08,0,0,1,.18,0l33.34.73a3,3,0,0,1,.9.16c5.94-1.29,11.89-.21,17.63.84,4.5.83,8.75,1.6,13,1.34,1.63-.11,3.24-.36,5-.63,1.4-.22,2.85-.45,4.32-.59a69.16,69.16,0,0,1,11.44.18c2.17.16,4.42.32,6.6.35a110,110,0,0,0,12.18-.77c2-.2,4.17-.41,6.27-.56a61.79,61.79,0,0,1,10.36,0,38.47,38.47,0,0,1,4.4.74,23.23,23.23,0,0,0,5.38.72,90.13,90.13,0,0,1,10.38.56,68.78,68.78,0,0,0,12.12.42c1.08-.09,2.23-.24,3.24-.37l10.87-1.4a2,2,0,0,1,2.77-.63,2,2,0,0,1,.92,1.41,2.51,2.51,0,0,1-.51,1.92,3.59,3.59,0,0,1-2.43,1.25l-11.11,1.43c-1.05.14-2.25.29-3.42.39s-2.39.14-3.58.14Zm17.07-4.56h0Z" style="fill:#ddd"/><path d="M45.31,119.34a19.57,19.57,0,0,0,7.21,7.13c2.46,1.34,4.28,1.41,7.09,1.34,4.53-.14,11.07-4.49,12.68-9.32" style="fill:#aaa"/><path d="M58.38,128.16a11.26,11.26,0,0,1-6-1.4A19.94,19.94,0,0,1,45,119.51a.34.34,0,1,1,.58-.34h0a19.22,19.22,0,0,0,7.09,7c2.31,1.26,4,1.37,6.91,1.29,4.28-.13,10.75-4.21,12.37-9.09a.34.34,0,1,1,.64.22h0c-1.71,5.12-8.5,9.41-13,9.54l-1.24,0Z" style="fill:#444"/><path d="M65.82,120c-2.58,3.22-8.29,3.84-11.66,2.48a8.63,8.63,0,0,1-2.73-1.93" style="fill:#fff"/><path d="M190.42,121.59a15.39,15.39,0,0,1-26.48-.2" style="fill:#aaa"/><path d="M177.43,129.36a16.23,16.23,0,0,1-13.77-7.79.33.33,0,1,1,.56-.36,15.06,15.06,0,0,0,25.91.22.33.33,0,0,1,.45-.13.34.34,0,0,1,.13.46,16.22,16.22,0,0,1-12.77,7.6Z" style="fill:#444"/><path d="M184.94,120.61c-2.57,3.22-8.29,3.83-11.66,2.47a8.71,8.71,0,0,1-2.73-1.92" style="fill:#fff"/><path d="M22.69,99c.78-2.15-1-4.68-.56-7,.28-1.62,1-3.15,1.26-4.75.18-1,.28-2,.54-3,.5-2,1.56-3.66,3.82-3.57,5.8.26,9.23-1.47,14.87-3.12a127.78,127.78,0,0,0,16.09-5.85,45.31,45.31,0,0,0,6.63-3.31c2-.61,3.92-1.19,5.93-1.84,3.51-1.14,8.6-1.7,12.2-2.23,12.78-1.87,29-2,41.46,1.42,6.62,1.84,9.25,3.27,15.52,6.06,7.1,3.16,13.55,4.79,20.65,8l.64.32c2.34.4,3.25,1.5,5.6,1.78,8.53,1.12,17,3.84,25.54,5a39.38,39.38,0,0,1,7.74,1.65,16.47,16.47,0,0,1,4.46,2.22,11.15,11.15,0,0,1,1.81,1.62,7.89,7.89,0,0,1,1.25,2.32c.41,1,.8,2,1.19,3a44.79,44.79,0,0,1,3.09,10.59c.36,2.92-1.84,7.14-3.44,9.56a10,10,0,0,1-7.93,4.46,19.9,19.9,0,0,1-4-.1c-.89-.11-1.75-.14-2.63-.21-.51,0-1-.06-1.53-.14s-.89-.27-1.34-.37a3.7,3.7,0,0,0-1.1.1l-1.13.12c-.83.09-1.65.17-2.48.24-1.65.15-3.3.25-5,.31h-.35c-3.29.1-6.57,0-9.86-.17-2.71-.18-5.4-.48-8.09-.89a107.86,107.86,0,0,0-13-1.34c-6.14-.17-12.14,1.39-18.31,1.34-6.69,0-13.37-1.18-20.06-.8-5.32.3-10.61.38-16,.29-5.11-.08-11.07-.32-16-1.74a20.18,20.18,0,0,0-8.91-.45c-9.14,1.34-17.49,3.12-26.45.89L43.18,119c-4-2-6.2-.12-8.63-.63-3.12-.67-5.18,1-7.73-1A33.75,33.75,0,0,1,23.38,114a25.18,25.18,0,0,1-2.09-4.27c-.4-1.86.73-7.58,1-9.48" style="fill:#fb0"/><path d="M100.23,122.29a50.17,50.17,0,0,1-7.14-.57c-1.5-.22-3.1-.52-4.78-.84-6.62-1.27-14.86-2.84-25.08-.73-10.9,2.25-25-1-33.45-2.9l-2.43-.55a8.92,8.92,0,0,1,3.82-17.42l2.58.58c6.56,1.5,18.78,4.29,25.88,2.82,13.68-2.82,24.72-.71,32,.68,1.54.29,2.87.55,4,.7,5.06.73,6.51.37,9.14-.29a47.73,47.73,0,0,1,12.76-1.58,58.67,58.67,0,0,1,11.79.82c.44.08.76.14,1.08.18s1.61.06,2.77.07c1.69,0,4,0,7.1.15l1.22-.35a32.31,32.31,0,0,1,10.18-1.62,52.22,52.22,0,0,1,9.18,1.28,44,44,0,0,0,7.1,1.07l17.42.08c7.5,0,14,0,17.44.09a8.92,8.92,0,0,1-.11,17.83h-.11c-3.39,0-9.83-.06-17.29-.09l-17.46-.08a56.89,56.89,0,0,1-10.49-1.41,41.73,41.73,0,0,0-5.87-.93,14.47,14.47,0,0,0-4.88.87,19.79,19.79,0,0,1-6.68,1.09c-3-.12-5.17-.14-6.9-.15a41.93,41.93,0,0,1-4.75-.2c-.83-.1-1.51-.22-2.11-.33a42,42,0,0,0-8.61-.54,30,30,0,0,0-8.48,1.06,33.82,33.82,0,0,1-8.83,1.21Z" style="fill:#fb0"/><path d="M210.35,101.34c-.29-.88-.63-1.76-.95-2.62-.13-.34-.26-.68-.38-1-.39-1-.78-2-1.19-3a7.37,7.37,0,0,0-1.21-2.24A10.6,10.6,0,0,0,204.89,91a16.28,16.28,0,0,0-4.37-2.19,39.48,39.48,0,0,0-7.68-1.63c-4.27-.56-8.59-1.54-12.76-2.48s-8.52-1.93-12.79-2.48a10,10,0,0,1-3-.93,10.45,10.45,0,0,0-2.6-.86l-.1,0L161,80c-3.53-1.57-7-2.79-10.29-4s-6.79-2.4-10.35-4l-2.92-1.31A72.85,72.85,0,0,0,124.84,66c-11-3.05-26.45-3.58-41.32-1.41l-2,.28a66.11,66.11,0,0,0-10.15,1.94c-1.17.38-2.34.73-3.49,1.09l-2.4.74A37.64,37.64,0,0,1,60,71.47L58.85,72a127.59,127.59,0,0,1-16.14,5.87c-1.27.37-2.41.74-3.52,1.1-3.86,1.25-6.9,2.24-11.45,2-1.77-.07-2.91,1-3.49,3.31a17.9,17.9,0,0,0-.35,1.89l-.18,1.12a23.57,23.57,0,0,1-.63,2.33,20,20,0,0,0-.63,2.42,8.12,8.12,0,0,0,.35,3.13,6.69,6.69,0,0,1,.19,3.9l-.63-.22a6.14,6.14,0,0,0-.21-3.52A8.6,8.6,0,0,1,21.8,92a19.68,19.68,0,0,1,.65-2.51,19.69,19.69,0,0,0,.61-2.25c.07-.37.12-.73.18-1.1.1-.64.2-1.3.36-2,.66-2.62,2.06-3.9,4.16-3.82,4.44.2,7.43-.77,11.22-2,1.12-.36,2.27-.74,3.54-1.11a125.08,125.08,0,0,0,16-5.84l1.17-.51a38.53,38.53,0,0,0,5.43-2.77l.07,0,2.44-.76c1.15-.35,2.31-.71,3.49-1.09a65.63,65.63,0,0,1,10.26-2l2-.28c15-2.19,30.51-1.65,41.6,1.43a74.46,74.46,0,0,1,12.65,4.76c.89.4,1.85.84,2.92,1.31,3.53,1.57,7,2.79,10.29,4s6.79,2.4,10.36,4l.61.31a10.79,10.79,0,0,1,2.71.9,9.06,9.06,0,0,0,2.82.87c4.3.56,8.64,1.55,12.84,2.49s8.47,1.92,12.7,2.47a40.1,40.1,0,0,1,7.81,1.67,16.8,16.8,0,0,1,4.54,2.27,11.45,11.45,0,0,1,1.87,1.67,8.31,8.31,0,0,1,1.32,2.43c.4,1,.8,2,1.18,3l.39,1c.32.86.66,1.75,1,2.64Z" style="fill:#444"/><path d="M24.58,92.38a1.12,1.12,0,0,1-1.11-1.12.57.57,0,0,1,0-.13,16.59,16.59,0,0,1,2-6.16,7.75,7.75,0,0,1,3.35-2.53,10.74,10.74,0,0,0,1.74-1,1.12,1.12,0,0,1,1.56.22,1.13,1.13,0,0,1-.2,1.55,13,13,0,0,1-2.11,1.22,6,6,0,0,0-2.46,1.74,14.56,14.56,0,0,0-1.67,5.24A1.12,1.12,0,0,1,24.58,92.38ZM48.43,87.7a1.12,1.12,0,0,1-1.12-1.12,1.09,1.09,0,0,1,.28-.73c.82-.95,1.94-2,3.12-3.1a31.18,31.18,0,0,0,4.57-4.89l.5-.79a44.26,44.26,0,0,1,4.28-6,1.11,1.11,0,1,1,1.71,1.42h0a43.88,43.88,0,0,0-4.11,5.75l-.5.79a31.71,31.71,0,0,1-4.93,5.32c-1.13,1.07-2.21,2.08-3,2.94A1.1,1.1,0,0,1,48.43,87.7Zm141.71,6a1.11,1.11,0,0,1-1-.54,4.17,4.17,0,0,0-1.4-1.4l-.08,0-4.39-3.2a11.8,11.8,0,0,0-3.76-2.1,1.12,1.12,0,0,1,.54-2.17h0a13.77,13.77,0,0,1,4.5,2.46L189,89.84A6.26,6.26,0,0,1,191.09,92a1.11,1.11,0,0,1-.38,1.53,1,1,0,0,1-.57.16Zm-91.59-2-2.17,0a1.12,1.12,0,1,1,.05-2.23,86.58,86.58,0,0,0,12.37-.59c4.35-.48,9.24-1.25,12.48-4.24.44-.41.84-.85,1.27-1.32.29-.32.58-.63.88-.93a18.62,18.62,0,0,1,6-4.08,1.12,1.12,0,1,1,.88,2A16.42,16.42,0,0,0,125,83.87c-.28.29-.55.58-.82.88-.44.48-.9,1-1.41,1.44-3.73,3.46-9,4.3-13.73,4.82a88,88,0,0,1-10.51.63ZM88.08,70.76A1.12,1.12,0,0,1,87,69.64a1.1,1.1,0,0,1,.7-1c1.78-.72,3.54-1.51,5.26-2.37a1.12,1.12,0,0,1,1,2h0q-2.67,1.32-5.43,2.44A1.25,1.25,0,0,1,88.08,70.76Zm-5.81,44.43a1.12,1.12,0,0,1-1.12-1.12,1.18,1.18,0,0,1,.13-.52,24.5,24.5,0,0,1,1.63-2.63,12.24,12.24,0,0,1,2.44-2.64l0,0a16.77,16.77,0,0,1,2.83-1.66A63.76,63.76,0,0,1,99,102c1.32-.38,2.66-.68,4-1a39.37,39.37,0,0,0,6.31-1.76,1.12,1.12,0,1,1,.83,2.07,42.46,42.46,0,0,1-6.66,1.87c-1.26.28-2.58.57-3.83.93a62.85,62.85,0,0,0-10.42,4.46A15,15,0,0,0,86.73,110a10.79,10.79,0,0,0-2,2.17,21.29,21.29,0,0,0-1.49,2.4,1.1,1.1,0,0,1-1,.6Z" style="fill:#444;opacity:0.20000000298023224;isolation:isolate"/><path d="M188.63,103.34a.35.35,0,0,1-.26-.13A12.68,12.68,0,0,0,186,101a10.16,10.16,0,0,0-2.16-1.2,18.51,18.51,0,0,0-10.79-.57,13.2,13.2,0,0,0-6.32,3.52.33.33,0,1,1-.47-.47h0a13.79,13.79,0,0,1,6.64-3.7,19.19,19.19,0,0,1,11.19.6,11.43,11.43,0,0,1,2.3,1.27,13.48,13.48,0,0,1,2.49,2.34.33.33,0,0,1,0,.47.32.32,0,0,1-.21.08Zm-11.4,20.88a10.56,10.56,0,0,1-2.56-.32.33.33,0,0,1-.24-.41.32.32,0,0,1,.4-.24h0a9.71,9.71,0,0,0,5.37-.17,12.62,12.62,0,0,0,2.3-1,.33.33,0,0,1,.32.58h0a13.4,13.4,0,0,1-2.41,1A10.19,10.19,0,0,1,177.23,124.22Zm-119.06-.65a11.14,11.14,0,0,1-4.15-.8,6.13,6.13,0,0,1-2.41-1.56.34.34,0,1,1,.49-.46,5.3,5.3,0,0,0,2.15,1.39,10.55,10.55,0,0,0,9.8-1,.32.32,0,0,1,.46.08.34.34,0,0,1-.07.47h0A11.29,11.29,0,0,1,58.17,123.57Z" style="fill:#444"/><path d="M50.08,102a1.12,1.12,0,0,1-.67-2c2.39-1.79,5.58-1.88,7.91-2a35.71,35.71,0,0,1,6.62.23,1.12,1.12,0,1,1-.25,2.22h0a32.55,32.55,0,0,0-6.24-.21c-2.67.08-5,.24-6.67,1.51a1.17,1.17,0,0,1-.67.22Z" style="fill:#444;opacity:0.20000000298023224;isolation:isolate"/><path d="M49.05,100.8a.33.33,0,0,1-.18-.61,7,7,0,0,1,.85-.47,21.71,21.71,0,0,1,10.64-1.54,14.58,14.58,0,0,1,3.07.57.34.34,0,0,1-.2.64,13.19,13.19,0,0,0-2.92-.54A21.05,21.05,0,0,0,50,100.33a5.86,5.86,0,0,0-.78.42.31.31,0,0,1-.18,0Zm84.31-16.86a.34.34,0,0,1-.34-.34.31.31,0,0,1,.09-.22,10.52,10.52,0,0,1,10-3.09.33.33,0,0,1,.25.4h0a.33.33,0,0,1-.4.25,9.87,9.87,0,0,0-9.41,2.89.32.32,0,0,1-.24.11Zm71.89,14.83h0a15.36,15.36,0,0,1-6.25-2,.34.34,0,0,1-.12-.46.33.33,0,0,1,.45-.12,14.79,14.79,0,0,0,6,1.91.34.34,0,0,1,0,.67Zm-156.66-12a.33.33,0,0,1-.33-.33.33.33,0,0,1,.24-.32c1.37-.37,3.46-3.36,5.68-6.52,3-4.2,6.29-9,9.82-10.82a.34.34,0,0,1,.31.6c-3.39,1.77-6.68,6.46-9.58,10.6-2.49,3.55-4.46,6.35-6,6.78A.14.14,0,0,1,48.59,86.76ZM25,96.16a.33.33,0,0,1-.33-.31A20.9,20.9,0,0,1,26,86.79a5.34,5.34,0,0,1,1.07-1.88,7,7,0,0,1,2.27-1.38,30.09,30.09,0,0,0,3.13-1.65.34.34,0,1,1,.36.57h0a32,32,0,0,1-3.23,1.69,6.56,6.56,0,0,0-2.05,1.22A5,5,0,0,0,26.62,87,20.44,20.44,0,0,0,25.3,95.8a.33.33,0,0,1-.31.36ZM96.23,90a.34.34,0,0,1,0-.67,136.31,136.31,0,0,0,15.87-1.47,23.32,23.32,0,0,0,8.35-2.78,28.6,28.6,0,0,0,3.24-2.44c.67-.56,1.37-1.14,2.09-1.67a21.17,21.17,0,0,1,3.86-2.23.36.36,0,0,1,.38-.16l.85-.33a.35.35,0,0,1,.43.2.36.36,0,0,1,0,.27,1.12,1.12,0,0,1-1.24.58,20,20,0,0,0-3.86,2.21c-.71.52-1.4,1.09-2.06,1.64a28,28,0,0,1-3.32,2.5,24.1,24.1,0,0,1-8.58,2.87,135.88,135.88,0,0,1-16,1.48Zm-8.7-19.91a.34.34,0,0,1-.34-.33.32.32,0,0,1,.16-.28A24.51,24.51,0,0,1,93.4,66.7a.33.33,0,0,1,.41.22.33.33,0,0,1-.22.42A24,24,0,0,0,87.71,70a.31.31,0,0,1-.18,0Zm-25,19.17a.34.34,0,0,1-.34-.33.35.35,0,0,1,.29-.34,22.57,22.57,0,0,0,9.79-3.95c.48-.35,1-.73,1.44-1.09a13.93,13.93,0,0,1,5.48-3.07.33.33,0,0,1,.4.25.32.32,0,0,1-.24.4h0a13.37,13.37,0,0,0-5.21,2.94c-.47.37-1,.75-1.46,1.1a23.32,23.32,0,0,1-10.08,4.08Zm127.83,3.08a.3.3,0,0,1-.27-.14c-2.48-3.58-6.66-5.55-10.36-7.29a.33.33,0,0,1-.16-.44.34.34,0,0,1,.44-.17h0c3.77,1.77,8,3.78,10.62,7.51a.34.34,0,0,1-.09.47A.38.38,0,0,1,190.41,92.32Zm-23.54-6.78h-.06c-1.05-.16-2-1-2.79-2.47l-.17-.32A5.38,5.38,0,0,0,162,80.43a.34.34,0,0,1-.14-.45.33.33,0,0,1,.46-.14h0a6,6,0,0,1,2.11,2.59l.17.32a3.78,3.78,0,0,0,2.14,2.1.36.36,0,0,1,.4,0,.38.38,0,0,1,.1.42.41.41,0,0,1-.38.26Zm0-.66Z" style="fill:#444"/><path d="M187.49,102.08a1.1,1.1,0,0,1-.83-.38c-3.2-3.63-6.44-3.59-11.3-2.24a1.12,1.12,0,1,1-.6-2.15c5.46-1.51,9.63-1.55,13.57,2.92a1.12,1.12,0,0,1-.84,1.85Z" style="fill:#444;opacity:0.20000000298023224;isolation:isolate"/><path d="M136.1,112.64a.33.33,0,0,1-.33-.33.33.33,0,0,1,.18-.3,37.54,37.54,0,0,0,18.2-20,7.92,7.92,0,0,1,1.39-2.65,2.65,2.65,0,0,1,3-.8.34.34,0,0,1,.16.45.34.34,0,0,1-.45.15h0a2,2,0,0,0-2.23.63,7.46,7.46,0,0,0-1.26,2.44,38.23,38.23,0,0,1-18.53,20.36.37.37,0,0,1-.15,0Z" style="fill:#444"/><path d="M212.17,113.23c.23-.85.41-1.71.56-2.55.53-3.08-.65-5.62-1.43-8.53-.58-2.19-1.47-3-1-3.53-2.54,2.81-7.26,3.57-10.82,3.43-8.76-.38-17.36.44-26.11.64-11.62.61-31-4.28-46.37-3-3.65.31-7.34.86-11,.33-2.46-.37-4.91-1.23-7.37-.79a175.41,175.41,0,0,1-39.23,2.41c-10-.48-18.6,1.24-28.54-.05-5.79-.75-12.48-2.67-18.28-3.43-.66,2.93-1.57,6-1.29,9a21.19,21.19,0,0,0,3.25,9.37c1.49,2.1,4.1,2.22,6.46,2.3,4.19.12,8.32-.56,12.51-.69,4.43-.14,8.81,2.15,13.23,2.37,9.69.47,19.49-4.41,29-2.48,2.23.44,4.39,1.18,6.64,1.5,3.39.49,8.82,2,12.24,1.78,8.8-.55,17.63.56,24.42.73s23.28-1.19,26.85-1.19,8.33,1,14.42,1.61,16.79-.28,16.79-.28c2.94-.24,5.79.45,8.72.61,3.22.16,7.64.33,10.7-.92,1.27-.52,2.14-1.84,3-2.88A16.25,16.25,0,0,0,212.17,113.23Z" style="fill:#fb0"/><path d="M161.64,113.69h0a.33.33,0,0,1-.3-.36c.55-5.47,1.74-7.12,3.71-9.87l.4-.55a.32.32,0,0,1,.46-.07.33.33,0,0,1,.08.46l-.4.55c-2,2.75-3.06,4.26-3.58,9.54A.34.34,0,0,1,161.64,113.69Z" style="fill:#444"/><path d="M202.31,119.32a1.11,1.11,0,0,1-1.11-1,7.67,7.67,0,0,0-.57-2.11c-.12-.32-.23-.64-.34-1a13.08,13.08,0,0,1,2-11.61,1.12,1.12,0,0,1,1.8,1.32h0a10.81,10.81,0,0,0-1.62,9.62c.09.28.2.57.3.85a9.82,9.82,0,0,1,.71,2.77,1.12,1.12,0,0,1-1.05,1.17h-.07Zm-65-6a1.12,1.12,0,0,1-.48-2.13c3.21-1.49,5.77-4.13,8.32-6.93a31,31,0,0,0,3.41-4.25,31.89,31.89,0,0,0,2.12-4.21,28.09,28.09,0,0,1,3.12-5.7,5.89,5.89,0,0,1,3.3-2.44,4.08,4.08,0,0,1,1.74,0,1.12,1.12,0,0,1,.89,1.3,1.13,1.13,0,0,1-1.31.89,2,2,0,0,0-.8,0,3.79,3.79,0,0,0-2,1.61,25.85,25.85,0,0,0-2.86,5.27,35.35,35.35,0,0,1-2.29,4.51,32.72,32.72,0,0,1-3.65,4.56c-2.7,3-5.43,5.77-9,7.43a1.12,1.12,0,0,1-.47.11Z" style="fill:#444;opacity:0.20000000298023224;isolation:isolate"/><path d="M72.29,118.79a.33.33,0,0,1-.29-.5,9.93,9.93,0,0,0,.62-8.64,28.54,28.54,0,0,0-2.87-5.54.34.34,0,0,1,.56-.37,29.13,29.13,0,0,1,2.94,5.68,10.59,10.59,0,0,1-.68,9.21.33.33,0,0,1-.28.16Zm63.82-6.15a.34.34,0,0,1-.34-.33.32.32,0,0,1,.19-.3,37.8,37.8,0,0,0,13.62-11.58.33.33,0,0,1,.47-.06.33.33,0,0,1,.07.45,38.5,38.5,0,0,1-13.86,11.79.4.4,0,0,1-.15,0Zm-24.06,8.55a.33.33,0,0,1-.33-.34.33.33,0,0,1,.27-.33c3.94-.71,5.26-2.31,7.08-4.52a30.8,30.8,0,0,1,3.53-3.78.34.34,0,1,1,.47.48l0,0a28.83,28.83,0,0,0-3.46,3.7c-1.84,2.24-3.29,4-7.48,4.76ZM40.14,114.5a.34.34,0,0,1-.34-.33.19.19,0,0,1,0-.08c.57-2.42,1.22-5.16.68-7.75a18.58,18.58,0,0,0-.92-2.82l-1.7-4.37a.32.32,0,0,1,.2-.43.33.33,0,0,1,.42.18l1.7,4.37a19.91,19.91,0,0,1,1,2.92c.57,2.74-.09,5.56-.68,8a.33.33,0,0,1-.32.26Zm43.41-1.61a.34.34,0,0,1-.33-.34.33.33,0,0,1,.06-.19,22.94,22.94,0,0,1,11.65-8.74,46.34,46.34,0,0,1,4.61-1.15,39.29,39.29,0,0,0,5.12-1.33l.89-.34a10,10,0,0,1,4.09-.94.32.32,0,0,1,.31.35.31.31,0,0,1-.33.31h0a9.63,9.63,0,0,0-3.81.91l-.91.34a38.94,38.94,0,0,1-5.2,1.35,44.32,44.32,0,0,0-4.54,1.14,22.22,22.22,0,0,0-11.31,8.48.36.36,0,0,1-.28.15ZM202.24,122a.34.34,0,0,1-.33-.34.31.31,0,0,1,0-.13,3.63,3.63,0,0,0,.31-1.72,6.57,6.57,0,0,0-1.19-2.81,12.46,12.46,0,0,1-.94-1.72,8.79,8.79,0,0,1-.6-3.21,13.8,13.8,0,0,1,3.36-9.26.34.34,0,0,1,.53.42l0,0a13.07,13.07,0,0,0-3.2,8.82,8.09,8.09,0,0,0,.55,3,12.76,12.76,0,0,0,.89,1.62,7.22,7.22,0,0,1,1.28,3.11,4.21,4.21,0,0,1-.36,2,.35.35,0,0,1-.31.2Z" style="fill:#444"/><path d="M39.82,114.21l-.21,0a1.11,1.11,0,0,1-.88-1.31h0a18.89,18.89,0,0,0,.1-6.58,29.32,29.32,0,0,0-.75-3l-.88-3a1.12,1.12,0,0,1,2.14-.65v0l.87,3A30.15,30.15,0,0,1,41,105.9a21,21,0,0,1-.11,7.41A1.11,1.11,0,0,1,39.82,114.21Z" style="fill:#444;opacity:0.20000000298023224;isolation:isolate"/></svg>