<svg xmlns="http://www.w3.org/2000/svg" viewBox="0 0 145.37 125.66"><path d="M100.61 86.82a69.1 69.1 0 0 0-4.16-9.19c-1.63-2.88-2.75-6-4.34-8.91-.86-1.58-1.77-3.09-2.74-4.6q-.66-1-1.29-2c-.23-.38-.43-.77-.66-1.16s-.76-1.69-.48-.59a3.22 3.22 0 0 0-3.64-2.55 4 4 0 0 0-.59.17l-.38-.49c.37-.21.74-.43 1.08-.65C84.59 56 87 55 87.42 53.5a2.27 2.27 0 0 0-.58-2.14V45.7c0-2.58.09-5.16.14-7.74a26.68 26.68 0 0 1 4.07-12.8c1.17-2 2.88-1.94 4.85-2.7a3.86 3.86 0 0 0 2.1-4.73c-.71-1.66-3.5-2.59-5.07-3.12-2.1-.72-4.14-1.66-6.3-2.23a54.87 54.87 0 0 0-8.18-1.2c-2.3-.25-4.59-.56-6.69.45a1.76 1.76 0 0 0-1 1.2 1.81 1.81 0 0 0-.51 1.57 35.33 35.33 0 0 1 .27 9.41c-.41 2.88-.76 5.76-1 8.65-.69-1.7-1.53-3.34-2.25-4.86a32.69 32.69 0 0 0-3-4.94c-.91-1.27-1.79-2.8-2.86-4 .32-.06.64-.11 1-.14 2.42-.25 1.75-4-.65-3.72a18.63 18.63 0 0 0-6.16 1.77A40.64 40.64 0 0 0 50.14 20a34.62 34.62 0 0 0-5.23 4.18c-1.36 1.4-3.81 3.37-3.77 5.49a2 2 0 0 0 2 2 39.56 39.56 0 0 1 2.41 3.46c.74 1 1.58 2 2.36 3.09a37.81 37.81 0 0 1 2.15 3.77c.72 1.21 1.48 2.34 2.24 3.53 1.75 2.74 3.16 5.69 5 8.4.94 1.41 1.78 2.87 2.77 4.25a30.13 30.13 0 0 0 2 3.06 1.11 1.11 0 0 0-.57.56A50.51 50.51 0 0 0 57.39 73c-.35 1.75-.34 3.53-.59 5.27-.17 1.13-.75 2.71-.47 3.86a1.16 1.16 0 0 0 1.84.62v2.78a12.85 12.85 0 0 0 .12 2.64c-.08.61-.14 1.22-.25 1.83a3.13 3.13 0 0 0 2.18 3.29 23.13 23.13 0 0 0-.25 3.1 3.93 3.93 0 0 0 .38 1.71 2.84 2.84 0 0 0-.14.67v.84a3.07 3.07 0 0 0 .7 1.49l.59.54a3.16 3.16 0 0 0 1.51.56h.08a2.57 2.57 0 0 0 .68 0v.72a3.22 3.22 0 0 0 2.83 3.42 3.17 3.17 0 0 0 3.43-2.83c0-.67.06-1.33.13-2h.21a1.92 1.92 0 0 0 1.63-.81 8.71 8.71 0 0 0 .74.75c.36.31.74.61 1.13.89a2 2 0 0 0-.42.49 2.21 2.21 0 0 0-.53.78 2.3 2.3 0 0 0-.37 1.15 2.38 2.38 0 0 0 .16 1.24 2.27 2.27 0 0 0 .32.75 3 3 0 0 0 2.59 2 3.64 3.64 0 0 0 2.56-1 2.27 2.27 0 0 0 .7-.45l.07-.06a2.92 2.92 0 0 0 1.4-2.27 3.27 3.27 0 0 0-.34-1.69 3 3 0 0 0 1.3-.65c.14-.13.26-.27.4-.42a2.43 2.43 0 0 0 .31-.35c.06-.12.13-.24.19-.37a1 1 0 0 0 .2-.4 3.08 3.08 0 0 0 .49-1.41 2.92 2.92 0 0 0-.11-1 3.4 3.4 0 0 0 2.73-1.48 2.38 2.38 0 0 0 1.8.19c.2-.05.44-.17.67-.25h.27a7.22 7.22 0 0 0 2.3-.88c.45-.29.89-.61 1.31-.94a6.39 6.39 0 0 0 .54-.5c.09-.09.58-.51.11-.21a4.23 4.23 0 0 0 1.18-1.09 4.74 4.74 0 0 0 1.68 3 3.2 3.2 0 0 0 3.84-.17c2.55-2.08 2.4-6.95 1.39-9.53zM62.7 55.35a1.63 1.63 0 0 1-.11-.17v-.08h.17zm5.68-10.59c0 .64 0 1.28-.08 1.91 0-.1-.07-.2-.1-.3zm.82 12.48c-.44-.12-1-.36-1.59-.55a.92.92 0 0 0-1-1h-.17v-.12a1.6 1.6 0 0 0 .16-.66c.23-1 .46-1.94.66-2.91l.27-.13a11.73 11.73 0 0 0-.4 1.87 1.68 1.68 0 0 0 .53 1.51 1.93 1.93 0 0 0 3.55.1 4.34 4.34 0 0 1 0 .51 2.15 2.15 0 0 0 1.4 2 26.64 26.64 0 0 1-3.41-.62zm6.26.83c-.69 0-1.42 0-2.15-.11a1.77 1.77 0 0 0 .67-.2 10.06 10.06 0 0 0 2.4-2.51 1.92 1.92 0 0 0 1.35-.69v.78a4 4 0 0 1 0 .49A9.09 9.09 0 0 0 76.19 57a2 2 0 0 0-.57 1.1zm4.36 34.17c-.35 0-.75-.49-1-.81a10.41 10.41 0 0 1-.62-.86 1.65 1.65 0 0 0-1.05-1.94 20.07 20.07 0 0 1-.81-2.2c-.06-.18-.12-.37-.19-.56.36.4.71.8 1 1.23a1.57 1.57 0 0 0 1.32.71c.09.17.18.33.25.48.6 1.28.87 2.62 1.38 3.88a.82.82 0 0 1-.28.07z" fill="#fff"/><path d="M107.45 83.73a8.48 8.48 0 0 1-.36-4.08 8.65 8.65 0 0 0-.58-4.77 11.55 11.55 0 0 0-2.94-4c-1.32-1.11-2.93-1.45-4.33-2.3L99 68.2c-1.48-1.92-4.36.52-2.87 2.44a1.8 1.8 0 0 0 .65.77c.32.36.64.72.9 1.07a15.72 15.72 0 0 1 1.06 1.93c.38.7 1.28 1.4 1.5 2.13a11 11 0 0 1 0 1.14 7.34 7.34 0 0 0 .34 1.4 19.58 19.58 0 0 0 1.67 4.39 5.7 5.7 0 0 0 1.15 1.42 2.21 2.21 0 0 0 .38.61 1.82 1.82 0 0 0 1 .59c1.32.91 3.56-.52 2.67-2.36z" fill="#fff"/><path d="M98.86 105.27c-.11-.12-.2-.26-.31-.38a6.45 6.45 0 0 0-2.37-2 7 7 0 0 0-5.23-.27 9.44 9.44 0 0 0-2 .87l-.28.19a13.12 13.12 0 0 0-1.46 1.08 7.06 7.06 0 0 0-1.79 2.81 7.74 7.74 0 0 0-.29 1.72v.26-.08a4.76 4.76 0 0 0 .68 2.92 5.46 5.46 0 0 0 3.61 2.31 7.55 7.55 0 0 0 3-.16 19.76 19.76 0 0 0 4.59-2.13 3.32 3.32 0 0 0 1.15-1.08 4.4 4.4 0 0 0 1.12-1.91 4.64 4.64 0 0 0-.42-4.15zm14.03-30.83a14.37 14.37 0 0 0 1.73-2.89 41.93 41.93 0 0 0 3.68-16.23c.29-7.28-.91-14.74-4.41-21.13-3.24-5.92-10.1-12.93-17.31-13.37-4.77-.29-7.91 6.47-9.16 10.19a51.59 51.59 0 0 0-2.07 10.75c-.59 5.31-1 10.72 0 16 1 5 3.27 9.65 5.24 14.36A96.86 96.86 0 0 1 95.88 88c.45 1.93.75 4.17-.51 5.69a7.66 7.66 0 0 0-.87 1 2.19 2.19 0 0 0-.28 1.18 3.2 3.2 0 0 0 2.62 3c3.55.55 5.44-4.92 5.44-7.61a24.1 24.1 0 0 0-1-5.82L97.16 69c-.12-.47-.2-1.06.18-1.36s1.06 0 1.49.38l4.43 3.63a13.57 13.57 0 0 1 3.23 3.35 4.46 4.46 0 0 0 1.09 1.5 2.59 2.59 0 0 0 2.23.2 6.31 6.31 0 0 0 3.08-2.26zM69.38 31.17v-.08a.13.13 0 0 0 0-.06.12.12 0 0 0 0-.09.43.43 0 0 0 0-.05.14.14 0 0 0 0-.14v-.09a.59.59 0 0 0-.06-.14.83.83 0 0 0-.09-.16.25.25 0 0 0 0-.07 1.51 1.51 0 0 0-.18-.26l-.25-.33-.1-.15a.15.15 0 0 0-.07-.05 9.22 9.22 0 0 0-.39-.91c-.59-1.16-.9-2.41-1.48-3.59-.93-1.87-2.11-3.87-2.42-6a2.82 2.82 0 0 0-5.37-1.71c-.94 3.33 1 6.74 2.46 9.67 1.72 3.59 3.61 7.07 5.32 10.63a21.39 21.39 0 0 1 1.23 2.72.72.72 0 0 0 .12.25.46.46 0 0 0 .75-.14 13.47 13.47 0 0 0 .33-4.44 15.42 15.42 0 0 1 .11-1.66v-.08a2.7 2.7 0 0 0 .09-3.07zm.95 68.58a2.2 2.2 0 0 0-1.48.75 7 7 0 0 0-1.42 4.82 1.56 1.56 0 0 0 3.1-.28 1.21 1.21 0 0 1 .1-.19c.07-.12.12-.26.18-.39a7.33 7.33 0 0 0 .39-.91 7 7 0 0 0 .54-2.34 1.31 1.31 0 0 0-1.41-1.46zM63.5 91c-1 1.82-1.28 4.25-1.78 6.26a17.24 17.24 0 0 0-.67 2.53 7 7 0 0 0-1.41-4v-.29a.58.58 0 0 0 0-.19.43.43 0 0 0 .12-.32 1.75 1.75 0 0 0 0-.39v-.34a.82.82 0 0 0 0-.41.63.63 0 0 0-.73-.51.75.75 0 0 0-.24.08h-.2c-.12-.44-.23-.89-.35-1.33a.74.74 0 0 1 0-.14 6 6 0 0 0 .57-2.3 7.83 7.83 0 0 0-1-4.12 3.15 3.15 0 0 0-.52-2.75.55.55 0 0 1-.36-.32.57.57 0 0 1 0-.14v-.09a11.38 11.38 0 0 0-.13-1.66c0-.53-.11-1.05-.17-1.57-.09-.69-.2-1.42-.28-2.17a11.1 11.1 0 0 1 .5-2.49c.6-1.75 1.53-3.19 1.83-5.07a17.94 17.94 0 0 1 .32-2.19c.23-.76.6-1.19.9-2.06a3.39 3.39 0 0 0 .18-1.69 5.05 5.05 0 0 0 .24-.53.63.63 0 0 0 .42-.24 1.92 1.92 0 0 0 .24-.4.65.65 0 0 0 .6-.26.66.66 0 0 0-.15-.88 1.55 1.55 0 0 0-.57-.3c-.22-.47-.56-.94-.77-1.45a19.41 19.41 0 0 0-3-5 4.15 4.15 0 0 0-.63-1.19 3.2 3.2 0 0 0-.55-.61c.2.68.2.7 0 .09a21.43 21.43 0 0 0-1.62-2.78c-.4-.7-.81-1.41-1.23-2.11a.59.59 0 0 0-.05-.36 55.18 55.18 0 0 0-3-5 8.57 8.57 0 0 0-2.56-3.89c-6.8-6.45-14.09 2.82-16.66 8.82-4.71 10.76-3.57 23.17 1.47 33.65a51.64 51.64 0 0 0 11.22 15.57c2.86 2.63 6.43 5.19 10.24 6.19a10.6 10.6 0 0 0 5.75-.34c.7-.18.93-.86 1.64-1s1.6.55 2.4.13.55-1.14.81-1.81c.08-.2.17-.46.2-.57.19-.71.36-1.43.54-2.14.32-1.27.38-3 1-4.13 1-1.79-1.57-3.57-2.56-1.79zm28.41-.72a1.93 1.93 0 0 0-2-.7c-1 .13-1.36-.21-2.18-.81a8.32 8.32 0 0 1-1.87-1.51A22.25 22.25 0 0 1 84 84.44c-.94-1.78-3.79-.45-2.84 1.35a13.42 13.42 0 0 0 4.1 5 16.66 16.66 0 0 0 2.56 1.69 4.47 4.47 0 0 0 1.62.34 2.48 2.48 0 0 0 .61-.13 1.62 1.62 0 0 0 1.86-2.41zm-9.77 4.78a23.72 23.72 0 0 1-1.48-2.67c-.62-1.09-1-2.28-1.69-3.33a23.08 23.08 0 0 0-2.09-2.64 6.34 6.34 0 0 1-1.57-2.78c-.18-2-3.28-1.45-3.1.55a8.38 8.38 0 0 0 1.32 3c.67 1.15 1.72 2 2.5 3.13 1.5 2.08 2.15 4.74 3.71 6.77 1.26 1.61 3.63-.43 2.4-2.03zm-2.45 4.73c-3.45-1.37-5.6-5-7.5-8-1.07-1.68-3.93-.35-2.84 1.35 2.38 3.74 4.94 7.87 9.25 9.58 1.88.76 2.97-2.19 1.09-2.93z" fill="#f5f5f5"/><path d="M91.2 57.75c-.06-.61-.2-1.18-.27-1.81 0-.35.08-.5-.17-.8s-.75-.28-1.23-.26c-2.5.12-5 .27-7.48.27a.51.51 0 0 0-.37.84c0 .88-.54 1.8-.35 2.64a.46.46 0 0 0 .3.36 12.42 12.42 0 0 0 4.21-.07c1.68-.14 3.32-.5 5-.63a.47.47 0 0 0 .36-.54zm-17.71-.25a3.33 3.33 0 0 0-.1-.47c.1-.81.15-1.68-.61-2a14.14 14.14 0 0 0-1.55-.32c-.46-.14-.89-.32-1.34-.49a11.46 11.46 0 0 1-2.52-1 .47.47 0 0 0-.59.73 1.8 1.8 0 0 0-.55 2.29c.8.48 1.64.82 2.48 1.23a8.56 8.56 0 0 0 1 .36c.17.07.34.13.51.22h.33a3.62 3.62 0 0 0 1.55.28h.11c.73.29 1.41.03 1.28-.83z" fill="#fb0"/><path d="M73.83 57.48a.28.28 0 0 0-.06-.09 11.4 11.4 0 0 1-.1-1.27c0-.55.09-.95-.47-1.2a12.47 12.47 0 0 0-2.54-.41 7.56 7.56 0 0 1-3-.93c-.49-.37-1 .4-.54.77a8.67 8.67 0 0 0 3.75 1.16l1.19.18c.52.08.54 0 .61.51a5.48 5.48 0 0 1 0 .81c0 .14.06.38.1.59a2.88 2.88 0 0 0-.88-.14l-.31-.08a.51.51 0 0 0-.43-.1 2.93 2.93 0 0 1-.75-.28c-.54-.27-.86.61-.33.89a4.49 4.49 0 0 0 1 .27c.33.08.64.22 1 .3a3.14 3.14 0 0 0 1.76.13.46.46 0 0 0 .26-.38 1.64 1.64 0 0 0-.26-.73zm17.17.11a.52.52 0 0 0-.31-.19 8.38 8.38 0 0 0-2.2.33c-.7.1-1.41.15-2.12.21-1.51.13-3 .41-4.56.52a10.3 10.3 0 0 0 .67-2.46c2.67 0 5.41.32 8-.2a.47.47 0 0 0-.16-.92c-2.76.53-5.64.17-8.43.17a.51.51 0 0 0-.38.83.44.44 0 0 1 0 .59.53.53 0 0 1-.19.13 5.85 5.85 0 0 1-.69 1.86.49.49 0 0 0-.12.87.4.4 0 0 0 .28.12h.63c1.63.06 3.31-.17 4.92-.26a14.88 14.88 0 0 0 5-.71.47.47 0 0 0-.34-.89z" fill="#fb0"/><path d="M83.65 58.1c-.41 0-.81.07-1.22.09h-.28c.09-.37.32-.66.39-1a8.75 8.75 0 0 0 .06-1.45c0-.61-.93-.7-.93-.09a5.5 5.5 0 0 1-.09 1.46c-.06.19-.19.35-.27.54a1.67 1.67 0 0 0-.11.48.47.47 0 0 0-.12.09h.06a.36.36 0 0 0-.17.07l-.15.15a.48.48 0 0 0 .11.66 2.17 2.17 0 0 0 1.16.1c.49 0 1-.11 1.48-.13s.69-.98.08-.97z" fill="#fb0"/><path d="M107.73 83.17a11.47 11.47 0 0 1 .18-3.65 7.11 7.11 0 0 0 0-2.72c-.43-1.62-1.86-2.89-2.9-4.12a17.35 17.35 0 0 0-3.82-3.48c-.89-.58-1.75-1.22-2.66-1.77a3.91 3.91 0 0 0-1.92-.9c-1-2-2.08-3.91-3.15-5.82a13 13 0 0 1-1.82-4.83c-.19-1.77.3-3.52.3-5.28s-.14-3.24 0-4.89a34.09 34.09 0 0 1 .62-5.23c.45-1.89 1-3.65 1.27-5.58a41.09 41.09 0 0 1 1.65-6c.52-1.76 1-3.46 1.64-5.2a50.6 50.6 0 0 1 1.79-5.29c.26-.55-.62-.87-.88-.33a26.88 26.88 0 0 0-1.29 3.69c-.45 1.43-1.09 2.8-1.49 4.24a71.41 71.41 0 0 0-2.36 8.83c-.43 3-1.4 5.73-1.68 8.73a27.72 27.72 0 0 0-.36 4.17 22.1 22.1 0 0 1 0 4.81A11.84 11.84 0 0 0 92 60.16c.67 1.27 1.4 2.5 2.1 3.75s1.16 2.55 1.84 3.77a30.68 30.68 0 0 1 3 8.85 72.84 72.84 0 0 0 1.67 8.29c1.12 3.44 2.06 7.29.47 10.74a5.92 5.92 0 0 1-2.36 2.52c-.75.5-.87.81-1.87.74s-1.26-.46-1.79-1.26a5.79 5.79 0 0 1-.73-2.56.43.43 0 0 0-.49-.38.46.46 0 0 0 .32-.37c.49-2.71-1.29-4.69-3.62-5.75a3.37 3.37 0 0 0-1.29-.33c-1.06 0-.18 1-2.19-.11A3.25 3.25 0 0 1 86 87c-.83-1.32-1.5-2.75-2.36-4.06-1.1-1.67-3.24-3.64-5.39-3.21a3.83 3.83 0 0 0-2.58 1.56 2.2 2.2 0 0 0-.26 1.05 22.16 22.16 0 0 0-2.25-2.41 3.57 3.57 0 0 0-4.06-.83c-.14.08-.29.14-.43.21a3.61 3.61 0 0 0-1.07.68c-.88 1.25-.34 3.3.28 4.57l.4.87h-.17a3.18 3.18 0 0 0-2.83 1.46c-.78 1.37.06 2.77.54 4.11.23.63.45 1.25.69 1.87a.42.42 0 0 0-.69.2c-.28 1.21-.94 2.26-1.15 3.5-.25 1.46-.84 2.83-1.07 4.29q-.08.42-.15.9a1.9 1.9 0 0 1-1.84-.29c-1.05-.86-1.16-2.43-1.17-3.66a24.31 24.31 0 0 1 .38-4.82c.16-.83.12-1.65.2-2.48s.37-1.81.47-2.73a16.19 16.19 0 0 0 0-2.31v-1.16a7.06 7.06 0 0 1 .06-1 .8.8 0 0 0-.18-.73c-.28-.24-.67 0-.73.35a18.45 18.45 0 0 0 0 3.24 15.59 15.59 0 0 1-.33 3.12c-.19 1-.15 2.12-.28 3.17a.47.47 0 0 0-.12.09c-1.33 1.35-1.34-3.44-1.34-3.75 0-1.36-.09-2.75 0-4.11.06-1.16.2-2.38.37-3.53a11.58 11.58 0 0 0 0-2v-.51a2.43 2.43 0 0 0 0-.27 1 1 0 0 0-.29-.63c-.26-.19-.55.12-.6.37a13 13 0 0 0 0 2.16c0 .38 0 .76-.08 1.14l-.06.57a1.57 1.57 0 0 1-.13.65.53.53 0 0 1-.11.14.39.39 0 0 1-.26.09.33.33 0 0 1-.32-.09 1 1 0 0 1-.24-.48 4.47 4.47 0 0 1 0-1.46v-.15c0-.7.07-1.4.14-2.1.13-1.25.25-2.49.37-3.72a29.55 29.55 0 0 1 .99-3.87 32.7 32.7 0 0 1 1-3.34c.37-1 .66-2.11 1.1-3.14a13.37 13.37 0 0 1 2.41-3.32c1.31-1.51 2.1-3.37 3.25-5s1.52-4 1.86-5.83c.44-2.41.65-4.86 1.09-7.27a51.44 51.44 0 0 0 1-7.4 25.54 25.54 0 0 1 .2-3.81c.23-1.3 0-2.59.19-3.89a54.9 54.9 0 0 0 .47-7.7v-4c0-.9-.62-2.85-.12-3.58.33-.5-.44-1.05-.78-.54a2.71 2.71 0 0 0-.24 2 23.81 23.81 0 0 1 .22 3.7 82.57 82.57 0 0 1-.36 8.48c-.09.89-.13 1.74-.14 2.61-.3-.5-.65-1-.89-1.47a42.77 42.77 0 0 1-1.87-4.21c-.56-1.53-1.16-3.08-1.58-4.66a34.26 34.26 0 0 1-1.22-4.34c-.06-.6-1-.44-.92.16a31.53 31.53 0 0 0 1.15 4.09c.36 1.42.89 2.77 1.38 4.15s1.14 2.74 1.71 4.12c.25.61.54 1.2.84 1.79a2.91 2.91 0 0 0 .25.42 2.78 2.78 0 0 0 .26.34v.05l.19.26.21.24a2.36 2.36 0 0 1 .4.75 1 1 0 0 1 0 .42v.49l-.12 1a12.45 12.45 0 0 0-.15 1.93 41.63 41.63 0 0 1-.94 8.24c-.55 2.82-.73 5.74-1.38 8.52A20.82 20.82 0 0 1 65.69 55c-.52 1.14-1.4 2.32-2 3.42a15.62 15.62 0 0 1-1.69 2.2h-.14c-1.5-2.43-3-4.85-4.52-7.3-1.64-2.68-3.07-5.43-4.8-8.06-.84-1.28-1.41-2.66-2.22-4s-1.68-2.61-2.62-3.92a42.13 42.13 0 0 0-2.55-3.67 24.93 24.93 0 0 1-3.26-4.12c-.31-.52-1.17-.12-.86.4 1.56 2.63 3.83 4.65 5.45 7.23.84 1.34 1.77 2.58 2.59 3.93s1.37 2.61 2.17 3.84c1.83 2.78 3.36 5.66 5.11 8.49s3.31 5.34 5 8a10.75 10.75 0 0 0-1.73 2.69 75 75 0 0 0-2.33 7.42 34.18 34.18 0 0 0-1.39 9.18c0 .83-.18 2 .45 2.64a1 1 0 0 0 1.43.11c-.07 1.82-.15 3.63-.16 5.47 0 1.17-.13 3 .55 4a1.38 1.38 0 0 0 1.62.68 12.56 12.56 0 0 0-.26 2.48c0 1.77-.18 3.69.88 5.25a3.7 3.7 0 0 0 1.53 1.35 1.88 1.88 0 0 0 1.44 0c-.14 1.42 0 2.9 1.22 3.62a7.4 7.4 0 0 0 2.84.59c.95.13 1.68.31 2.49-.36a5.66 5.66 0 0 0 1.36-2.41 12 12 0 0 0 .92-2.91c.35.32.7.64 1.06 1-2.87.72-1.06 7.41 1.87 7.5a3 3 0 0 0 1-.26c.65-.23 1.3-.33 2-.53a3.36 3.36 0 0 0 2-1.41c.53-.9 1.37-2.87 1-4.07 0 0 .76-.61.82-.67a3.7 3.7 0 0 0 1-1.7c.1-.33.17-.68.24-1 0-.15 0-.86.2-.92a11.74 11.74 0 0 1 1.76-.6c.59-.13.43-1.06-.17-.93-2 .47-3.88 2.15-6 1.23A13.21 13.21 0 0 1 75.53 96a13.09 13.09 0 0 1-2.27-3c-1.1-2-2.26-3.93-3.26-6-.11-.22-.29-.55-.48-.93l1.35-.77a4.42 4.42 0 0 0 .67-.46 3 3 0 0 0 .91-1.47c.28-1.24-.45-2.36-.93-3.46 2.51.91 4.69 4.85 5.52 6.83l2.71 4.92a17.69 17.69 0 0 0 3.9 5 5.09 5.09 0 0 0 4.83 1.06 15.91 15.91 0 0 0 3-1.61c.39-.23.79-.44 1.17-.68a9.4 9.4 0 0 1 1.07-.75h.09a.45.45 0 0 0-.36.52 5.33 5.33 0 0 0 1 3c.54.73 1.21 1.78 2.16 2s1.47-.36 2.11-.84c1.06-.8 2.17-1.32 2.88-2.49a11.52 11.52 0 0 0 1-8.63c-.36-1.43-.71-2.87-1.19-4.26a16.55 16.55 0 0 1-.61-2.4c0 .12.07.24.11.35a9.9 9.9 0 0 0 2.72 4.33 4 4 0 0 0 3.92.57c1.22-.74.35-2.54.18-3.66zM66.49 90c-.22-.65-.75-1.8-.54-2.43a1.7 1.7 0 0 1 1.24-1.12c.23.78.65 1.48.9 2.25.37 1.11 0 2.22-1.18 2.41-.15-.36-.29-.72-.42-1.11zm4.71 11.17a11 11 0 0 1-1.53 4.19c-.67 1-2 .72-3 .59-1.4-.18-2.38-.75-2.38-2.32l.13-1.71a21.51 21.51 0 0 1 .78-3.29c.26-.83.32-1.68.53-2.53s.76-1.79 1-2.76a18 18 0 0 0 3.65 6.18c.42.43.84.84 1.27 1.25a.48.48 0 0 0-.45.41zm3.54 6.92a.44.44 0 0 0-.26.14 3 3 0 0 1-1.32-1.66 4.49 4.49 0 0 0 1.5-.34 5.17 5.17 0 0 0 .85-.42 4.19 4.19 0 0 0 .45-.39 2.78 2.78 0 0 1-.15 1.3c-.17.59-.42 1.28-1.07 1.38zm4.77-1.76c-.61 1.51-1.71 1.59-3.13 2a3.43 3.43 0 0 1-.44.09 3.36 3.36 0 0 0 .79-1.52c.23-.83.41-2-.41-2.54a.47.47 0 0 0-.47 0c-.42.24-.71.6-1.14.83a3.9 3.9 0 0 1-1.59.47.41.41 0 0 0-.19 0c-.21-1.31.06-2.58.62-2.6a.54.54 0 0 0 .42-.24l.48.4a6.68 6.68 0 0 0 3.18 1.22 4.81 4.81 0 0 0 2.53-.53 6.69 6.69 0 0 1-.65 2.43zm-9.76-17.6c.73 1.53 1.73 2.92 2.52 4.42a14.9 14.9 0 0 0 2.54 3.42A16.14 16.14 0 0 0 78 99.48a4.11 4.11 0 0 0 2.16.59 4.63 4.63 0 0 0 1-.14l.49-.14c.18-.07.61-.34.57.09a2.64 2.64 0 0 1-.14.69.61.61 0 0 0 0 .12 5.75 5.75 0 0 1-1.42 1.74A3.87 3.87 0 0 1 76 103a21.71 21.71 0 0 1-5.07-4.25 15.54 15.54 0 0 1-3-5.2L67.27 92a2.43 2.43 0 0 0 1.87-1.76c.32-1.43-.56-2.54-1-3.82a.25.25 0 0 1 0-.07.19.19 0 0 1 .13-.14.42.42 0 0 0 .14-.06.15.15 0 0 1 .17 0 .16.16 0 0 1 0 .11c.42.81.78 1.65 1.17 2.48zm-.52-3.64a.42.42 0 0 0-.15.11c-.79-1.7-1.6-3.94-.6-4.87a2.53 2.53 0 0 1 .8-.41 2.59 2.59 0 0 1 .42-.14 3.39 3.39 0 0 1 .72-.12.15.15 0 0 1 .13.07.16.16 0 0 1 0 .07.19.19 0 0 0 0 .07c.06.18.11.36.16.55s.13.32.18.48l.09.19a3.86 3.86 0 0 1 .42 1.28c.22 1.43-.99 2.36-2.17 2.73zm9.22-4.35a2.48 2.48 0 0 0 .17.37l.2.38.07.13c.12.2.24.4.34.6a4.13 4.13 0 0 1 .56 1.58c0 .6-1.12 1.91-1.78 1.91a.55.55 0 0 0-.36.16 18.55 18.55 0 0 0-1-1.82.64.64 0 0 1-.08-.19 2.57 2.57 0 0 1-.19-1.25 2 2 0 0 1 .26-.94 1.44 1.44 0 0 1 .48-.47 2.87 2.87 0 0 1 .66-.36 2.52 2.52 0 0 1 .39-.12l.22-.05m14.87 13.2a11.15 11.15 0 0 0-1.63 1.07c-.78.45-1.54.92-2.33 1.37-2.25 1.28-4.19.61-5.93-1.13a19.46 19.46 0 0 1-3.29-4.78c-.6-1.14-1.66-2.4-2-3.72a2.51 2.51 0 0 0 1.25-.68c.44-.37 1.12-.7 1.33-1.26.45-1.24-.56-3.07-1.34-4.1a4 4 0 0 1 1.75.91C82.83 83 83.82 85 85 87c.72 1.24 1.71 2.45 3.27 2.45.82 0 .48-.5 1.79-.1a8.06 8.06 0 0 1 1.47.73 4.16 4.16 0 0 1 1.74 3.75zm11.66-7.92a3.92 3.92 0 0 1-1.21-.83 9.7 9.7 0 0 1-2.21-4.41 23.94 23.94 0 0 1-.88-5.44c0-.6-.93-.7-.94-.09v.44a37.34 37.34 0 0 0-2-6.59c-.19-.46-.39-.91-.6-1.37a11.47 11.47 0 0 1 1.54 1c.54.37 1.05.78 1.61 1.13a16 16 0 0 1 3.36 2.65c.82.9 1.6 1.9 2.33 2.88 1.24 1.63 1.15 3 .81 4.91 0 .17 0 .34-.06.51h-.08a2.5 2.5 0 0 0-2 2.4 6.25 6.25 0 0 0 .34 2.77zm1.56.15a2 2 0 0 1-.43.08 5.47 5.47 0 0 1-.54-2.62 2.09 2.09 0 0 1 1.13-1.82 15.89 15.89 0 0 0 .29 2.4c.16.75.47 1.62-.44 1.92z" fill="#444"/><path d="M77.62 51.89a4.24 4.24 0 1 0 4.25 4.24 4.24 4.24 0 0 0-4.25-4.24zm-3.34 4.66a.39.39 0 0 1-.42-.36.17.17 0 0 1 0-.07c-.06-.09 0-.24.1-.24a.34.34 0 0 1 .27-.16.37.37 0 0 1 .42.36c.01.2-.15.47-.37.47zM78 59.37a.47.47 0 0 1-.38.47.38.38 0 0 1-.41-.37.46.46 0 0 1 .37-.47.37.37 0 0 1 .42.36zm0-6.6a.46.46 0 0 1-.37.47.39.39 0 0 1-.42-.37.46.46 0 0 1 .38-.47.37.37 0 0 1 .41.36zm3.13 3.89c-.53 0-.54-.83 0-.83a.38.38 0 0 1 .19.05.13.13 0 0 1 .13.12.41.41 0 0 1-.28.66z" fill="#999"/></svg>