<svg xmlns="http://www.w3.org/2000/svg" viewBox="0 0 145.37 125.66"><path d="M118.05 86.9c1-14.26 16.06-23.85 15.61-39.25a4.94 4.94 0 0 1 1-3.15c-.07-1.22-.17-2.41-.32-3.56a46.46 46.46 0 0 0-2.92-11.48c-13-32.84-54.58-10.18-75.67 1.78-4.8 3.64-9.49 7.43-14.19 11.19-7.22 5.79-16.69 11.88-21.91 20-.36.66-.7 1.31-1 2a5.31 5.31 0 0 1-.86 2.35A12.78 12.78 0 0 0 17 68a39.55 39.55 0 0 0-1.9 6.23 23.23 23.23 0 0 0 2.9 7.36c2.11 3.58 5.13 5.89 4.55 10.55-.25 2-.79 4-.41 6a9.33 9.33 0 0 0 3.78 5.44 28.85 28.85 0 0 0 14.33 5.46c6.94.87 14.26.13 21 .08q11.18-.08 22.34-.31c7.91-.18 16.29.1 23.86-2.53 3.59-1.25 7.13-3.06 9.4-6.22 3.52-4.91.85-7.85 1.2-13.16z" fill="#f5f5f5"/><path d="M144.06 28.77a7.21 7.21 0 0 1-5.25 7.49v.13a8.44 8.44 0 0 1-.09 1.88 7.35 7.35 0 0 1-6.64 6c-3.86.3-7-1.26-7.52-5-.19 0-.78 0-1 .05-3.91 1-7.54 1.19-10.81 2.9a30.4 30.4 0 0 0-1.26-2.93c4.67-1.62 9.13-4.36 11.71-8.64a5.37 5.37 0 1 1 7.46-7.72 5.59 5.59 0 0 1 1 1.38 7.19 7.19 0 0 1 12.33 4.47" fill="#fcb918"/><path d="M69.24 85.91a24.59 24.59 0 1 1 24.58-24.6 24.59 24.59 0 0 1-24.58 24.6m30.45-29.69A22 22 0 0 0 99 53a13.72 13.72 0 0 0-.81-2.47 23.5 23.5 0 0 0-1.29-3 31 31 0 0 0-22.98-16.74 25.3 25.3 0 0 0-3.24-.28 8.12 8.12 0 0 0-1.3-.09 8 8 0 0 0-1.38.09 24.48 24.48 0 0 0-3.2.24 30.76 30.76 0 0 0-23 16.6 17.9 17.9 0 0 0-1.37 3c-.28.81-.6 1.64-.83 2.48a26.46 26.46 0 0 0-.77 3.17 30.32 30.32 0 0 0-.48 5.21 30.66 30.66 0 0 0 9.14 22l.1.1 2.23 2h.1A16.82 16.82 0 0 0 52 86.88l2.84 1.72a30.69 30.69 0 0 0 28.56.12 20.53 20.53 0 0 0 2.84-1.64c.72-.49 1.43-1 2.13-1.52l2.43-2.18a30.75 30.75 0 0 0 9.33-21.94 31.4 31.4 0 0 0-.43-5.21" fill="#adaead"/><path d="M69.23 64.71a3.44 3.44 0 0 1-3.43-3.46 3.39 3.39 0 0 1 3.38-3.4h.08a3.44 3.44 0 0 1 0 6.88m0-8.48a5.07 5.07 0 1 0 5.04 5.05 5.07 5.07 0 0 0-5.07-5.07" fill="#787979"/><path d="M96 88.7l-3 2.67a30.75 30.75 0 0 1-2.65 1.92 26.26 26.26 0 0 1-3.52 2 38.07 38.07 0 0 1-35.44-.17L47.82 93a28.07 28.07 0 0 1-2.56-1.88l-.11-.06-2.78-2.55-.13-.13a38.24 38.24 0 0 1-11.33-27.24 35.66 35.66 0 0 1 .62-6.44 26.47 26.47 0 0 1 .86-4c.3-1 .69-2.09 1-3.06A25.13 25.13 0 0 1 35.13 44a38.19 38.19 0 0 1 28.61-20.6 28 28 0 0 1 4-.32 16 16 0 0 1 1.7-.09A14.12 14.12 0 0 1 71 23a36.1 36.1 0 0 1 4 .34 38 38 0 0 1 30.1 24.55 20.84 20.84 0 0 1 1 3.08 23.49 23.49 0 0 1 .89 4 41.13 41.13 0 0 1 .56 6.46A38.16 38.16 0 0 1 96 88.7m18.85-38.55l-.19-.65c-.29-1-.64-2-1-3v-.06c-6.71-17.28-24-29.59-44.33-29.59-26.16 0-47.34 20.41-47.34 45.56a41.2 41.2 0 0 0 12.2 29.52c2 2.87 2.84 5.48 1.27 6.94-1.99 1.77-1.71 5.13 3.54 6.13 9.3 1.66 15.55-.07 24.92.32a47.79 47.79 0 0 0 5.35.26c1.76 0 3.51-.07 5.23-.24 9.59-.45 15.9 1.34 25.34-.34 5.24-1.06 5.51-4.4 3.6-6.21s-.35-5 2.34-8.43a.69.69 0 0 0 .11-.13 40.83 40.83 0 0 0 10.71-27.9 42.83 42.83 0 0 0-1.75-12.22" fill="#787979"/><path d="M91.18 106.47c-2.16 0-4.25-.11-6.4-.23a97.34 97.34 0 0 0-10.25-.16 52.6 52.6 0 0 1-5.27.23 46.72 46.72 0 0 1-5.42-.26c-3.59-.15-6.76 0-9.83.19a61 61 0 0 1-15.15-.52c-3.78-.76-4.83-2.58-5.12-3.6a3.75 3.75 0 0 1 1.17-3.79c1.39-1.29.05-4-1.33-6a42.15 42.15 0 0 1-12.35-30c0-25.5 21.54-46.25 48-46.25 19.92 0 38 12.07 45 30a.3.3 0 0 1 0 .1c.36.9.71 1.93 1 3.06l.19.64a43.92 43.92 0 0 1 1.77 12.42 41.38 41.38 0 0 1-10.79 28.44l-.1.12c-2 2.56-4 5.93-2.39 7.47a3.77 3.77 0 0 1 1.17 3.79c-.29 1-1.35 2.84-5.11 3.6a49.76 49.76 0 0 1-8.79.75zm-13.37-1.86c2.51 0 4.8.13 7 .25a61 61 0 0 0 14.85-.5c2.21-.45 3.68-1.4 4-2.62a2.4 2.4 0 0 0-.79-2.4c-1.92-1.81-1.16-5 2.28-9.36l.06-.07a1.13 1.13 0 0 1 .1-.13 40 40 0 0 0 10.59-27.41 43 43 0 0 0-1.72-12l-.18-.67c-.29-1-.63-2-1-3a1 1 0 0 1 0-.1c-6.85-17.4-24.4-29.1-43.74-29.1-25.72 0-46.64 20.13-46.64 44.87a40.71 40.71 0 0 0 12 29l.08.1c2.48 3.62 2.87 6.26 1.17 7.84a2.41 2.41 0 0 0-.79 2.4c.35 1.21 1.83 2.17 4 2.62a59.79 59.79 0 0 0 14.82.49c3.1-.16 6.3-.34 10-.18a49.74 49.74 0 0 0 5.32.26 50.76 50.76 0 0 0 5.17-.24c1.12 0 2.25-.08 3.38-.08zm-8.58-4.29h-.13a37.92 37.92 0 0 1-18-4.54l-3.59-2.15a27.18 27.18 0 0 1-2.61-1.9h-.06l-.11-.08-2.93-2.69a38.77 38.77 0 0 1-11.59-27.82 36.32 36.32 0 0 1 .64-6.58 26.33 26.33 0 0 1 .88-4c.21-.71.46-1.43.7-2.13.11-.32.22-.64.32-1a24.86 24.86 0 0 1 1.78-3.85 38.76 38.76 0 0 1 29.11-20.9 28.71 28.71 0 0 1 4-.34 10.36 10.36 0 0 1 1.25-.07h.48a11.61 11.61 0 0 1 1.67.09 37 37 0 0 1 4.07.34 38.77 38.77 0 0 1 30.67 25 21.12 21.12 0 0 1 1 3.13 22.79 22.79 0 0 1 .91 4.07 40.83 40.83 0 0 1 .56 6.53A38.65 38.65 0 0 1 96.48 89.2l-3 2.67a30.77 30.77 0 0 1-2.74 2A26.74 26.74 0 0 1 87.12 96a38.41 38.41 0 0 1-17.89 4.36zm-23.66-9.78a.18.18 0 0 1 .09.06 26.24 26.24 0 0 0 2.5 1.83l3.53 2.11a37.37 37.37 0 0 0 34.77.15 26.68 26.68 0 0 0 3.43-2q1.35-.89 2.61-1.89l3-2.64a37.23 37.23 0 0 0 11.37-26.75 38.4 38.4 0 0 0-.55-6.34 22.52 22.52 0 0 0-.86-3.89 22.29 22.29 0 0 0-1-3c-.47-1.26-1-2.5-1.59-3.71A37.89 37.89 0 0 0 75 24.07a34.71 34.71 0 0 0-4-.34h-.07a10.92 10.92 0 0 0-1.51-.08h-.49a10 10 0 0 0-1.1.06h-.11a26.49 26.49 0 0 0-3.88.32 37.42 37.42 0 0 0-28.1 20.23 24.28 24.28 0 0 0-1.69 3.66c-.1.28-.21.6-.32.93-.24.68-.48 1.39-.68 2.08a25.29 25.29 0 0 0-.84 3.84 34.79 34.79 0 0 0-.62 6.36 37.32 37.32 0 0 0 11.14 26.8l.13.13z" fill="#676868"/><path d="M99.49 61.57a29.64 29.64 0 0 1-1.83 10.12c0 .06 0 .15-.09.21-.15.4-.31.79-.49 1.17a34 34 0 0 1-1.88 3.77 27.1 27.1 0 0 1-1.88 2.74c-.3.43-.6.82-.92 1.2-.05 0-.13.09-.15.18-.24.28-.48.56-.74.82L81.31 65l18-7.2a32 32 0 0 1 .21 3.54v.21M85.6 86.72l-10.33-14.3a13.56 13.56 0 0 0 2.68-2L88.26 84.8a20.2 20.2 0 0 1-2.66 1.92m-6.16 3a32 32 0 0 1-5 1.35h-.21a27.73 27.73 0 0 1-7.77.31c-.86-.09-1.68-.18-2.52-.33h-.21c-.46-.11-.91-.17-1.39-.32a22.19 22.19 0 0 1-3.27-1 21.76 21.76 0 0 1-2.55-1.06l12.54-14.74 12.62 14.94c-.73.33-1.48.63-2.24.89M50 84.65l10.44-14.28a12.25 12.25 0 0 0 2.63 1.94L52.61 86.56A25.41 25.41 0 0 1 50 84.65m-3.25-3.11c-.22-.28-.46-.54-.69-.82l-.18-.17a29.47 29.47 0 0 1-5.09-8.93l-.08-.24a30.61 30.61 0 0 1-1-3.51 27.32 27.32 0 0 1-.62-4.12c-.07-.83-.1-1.67-.09-2.5V61a3.56 3.56 0 0 1 0-.65 22.9 22.9 0 0 1 .17-2.74L57.16 65zM40.83 50.9a.72.72 0 0 0 .09-.2 3.06 3.06 0 0 1 .22-.49l16.8 5.54a12.89 12.89 0 0 0-1.11 3.06l-16.75-5.54c.22-.8.48-1.58.75-2.37m5.25-9.08a2.3 2.3 0 0 1 .17-.2 29.62 29.62 0 0 1 7.5-6.29c.13-.09.28-.16.41-.24s.11-.09.17-.13a26.07 26.07 0 0 1 3.17-1.49c.5-.23 1-.45 1.56-.67a13.28 13.28 0 0 1 1.63-.49c.89-.28 1.77-.5 2.66-.69L62 51l-19-4.81a29.24 29.24 0 0 1 3-4.37m14.82 18.44a1.84 1.84 0 1 1 1.84-1.84 1.84 1.84 0 0 1-1.84 1.84M64 66.51a1.85 1.85 0 1 1-1.84 1.84A1.84 1.84 0 0 1 64 66.51m5.23-10.31a5.1 5.1 0 1 1-5.06 5.14 5.12 5.12 0 0 1 5.06-5.11m0-5.84a1.84 1.84 0 1 1-1.83 1.85 1.83 1.83 0 0 1 1.82-1.85M67.66 31.1a30.64 30.64 0 0 1 3.32 0l-.06 17.68a11.07 11.07 0 0 0-3.35 0zm8.69 37.26a1.84 1.84 0 1 1-1.83-1.85 1.83 1.83 0 0 1 1.83 1.85m3.21-9.94a1.84 1.84 0 1 1-1.85-1.83 1.83 1.83 0 0 1 1.83 1.83m4.83-23.31a2 2 0 0 1 .2.11A27.28 27.28 0 0 1 89 38.41a30.54 30.54 0 0 1 3 3c.13.15.28.28.39.43a1.22 1.22 0 0 0 .15.17 23.13 23.13 0 0 1 1.53 2c.51.75 1 1.51 1.47 2.33l-18.89 4.71-1.29-19.41a31.18 31.18 0 0 1 9 3.47m13.1 15.29c.09.19.15.39.22.56l.09.24c.26.77.51 1.53.7 2.31l-16.84 5.37a12.14 12.14 0 0 0-1-3.05zm9.6 4.57a22.45 22.45 0 0 0-.89-4 20.59 20.59 0 0 0-1-3.09 38 38 0 0 0-30.11-24.52A36.5 36.5 0 0 0 71 23a12.1 12.1 0 0 0-1.59-.08 14 14 0 0 0-1.71.08 26.73 26.73 0 0 0-4 .33A38.21 38.21 0 0 0 35.1 44a26.24 26.24 0 0 0-1.73 3.73c-.32 1-.71 2-1 3.07a25.41 25.41 0 0 0-.86 3.94 35 35 0 0 0-.63 6.45 38.28 38.28 0 0 0 11.34 27.3l.14.13 2.78 2.55.1.06a27.72 27.72 0 0 0 2.57 1.88l3.56 2.13a37.51 37.51 0 0 0 17.75 4.46 37.94 37.94 0 0 0 17.72-4.29 26.15 26.15 0 0 0 3.51-2A32.8 32.8 0 0 0 93 91.39l3-2.67a38.21 38.21 0 0 0 11.6-27.28 40.09 40.09 0 0 0-.56-6.47" fill="#fff"/><path d="M69.23 100.35h-.13A38.15 38.15 0 0 1 51 95.8l-3.59-2.15a27.18 27.18 0 0 1-2.61-1.9h-.06l-.11-.08-2.93-2.69a38.79 38.79 0 0 1-11.55-27.8 35.44 35.44 0 0 1 .64-6.58 27.69 27.69 0 0 1 .87-4c.21-.71.46-1.44.71-2.14.11-.32.21-.63.32-.94a24.86 24.86 0 0 1 1.78-3.85 38.8 38.8 0 0 1 29.14-21 27.16 27.16 0 0 1 4-.33 10.36 10.36 0 0 1 1.25-.08h.5a15.2 15.2 0 0 1 1.65.09 37.22 37.22 0 0 1 4.08.35 38.76 38.76 0 0 1 30.69 25 21.63 21.63 0 0 1 1 3.14 23.37 23.37 0 0 1 .91 4 41.3 41.3 0 0 1 .56 6.56A38.68 38.68 0 0 1 96.5 89.22l-3 2.69c-.93.74-1.84 1.4-2.74 2A28.48 28.48 0 0 1 87.13 96a38.58 38.58 0 0 1-17.9 4.36zm-23.69-9.79h.05a.24.24 0 0 1 .09.06 26.24 26.24 0 0 0 2.5 1.83l3.54 2.12A36.62 36.62 0 0 0 69.11 99a37.22 37.22 0 0 0 17.4-4.21 25.13 25.13 0 0 0 3.44-2 30.4 30.4 0 0 0 2.61-1.89l3-2.65a37.29 37.29 0 0 0 11.37-26.76 40.93 40.93 0 0 0-.55-6.35 22 22 0 0 0-.86-3.84 22.42 22.42 0 0 0-1-3A37.4 37.4 0 0 0 75 24a36.94 36.94 0 0 0-4-.29h-.07c-.5-.05-1-.08-1.51-.08h-.49a8 8 0 0 0-1.1.07h-.12a26.59 26.59 0 0 0-3.88.31 37.48 37.48 0 0 0-28.11 20.25A24.91 24.91 0 0 0 34 47.93l-.31.93c-.25.69-.47 1.38-.69 2.08a26.7 26.7 0 0 0-.84 3.85 34.78 34.78 0 0 0-.61 6.36A37.41 37.41 0 0 0 42.7 88l.13.12zm23.75 1.7a28 28 0 0 1-2.89-.15c-.9-.09-1.72-.18-2.57-.33h-.22l-.42-.09a9.61 9.61 0 0 1-1-.23 27.78 27.78 0 0 1-6-2.06.7.7 0 0 1-.31-.93l.09-.14 12.56-14.85a.67.67 0 0 1 .53-.25.69.69 0 0 1 .53.25l12.62 14.94a.7.7 0 0 1-.08 1 .54.54 0 0 1-.16.1 21.55 21.55 0 0 1-2.3.91 33.52 33.52 0 0 1-5.08 1.39h-.32a26.81 26.81 0 0 1-5 .44zm-5.2-1.85c.8.14 1.58.23 2.45.32a26.67 26.67 0 0 0 7.57-.3h.31a31.88 31.88 0 0 0 4.78-1.3c.44-.15.88-.31 1.33-.5L69.06 75 57.65 88.48c.52.23 1.07.44 1.65.64a22.12 22.12 0 0 0 3.2.93h.06a6.73 6.73 0 0 0 .86.21l.47.1h.2zm21.51-3a.7.7 0 0 1-.56-.29l-10.33-14.3a.69.69 0 0 1 .16-1h.07A12.4 12.4 0 0 0 77.47 70a.69.69 0 0 1 1 0l.06.07 10.29 14.32a.7.7 0 0 1-.11.93 20.68 20.68 0 0 1-2.75 2 .75.75 0 0 1-.36.09zm-9.32-14.78l9.5 13.15c.53-.34 1-.71 1.54-1.1l-9.49-13.19a15.84 15.84 0 0 1-1.55 1.14zM52.61 87.26a.76.76 0 0 1-.38-.11 28.11 28.11 0 0 1-2.66-2 .69.69 0 0 1-.11-.94L59.88 70a.69.69 0 0 1 1-.15l.07.06a11.36 11.36 0 0 0 2.45 1.79.69.69 0 0 1 .27 1v.07L53.17 87a.72.72 0 0 1-.56.28zM51 84.53c.49.39 1 .75 1.47 1.09l9.61-13.1a15 15 0 0 1-1.51-1.11zm40.54-2.06a.68.68 0 0 1-.59-.33L80.72 65.38a.69.69 0 0 1 .23-.95l.1-.05 18-7.21a.7.7 0 0 1 .9.39 1.21 1.21 0 0 1 0 .18 33.65 33.65 0 0 1 .22 3.62 2 2 0 0 1 0 .23 30.28 30.28 0 0 1-1.88 10.36v.06a.78.78 0 0 1-.09.21 11.4 11.4 0 0 1-.49 1.18 32.2 32.2 0 0 1-1.9 3.81A27.11 27.11 0 0 1 93.86 80c-.24.36-.55.76-.93 1.22h-.05a.22.22 0 0 1 0 .08c-.23.27-.49.58-.78.87a.68.68 0 0 1-.49.2zm-9.21-17.11l9.29 15.26a1.16 1.16 0 0 1 .25-.29c.34-.41.6-.75.85-1.11a24.87 24.87 0 0 0 1.86-2.7 30.67 30.67 0 0 0 1.82-3.68c.2-.4.34-.77.49-1.15v-.08a1.22 1.22 0 0 1 .11-.21 29 29 0 0 0 1.78-9.83.65.65 0 0 1 0-.2c0-.86 0-1.71-.12-2.56zm15.91 6.7zM46.77 82.23a.69.69 0 0 1-.55-.27c-.14-.18-.29-.35-.44-.52l-.23-.27-.09-.07-.09-.1a29.86 29.86 0 0 1-5.21-9.14l-.09-.24A29.46 29.46 0 0 1 39 68a26.23 26.23 0 0 1-.64-4.22 21.73 21.73 0 0 1-.09-2.55V61a4.23 4.23 0 0 1 0-.71 25.57 25.57 0 0 1 .18-2.76.69.69 0 0 1 .77-.6.58.58 0 0 1 .18 0l17.94 7.36a.68.68 0 0 1 .38.9.37.37 0 0 1 0 .11L47.35 81.91a.68.68 0 0 1-.55.32zm-.15-1.94l.07.07 9.44-15-16.32-6.74c0 .58-.07 1.16-.07 1.74a.61.61 0 0 1 0 .14 2.19 2.19 0 0 0 0 .51v.24a21.92 21.92 0 0 0 .08 2.43 26.15 26.15 0 0 0 .61 4 29.36 29.36 0 0 0 1 3.44l.09.24a28.35 28.35 0 0 0 4.94 8.68 1.21 1.21 0 0 1 .16.25zm27.9-9.4A2.54 2.54 0 1 1 77 68.34a2.52 2.52 0 0 1-2.52 2.53zm0-3.69a1.15 1.15 0 0 0-1.16 1.14 1.14 1.14 0 0 0 1.14 1.16 1.15 1.15 0 0 0 1.16-1.14 1.15 1.15 0 0 0-1.12-1.16zM64 70.89a2.54 2.54 0 1 1 2.49-2.49A2.54 2.54 0 0 1 64 70.89zm0-3.69a1.15 1.15 0 1 0 1.15 1.15A1.16 1.16 0 0 0 64 67.2zm5.21-.1A5.8 5.8 0 1 1 75 61.31a5.8 5.8 0 0 1-5.81 5.79zm0-10.2a4.41 4.41 0 1 0 4.42 4.41 4.4 4.4 0 0 0-4.42-4.41zm8.52 4.1a2.53 2.53 0 1 1 2.53-2.53A2.54 2.54 0 0 1 77.73 61zm0-3.67a1.14 1.14 0 1 0 1.14 1.15 1.15 1.15 0 0 0-1.14-1.14zM60.82 61a2.53 2.53 0 1 1 2.53-2.53A2.52 2.52 0 0 1 60.82 61zm0-3.67A1.14 1.14 0 1 0 62 58.42a1.14 1.14 0 0 0-1.18-1.14zm20.81 2.29A.7.7 0 0 1 81 59a11.66 11.66 0 0 0-1-2.87.68.68 0 0 1 .33-.92.2.2 0 0 1 .08 0l16.84-5.43a.7.7 0 0 1 .85.38c.07.15.12.31.17.45l.22.6c.23.71.48 1.43.66 2.17a.7.7 0 0 1-.46.83l-16.85 5.33a.76.76 0 0 1-.21.03zm-.06-3.31a13.38 13.38 0 0 1 .58 1.69l15.48-4.93c-.14-.47-.29-.95-.46-1.43l-.12-.36zM56.83 59.5h-.22l-16.75-5.57a.69.69 0 0 1-.45-.84c.23-.86.51-1.67.77-2.42a.8.8 0 0 1 .08-.16 5.18 5.18 0 0 1 .26-.6.71.71 0 0 1 .82-.31l16.8 5.54a.7.7 0 0 1 .45.88s0 .07-.05.1a12 12 0 0 0-1 2.89.69.69 0 0 1-.71.49zm-15.9-6.68l15.41 5.1a13.65 13.65 0 0 1 .66-1.76l-15.48-5.09a.39.39 0 0 1 0 .09c-.24.55-.42 1.1-.59 1.66zm28.3 1.92a2.54 2.54 0 1 1 2.53-2.55 2.53 2.53 0 0 1-2.53 2.55zm0-3.69a1.16 1.16 0 0 0-1.16 1.14 1.15 1.15 0 0 0 1.14 1.16 1.15 1.15 0 0 0 .05-2.3zm7.42.69a.69.69 0 0 1-.65-.64l-1.33-19.41a.68.68 0 0 1 .64-.74.67.67 0 0 1 .2 0 31.88 31.88 0 0 1 9.23 3.55l.19.1a29.07 29.07 0 0 1 4.53 3.26 32 32 0 0 1 3.1 3.14l.13.14a3 3 0 0 1 .29.33l.13.15c.55.66 1.08 1.34 1.56 2 .57.85 1 1.58 1.49 2.38a.68.68 0 0 1-.27.94.51.51 0 0 1-.17.07l-18.9 4.71a.5.5 0 0 1-.17 0zm-.54-19.21l1.18 17.65 17.21-4.26c-.31-.51-.64-1-1-1.49a24 24 0 0 0-1.5-2 1.19 1.19 0 0 1-.15-.18 1.29 1.29 0 0 0-.16-.17l-.19-.21a29.13 29.13 0 0 0-2.93-3 27 27 0 0 0-4.33-3.11l-.24-.05a30.27 30.27 0 0 0-7.89-3.18zM92 42.4zm1-.89zM61.94 51.7h-.19l-18.89-4.83a.7.7 0 0 1-.5-.85 1.11 1.11 0 0 1 .07-.16 29.51 29.51 0 0 1 3.12-4.49l.17-.19a30.27 30.27 0 0 1 7.66-6.42l.24-.14a1.51 1.51 0 0 1 .26-.18 27.5 27.5 0 0 1 3.3-1.55c.51-.25 1-.47 1.56-.67a13.93 13.93 0 0 1 1.7-.52c.88-.27 1.78-.51 2.69-.7a.69.69 0 0 1 .82.53.68.68 0 0 1 0 .2L62.64 51a.72.72 0 0 1-.69.67zm-17.84-6l17.21 4.38 1.28-17.58c-.59.14-1.16.3-1.74.48a14.51 14.51 0 0 0-1.55.47c-.51.2-1 .4-1.5.65a24.68 24.68 0 0 0-3.13 1.46.4.4 0 0 1-.12.1l-.24.14-.16.09a29.15 29.15 0 0 0-7.37 6.18l-.06.07-.07.09a27.5 27.5 0 0 0-2.55 3.52zm10.72-10.4zm16.1 14.18h-.12a10.2 10.2 0 0 0-3.12 0 .69.69 0 0 1-.79-.58.41.41 0 0 1 0-.11L67 31.1a.68.68 0 0 1 .65-.69 27.55 27.55 0 0 1 3.4 0 .7.7 0 0 1 .66.69l-.07 17.69a.69.69 0 0 1-.69.69zM69.23 48h1l.06-16.24h-1.94L68.27 48h.96z" fill="#676868"/><path d="M76.32 68.33a1.83 1.83 0 1 1-1.83-1.85 1.82 1.82 0 0 1 1.83 1.85m-10.45 0A1.83 1.83 0 1 1 64 66.48a1.83 1.83 0 0 1 1.83 1.85m-3.18-9.89a1.83 1.83 0 1 1-1.83-1.83 1.83 1.83 0 0 1 1.83 1.83m8.37-6.19a1.83 1.83 0 1 1-1.83-1.82 1.83 1.83 0 0 1 1.83 1.82m8.46 6.19a1.84 1.84 0 1 1-1.85-1.83 1.83 1.83 0 0 1 1.83 1.82" fill="#787979"/></svg>