<svg xmlns="http://www.w3.org/2000/svg" viewBox="0 0 443.695 163.773"><path d="M347.288 157.032c-.09 0-.182-.002-.274-.008-5.532-.332-10.221-3.136-13.267-5.215-1.262-.861-2.467-1.761-3.633-2.632a52.228 52.228 0 0 0-5.852-3.984 4.5 4.5 0 1 1 4.345-7.881 59.744 59.744 0 0 1 6.893 4.654c1.14.852 2.218 1.657 3.322 2.41 3.44 2.349 6.214 3.513 8.731 3.665a4.5 4.5 0 0 1-.265 8.991zM90.2 155.413a4.48 4.48 0 0 1-2.505-.765c-1.124-.755-3.645-1.183-6.316-1.636-7.45-1.266-18.71-3.177-26.469-16.299a4.5 4.5 0 0 1 7.748-4.58c5.633 9.527 13.387 10.844 20.228 12.006 3.65.62 7.098 1.205 9.827 3.037a4.5 4.5 0 0 1-2.513 8.237z" fill="#ddd"/><path d="M376.378 147.33c-7.028 0-13.963-.643-20.733-1.272a193.602 193.602 0 0 0-22.235-1.207c-4.973.126-9.625-.86-14.12-1.804a78.76 78.76 0 0 0-8.817-1.514 132.586 132.586 0 0 0-21.758.004c-4.63.333-9.312.8-13.84 1.254-9.232.923-18.774 1.885-28.325 1.76-5.164-.06-10.345-.435-15.355-.798-8.362-.605-16.262-1.174-24.169-.43-3.006.283-5.977.753-9.124 1.25-3.87.612-7.871 1.245-11.947 1.5-10.633.67-21.157-1.255-31.335-3.115-12.12-2.214-23.6-4.31-34.773-2.204q-.177.13-.369.243a5.434 5.434 0 0 1-5.34-.104l-.128-.062-74.12-1.626a19.427 19.427 0 0 1-13.663-4.585l-8.091-5.724a4.5 4.5 0 1 1 5.197-7.348l8.27 5.85a4.558 4.558 0 0 1 .367.29 10.331 10.331 0 0 0 7.507 2.525c.137-.01.272-.013.416-.01l74.78 1.64a6.814 6.814 0 0 1 2.018.37c13.33-2.898 26.657-.464 39.547 1.892 10.09 1.843 19.615 3.584 29.154 2.986 3.653-.23 7.272-.802 11.104-1.408 3.146-.497 6.399-1.011 9.687-1.32 8.653-.816 17.298-.19 25.662.414 4.877.352 9.92.716 14.813.776 9.059.11 18.337-.82 27.321-1.718 4.59-.459 9.336-.933 14.042-1.271a141.559 141.559 0 0 1 23.245.003 86.778 86.778 0 0 1 9.876 1.673 53.802 53.802 0 0 0 12.055 1.613 200.381 200.381 0 0 1 23.28 1.244c9.366.869 18.212 1.69 27.188.95 2.424-.205 5-.536 7.275-.829l24.381-3.138a4.5 4.5 0 0 1 8.266 1.743 5.69 5.69 0 0 1-1.122 4.306 8.107 8.107 0 0 1-5.47 2.81l-24.907 3.206c-2.365.304-5.046.648-7.674.871a97.62 97.62 0 0 1-8.036.314zm38.302-10.219l.001.01zm-301.81-.658z" fill="#ddd"/><path d="M61.944 133.932a43.92 43.92 0 0 0 16.17 16c5.52 3 9.6 3.15 15.9 3 10.17-.31 24.83-10.07 28.44-20.9" fill="#aaa"/><path d="M91.263 153.721c-4.881 0-8.666-.499-13.507-3.13a44.747 44.747 0 0 1-16.46-16.28.75.75 0 0 1 1.296-.757 43.233 43.233 0 0 0 15.893 15.727c5.197 2.824 8.887 3.064 15.51 2.901 9.585-.292 24.102-9.45 27.747-20.387a.75.75 0 0 1 1.424.475c-3.83 11.486-19.067 21.105-29.13 21.412-.969.023-1.89.04-2.773.04z" fill="#444"/><path d="M107.944 135.382c-5.78 7.22-18.6 8.6-26.16 5.55a19.539 19.539 0 0 1-6.13-4.32" fill="#fff"/><path d="M387.414 138.992c-5.78 10.11-17.94 16.34-28 16.66-13 .42-24.57-6.3-31.39-17.11" fill="#aaa"/><path d="M358.272 156.421c-12.46 0-23.938-6.471-30.883-17.478a.75.75 0 0 1 1.27-.801c6.873 10.895 18.376 17.152 30.73 16.761 9.144-.29 21.482-5.977 27.373-16.283a.75.75 0 0 1 1.303.744c-6.165 10.784-19.068 16.734-28.628 17.038q-.583.02-1.165.02z" fill="#444"/><path d="M375.134 136.782c-5.78 7.22-18.6 8.6-26.16 5.55a19.539 19.539 0 0 1-6.13-4.32" fill="#fff"/><path d="M11.194 88.272c1.75-4.82-2.12-10.49-1.25-15.65.63-3.65 2.15-7.08 2.82-10.67.42-2.26.64-4.55 1.21-6.79 1.12-4.43 3.5-8.2 8.58-8 13 .58 20.7-3.31 33.34-7a285.629 285.629 0 0 0 36.1-13.13c5.29-2.36 8.67-3.61 14.88-7.41 4.37-1.38 8.78-2.68 13.29-4.14 7.88-2.55 19.3-3.82 27.37-5 28.66-4.19 65.11-4.56 93 3.19 14.83 4.12 20.73 7.32 34.8 13.58 15.93 7.09 30.4 10.75 46.32 17.84l1.44.72c5.24.9 7.28 3.36 12.55 4 19.14 2.5 38.16 8.61 57.29 11.13a88.824 88.824 0 0 1 17.37 3.7 37.331 37.331 0 0 1 10 5 24.057 24.057 0 0 1 4.05 3.63 17.698 17.698 0 0 1 2.81 5.2c.91 2.22 1.8 4.44 2.67 6.68 3 7.64 5.9 15.59 6.92 23.76.82 6.54-4.12 16-7.71 21.43-4.39 6.68-10.82 9.42-17.78 10a44.383 44.383 0 0 1-9-.22c-2-.23-3.92-.31-5.89-.46-1.15-.09-2.3-.14-3.44-.32s-2-.61-3-.82a7.899 7.899 0 0 0-2.47.21l-2.54.27q-2.78.3-5.55.55-5.56.48-11.14.69h-.78q-11.06.34-22.11-.38-9.11-.62-18.14-2a243.835 243.835 0 0 0-29.29-3c-13.77-.38-27.21 3.11-41.06 3-15-.09-30-2.64-45-1.79-11.93.67-23.79.85-35.76.65-11.47-.19-24.85-.73-35.87-3.91a45.36 45.36 0 0 0-20-1c-20.5 3-39.21 7-59.31 2l-3.75-.75c-9-4.5-13.92-.27-19.36-1.42-7-1.49-11.62 2.21-17.33-2.17-1.17-.89-6.95-6.21-7.73-7.45-1-1.57-4.3-7.75-4.69-9.57-.9-4.18 1.64-17 2.31-21.26" fill="#fb0"/><path d="M185.115 140.557a112.751 112.751 0 0 1-16.01-1.287c-3.37-.484-6.942-1.165-10.725-1.887-14.851-2.831-33.333-6.355-56.25-1.632-24.446 5.039-56.103-2.192-75.018-6.512a665.15 665.15 0 0 0-5.454-1.231 20 20 0 0 1 8.572-39.07c1.728.378 3.669.821 5.788 1.305 14.715 3.36 42.105 9.617 58.038 6.331 30.687-6.325 55.438-1.606 71.816 1.518 3.463.66 6.454 1.23 8.914 1.583 11.345 1.627 14.595.819 20.498-.65a106.912 106.912 0 0 1 28.61-3.552c15.023 0 20.866.832 26.452 1.838.994.179 1.71.308 2.416.392.935.114 3.623.135 6.221.156 3.787.03 8.921.072 15.935.347.677-.168 1.842-.516 2.737-.784a72.181 72.181 0 0 1 22.824-3.628c6.626.073 13.726 1.493 20.591 2.865 5.827 1.165 11.853 2.37 15.917 2.394 13.235.076 26.813.129 39.084.176 16.815.066 31.338.122 39.114.215a20 20 0 0 1-.236 39.999l-.246-.001c-7.612-.092-22.059-.148-38.787-.213-12.295-.048-25.898-.1-39.166-.177-7.907-.048-16.203-1.706-23.522-3.169-4.829-.965-10.301-2.06-13.176-2.091-4.248-.069-7.205.837-10.937 1.953-4.025 1.204-9.034 2.71-14.98 2.461-6.801-.278-11.61-.317-15.476-.348a95.659 95.659 0 0 1-10.668-.44c-1.852-.22-3.382-.496-4.731-.74-3.14-.564-6.698-1.205-19.316-1.205a66.964 66.964 0 0 0-19.007 2.37 75.945 75.945 0 0 1-19.822 2.714z" fill="#fb0"/><path d="M432.122 93.56c-.655-1.969-1.405-3.948-2.131-5.862q-.435-1.146-.86-2.284a382.715 382.715 0 0 0-2.661-6.657 17.062 17.062 0 0 0-2.706-5.023 23.364 23.364 0 0 0-3.895-3.48 36.54 36.54 0 0 0-9.797-4.898 88.243 88.243 0 0 0-17.22-3.668c-9.586-1.262-19.271-3.45-28.637-5.567-9.392-2.122-19.103-4.315-28.667-5.565a21.9 21.9 0 0 1-6.736-2.067 23.153 23.153 0 0 0-5.845-1.937l-.208-.069-1.44-.72c-7.908-3.52-15.623-6.25-23.085-8.888-7.481-2.646-15.218-5.383-23.205-8.938-2.39-1.063-4.545-2.038-6.548-2.945-9.91-4.485-15.891-7.192-28.148-10.597-24.69-6.861-59.341-8.046-92.69-3.17-1.407.205-2.916.413-4.49.631-7.268 1.004-16.313 2.254-22.758 4.34-2.64.855-5.247 1.655-7.831 2.448a695.768 695.768 0 0 0-5.376 1.666 87.382 87.382 0 0 1-12.293 6.265c-.824.36-1.68.735-2.595 1.142a287.307 287.307 0 0 1-36.198 13.166c-2.836.828-5.406 1.66-7.89 2.465-8.653 2.804-15.489 5.023-25.692 4.563-3.97-.141-6.515 2.276-7.818 7.435-.354 1.389-.575 2.837-.79 4.238a77.463 77.463 0 0 1-.411 2.506 47.647 47.647 0 0 1-1.394 5.229 44.184 44.184 0 0 0-1.424 5.431c-.375 2.22.218 4.656.79 7.012.712 2.926 1.448 5.952.426 8.766l-1.41-.511c.867-2.389.217-5.066-.473-7.9-.608-2.503-1.238-5.092-.811-7.619a45.281 45.281 0 0 1 1.469-5.62 46.656 46.656 0 0 0 1.352-5.063c.153-.816.278-1.636.404-2.457.22-1.437.447-2.922.818-4.38 1.482-5.868 4.615-8.745 9.335-8.565 9.948.449 16.659-1.734 25.167-4.49 2.494-.81 5.074-1.645 7.934-2.48a285.863 285.863 0 0 0 36.007-13.097c.915-.408 1.776-.784 2.603-1.146a86.165 86.165 0 0 0 12.188-6.217l.166-.076c1.817-.573 3.64-1.133 5.475-1.696 2.577-.792 5.177-1.59 7.81-2.442 6.571-2.127 15.688-3.386 23.015-4.399 1.569-.217 3.075-.425 4.478-.63 33.545-4.903 68.427-3.704 93.31 3.21 12.367 3.436 18.732 6.316 28.364 10.676 2 .905 4.153 1.88 6.54 2.942 7.933 3.53 15.641 6.256 23.095 8.893 7.49 2.649 15.234 5.387 23.225 8.947l1.372.684a24.566 24.566 0 0 1 6.09 2.026 20.382 20.382 0 0 0 6.314 1.95c9.64 1.26 19.385 3.461 28.81 5.59 9.334 2.11 18.986 4.29 28.488 5.541a89.71 89.71 0 0 1 17.5 3.73 38.038 38.038 0 0 1 10.201 5.101 24.859 24.859 0 0 1 4.18 3.744 18.475 18.475 0 0 1 2.96 5.458 373.67 373.67 0 0 1 2.658 6.65c.286.766.573 1.524.86 2.285.73 1.928 1.487 3.922 2.153 5.919z" fill="#444"/><path d="M15.447 73.473a2.505 2.505 0 0 1-2.483-2.816c.535-4.21 2.132-10.114 4.494-13.81 1.822-2.855 4.843-4.356 7.508-5.681a23.97 23.97 0 0 0 3.9-2.232 2.5 2.5 0 0 1 3.056 3.957 28.035 28.035 0 0 1-4.731 2.753c-2.285 1.135-4.443 2.208-5.52 3.894-1.934 3.027-3.298 8.212-3.747 11.75a2.501 2.501 0 0 1-2.477 2.185zm53.486-10.51a2.5 2.5 0 0 1-1.885-4.141c1.852-2.13 4.351-4.476 6.998-6.96 4.006-3.76 8.147-7.65 10.258-10.97l1.115-1.763a100.971 100.971 0 0 1 9.604-13.427 2.5 2.5 0 0 1 3.842 3.201 97.12 97.12 0 0 0-9.22 12.897l-1.12 1.77c-2.449 3.856-6.825 7.964-11.057 11.938-2.551 2.395-4.961 4.657-6.647 6.595a2.496 2.496 0 0 1-1.888.86zm317.853 13.38a2.5 2.5 0 0 1-2.146-1.213 9.217 9.217 0 0 0-3.144-3.144q-.094-.058-.185-.123l-9.84-7.17c-2.657-1.926-5.41-3.922-8.43-4.712a2.5 2.5 0 1 1 1.265-4.837c3.928 1.027 7.21 3.406 10.105 5.504l9.76 7.112a14.24 14.24 0 0 1 4.757 4.795 2.501 2.501 0 0 1-2.142 3.788zm-205.435-4.531q-2.439 0-4.87-.06a2.5 2.5 0 0 1 .125-4.999 192.211 192.211 0 0 0 27.748-1.323c9.745-1.077 20.722-2.787 27.98-9.512.985-.91 1.896-1.904 2.862-2.955a82.916 82.916 0 0 1 1.965-2.093 41.767 41.767 0 0 1 13.377-9.145 2.5 2.5 0 1 1 1.973 4.595 36.783 36.783 0 0 0-11.783 8.055 78.016 78.016 0 0 0-1.848 1.968c-.99 1.08-2.015 2.196-3.149 3.244-8.373 7.757-20.29 9.648-30.802 10.81a197.051 197.051 0 0 1-23.578 1.415zm-23.476-46.849a2.5 2.5 0 0 1-.933-4.82 162.133 162.133 0 0 0 11.817-5.308 2.5 2.5 0 0 1 2.23 4.476 167.19 167.19 0 0 1-12.184 5.472 2.49 2.49 0 0 1-.93.18zm-13.043 99.66a2.5 2.5 0 0 1-2.207-3.67 51.59 51.59 0 0 1 3.657-5.907 27.963 27.963 0 0 1 5.455-5.923q.05-.04.103-.079a36.648 36.648 0 0 1 6.353-3.724c7.604-3.818 15.549-7.807 24.163-10.308 2.962-.84 5.978-1.51 8.893-2.158a89.274 89.274 0 0 0 14.141-3.95 2.5 2.5 0 1 1 1.868 4.638 94.428 94.428 0 0 1-14.924 4.194c-2.847.631-5.79 1.285-8.598 2.082-8.16 2.37-15.897 6.254-23.38 10.01a32.078 32.078 0 0 0-5.514 3.215 23.11 23.11 0 0 0-4.462 4.867 47.262 47.262 0 0 0-3.337 5.382 2.498 2.498 0 0 1-2.211 1.33z" style="isolation:isolate" fill="#444" opacity=".2"/><path d="M383.404 98.042a.746.746 0 0 1-.579-.274 28.29 28.29 0 0 0-5.3-4.977 23.487 23.487 0 0 0-4.844-2.674c-6.712-2.77-15.532-3.24-24.203-1.293a29.692 29.692 0 0 0-14.174 7.9.75.75 0 0 1-1.06-1.062 31.206 31.206 0 0 1 14.899-8.3c8.971-2.016 18.12-1.516 25.107 1.367a25.027 25.027 0 0 1 5.151 2.844 29.782 29.782 0 0 1 5.582 5.243.75.75 0 0 1-.579 1.226zm-25.579 46.831a23.344 23.344 0 0 1-5.725-.714.75.75 0 1 1 .368-1.454 21.81 21.81 0 0 0 12.055-.386 28.894 28.894 0 0 0 5.152-2.195.75.75 0 1 1 .718 1.317 30.427 30.427 0 0 1-5.414 2.307 23.319 23.319 0 0 1-7.154 1.125zm-267.041-1.456a25.175 25.175 0 0 1-9.317-1.788 13.623 13.623 0 0 1-5.399-3.502.75.75 0 0 1 1.092-1.03 12.154 12.154 0 0 0 4.83 3.127 23.702 23.702 0 0 0 21.977-2.315.75.75 0 1 1 .834 1.246 25.176 25.176 0 0 1-14.017 4.262z" fill="#444"/><path d="M72.636 95.062a2.5 2.5 0 0 1-1.501-4.5c5.365-4.02 12.517-4.221 17.739-4.368a78.818 78.818 0 0 1 14.861.51 2.5 2.5 0 1 1-.642 4.958 74.079 74.079 0 0 0-13.996-.474c-5.984.17-11.177.538-14.964 3.375a2.488 2.488 0 0 1-1.497.5z" style="isolation:isolate" fill="#444" opacity=".2"/><path d="M70.325 92.362a.75.75 0 0 1-.402-1.383 16.835 16.835 0 0 1 1.915-1.047c6.234-2.931 14.931-4.192 23.857-3.457a32.204 32.204 0 0 1 6.876 1.28.75.75 0 0 1-.433 1.436 30.626 30.626 0 0 0-6.56-1.22c-8.683-.718-17.098.496-23.104 3.32a15.496 15.496 0 0 0-1.749.955.744.744 0 0 1-.4.117zm189.099-37.83a.75.75 0 0 1-.55-1.26 23.597 23.597 0 0 1 22.548-6.92.75.75 0 0 1 .562.9.759.759 0 0 1-.9.562 22.078 22.078 0 0 0-21.11 6.48.748.748 0 0 1-.55.239zm161.251 33.26a.698.698 0 0 1-.073-.003 34.397 34.397 0 0 1-14.033-4.487.75.75 0 0 1 .75-1.299 32.91 32.91 0 0 0 13.426 4.293.75.75 0 0 1-.07 1.496zM69.294 60.872a.75.75 0 0 1-.197-1.473c3.06-.834 7.758-7.53 12.733-14.62 6.614-9.427 14.11-20.112 22.025-24.26a.75.75 0 0 1 .698 1.328c-7.594 3.98-14.979 14.506-21.496 23.793-5.578 7.95-9.984 14.23-13.566 15.206a.75.75 0 0 1-.197.026zM16.313 81.943a.75.75 0 0 1-.747-.696 47.19 47.19 0 0 1 3.05-20.325 12.293 12.293 0 0 1 2.401-4.22 15.451 15.451 0 0 1 5.101-3.075 70.318 70.318 0 0 0 7.03-3.707.75.75 0 1 1 .773 1.285 71.43 71.43 0 0 1-7.237 3.81 14.099 14.099 0 0 0-4.601 2.737 10.91 10.91 0 0 0-2.057 3.675 45.736 45.736 0 0 0-2.964 19.712.75.75 0 0 1-.694.802.833.833 0 0 1-.055.002zm159.83-13.861a.75.75 0 0 1-.038-1.499c13.286-.7 24.344-1.389 35.603-3.3 5.97-1.041 12.865-2.597 18.73-6.237a64.192 64.192 0 0 0 7.267-5.48c1.507-1.252 3.066-2.547 4.685-3.737a46.654 46.654 0 0 1 8.659-4.991.747.747 0 0 1 .842-.362q.943-.394 1.904-.747a.75.75 0 0 1 .924 1.05 2.505 2.505 0 0 1-2.766 1.3 45.11 45.11 0 0 0-8.677 4.96c-1.58 1.161-3.122 2.442-4.612 3.681a65.442 65.442 0 0 1-7.438 5.601c-6.08 3.773-13.149 5.373-19.263 6.44-11.341 1.926-22.444 2.617-35.78 3.32zm-19.508-44.65a.75.75 0 0 1-.402-1.384 55.092 55.092 0 0 1 13.565-6.184.75.75 0 0 1 .431 1.437 53.594 53.594 0 0 0-13.195 6.016.748.748 0 0 1-.4.115zm-55.962 42.991a.75.75 0 0 1-.11-1.492 50.73 50.73 0 0 0 21.954-8.869c1.087-.78 2.183-1.63 3.243-2.453 3.724-2.892 7.576-5.883 12.28-6.87a.75.75 0 1 1 .308 1.467c-4.365.917-8.078 3.8-11.669 6.588-1.07.83-2.177 1.69-3.288 2.488a52.242 52.242 0 0 1-22.607 9.132.707.707 0 0 1-.111.009zm286.732 6.92a.748.748 0 0 1-.617-.324c-5.56-8.029-14.944-12.449-23.224-16.348a.75.75 0 1 1 .639-1.357c8.45 3.98 18.028 8.49 23.817 16.852a.75.75 0 0 1-.615 1.177zm-52.809-15.21a.846.846 0 0 1-.126-.01c-2.37-.351-4.42-2.16-6.264-5.531l-.39-.723c-1.1-2.04-2.235-4.15-4.137-5.212a.75.75 0 1 1 .73-1.31c2.285 1.275 3.526 3.58 4.727 5.81l.386.715c1.498 2.738 3.074 4.28 4.806 4.697a.817.817 0 0 1 .895.038.827.827 0 0 1 .217.942.94.94 0 0 1-.844.584zm.091-1.493h.007z" fill="#444"/><path d="M380.855 95.222a2.495 2.495 0 0 1-1.876-.846c-7.177-8.137-14.45-8.047-25.35-5.034a2.5 2.5 0 1 1-1.332-4.82c12.24-3.382 21.6-3.465 30.432 6.547a2.5 2.5 0 0 1-1.874 4.153z" style="isolation:isolate" fill="#444" opacity=".2"/><path d="M265.585 118.912a.75.75 0 0 1-.337-1.42 84.226 84.226 0 0 0 40.816-44.812 17.97 17.97 0 0 1 3.11-5.943c1.6-1.734 4.383-3.003 6.794-1.796a.75.75 0 1 1-.67 1.342c-1.725-.862-3.79.138-4.984 1.428a16.549 16.549 0 0 0-2.833 5.458 85.75 85.75 0 0 1-41.561 45.664.744.744 0 0 1-.335.08z" fill="#444"/><path d="M436.204 120.242c.52-1.92.93-3.85 1.25-5.72 1.2-6.91-1.46-12.62-3.2-19.14-1.31-4.91-3.31-6.81-2.31-7.91-5.7 6.3-16.29 8-24.27 7.68-19.65-.84-38.94 1-58.57 1.43-26.07 1.38-69.54-9.58-104-6.64-8.19.7-16.46 1.94-24.59.74-5.52-.81-11-2.75-16.53-1.77a394.303 394.303 0 0 1-88 5.42c-22.45-1.09-41.71 2.77-64-.11-13-1.68-28-6-41-7.7-1.49 6.57-3.52 13.48-2.89 20.26s3.31 15.37 7.28 21c3.35 4.71 9.2 5 14.48 5.16 9.4.28 18.67-1.24 28.07-1.54 9.93-.32 19.75 4.83 29.67 5.31 21.73 1.06 43.73-9.89 65-5.56 5 1 9.85 2.64 14.9 3.37 7.61 1.09 19.78 4.52 27.45 4 19.75-1.24 39.55 1.25 54.77 1.62s52.23-2.67 60.23-2.67 18.68 2.21 32.34 3.61 37.66-.61 37.66-.61c6.6-.55 13 1 19.56 1.37 7.23.36 17.14.73 24-2.08 2.85-1.17 4.81-4.11 6.66-6.45a36.691 36.691 0 0 0 6.04-13.07z" fill="#fb0"/><path d="M322.875 121.272a.653.653 0 0 1-.075-.004.75.75 0 0 1-.672-.82c1.221-12.256 3.891-15.968 8.315-22.12l.89-1.241a.75.75 0 0 1 1.221.871l-.893 1.246c-4.423 6.15-6.858 9.538-8.041 21.393a.75.75 0 0 1-.745.675z" fill="#444"/><path d="M414.092 133.903a2.5 2.5 0 0 1-2.494-2.357 17.217 17.217 0 0 0-1.278-4.752 54.24 54.24 0 0 1-.756-2.147 29.32 29.32 0 0 1 4.367-26.038 2.5 2.5 0 0 1 4.026 2.967 24.294 24.294 0 0 0-3.626 21.563c.203.631.442 1.279.68 1.926a21.205 21.205 0 0 1 1.579 6.195 2.5 2.5 0 0 1-2.353 2.64l-.145.003zm-145.896-13.5a2.5 2.5 0 0 1-1.058-4.767c7.183-3.343 12.92-9.258 18.649-15.538a70.9 70.9 0 0 0 7.66-9.536 76.388 76.388 0 0 0 4.754-9.444c1.948-4.343 3.962-8.834 6.987-12.786 2.248-3.03 4.68-4.83 7.413-5.473a9.275 9.275 0 0 1 3.883-.094 2.5 2.5 0 0 1-.92 4.915 4.308 4.308 0 0 0-1.812.044c-1.54.363-3.034 1.545-4.57 3.617-2.695 3.52-4.504 7.553-6.419 11.823a81.184 81.184 0 0 1-5.122 10.118 75.678 75.678 0 0 1-8.201 10.228c-6.044 6.628-12.17 12.925-20.19 16.66a2.498 2.498 0 0 1-1.054.233z" style="isolation:isolate" fill="#444" opacity=".2"/><path d="M122.443 132.713a.75.75 0 0 1-.641-1.137c3.379-5.623 3.86-12.32 1.394-19.365a63.356 63.356 0 0 0-6.436-12.432.75.75 0 0 1 1.248-.833 64.872 64.872 0 0 1 6.597 12.748c2.626 7.502 2.098 14.636-1.518 20.655a.749.749 0 0 1-.644.364zm143.152-13.801a.75.75 0 0 1-.337-1.42 84.698 84.698 0 0 0 30.558-25.968.75.75 0 0 1 1.215.879 86.197 86.197 0 0 1-31.101 26.43.743.743 0 0 1-.335.08zm-53.962 19.17a.75.75 0 0 1-.133-1.487c8.847-1.6 11.797-5.19 15.878-10.157a67.34 67.34 0 0 1 7.93-8.468.75.75 0 1 1 .99 1.125 66.12 66.12 0 0 0-7.761 8.295c-4.123 5.019-7.38 8.983-16.77 10.68a.793.793 0 0 1-.134.012zm-161.298-15a.75.75 0 0 1-.732-.922c1.279-5.428 2.727-11.58 1.517-17.384a40.02 40.02 0 0 0-2.067-6.322l-3.808-9.81a.75.75 0 0 1 1.398-.543l3.8 9.79a41.402 41.402 0 0 1 2.141 6.558c1.283 6.15-.206 12.475-1.52 18.055a.751.751 0 0 1-.73.578zm97.378-3.619a.75.75 0 0 1-.617-1.175A51.386 51.386 0 0 1 173.24 98.68a101.172 101.172 0 0 1 10.343-2.583 88.115 88.115 0 0 0 11.467-2.98c.67-.241 1.34-.499 2.01-.757 2.924-1.125 5.943-2.292 9.162-2.127a.75.75 0 0 1 .711.787.733.733 0 0 1-.787.711c-2.893-.145-5.77.96-8.547 2.03-.681.261-1.361.523-2.042.767a89.246 89.246 0 0 1-11.663 3.036 100.35 100.35 0 0 0-10.187 2.541 49.88 49.88 0 0 0-25.375 19.033.75.75 0 0 1-.62.325zm266.221 20.44a.75.75 0 0 1-.682-1.06 8.009 8.009 0 0 0 .694-3.848c-.182-2.247-1.389-4.22-2.667-6.31a28.989 28.989 0 0 1-2.097-3.853 19.693 19.693 0 0 1-1.358-7.19 30.949 30.949 0 0 1 7.553-20.78.75.75 0 1 1 1.134.98 29.455 29.455 0 0 0-7.187 19.788 18.2 18.2 0 0 0 1.248 6.64 28.228 28.228 0 0 0 1.986 3.633c1.314 2.147 2.672 4.367 2.884 6.98a9.524 9.524 0 0 1-.825 4.58.749.749 0 0 1-.683.44z" fill="#444"/><path d="M49.627 122.433a2.53 2.53 0 0 1-.477-.046 2.5 2.5 0 0 1-1.981-2.929 42.34 42.34 0 0 0 .236-14.78 67.703 67.703 0 0 0-1.69-6.658l-1.962-6.793a2.5 2.5 0 1 1 4.803-1.388l1.95 6.75a72.225 72.225 0 0 1 1.82 7.207 47.427 47.427 0 0 1-.248 16.61 2.502 2.502 0 0 1-2.451 2.027z" style="isolation:isolate" fill="#444" opacity=".2"/></svg>