<svg xmlns="http://www.w3.org/2000/svg" viewBox="0 0 167.719 164.072"><circle cx="81.65" cy="82.964" r="56.746" fill="#f4f4f4"/><path d="M91.681 97.641l-2.568 2.568a3.718 3.718 0 0 1-4.968.278 146.647 146.647 0 0 1-11.71-10.531 146.77 146.77 0 0 1-10.532-11.708 3.721 3.721 0 0 1 .278-4.97l2.206-2.205L41.14 30.916c-.042.04-.093.065-.133.105L33.36 38.67c-5.338 5.337-5.424 15.1-.242 27.492C38.1 78.075 47.397 91.19 59.3 103.092s25.017 21.2 36.931 26.183c6.1 2.55 11.562 3.824 16.174 3.824 4.757 0 8.608-1.356 11.318-4.067l7.413-7.412z" fill="#fff"/><path d="M67.257 68.203a8.085 8.085 0 0 0 1.288-9.735L53.709 32.701a8.05 8.05 0 0 0-12.57-1.785l23.248 40.157z" fill="#febb12"/><path d="M64.387 72.029a1.037 1.037 0 0 1-.125-.008.96.96 0 0 1-.704-.47L40.31 31.395a.956.956 0 0 1 .166-1.169 9.006 9.006 0 0 1 14.061 1.997l14.837 25.768a9.042 9.042 0 0 1-1.442 10.887l-2.87 2.87a.952.952 0 0 1-.675.28zM42.362 31.12l22.23 38.395 1.99-1.989a7.127 7.127 0 0 0 1.134-8.58L52.879 33.18a7.089 7.089 0 0 0-10.517-2.059z" fill="#5b595b"/><path d="M131.37 121.385a8.072 8.072 0 0 0-1.68-12.703l-25.767-14.836a8.086 8.086 0 0 0-9.735 1.288l-2.507 2.507 39.454 23.979z" fill="#febb12"/><path d="M131.135 122.576a.96.96 0 0 1-.498-.14L91.183 98.458a.962.962 0 0 1-.452-.702.951.951 0 0 1 .275-.79l2.507-2.508a9.046 9.046 0 0 1 10.888-1.44l25.766 14.834a9.031 9.031 0 0 1 1.878 14.21l-.234.234a.949.949 0 0 1-.676.28zM93.22 97.456l37.761 22.949a7.117 7.117 0 0 0-1.768-10.895l-25.767-14.834a7.12 7.12 0 0 0-8.58 1.134z" fill="#5b595b"/><path d="M91.681 97.641l-2.568 2.568a3.718 3.718 0 0 1-4.968.278 146.647 146.647 0 0 1-11.71-10.531 146.77 146.77 0 0 1-10.532-11.708 3.721 3.721 0 0 1 .278-4.97l2.206-2.205L41.14 30.916c-.042.04-.093.065-.133.105L33.36 38.67c-5.338 5.337-5.424 15.1-.242 27.492C38.1 78.075 47.397 91.19 59.3 103.092s25.017 21.2 36.931 26.183c6.1 2.55 11.562 3.824 16.174 3.824 4.757 0 8.608-1.356 11.318-4.067l7.413-7.412z" fill="#fff"/><path d="M127.766 119.572l-4.405 4.404c-2.71 2.711-6.562 4.067-11.318 4.067-4.613 0-10.074-1.274-16.174-3.824-11.915-4.983-25.03-14.281-36.931-26.183s-21.2-25.017-26.181-36.931a49.887 49.887 0 0 1-3.43-11.738c-.125 4.743 1.12 10.41 3.79 16.794 4.982 11.914 14.28 25.03 26.181 36.931s25.018 21.2 36.932 26.183c6.1 2.55 11.562 3.824 16.174 3.824 4.757 0 8.608-1.356 11.318-4.067l7.413-7.412z" fill="#f4f4f4"/><path d="M61.821 68.222a3.72 3.72 0 0 0-.278 4.97c.122.153.262.302.386.455a3.496 3.496 0 0 1 .253-.369l2.205-2.205-1.986-3.43z" fill="#f4f4f4"/><path d="M112.404 134.055c-4.79 0-10.356-1.31-16.543-3.897-12.028-5.032-25.253-14.404-37.238-26.39C46.635 91.78 37.263 78.556 32.234 66.53c-5.34-12.775-5.182-22.909.45-28.538l7.646-7.648a2.007 2.007 0 0 1 .188-.156.906.906 0 0 1 .775-.241.946.946 0 0 1 .673.489l23.249 40.156a.954.954 0 0 1-.152 1.155l-2.206 2.205a2.767 2.767 0 0 0-.208 3.695 145.906 145.906 0 0 0 10.462 11.63A145.134 145.134 0 0 0 84.745 99.74a2.764 2.764 0 0 0 3.692-.208l2.569-2.569a.96.96 0 0 1 1.173-.14l39.454 23.978a.962.962 0 0 1 .452.703.951.951 0 0 1-.274.79l-7.414 7.412c-2.881 2.886-6.916 4.348-11.993 4.348zM40.934 32.471l-6.899 6.874C28.991 44.39 28.977 53.782 34 65.791c4.935 11.802 14.16 24.809 25.975 36.625 11.814 11.813 24.82 21.039 36.623 25.976 11.927 4.986 21.434 4.978 26.447-.036l6.553-6.553L91.826 98.85l-2.037 2.037a4.674 4.674 0 0 1-6.243.345 146.844 146.844 0 0 1-11.788-10.6 147.696 147.696 0 0 1-10.6-11.784 4.676 4.676 0 0 1 .348-6.246l1.685-1.686z" fill="#5b595b"/><path d="M63.895 36.44a.957.957 0 0 1-.79-1.494l6.89-10.162a.956.956 0 0 1 1.582 1.072l-6.89 10.164a.955.955 0 0 1-.792.42zm4.598 8.017a.957.957 0 0 1-.53-1.753l12.03-7.983a.956.956 0 0 1 1.058 1.593L69.02 44.297a.95.95 0 0 1-.527.16zm6.894 7.545c-.225 0-.455-.001-.69-.005a.957.957 0 0 1-.942-.972.912.912 0 0 1 .972-.941 39.172 39.172 0 0 0 7.208-.572 39.99 39.99 0 0 1 7.528-.594.955.955 0 0 1 .94.971.902.902 0 0 1-.97.942 36.789 36.789 0 0 0-7.207.571 40.545 40.545 0 0 1-6.839.6zm57.898 45.492a.957.957 0 0 1-.686-1.625l8.572-8.791a.958.958 0 0 1 1.372 1.337l-8.572 8.79a.958.958 0 0 1-.686.29zm-8.779-2.891a.957.957 0 0 1-.886-1.315l5.406-13.389a.956.956 0 0 1 1.774.717l-5.407 13.388a.956.956 0 0 1-.887.599zm-8.633-4.58a.959.959 0 0 1-.936-.75 40.345 40.345 0 0 1-.93-7.495 37.817 37.817 0 0 0-.886-7.175.958.958 0 0 1 1.87-.414 40.354 40.354 0 0 1 .93 7.495 37.816 37.816 0 0 0 .886 7.175.96.96 0 0 1-.935 1.164z" fill="#febb12"/></svg>