<svg xmlns="http://www.w3.org/2000/svg" viewBox="0 0 315.75 266.68"><defs><style>.cls-2{fill:#fff}.cls-3{fill:#eee}.cls-4{fill:#777}.cls-5{fill:#fb0}.cls-7{fill:#ddd}</style></defs><g id="Layer_2" data-name="Layer 2"><path d="M239.44 227.92C248 216.5 257 204.86 269.2 197.53c9.76-5.85 21.28-8.75 30-16 13.71-11.39 17.55-31 16.28-48.81C312 83 272.1 38.22 223.17 28.91 197.52 24 171 28.08 145 25.89c-25.6-2.16-50.56-10.36-76.25-10.66S14.59 25.12 4.1 48.58s.59 50.92 16 71.37S55.47 157.8 66.4 181c7.24 15.32 10.16 32.51 18.36 47.34 16.32 29.51 46.16 37 77.24 37.77 13.53.35 26.39 2.2 39.48-2.89 16.59-6.49 27.65-21.55 37.96-35.3z" fill="#fafafa"/><path class="cls-2" d="M107.29 112.64C94 122.2 87.4 139.31 88 155.67s7.71 31.94 17.33 45.19 21.74 24.44 33.77 35.54a230.06 230.06 0 0 1-1.69-70.18c1.22-9.35 3.85-19.84 12.12-24.36z"/><path class="cls-3" d="M120.29 148.48a229.69 229.69 0 0 0 1.71 70.17c-3.19-3-6.4-5.91-9.56-8.92 8.18 9.54 17.46 18.14 26.71 26.67a230.06 230.06 0 0 1-1.69-70.18c1.22-9.35 3.85-19.84 12.12-24.36l-21.22-14.66c-5.15 5.29-7.08 13.66-8.07 21.28z"/><path class="cls-2" d="M155.43 66.13c10-12.95 27.34-19 43.67-17.78s31.66 8.8 44.56 18.88 23.68 22.57 34.36 35A230 230 0 0 0 208 98.1c-9.39.89-20 3.16-24.77 11.27z"/><path class="cls-3" d="M260.88 84.46a229.75 229.75 0 0 0-70.08-4.11c-7.65.73-16.07 2.37-21.54 7.33l13.92 21.69C188 101.26 198.56 99 208 98.1a230 230 0 0 1 70 4.1c-8.21-9.53-16.48-19.11-25.73-27.61 2.92 3.27 5.73 6.57 8.61 9.87z"/><path class="cls-4" d="M139.12 237.71a1.32 1.32 0 0 1-.89-.35c-11.9-11-24.21-22.35-33.94-35.73-10.93-15-17-30.92-17.58-45.91-.67-17.94 6.92-34.86 19.82-44.15a1.33 1.33 0 0 1 1.5 0l42.26 29.22a1.31 1.31 0 0 1-.11 2.22c-8.11 4.44-10.42 15.48-11.45 23.39a227.78 227.78 0 0 0 1.68 69.78 1.31 1.31 0 0 1-1.29 1.54zm-31.81-123.47c-11.74 8.9-18.61 24.65-18 41.38.55 14.47 6.45 29.85 17.08 44.47 8.81 12.13 19.86 22.64 30.77 32.74a230.64 230.64 0 0 1-1.05-66.78c1-7.91 3.3-18.76 11-24.25zm75.87-3.56a1.33 1.33 0 0 1-1.11-.6l-27.74-43.25a1.31 1.31 0 0 1 .07-1.51c9.73-12.57 26.88-19.56 44.79-18.27 15 1.08 30.62 7.7 45.28 19.14 13 10.2 24 22.89 34.55 35.16a1.31 1.31 0 0 1 .13 1.52 1.3 1.3 0 0 1-1.4.61 228.1 228.1 0 0 0-69.68-4.08c-7.94.76-19 2.68-23.77 10.64a1.31 1.31 0 0 1-1.1.64zM157 66.21L183.2 107c5.76-7.55 16.68-9.44 24.62-10.19a230 230 0 0 1 66.7 3.34c-9.71-11.25-19.84-22.65-31.66-31.88C228.61 57.13 213.45 50.7 199 49.66c-16.69-1.22-32.66 5.12-42 16.55z"/><path class="cls-5" d="M235.54 177.92c-6.6-4-14.79-7.78-20-13.54L206 176.21c1 14.81 12.18 28.37 26.52 32.22a11.22 11.22 0 0 1-6-6.22 31.44 31.44 0 0 0 15.6 6.26c5.61.61 13.67 6.27 16.92 10.88-.89-5.77-8.87-17.13-17.14-28.5l7.69 1.92C245 186 242 181.81 235.54 177.92z"/><path d="M208.18 176.18l8.65 12.55c1.59 2.31 3.81 4.91 6.58 4.46l-3.21-5.52 11.32 8.9-3.52-8.82 6.87 4.76a28.42 28.42 0 0 0-9-12.18c-2.23-1.65-4.76-2.86-7.07-4.39a13.73 13.73 0 0 1-5.5-6.08" fill="#fa0"/><path class="cls-7" d="M218.75 164.77s1.93 4-4.56 10.25-10.4 4.21-10.4 4.21l-10.5-5.66 20.6-19.91z"/><path class="cls-2" d="M216.08 162s1.93 4-4.56 10.24-10.39 4.21-10.39 4.21l-7-3.75-.87.85 10.5 5.66s3.91 2.06 10.4-4.21 4.56-10.25 4.56-10.25l-4.86-11.11-1 1z"/><path class="cls-4" d="M205.54 180.85a5.36 5.36 0 0 1-2.36-.46l-10.52-5.67a1.27 1.27 0 0 1-.67-1 1.3 1.3 0 0 1 .38-1.12L213 152.72a1.31 1.31 0 0 1 2.11.42l4.89 11.11c.23.54 2 5.14-4.86 11.71-4.22 4.04-7.54 4.89-9.6 4.89zm-1.13-2.78s3.27 1.41 8.86-4 4.3-8.74 4.28-8.77l1.2-.54-1.2.53-4.11-9.39-18 17.36 8.93 4.8z"/><path class="cls-2" d="M86.46 6.9a60.79 60.79 0 0 1-11.27 19.15 61.08 61.08 0 0 1-24.36 16.76c10.86 34.21 44 84.77 138.81 132.36 0 0 8.77 4.19 19.05-5.74s6.4-18.85 6.4-18.85C170.29 53.08 120.3 18.56 86.46 6.9z"/><path class="cls-2" d="M86.46 6.9a60.79 60.79 0 0 1-11.27 19.15 61.08 61.08 0 0 1-24.36 16.76c10.86 34.21 44 84.77 138.81 132.36 0 0 8.77 4.19 19.05-5.74s6.4-18.85 6.4-18.85C170.29 53.08 120.3 18.56 86.46 6.9z"/><path class="cls-3" d="M87.73 13.94a58.58 58.58 0 0 0 3.94-5.09c-1.77-.71-3.52-1.37-5.21-1.95a61.4 61.4 0 0 1-8.95 16.23 59.9 59.9 0 0 0 10.22-9.19zm114.45 149.12C111.48 117.54 77.25 69.32 64.93 35.27a61.91 61.91 0 0 1-14.1 7.54c10.86 34.21 44 84.77 138.81 132.36 0 0 8.77 4.19 19.05-5.74a25.2 25.2 0 0 0 5.3-7.07c-6.84 3.07-11.81.7-11.81.7z"/><path class="cls-4" d="M194.48 177.37a13.22 13.22 0 0 1-5.4-1c-95.59-48-128.62-98.88-139.5-133.14a1.31 1.31 0 0 1 .79-1.62 59.89 59.89 0 0 0 23.84-16.4 59.29 59.29 0 0 0 11-18.74 1.32 1.32 0 0 1 1.65-.79c34.2 11.76 84.4 46.37 129.42 144.32.18.42 4.13 9.89-6.68 20.33-5.88 5.67-11.31 7.04-15.12 7.04zM52.45 43.58C63.56 77.35 96.57 127 190.23 174c.3.13 8.11 3.61 17.55-5.52s6.25-17 6.11-17.38c-44.1-96-93-130.54-126.66-142.54a61.49 61.49 0 0 1-11 18.35 62.21 62.21 0 0 1-23.78 16.67z"/><path class="cls-3" d="M75.19 26.05A60.79 60.79 0 0 0 86.46 6.9a96.61 96.61 0 0 0-29.34-5.59A11 11 0 0 0 45.9 12.15a97.09 97.09 0 0 0 4.93 30.66 61.08 61.08 0 0 0 24.36-16.76z"/><path class="cls-7" d="M79 18.27a59.85 59.85 0 0 1-11.2 9.87A10.88 10.88 0 0 1 51.08 21a87.67 87.67 0 0 1-1.43-16.63v-.33a11 11 0 0 0-3.79 8.11 97.09 97.09 0 0 0 4.93 30.66 61.08 61.08 0 0 0 24.4-16.76A60.37 60.37 0 0 0 85.61 8.94 59.48 59.48 0 0 1 79 18.27z"/><path class="cls-4" d="M50.83 44.12a1.4 1.4 0 0 1-.57-.13 1.34 1.34 0 0 1-.68-.78 98.31 98.31 0 0 1-5-31.08A12.29 12.29 0 0 1 57.14 0a97.59 97.59 0 0 1 29.74 5.66 1.32 1.32 0 0 1 .81 1.69 61.81 61.81 0 0 1-11.51 19.56A62.32 62.32 0 0 1 51.29 44a1.25 1.25 0 0 1-.46.12zm6.08-41.5a9.68 9.68 0 0 0-9.7 9.55 94.8 94.8 0 0 0 4.45 28.91 59.64 59.64 0 0 0 22.55-15.89A59 59 0 0 0 84.75 7.7 94.2 94.2 0 0 0 57.1 2.62zm18.28 23.43z"/><circle class="cls-5" cx="95.68" cy="52.45" r="13.06"/><circle class="cls-5" cx="124.93" cy="82.73" r="7.84"/><path class="cls-5" d="M172.67 188.38a1.33 1.33 0 0 1-.94-.39l-2.57-2.67a1.31 1.31 0 1 1 1.84-1.82l2.57 2.67a1.3 1.3 0 0 1-.94 2.21zm45.59 47.19a1.3 1.3 0 0 1-.94-.4l-22.79-23.59a1.31 1.31 0 1 1 1.88-1.82l22.79 23.59a1.31 1.31 0 0 1-.94 2.22zM232.23 250a1.33 1.33 0 0 1-.94-.39l-2.57-2.61a1.31 1.31 0 1 1 1.88-1.82l2.57 2.67a1.3 1.3 0 0 1-.94 2.21zm-12.95-29.21a1.34 1.34 0 0 1-.94-.4l-2.57-2.66a1.31 1.31 0 1 1 1.88-1.82l2.57 2.66a1.31 1.31 0 0 1-.94 2.22zm26.52 27.44a1.28 1.28 0 0 1-.94-.4l-13.26-13.72a1.31 1.31 0 1 1 1.88-1.82L246.74 246a1.31 1.31 0 0 1 0 1.85 1.29 1.29 0 0 1-.94.38zm9.2 9.52a1.28 1.28 0 0 1-.94-.4l-2.58-2.66a1.31 1.31 0 0 1 1.89-1.82l2.57 2.66a1.3 1.3 0 0 1-.94 2.22zm-29.7-120.21a1.3 1.3 0 0 1-1-.4l-2.57-2.66a1.31 1.31 0 0 1 1.89-1.82l2.57 2.66a1.31 1.31 0 0 1-.94 2.22zm44.64 46.2a1.28 1.28 0 0 1-.94-.4l-22.32-23.1a1.31 1.31 0 1 1 1.88-1.82l22.32 23.1a1.31 1.31 0 0 1-.94 2.22zM283.67 198a1.28 1.28 0 0 1-.94-.4l-2.57-2.66a1.31 1.31 0 0 1 1.88-1.82l2.57 2.66a1.31 1.31 0 0 1 0 1.85 1.29 1.29 0 0 1-.94.37zm-9.23 10.91a1.3 1.3 0 0 1-.94-.4l-2.57-2.66a1.31 1.31 0 0 1 1.88-1.82l2.57 2.66a1.31 1.31 0 0 1 0 1.85 1.28 1.28 0 0 1-.94.37zM300.57 236a1.3 1.3 0 0 1-.94-.4L286.57 222a1.31 1.31 0 1 1 1.88-1.82l13.06 13.52a1.3 1.3 0 0 1 0 1.85 1.28 1.28 0 0 1-.94.45zm9.11 9.39a1.3 1.3 0 0 1-.94-.4l-2.58-2.67a1.31 1.31 0 0 1 1.89-1.82l2.57 2.67a1.31 1.31 0 0 1 0 1.85 1.36 1.36 0 0 1-.94.37z"/></g></svg>