<svg xmlns="http://www.w3.org/2000/svg" viewBox="0 0 189.37 194.81"><title>3Artboard 63</title><path d="M164.37,66.85c-27.16-18.13-58.71-14.42-89.53-17.91-13.2-1.5-26.91-4.6-40.45-3.5C23,46.36,7.78,50.62,4.65,63.36,1.82,74.89,4.81,87.74,8.3,98.77c10,31.74,29.22,60.4,60.3,74.52,27.67,12.56,58.81,7.79,83.44-9.25,17.52-12.11,31.4-31.84,34.08-51.6C188.37,95.76,182.64,79.05,164.37,66.85Z" style="fill:#f5f5f5"/><path d="M68.27,78.25c-8.66,6.22-12.95,17.37-12.56,28s5,20.8,11.29,29.43,14.16,15.92,22,23.15a150.06,150.06,0,0,1-1.1-45.71c.8-6.09,2.51-12.93,7.9-15.87Z" style="fill:#fff"/><path d="M76.74,101.59a149.73,149.73,0,0,0,1.11,45.71c-2.07-2-4.16-3.85-6.22-5.81A208.18,208.18,0,0,0,89,158.86a149.74,149.74,0,0,1-1.11-45.71c.8-6.09,2.51-12.93,7.9-15.87L82,87.73c-3.36,3.45-4.61,8.9-5.26,13.86Z" style="fill:#eee"/><path d="M99.63,48c6.51-8.44,17.81-12.38,28.45-11.58s20.62,5.73,29,12.3,15.43,14.7,22.39,22.8a149.63,149.63,0,0,0-45.61-2.7c-6.12.58-13,2.06-16.14,7.35Z" style="fill:#fff"/><path d="M168.32,59.89a149.55,149.55,0,0,0-45.65-2.68c-5,.48-10.47,1.55-14,4.78l9.07,14.13c3.14-5.29,10-6.76,16.17-7.35a149.81,149.81,0,0,1,45.59,2.68,209.75,209.75,0,0,0-16.76-18C164.62,55.59,166.45,57.74,168.32,59.89Z" style="fill:#eee"/><path d="M89,159.72a.82.82,0,0,1-.58-.23c-7.76-7.17-15.77-14.56-22.11-23.27-7.12-9.78-11.08-20.15-11.45-29.91-.44-11.69,4.5-22.71,12.91-28.76a.86.86,0,0,1,1,0l27.53,19a.85.85,0,0,1,.22,1.19.89.89,0,0,1-.29.26c-5.28,2.89-6.79,10.08-7.46,15.24a148.37,148.37,0,0,0,1.1,45.45.85.85,0,0,1-.69,1ZM68.28,79.29c-7.64,5.8-12.12,16.06-11.72,26.95.36,9.43,4.2,19.45,11.13,29,5.73,7.9,12.93,14.75,20,21.33a149.93,149.93,0,0,1-.68-43.5c.65-5.15,2.15-12.22,7.16-15.8ZM117.71,77a.89.89,0,0,1-.73-.39L98.91,48.41a.87.87,0,0,1,0-1c6.34-8.19,17.51-12.74,29.18-11.9,9.77.7,19.94,5,29.49,12.47,8.47,6.64,15.64,14.91,22.51,22.9a.84.84,0,0,1,.08,1,.83.83,0,0,1-.91.4,148.49,148.49,0,0,0-45.39-2.66c-5.17.5-12.38,1.75-15.48,6.93a.85.85,0,0,1-.72.42ZM100.65,48l17.07,26.57c3.75-4.92,10.87-6.15,16-6.64a149.76,149.76,0,0,1,43.45,2.18c-6.33-7.33-12.93-14.75-20.63-20.77C147.3,42.09,137.43,37.9,128,37.22,117.14,36.43,106.74,40.56,100.65,48Z" style="fill:#444"/><path d="M151.82,120.77c-4.3-2.61-9.64-5.07-13-8.82l-6.22,7.71a24,24,0,0,0,17.28,21,7.3,7.3,0,0,1-3.91-4,20.43,20.43,0,0,0,10.16,4.08c3.66.4,8.91,4.09,11,7.09-.58-3.76-5.77-11.16-11.16-18.57l5,1.25C158,126,156,123.3,151.82,120.77Z" style="fill:#fb0"/><path d="M140.88,112.2s1.26,2.61-3,6.68-6.78,2.74-6.78,2.74l-6.84-3.68,13.42-13Z" style="fill:#ddd"/><path d="M139.14,110.4s1.26,2.61-3,6.67-6.77,2.74-6.77,2.74l-4.56-2.44-.57.55,6.84,3.69s2.55,1.34,6.78-2.74,3-6.68,3-6.68L137.69,105l-.65.66Z" style="fill:#fff"/><path d="M132.27,122.68a3.49,3.49,0,0,1-1.53-.3l-6.86-3.69a.83.83,0,0,1-.43-.66.86.86,0,0,1,.24-.73l13.44-13a.86.86,0,0,1,1.21,0,.85.85,0,0,1,.17.25l3.18,7.24c.15.35,1.31,3.34-3.16,7.62C135.78,122.13,133.61,122.68,132.27,122.68Zm-.73-1.81s2.13.92,5.77-2.61,2.8-5.69,2.79-5.71l.78-.35-.78.34-2.68-6.11-11.73,11.3,5.82,3.13Z" style="fill:#444"/><path d="M54.7,9.37a39.65,39.65,0,0,1-7.34,12.47A39.81,39.81,0,0,1,31.49,32.76C38.57,55,60.16,88,121.92,119c0,0,5.71,2.73,12.4-3.74S138.49,103,138.49,103C109.31,39.45,76.75,17,54.7,9.37Z" style="fill:#fff"/><path d="M54.7,9.37a39.65,39.65,0,0,1-7.34,12.47A39.81,39.81,0,0,1,31.49,32.76C38.57,55,60.16,88,121.92,119c0,0,5.71,2.73,12.4-3.74S138.49,103,138.49,103C109.31,39.45,76.75,17,54.7,9.37Z" style="fill:#fff"/><path d="M116.4,105c-4.8-3.48-9.73-6.78-14.63-9.93q-8.07-5.16-15.7-11A171,171,0,0,1,61,61,118.27,118.27,0,0,1,48.07,43.33c-.75-1.26-8.44-14.74-7.39-15.48a41,41,0,0,1-9.19,4.91C38.57,55,60.16,88,121.92,119a4.73,4.73,0,0,0,.47.18c3.72,1.2,4.1-3.23,3.35-5.76C124.48,109.18,119.66,107.35,116.4,105Z" style="fill:#eee"/><path d="M125.07,120.41a8.64,8.64,0,0,1-3.52-.65C59.28,88.49,37.77,55.35,30.68,33A.85.85,0,0,1,31.19,32,38.92,38.92,0,0,0,46.72,21.29a38.71,38.71,0,0,0,7.17-12.2A.86.86,0,0,1,55,8.57c22.28,7.66,55,30.21,84.31,94,.12.28,2.69,6.45-4.35,13.25-3.83,3.69-7.37,4.58-9.85,4.58ZM32.55,33.26c7.24,22,28.74,54.34,89.75,85,.2.08,5.28,2.35,11.43-3.6s4.07-11.07,4-11.32C109,40.76,77.13,18.26,55.2,10.45A39.93,39.93,0,0,1,48,22.4,40.6,40.6,0,0,1,32.55,33.26Z" style="fill:#444"/><path d="M47.36,21.84A39.65,39.65,0,0,0,54.7,9.37,63,63,0,0,0,35.59,5.72a7.18,7.18,0,0,0-7.31,7v0a63.34,63.34,0,0,0,3.21,20A39.81,39.81,0,0,0,47.36,21.84Z" style="fill:#eee"/><path d="M49.84,16.77a38.81,38.81,0,0,1-7.29,6.43,7.07,7.07,0,0,1-10.89-4.65,57,57,0,0,1-.94-10.83V7.5a7.15,7.15,0,0,0-2.46,5.29,63.06,63.06,0,0,0,3.21,20A39.75,39.75,0,0,0,47.36,21.84a39.33,39.33,0,0,0,6.79-11.15A38.65,38.65,0,0,1,49.84,16.77Z" style="fill:#ddd"/><path d="M31.49,33.61a1,1,0,0,1-.37-.08.88.88,0,0,1-.44-.51,63.93,63.93,0,0,1-3.26-20.25,8,8,0,0,1,8.11-7.9h.07A63.8,63.8,0,0,1,55,8.56a.86.86,0,0,1,.53,1.09h0A40.35,40.35,0,0,1,48,22.4,40.56,40.56,0,0,1,31.79,33.53.74.74,0,0,1,31.49,33.61Zm4-27a6.29,6.29,0,0,0-6.31,6.22A61.69,61.69,0,0,0,32,31.63,38.79,38.79,0,0,0,46.72,21.28,38.29,38.29,0,0,0,53.59,9.89a61.16,61.16,0,0,0-18-3.31Z" style="fill:#444"/><circle cx="60.71" cy="39.04" r="8.51" style="fill:#fb0"/><circle cx="79.76" cy="58.76" r="5.11" style="fill:#fb0"/><path d="M110.86,127.58a.86.86,0,0,1-.61-.25l-1.68-1.74a.85.85,0,1,1,1-1.37.66.66,0,0,1,.18.19l1.68,1.73a.86.86,0,0,1,0,1.2.81.81,0,0,1-.6.24Zm29.7,30.74a.83.83,0,0,1-.61-.26L125.1,142.7a.86.86,0,1,1,1.17-1.25l.06.06,14.84,15.37a.84.84,0,0,1,0,1.2.82.82,0,0,1-.59.24Zm9.1,9.4a.86.86,0,0,1-.61-.25l-1.68-1.7a.86.86,0,1,1,1.17-1.25l.06.06,1.67,1.74a.85.85,0,0,1-.61,1.44Zm-8.44-19a.92.92,0,0,1-.61-.26l-1.67-1.74a.85.85,0,1,1,1.16-1.24s0,0,.06.06l1.68,1.73a.86.86,0,0,1,0,1.21A.85.85,0,0,1,141.22,148.7Zm17.28,17.87a.83.83,0,0,1-.61-.26l-8.64-8.94a.84.84,0,0,1,0-1.2.83.83,0,0,1,1.2,0l.06.06,8.64,8.93a.85.85,0,0,1,0,1.2A.79.79,0,0,1,158.5,166.57Zm-13.36-72.1a.88.88,0,0,1-.65-.26l-1.67-1.74a.85.85,0,0,1,0-1.21.86.86,0,0,1,1.21,0L145.72,93a.85.85,0,0,1,0,1.21.87.87,0,0,1-.59.24Zm29.08,30.09a.83.83,0,0,1-.61-.26l-14.54-15a.85.85,0,1,1,1.17-1.24l.06.06,14.54,15.05a.86.86,0,0,1,0,1.2A.85.85,0,0,1,174.22,124.56Zm8.95,9.29a.82.82,0,0,1-.61-.26l-1.68-1.73a.86.86,0,0,1,1.23-1.19l1.67,1.73a.86.86,0,0,1,0,1.21A.81.81,0,0,1,183.17,133.85Zm-6,7.11a.88.88,0,0,1-.62-.26L174.87,139a.85.85,0,0,1,1.22-1.18l1.68,1.73a.86.86,0,0,1,0,1.21A.89.89,0,0,1,177.16,141Z" style="fill:#fb0"/><path d="M171.17,180.43a.86.86,0,0,1-.61-.25l-1.68-1.7a.86.86,0,1,1,1.17-1.25l.06.06,1.67,1.74a.85.85,0,0,1-.61,1.44Zm8.84-1.15a.83.83,0,0,1-.61-.26l-8.64-8.94a.85.85,0,0,1,0-1.2.84.84,0,0,1,1.2,0,.13.13,0,0,1,.06.07l8.64,8.93a.85.85,0,0,1,0,1.2A.86.86,0,0,1,180,179.28Z" style="fill:#fb0"/><path d="M24.72,36.43c3.58-15.07-19.35-23-23-7.8S21.11,51.6,24.72,36.43Z" style="fill:#f5f5f5"/><path d="M171.74,152.53a.85.85,0,0,1,1.16-1.25l.06.06,8.51,8.81a.85.85,0,0,1,0,1.2h0a.86.86,0,0,1-.61.3.87.87,0,0,1-.61-.26" style="fill:#fb0"/></svg>