<svg xmlns="http://www.w3.org/2000/svg" viewBox="0 0 154.506 116.953"><path d="M34.406 56.043c1.09 5.325 2.131 10.832 1.136 16.16-.8 4.26-2.886 8.276-3.024 12.593-.22 6.785 4.396 12.836 9.791 16.976 15.046 11.576 37.89 11.526 52.911-.061 7.883-6.067 13.423-14.655 20.62-21.51 7.086-6.747 15.731-11.786 22.31-19.03s10.872-17.931 6.84-26.85-14.658-12.703-24.38-13.481-19.725.51-29.098-2.24c-6.194-1.81-11.83-5.323-18.128-6.735-12.534-2.81-22.21 3.8-30.286 12.46-3.52 3.767-7.297 6.963-9.156 11.98-2.344 6.367-.849 13.324.463 19.738z" fill="#f2f2f3"/><path d="M142.395 70.721l2.214-.498a24.163 24.163 0 0 0-1.552-4.645l-2.069.932a22.224 22.224 0 0 0-2.452-4.175l1.813-1.354a24.66 24.66 0 0 0-3.305-3.608l-1.511 1.689a22.293 22.293 0 0 0-3.94-2.817l1.112-1.979a24.599 24.599 0 0 0-4.489-1.959l-.694 2.16a22.166 22.166 0 0 0-4.748-.965l.208-2.259a24.931 24.931 0 0 0-4.888.036l.24 2.254a22.182 22.182 0 0 0-4.729 1.041l-.726-2.15a24.534 24.534 0 0 0-4.46 2.027l1.144 1.962a22.394 22.394 0 0 0-3.898 2.874l-1.536-1.666a24.738 24.738 0 0 0-3.25 3.658l1.838 1.33a22.207 22.207 0 0 0-2.397 4.209l-2.081-.899a24.413 24.413 0 0 0-1.481 4.67l2.218.463a22.326 22.326 0 0 0-.475 4.574c0 .082.007.165.007.247l-2.267.025a24.491 24.491 0 0 0 .536 4.861l2.219-.472a22.06 22.06 0 0 0 1.525 4.595l-2.06.948a24.44 24.44 0 0 0 2.476 4.22l1.83-1.337a22.491 22.491 0 0 0 3.264 3.579l-1.5 1.7a24.63 24.63 0 0 0 3.975 2.857l1.134-1.967a22.05 22.05 0 0 0 4.432 1.951l-.676 2.161a24.373 24.373 0 0 0 4.796.986l.232-2.251a22.64 22.64 0 0 0 2.299.118 22.124 22.124 0 0 0 2.544-.15l.258 2.253a24.33 24.33 0 0 0 4.784-1.04l-.703-2.156a22.156 22.156 0 0 0 4.414-1.995l1.155 1.952a24.698 24.698 0 0 0 3.941-2.899L135.6 92.13a22.329 22.329 0 0 0 3.222-3.618l1.846 1.319a24.365 24.365 0 0 0 2.432-4.249l-2.073-.924a22.087 22.087 0 0 0 1.474-4.588l2.12.423a24.715 24.715 0 0 0 .382-4.867h-2.056a22.179 22.179 0 0 0-.551-4.904" fill="#fcb918"/><path d="M12.03 37.235l-2.713-.814a18.98 18.98 0 0 0-.547 2.371l2.795.456a16.405 16.405 0 0 0-.213 2.611c0 .211.008.417.016.625l-2.832.108a19.28 19.28 0 0 0 .246 2.416l2.796-.468a16.09 16.09 0 0 0 .86 3.128l-2.645 1.024a19.19 19.19 0 0 0 1.022 2.203l2.486-1.354a16.172 16.172 0 0 0 1.833 2.678l-2.165 1.825a18.8 18.8 0 0 0 1.679 1.753l1.915-2.087a16.023 16.023 0 0 0 2.598 1.944L17.7 58.08a18.52 18.52 0 0 0 2.16 1.117l1.137-2.595a15.966 15.966 0 0 0 3.088.993l-.587 2.771a19.18 19.18 0 0 0 2.401.35l.231-2.827c.432.036.868.059 1.31.059a16.177 16.177 0 0 0 1.93-.12l.338 2.815a19.103 19.103 0 0 0 2.39-.443l-.694-2.745a15.937 15.937 0 0 0 3.045-1.112l1.235 2.547a18.82 18.82 0 0 0 2.114-1.198l-1.555-2.37a16.091 16.091 0 0 0 2.524-2.04l1.994 2.012a19.108 19.108 0 0 0 1.61-1.817l-2.236-1.742a16.019 16.019 0 0 0 1.725-2.746l2.54 1.256A19.099 19.099 0 0 0 45.339 48l-2.682-.92a15.96 15.96 0 0 0 .732-3.147l2.741.192a20.028 20.028 0 0 0 .079-2.576h-2.682a17.997 17.997 0 0 0-.34-3.137l2.774-.5a18.503 18.503 0 0 0-.649-2.305l-2.678.95m0 .02a15.867 15.867 0 0 0-1.368-2.941l2.434-1.45a18.864 18.864 0 0 0-1.374-2.002l-2.23 1.75a16.144 16.144 0 0 0-2.248-2.337l1.833-2.16a18.796 18.796 0 0 0-1.947-1.45l-1.544 2.377a16.051 16.051 0 0 0-2.884-1.484l1.033-2.64a18.961 18.961 0 0 0-2.317-.74l-.685 2.75a16.048 16.048 0 0 0-3.21-.46l.118-2.83a18.952 18.952 0 0 0-2.423.05l.24 2.826a15.973 15.973 0 0 0-3.187.598l-.803-2.719a18.654 18.654 0 0 0-2.283.84l1.146 2.592a16.12 16.12 0 0 0-2.815 1.605l-1.645-2.307a19.19 19.19 0 0 0-1.885 1.531l1.925 2.08a16.28 16.28 0 0 0-2.145 2.431l-2.3-1.655a18.922 18.922 0 0 0-1.29 2.062l2.492 1.344a16.014 16.014 0 0 0-1.242 2.997" fill="#cccccb"/><path d="M25.9 61.3a.53.53 0 0 1-.048-.002 19.698 19.698 0 0 1-2.475-.36.585.585 0 0 1-.45-.693l.468-2.21a16.617 16.617 0 0 1-2.093-.674l-.906 2.07a.585.585 0 0 1-.77.301A19.16 19.16 0 0 1 17.4 58.58a.583.583 0 0 1-.197-.8l1.163-1.935a16.473 16.473 0 0 1-1.76-1.316l-1.528 1.663a.584.584 0 0 1-.824.036 19.42 19.42 0 0 1-1.73-1.807.583.583 0 0 1 .07-.823l1.726-1.455a16.793 16.793 0 0 1-1.242-1.814l-1.982 1.08a.583.583 0 0 1-.793-.234 19.788 19.788 0 0 1-1.053-2.27.584.584 0 0 1 .333-.757l2.11-.817a16.715 16.715 0 0 1-.583-2.12l-2.23.374a.584.584 0 0 1-.673-.481 20.02 20.02 0 0 1-.254-2.49.584.584 0 0 1 .561-.606l2.255-.086v-.062a16.771 16.771 0 0 1 .138-2.127l-2.23-.364a.585.585 0 0 1-.482-.67 19.549 19.549 0 0 1 .564-2.445.588.588 0 0 1 .282-.346.595.595 0 0 1 .445-.046l2.163.65a16.681 16.681 0 0 1 .841-2.031l-1.987-1.073a.585.585 0 0 1-.237-.79 19.666 19.666 0 0 1 1.329-2.126.586.586 0 0 1 .38-.236.573.573 0 0 1 .435.102l1.835 1.32a17.017 17.017 0 0 1 1.453-1.647l-1.536-1.658a.583.583 0 0 1 .033-.826 19.477 19.477 0 0 1 1.943-1.579.583.583 0 0 1 .813.138l1.312 1.84a16.838 16.838 0 0 1 1.907-1.088l-.914-2.067a.585.585 0 0 1 .297-.77 19.215 19.215 0 0 1 2.353-.866.583.583 0 0 1 .726.395l.642 2.168a16.631 16.631 0 0 1 2.159-.405l-.192-2.253a.584.584 0 0 1 .532-.631 19.89 19.89 0 0 1 2.498-.053.583.583 0 0 1 .558.608l-.094 2.258a16.69 16.69 0 0 1 2.175.311l.547-2.193a.583.583 0 0 1 .708-.426 19.474 19.474 0 0 1 2.388.763.584.584 0 0 1 .33.756l-.824 2.106a16.77 16.77 0 0 1 1.956 1.005l1.23-1.895a.583.583 0 0 1 .809-.172 19.583 19.583 0 0 1 2.007 1.495.585.585 0 0 1 .067.823l-1.463 1.723a16.917 16.917 0 0 1 1.522 1.583l1.78-1.396a.585.585 0 0 1 .819.099 19.505 19.505 0 0 1 1.417 2.064.584.584 0 0 1-.203.8l-1.942 1.157a16.36 16.36 0 0 1 .92 1.97l2.14-.758a.584.584 0 0 1 .748.358 18.75 18.75 0 0 1 .667 2.378.583.583 0 0 1-.467.694l-2.197.396a20.32 20.32 0 0 1 .226 2.082h2.115a.584.584 0 0 1 .584.584l.001.487a16.135 16.135 0 0 1-.085 2.163.582.582 0 0 1-.62.508l-2.199-.153a16.728 16.728 0 0 1-.501 2.16l2.14.734a.585.585 0 0 1 .362.743 19.66 19.66 0 0 1-.966 2.313.584.584 0 0 1-.783.264l-2.025-1.002a16.643 16.643 0 0 1-1.169 1.86l1.784 1.39a.584.584 0 0 1 .103.82 19.844 19.844 0 0 1-1.66 1.87.73.73 0 0 1-.414.17.586.586 0 0 1-.413-.172l-1.59-1.604a16.798 16.798 0 0 1-1.71 1.381l1.24 1.89a.584.584 0 0 1-.168.809 19.408 19.408 0 0 1-2.18 1.236.583.583 0 0 1-.78-.27l-.984-2.032a16.535 16.535 0 0 1-2.064.753l.555 2.19a.583.583 0 0 1-.424.71 19.684 19.684 0 0 1-2.464.457.592.592 0 0 1-.65-.51l-.27-2.246a15.755 15.755 0 0 1-2.193.044l-.184 2.253a.584.584 0 0 1-.582.535zm-1.707-1.393q.583.103 1.173.17l.182-2.236a.584.584 0 0 1 .63-.534 15.347 15.347 0 0 0 3.123-.06.59.59 0 0 1 .43.12.585.585 0 0 1 .22.39l.267 2.227q.587-.089 1.17-.216l-.55-2.17a.584.584 0 0 1 .423-.71 15.366 15.366 0 0 0 2.933-1.071.584.584 0 0 1 .782.27l.975 2.015c.351-.184.697-.38 1.035-.586l-1.23-1.874a.585.585 0 0 1 .168-.81 15.533 15.533 0 0 0 2.432-1.965.584.584 0 0 1 .411-.17h.003a.586.586 0 0 1 .413.173l1.576 1.59c.273-.289.536-.585.787-.887l-1.768-1.377a.585.585 0 0 1-.103-.82 15.45 15.45 0 0 0 1.663-2.646.585.585 0 0 1 .336-.294.593.593 0 0 1 .446.03l2.008.993q.246-.537.459-1.099l-2.12-.727a.584.584 0 0 1-.363-.742 15.475 15.475 0 0 0 .707-3.031.6.6 0 0 1 .62-.509l2.172.152c.025-.416.025-.846.023-1.37h-2.099a.584.584 0 0 1-.584-.584 17.52 17.52 0 0 0-.327-3.017.583.583 0 0 1 .468-.694l2.172-.391c-.088-.355-.19-.714-.31-1.09l-1.982.703a.584.584 0 0 1-.881-.291 15.288 15.288 0 0 0-1.319-2.832.584.584 0 0 1 .202-.802l1.925-1.146a18.76 18.76 0 0 0-.67-.978l-1.765 1.384a.583.583 0 0 1-.82-.099 15.64 15.64 0 0 0-2.167-2.253.584.584 0 0 1-.067-.823l1.45-1.708q-.463-.369-.951-.709l-1.221 1.88a.583.583 0 0 1-.808.17 15.496 15.496 0 0 0-2.78-1.43.584.584 0 0 1-.33-.756l.818-2.087a18.487 18.487 0 0 0-1.134-.362l-.542 2.174a.582.582 0 0 1-.266.36.592.592 0 0 1-.442.066 15.47 15.47 0 0 0-3.093-.444.584.584 0 0 1-.558-.608l.092-2.239a18.74 18.74 0 0 0-1.182.025l.19 2.234a.585.585 0 0 1-.534.632 15.357 15.357 0 0 0-3.07.576.594.594 0 0 1-.445-.047.582.582 0 0 1-.28-.348l-.636-2.149q-.568.188-1.117.41l.906 2.05a.585.585 0 0 1-.297.77 15.592 15.592 0 0 0-2.714 1.548.591.591 0 0 1-.435.1.585.585 0 0 1-.38-.237l-1.3-1.824c-.313.238-.621.489-.92.748l1.52 1.643a.585.585 0 0 1-.03.826 15.747 15.747 0 0 0-2.07 2.344.584.584 0 0 1-.814.134l-1.82-1.309q-.333.496-.63 1.009l1.97 1.062a.584.584 0 0 1 .236.792 15.477 15.477 0 0 0-1.195 2.887.64.64 0 0 1-.04.097v.002a.586.586 0 0 1-.688.292L9.72 37.15a18.48 18.48 0 0 0-.269 1.16l2.21.36a.583.583 0 0 1 .482.669 16.013 16.013 0 0 0-.205 2.519c0 .201.007.398.014.597a.588.588 0 0 1-.56.611l-2.24.085c.028.392.068.787.12 1.182l2.21-.37a.583.583 0 0 1 .673.478 15.487 15.487 0 0 0 .828 3.014.585.585 0 0 1-.334.756l-2.09.81q.232.545.5 1.076l1.963-1.07a.583.583 0 0 1 .792.233 15.648 15.648 0 0 0 1.768 2.581.583.583 0 0 1-.07.823L13.8 54.107c.265.295.54.581.82.857l1.515-1.65a.58.58 0 0 1 .405-.188.563.563 0 0 1 .42.153 15.411 15.411 0 0 0 2.503 1.872.584.584 0 0 1 .2.802l-1.154 1.92q.516.288 1.057.545l.897-2.052a.583.583 0 0 1 .77-.3 15.445 15.445 0 0 0 2.976.957.584.584 0 0 1 .45.692z" fill="#797979"/><path d="M31.951 26.85l-3.75-1.124a26.133 26.133 0 0 0-.754 3.275l3.863.63a22.451 22.451 0 0 0-.297 3.608c0 .29.012.577.022.862l-3.911.149a26.24 26.24 0 0 0 .341 3.337l3.861-.647a22.125 22.125 0 0 0 1.186 4.32l-3.65 1.416a26.518 26.518 0 0 0 1.41 3.044l3.436-1.87a22.09 22.09 0 0 0 2.53 3.697l-2.993 2.522a26.076 26.076 0 0 0 2.322 2.422l2.643-2.882a22.271 22.271 0 0 0 3.59 2.684l-2.018 3.352a25.989 25.989 0 0 0 2.983 1.542l1.57-3.585a22.145 22.145 0 0 0 4.266 1.371l-.811 3.828a26.106 26.106 0 0 0 3.32.484l.315-3.903a23.19 23.19 0 0 0 1.811.079 22.51 22.51 0 0 0 2.667-.165l.467 3.888a26.168 26.168 0 0 0 3.3-.613l-.958-3.791a22.1 22.1 0 0 0 4.208-1.536l1.705 3.518a26.042 26.042 0 0 0 2.919-1.655l-2.146-3.274a22.32 22.32 0 0 0 3.485-2.817l2.752 2.777a26.147 26.147 0 0 0 2.227-2.508l-3.09-2.407a22.053 22.053 0 0 0 2.384-3.793l3.509 1.737a26.5 26.5 0 0 0 1.293-3.102l-3.704-1.27a22.166 22.166 0 0 0 1.014-4.346l3.782.439a27.263 27.263 0 0 0 .11-3.387h-3.703a20.249 20.249 0 0 0-.468-4.506l3.83-.776a26.162 26.162 0 0 0-.895-3.228l-3.7 1.29m0 .006a22.124 22.124 0 0 0-1.889-4.06l3.36-2.005a26.344 26.344 0 0 0-1.899-2.765l-3.078 2.418a22.475 22.475 0 0 0-3.106-3.229l2.533-2.984a26.493 26.493 0 0 0-2.69-2.004l-2.131 3.284a22.139 22.139 0 0 0-3.987-2.049l1.43-3.646a26.058 26.058 0 0 0-3.204-1.022l-.945 3.798a22.17 22.17 0 0 0-4.434-.637l.165-3.91a26.613 26.613 0 0 0-3.348.072l.33 3.901a22.1 22.1 0 0 0-4.401.827l-1.11-3.755a26.248 26.248 0 0 0-3.155 1.158l1.586 3.58a22.18 22.18 0 0 0-3.891 2.22l-2.273-3.19a26.556 26.556 0 0 0-2.602 2.117l2.66 2.871a22.226 22.226 0 0 0-2.965 3.36l-3.178-2.286a26.022 26.022 0 0 0-1.78 2.848l3.441 1.856a21.894 21.894 0 0 0-1.712 4.14m21.193 23.218a16.872 16.872 0 1 1 16.872-16.872 16.872 16.872 0 0 1-16.872 16.872" fill="#939393"/><path d="M51.11 59.869a.49.49 0 0 1-.047-.002 26.683 26.683 0 0 1-3.395-.495.585.585 0 0 1-.45-.692l.693-3.264a22.762 22.762 0 0 1-3.271-1.052l-1.339 3.058a.585.585 0 0 1-.77.3 26.712 26.712 0 0 1-3.05-1.577.584.584 0 0 1-.2-.802l1.72-2.857a22.833 22.833 0 0 1-2.75-2.057l-2.254 2.457a.585.585 0 0 1-.825.036 26.75 26.75 0 0 1-2.374-2.477.584.584 0 0 1 .071-.823l2.552-2.15a22.735 22.735 0 0 1-1.94-2.834l-2.929 1.595a.574.574 0 0 1-.444.047.582.582 0 0 1-.348-.281 26.716 26.716 0 0 1-1.442-3.112.584.584 0 0 1 .333-.756l3.113-1.207a22.79 22.79 0 0 1-.91-3.312l-3.292.552a.585.585 0 0 1-.673-.48 27.056 27.056 0 0 1-.35-3.412.584.584 0 0 1 .561-.606l3.332-.126c-.003-.1-.004-.201-.004-.302a22.937 22.937 0 0 1 .218-3.124l-3.294-.537a.583.583 0 0 1-.482-.671 26.8 26.8 0 0 1 .771-3.348.583.583 0 0 1 .728-.391l3.197.958a22.437 22.437 0 0 1 1.313-3.175l-2.935-1.582a.585.585 0 0 1-.237-.79 26.498 26.498 0 0 1 1.821-2.913.581.581 0 0 1 .815-.133l2.71 1.95a22.95 22.95 0 0 1 2.272-2.577l-2.268-2.447a.583.583 0 0 1 .032-.826 26.976 26.976 0 0 1 2.659-2.164.583.583 0 0 1 .814.137l1.939 2.72a22.86 22.86 0 0 1 2.982-1.701L42.131 9.57a.583.583 0 0 1 .299-.77 26.767 26.767 0 0 1 3.225-1.184.585.585 0 0 1 .724.395l.948 3.202a22.734 22.734 0 0 1 3.373-.633l-.281-3.328a.584.584 0 0 1 .532-.631 27.348 27.348 0 0 1 3.423-.073.583.583 0 0 1 .559.608l-.141 3.334a22.8 22.8 0 0 1 3.398.487l.807-3.238a.584.584 0 0 1 .708-.426 26.635 26.635 0 0 1 3.273 1.045.584.584 0 0 1 .332.756l-1.22 3.11a22.74 22.74 0 0 1 3.057 1.571l1.818-2.8a.585.585 0 0 1 .808-.172 27.038 27.038 0 0 1 2.75 2.048.584.584 0 0 1 .068.824l-2.16 2.545a23.104 23.104 0 0 1 2.38 2.474l2.626-2.062a.585.585 0 0 1 .82.099 26.965 26.965 0 0 1 1.94 2.827.584.584 0 0 1-.203.8l-2.865 1.709a22.826 22.826 0 0 1 1.446 3.108l3.156-1.1a.583.583 0 0 1 .745.36 26.67 26.67 0 0 1 .914 3.3.584.584 0 0 1-.455.69l-3.26.662a20.165 20.165 0 0 1 .36 3.465h3.126a.584.584 0 0 1 .584.584l.001.48a23.142 23.142 0 0 1-.117 2.98.592.592 0 0 1-.647.506l-3.216-.373a22.79 22.79 0 0 1-.778 3.334l3.16 1.084a.585.585 0 0 1 .363.742 27.13 27.13 0 0 1-1.322 3.171.583.583 0 0 1-.783.265l-2.992-1.48a22.542 22.542 0 0 1-1.828 2.906l2.635 2.052a.585.585 0 0 1 .101.82 26.655 26.655 0 0 1-2.276 2.565.583.583 0 0 1-.826-.004l-2.347-2.368a23.024 23.024 0 0 1-2.67 2.16l1.828 2.791a.584.584 0 0 1-.168.808 26.507 26.507 0 0 1-2.983 1.693.584.584 0 0 1-.78-.27l-1.454-3a22.758 22.758 0 0 1-3.228 1.177l.818 3.232a.584.584 0 0 1-.422.71 26.748 26.748 0 0 1-3.376.627.595.595 0 0 1-.649-.51l-.396-3.315a20.946 20.946 0 0 1-3.433.066l-.269 3.327a.585.585 0 0 1-.582.537zm-2.627-1.525c.688.13 1.388.232 2.092.305l.268-3.314a.573.573 0 0 1 .628-.535c.659.052 1.236.077 1.764.077a21.739 21.739 0 0 0 2.599-.161.594.594 0 0 1 .65.51l.395 3.302c.695-.1 1.391-.23 2.08-.387l-.815-3.219a.584.584 0 0 1 .423-.708 21.58 21.58 0 0 0 4.098-1.495.583.583 0 0 1 .78.27l1.447 2.986c.63-.324 1.245-.672 1.84-1.042l-1.823-2.78a.584.584 0 0 1 .168-.808A21.861 21.861 0 0 0 68.47 48.6a.45.45 0 0 1 .414-.169.586.586 0 0 1 .413.173l2.337 2.357c.487-.505.956-1.033 1.402-1.58l-2.623-2.043a.586.586 0 0 1-.102-.82 21.5 21.5 0 0 0 2.321-3.692.583.583 0 0 1 .783-.265l2.978 1.474c.3-.643.573-1.298.817-1.955L74.064 41a.584.584 0 0 1-.363-.74 21.588 21.588 0 0 0 .987-4.232.586.586 0 0 1 .647-.505l3.193.37c.054-.702.054-1.436.05-2.154h-3.121a.584.584 0 0 1-.584-.584 19.559 19.559 0 0 0-.455-4.385.584.584 0 0 1 .455-.692l3.247-.659a25.758 25.758 0 0 0-.562-2.027l-3.07 1.07a.602.602 0 0 1-.073.032.586.586 0 0 1-.743-.36 21.576 21.576 0 0 0-1.839-3.955.583.583 0 0 1 .203-.8l2.853-1.701a25.397 25.397 0 0 0-1.196-1.742l-2.614 2.053a.583.583 0 0 1-.819-.099 21.938 21.938 0 0 0-3.025-3.144.584.584 0 0 1-.068-.823l2.152-2.535a25.875 25.875 0 0 0-1.696-1.262l-1.81 2.788a.588.588 0 0 1-.369.254.58.58 0 0 1-.44-.082 21.553 21.553 0 0 0-3.88-1.995.584.584 0 0 1-.331-.757l1.214-3.096a25.494 25.494 0 0 0-2.02-.644l-.803 3.225a.583.583 0 0 1-.708.425 21.672 21.672 0 0 0-4.318-.62.584.584 0 0 1-.558-.608l.14-3.32a25.278 25.278 0 0 0-2.108.045l.28 3.314a.584.584 0 0 1-.532.631 21.557 21.557 0 0 0-4.286.804.586.586 0 0 1-.725-.394l-.943-3.188c-.67.215-1.334.459-1.989.73l1.347 3.04a.584.584 0 0 1-.298.77A21.62 21.62 0 0 0 40.7 15.61a.583.583 0 0 1-.814-.137l-1.93-2.708a25.99 25.99 0 0 0-1.64 1.334l2.26 2.437a.583.583 0 0 1-.033.826 21.682 21.682 0 0 0-2.887 3.271.584.584 0 0 1-.815.134l-2.7-1.941a25.482 25.482 0 0 0-1.121 1.795l2.921 1.575a.584.584 0 0 1 .236.792 21.414 21.414 0 0 0-1.666 4.03.55.55 0 0 1-.057.131l-.003.005-.001.001-.001.001v.002h-.001v.001l-.001.001-.001.002h-.001v.002h-.001v.001l-.001.002h-.001l-.001.002v.003h-.001l-.001.002h-.001v.001l-.002.001v.004l-.002.001v.001l-.002.001v.001l-.002.001v.002h-.002v.002h-.002v.002h-.002v.003h-.002v.002l-.001.001-.001.001h-.001l-.001.002h-.001l-.001.002-.001.001h-.001v.002h-.002v.001l-.001.001-.001.001h-.001l-.001.002h-.002l-.001.002h-.001l-.001.002H32.4l-.001.002h-.001l-.001.001v.001h-.002v.012h-.001v.002h-.002l-.002.002v.001h-.002l-.002.002-.002.001v.001h-.002v.002h-.002v.002h-.002v.002h-.002l-.001.002h-.001s0-.003-.001.002h-.002l-.001.001h-.001l-.001.001-.001.001-.001.001-.001.001-.001.001-.001.001-.001.001-.001.001h-.002l-.001.002h-.001l-.001.002h-.001l-.001.002h-.001v.001l-.003.001a.582.582 0 0 1-.374.158h-.003a.59.59 0 0 1-.19-.024l-3.184-.944a25.3 25.3 0 0 0-.476 2.064l3.28.535a.584.584 0 0 1 .482.67 21.98 21.98 0 0 0-.289 3.514c0 .23.009.457.017.683l.006.16a.584.584 0 0 1-.562.603l-3.322.126c.043.704.115 1.408.216 2.103l3.278-.55a.582.582 0 0 1 .673.48 21.48 21.48 0 0 0 1.155 4.204.585.585 0 0 1-.334.756l-3.1 1.202c.271.652.568 1.294.89 1.918l2.916-1.587a.584.584 0 0 1 .792.234 21.585 21.585 0 0 0 2.464 3.599.584.584 0 0 1-.07.824l-2.542 2.14a25.51 25.51 0 0 0 1.462 1.527l2.244-2.447a.589.589 0 0 1 .405-.189.575.575 0 0 1 .42.154 21.679 21.679 0 0 0 3.496 2.613.585.585 0 0 1 .2.802l-1.714 2.846c.612.35 1.242.675 1.88.972l1.334-3.044a.586.586 0 0 1 .768-.3 21.625 21.625 0 0 0 4.154 1.334.585.585 0 0 1 .45.693zm4.662-7.692A17.456 17.456 0 1 1 70.6 33.196a17.476 17.476 0 0 1-17.456 17.458zm0-33.743a16.288 16.288 0 1 0 16.288 16.286A16.306 16.306 0 0 0 53.144 16.91z" fill="#797979"/><path d="M53.144 21.262a11.934 11.934 0 1 0 11.933 11.934 11.933 11.933 0 0 0-11.933-11.934m0 17.284a5.35 5.35 0 1 1 5.35-5.35 5.35 5.35 0 0 1-5.35 5.35" fill="#fcb918"/><path d="M89.094 44.793l-.032.002h.032z" fill="#cccccb"/><path d="M89.061 45.379a.584.584 0 0 1-.035-1.167.608.608 0 0 1 .634.535.573.573 0 0 1-.462.62.533.533 0 0 1-.04.007h-.01l-.02.002h-.015l-.017.002z" fill="#797979"/><path d="M110.666 67.67a20.495 20.495 0 0 0-.608-4.084l3.49-.885a23.937 23.937 0 0 0-3.118-7.137l-3.028 1.963a20.359 20.359 0 0 0-2.53-3.167l2.58-2.518a24.147 24.147 0 0 0-6.258-4.623l-1.647 3.211a20.344 20.344 0 0 0-3.738-1.473l.863-3.337a25.276 25.276 0 0 0-7.746-.818l.16 3.407a21.108 21.108 0 0 0-3.987.6l-.84-3.494a23.743 23.743 0 0 0-7.12 3.112l1.97 3.028a20.374 20.374 0 0 0-3.165 2.527l-2.515-2.583a24.076 24.076 0 0 0-4.626 6.254l3.21 1.648a20.372 20.372 0 0 0-1.494 3.797l-3.653-.995a43.51 43.51 0 0 0-1.068 7.668.865.865 0 0 1 .003.068l3.882-.185a20.702 20.702 0 0 0 .644 4.013l-3.47.878a23.956 23.956 0 0 0 3.118 7.143l3.036-1.956a20.664 20.664 0 0 0 2.527 3.172l-2.584 2.514a24.136 24.136 0 0 0 6.252 4.633l1.653-3.205a20.413 20.413 0 0 0 3.792 1.496l-.997 3.652a24.214 24.214 0 0 0 7.72 1.073l-.17.008-.181-3.881a19.381 19.381 0 0 0 4.103-.645l.923 3.47a24.097 24.097 0 0 0 7.17-3.113l-1.943-3.039a20.572 20.572 0 0 0 3.182-2.524l2.514 2.586a24.14 24.14 0 0 0 4.64-6.246l-3.204-1.657a20.423 20.423 0 0 0 1.41-3.495l3.086.82a24.16 24.16 0 0 0 .797-7.645l-3.031.143-.005-.179M90.751 85.886a16.962 16.962 0 1 1 16.143-17.743A16.961 16.961 0 0 1 90.75 85.886" fill="#cccccb"/><path d="M90.535 93.67a25.564 25.564 0 0 1-7.04-1.115.584.584 0 0 1-.404-.715l.847-3.102a20.991 20.991 0 0 1-2.825-1.113l-1.387 2.694a.585.585 0 0 1-.787.251 24.737 24.737 0 0 1-6.404-4.745.584.584 0 0 1 .012-.826l2.172-2.113a21.263 21.263 0 0 1-1.875-2.352l-2.552 1.644a.584.584 0 0 1-.807-.174 24.528 24.528 0 0 1-3.195-7.316.584.584 0 0 1 .423-.709l2.91-.737a21.535 21.535 0 0 1-.485-2.978l-3.31.159a.548.548 0 0 1-.431-.161.585.585 0 0 1-.18-.423c0-.019-.003-.106 0-.125.048-.504.092-1.006.136-1.506a33.715 33.715 0 0 1 .95-6.263.579.579 0 0 1 .715-.405l3.102.844a20.945 20.945 0 0 1 1.112-2.827l-2.697-1.384a.585.585 0 0 1-.253-.787 24.663 24.663 0 0 1 4.74-6.406.508.508 0 0 1 .415-.166.583.583 0 0 1 .412.177l2.111 2.17a21.166 21.166 0 0 1 2.344-1.872l-1.655-2.544a.583.583 0 0 1 .172-.808 24.403 24.403 0 0 1 7.296-3.19.584.584 0 0 1 .71.43l.703 2.93a22.39 22.39 0 0 1 2.946-.445l-.132-2.833a.583.583 0 0 1 .556-.61 25.78 25.78 0 0 1 7.93.838.585.585 0 0 1 .408.709l-.723 2.792a20.891 20.891 0 0 1 2.775 1.093l1.385-2.698a.584.584 0 0 1 .34-.29.59.59 0 0 1 .446.036 24.735 24.735 0 0 1 6.41 4.735.584.584 0 0 1-.01.826l-2.17 2.115a20.964 20.964 0 0 1 1.877 2.348l2.544-1.65a.59.59 0 0 1 .44-.08.584.584 0 0 1 .367.253 24.513 24.513 0 0 1 3.196 7.31.584.584 0 0 1-.423.71l-2.932.745a21.26 21.26 0 0 1 .466 3.226l2.447-.115a.558.558 0 0 1 .61.556 24.757 24.757 0 0 1-.818 7.833.585.585 0 0 1-.712.404l-2.546-.677a21.03 21.03 0 0 1-1.02 2.533l2.693 1.393a.583.583 0 0 1 .25.786 24.707 24.707 0 0 1-4.751 6.397.586.586 0 0 1-.826-.011l-2.113-2.174a21.178 21.178 0 0 1-2.362 1.874l1.633 2.555a.585.585 0 0 1-.176.806 24.618 24.618 0 0 1-7.343 3.187.582.582 0 0 1-.707-.416l-.775-2.917a19.262 19.262 0 0 1-3.076.49l.135 2.896a.584.584 0 0 1-.368 1.014h-.003l-.03.001-.137.006-.034.001c-.219.008-.44.011-.662.011zm-6.164-2.084a23.658 23.658 0 0 0 6.165.917h.057l-.153-3.282a.584.584 0 0 1 .555-.611 18.698 18.698 0 0 0 3.99-.628.585.585 0 0 1 .706.417l.772 2.905a23.423 23.423 0 0 0 5.945-2.58l-1.625-2.543a.584.584 0 0 1 .177-.805 20.015 20.015 0 0 0 3.091-2.452.583.583 0 0 1 .825.012l2.103 2.162a23.524 23.524 0 0 0 3.84-5.168l-2.679-1.386a.583.583 0 0 1-.25-.786 19.924 19.924 0 0 0 1.368-3.395.584.584 0 0 1 .71-.397l2.522.67a23.748 23.748 0 0 0 .65-6.32l-2.442.115a.585.585 0 0 1-.611-.568l-.005-.172a20.013 20.013 0 0 0-.59-3.962.584.584 0 0 1 .423-.71l2.917-.74a23.355 23.355 0 0 0-2.581-5.904l-2.531 1.642a.585.585 0 0 1-.808-.172 19.769 19.769 0 0 0-2.458-3.076.584.584 0 0 1 .01-.827l2.158-2.105a23.55 23.55 0 0 0-5.178-3.825l-1.377 2.684a.583.583 0 0 1-.786.253 19.749 19.749 0 0 0-3.631-1.43.585.585 0 0 1-.407-.709l.718-2.775a24.796 24.796 0 0 0-6.423-.67l.131 2.816a.584.584 0 0 1-.555.611 20.582 20.582 0 0 0-3.873.583.592.592 0 0 1-.445-.067.583.583 0 0 1-.264-.363l-.7-2.912a23.198 23.198 0 0 0-5.88 2.572l1.646 2.531a.584.584 0 0 1-.172.81 19.899 19.899 0 0 0-3.075 2.454.585.585 0 0 1-.827-.011l-2.1-2.159a23.477 23.477 0 0 0-3.828 5.174l2.682 1.378a.585.585 0 0 1 .253.786 19.814 19.814 0 0 0-1.45 3.688.587.587 0 0 1-.716.405l-3.086-.84a35.912 35.912 0 0 0-.761 5.489l-.081.914 3.217-.154a.57.57 0 0 1 .612.555 20.225 20.225 0 0 0 .627 3.9.584.584 0 0 1-.423.707l-2.898.734a23.356 23.356 0 0 0 2.583 5.911l2.54-1.636a.583.583 0 0 1 .806.174 20.121 20.121 0 0 0 2.456 3.082.583.583 0 0 1-.012.825l-2.16 2.102a23.527 23.527 0 0 0 5.173 3.834l1.381-2.68a.585.585 0 0 1 .787-.252 19.821 19.821 0 0 0 3.685 1.453.584.584 0 0 1 .404.716zm5.558-5.096a17.568 17.568 0 1 1 .85-.02q-.427.02-.85.02zm.043-33.924c-.265 0-.529.006-.794.019a16.377 16.377 0 1 0 1.546 32.718 16.378 16.378 0 0 0-.752-32.737z" fill="#797979"/><path d="M89.31 55.408a13.55 13.55 0 1 0 14.175 12.896A13.552 13.552 0 0 0 89.31 55.408m1.056 22.338a8.813 8.813 0 1 1 8.388-9.219 8.812 8.812 0 0 1-8.389 9.22" fill="#cccccb"/><path d="M89.941 83.078a14.135 14.135 0 0 1-.659-28.254 14.135 14.135 0 1 1 1.334 28.238c-.225.01-.45.016-.675.016zm-.604-27.087a12.966 12.966 0 1 0 13.565 12.34 12.982 12.982 0 0 0-13.565-12.34zm.601 22.35a9.397 9.397 0 0 1-.431-18.784 9.397 9.397 0 1 1 .886 18.773c-.152.007-.304.01-.454.01zm.016-17.627q-.195 0-.392.01a8.229 8.229 0 0 0 .776 16.439 8.229 8.229 0 0 0-.384-16.449z" fill="#797979"/><path fill="#939393" d="M120.096 33.394l-.019.001h.019v-.001z"/><path d="M120.076 33.979a.584.584 0 0 1-.03-1.167.618.618 0 0 1 .624.55v.011a.576.576 0 0 1-.51.601h-.014v.001h-.02l-.019.002c-.01.002-.02.002-.03.002z" fill="#797979"/><path d="M131.377 45.357a10.695 10.695 0 0 0-.32-2.136l1.828-.462a12.548 12.548 0 0 0-1.63-3.733l-1.585 1.026a10.78 10.78 0 0 0-1.323-1.657l1.349-1.316a12.591 12.591 0 0 0-3.274-2.417l-.86 1.679a10.552 10.552 0 0 0-1.955-.77l.451-1.745a13.19 13.19 0 0 0-4.05-.428l.082 1.782a10.988 10.988 0 0 0-2.083.312l-.44-1.827a12.433 12.433 0 0 0-3.723 1.627l1.028 1.584a10.82 10.82 0 0 0-1.655 1.322l-1.314-1.351a12.685 12.685 0 0 0-2.42 3.27l1.678.863a10.591 10.591 0 0 0-.78 1.986l-1.91-.521a22.754 22.754 0 0 0-.558 4.01v.037l2.03-.097a10.873 10.873 0 0 0 .337 2.097l-1.814.46a12.594 12.594 0 0 0 1.63 3.736l1.588-1.024a10.857 10.857 0 0 0 1.321 1.66l-1.35 1.314a12.655 12.655 0 0 0 3.268 2.423l.866-1.676a10.597 10.597 0 0 0 1.982.782l-.52 1.91a12.624 12.624 0 0 0 4.036.56l-.087.005-.096-2.03a10.103 10.103 0 0 0 2.145-.337l.482 1.814a12.568 12.568 0 0 0 3.75-1.627l-1.015-1.589a10.825 10.825 0 0 0 1.663-1.32l1.317 1.352a12.637 12.637 0 0 0 2.425-3.266l-1.675-.867a10.569 10.569 0 0 0 .737-1.828l1.614.43a12.61 12.61 0 0 0 .418-3.999l-1.586.075-.002-.093m-10.415 9.526a8.87 8.87 0 1 1 8.441-9.279 8.868 8.868 0 0 1-8.441 9.279" fill="#939393"/><path d="M120.845 59.233a13.682 13.682 0 0 1-3.754-.594.584.584 0 0 1-.404-.715l.372-1.367a11.22 11.22 0 0 1-1.012-.4l-.606 1.172a.587.587 0 0 1-.786.251 13.223 13.223 0 0 1-3.419-2.535.584.584 0 0 1 .012-.826l.943-.917a11.27 11.27 0 0 1-.668-.839l-1.11.716a.584.584 0 0 1-.807-.175 13.155 13.155 0 0 1-1.706-3.91.584.584 0 0 1 .423-.708l1.26-.32a11.442 11.442 0 0 1-.174-1.06l-1.467.07a.545.545 0 0 1-.432-.161.586.586 0 0 1-.18-.423l.073-.875a17.96 17.96 0 0 1 .506-3.332.584.584 0 0 1 .716-.404l1.366.372c.116-.343.249-.682.398-1.014l-1.172-.602a.584.584 0 0 1-.252-.787 13.323 13.323 0 0 1 2.53-3.422.585.585 0 0 1 .828.011l.917.943q.403-.353.833-.666l-.719-1.106a.584.584 0 0 1 .173-.808 13.037 13.037 0 0 1 3.898-1.703.585.585 0 0 1 .71.43l.306 1.268c.344-.067.697-.12 1.04-.155l-.057-1.217a.584.584 0 0 1 .556-.61 13.639 13.639 0 0 1 4.236.449.584.584 0 0 1 .408.708l-.312 1.206c.335.114.666.244.99.39l.6-1.172a.584.584 0 0 1 .787-.254 13.205 13.205 0 0 1 3.425 2.529.585.585 0 0 1-.01.826l-.943.92q.355.402.67.836l1.106-.717a.584.584 0 0 1 .807.173 13.117 13.117 0 0 1 1.707 3.907.584.584 0 0 1-.423.71l-1.275.322a11.43 11.43 0 0 1 .173 1.192l1.012-.048a.574.574 0 0 1 .61.556 13.2 13.2 0 0 1-.439 4.186.583.583 0 0 1-.71.404l-1.083-.287q-.157.442-.347.865l1.171.606a.584.584 0 0 1 .25.787 13.223 13.223 0 0 1-2.539 3.416.583.583 0 0 1-.824-.012l-.92-.945q-.407.354-.844.669l.71 1.111a.584.584 0 0 1-.175.806 13.083 13.083 0 0 1-3.925 1.702.582.582 0 0 1-.706-.416l-.337-1.266a9.767 9.767 0 0 1-1.116.18l.054 1.154a.573.573 0 0 1 .102.301.584.584 0 0 1-.554.613c-.157.007-.313.01-.471.01zm-2.877-1.568a12.134 12.134 0 0 0 2.62.396l-.068-1.42a.583.583 0 0 1 .555-.612 9.414 9.414 0 0 0 2.031-.32.585.585 0 0 1 .707.417l.331 1.244a11.935 11.935 0 0 0 2.525-1.095l-.696-1.087a.585.585 0 0 1 .176-.806 10.158 10.158 0 0 0 1.574-1.248.582.582 0 0 1 .824.012l.9.925a12.1 12.1 0 0 0 1.625-2.187l-1.145-.593a.584.584 0 0 1-.25-.787 9.999 9.999 0 0 0 .696-1.726.584.584 0 0 1 .709-.397l1.044.277a12.152 12.152 0 0 0 .27-2.67l-.99.046a.578.578 0 0 1-.424-.154.587.587 0 0 1-.188-.41c0-.005 0-.059-.002-.09a10.224 10.224 0 0 0-.3-2.013.584.584 0 0 1 .421-.71l1.247-.317a11.954 11.954 0 0 0-1.091-2.498l-1.082.701a.584.584 0 0 1-.808-.173 10.24 10.24 0 0 0-1.251-1.567.583.583 0 0 1 .01-.825l.92-.899a12.022 12.022 0 0 0-2.19-1.618l-.587 1.147a.583.583 0 0 1-.786.253 10.004 10.004 0 0 0-1.848-.728.584.584 0 0 1-.406-.708l.304-1.175a12.696 12.696 0 0 0-2.697-.282h-.03l.055 1.186a.583.583 0 0 1-.556.61 10.401 10.401 0 0 0-1.968.295.584.584 0 0 1-.71-.43l-.297-1.238a11.812 11.812 0 0 0-2.482 1.086l.702 1.082a.584.584 0 0 1-.172.808 10.309 10.309 0 0 0-1.567 1.25.584.584 0 0 1-.825-.012l-.896-.921a12.114 12.114 0 0 0-1.619 2.188l1.145.589a.584.584 0 0 1 .253.787 9.952 9.952 0 0 0-.737 1.875.586.586 0 0 1-.715.406l-1.335-.364a20.857 20.857 0 0 0-.328 2.554l-.014.158 1.363-.065a.574.574 0 0 1 .611.554 10.197 10.197 0 0 0 .32 1.984.584.584 0 0 1-.423.708l-1.235.313a11.976 11.976 0 0 0 1.095 2.502l1.084-.7a.584.584 0 0 1 .806.174 10.248 10.248 0 0 0 1.252 1.57.584.584 0 0 1-.012.825l-.922.897a12.002 12.002 0 0 0 2.187 1.622l.592-1.145a.585.585 0 0 1 .786-.25 10.032 10.032 0 0 0 1.873.739.584.584 0 0 1 .405.715zm13.993-12.308zm-11.43 10.12a9.468 9.468 0 1 1 .458-.01c-.152.007-.305.01-.458.01zm.016-17.74q-.197 0-.396.01a8.286 8.286 0 1 0 .783 16.553 8.286 8.286 0 0 0-.387-16.563z" fill="#797979"/><path d="M120.76 50.627a4.608 4.608 0 1 1 4.386-4.821 4.61 4.61 0 0 1-4.386 4.82" fill="#939393"/><path d="M120.54 51.216a5.194 5.194 0 1 1 .247-.006 5.262 5.262 0 0 1-.248.006zm.22-.59zM120.547 42c-.065 0-.13.001-.195.004a4.024 4.024 0 1 0 .38 8.04 4.024 4.024 0 0 0-.185-8.044z" fill="#797979"/></svg>