<?xml version="1.0" encoding="utf-8"?>
<!-- Generator: Adobe Illustrator 19.0.0, SVG Export Plug-In . SVG Version: 6.00 Build 0)  -->
<svg version="1.1" id="Layer_1" xmlns="http://www.w3.org/2000/svg" xmlns:xlink="http://www.w3.org/1999/xlink" x="0px" y="0px"
	 viewBox="0 0 264 28" style="enable-background:new 0 0 264 28;" xml:space="preserve">
<style type="text/css">
	.st0{fill:#FFFFFF;}
	.st1{fill:#243F76;}
	.st2{fill:none;stroke:#243F76;stroke-linecap:round;stroke-miterlimit:10;}
	.st3{fill:#FFFFFF;stroke:#243F76;stroke-width:1.5;stroke-miterlimit:10;}
	.st4{fill:none;}
	.st5{fill:#243F76;stroke:#243F76;stroke-width:0.5;stroke-miterlimit:10;}
	.st6{fill:#2B4F8E;}
	.st7{fill:#FFFFFF;stroke:#2B4F8E;}
</style>
<g>
	<g>
		<path class="st0" d="M110,25.1c6.3-6.4,12.6-8,12.6-16.2c0,0,0-0.1,0-0.1c-0.2-7.3-9.3-7.5-12.6-1.9c-3.3-5.6-12.4-5.4-12.6,1.9
			c0,0,0,0.1,0,0.1C97.4,17.1,103.7,18.7,110,25.1"/>
	</g>
	<g>
		<path class="st1" d="M111.1,19.6c-0.3,0-0.6-0.2-0.6-0.5l-1.1-3.4h-2c-0.5,0-0.9-0.2-1.1-0.6l-1-1.4l-1,1.4
			c-0.3,0.4-0.7,0.6-1.1,0.6h-3.9c-0.4,0-0.7-0.3-0.7-0.7c0-0.4,0.3-0.7,0.7-0.7h3.9l1-1.4c0.2-0.3,0.5-0.5,0.9-0.6
			c0.4-0.1,0.7,0,1.1,0.2c0.1,0.1,0.3,0.2,0.4,0.4l1,1.4h2c0.6,0,1.1,0.4,1.3,1l0.2,0.8l1.6-8.3c0-0.3,0.4-0.6,0.7-0.6l0,0
			c0.3,0,0.6,0.2,0.7,0.6l1.7,8.6v0l1-1.6c0.2-0.4,0.7-0.7,1.2-0.7h3.2c0.4,0,0.7,0.3,0.7,0.7c0,0.4-0.3,0.7-0.7,0.7h-3.2l-1,1.6
			c-0.3,0.5-0.9,0.8-1.5,0.6c-0.6-0.1-1-0.6-1.1-1.2l-1-5l-1.4,7.5C111.7,19.3,111.4,19.6,111.1,19.6
			C111.1,19.6,111.1,19.6,111.1,19.6z"/>
	</g>
	<path class="st1" d="M110,25.8c-0.2,0-0.4-0.1-0.5-0.2c-1.8-1.8-3.7-3.3-5.3-4.6c-4.2-3.3-7.5-5.9-7.5-12.1c0,0,0-0.1,0-0.2
		c0.1-3.2,1.9-5.5,4.7-6.3c3.1-0.8,6.6,0.5,8.6,3.2c2-2.6,5.5-4,8.6-3.2c2.9,0.7,4.6,3,4.7,6.3c0,0,0,0.1,0,0.2
		c0,6.2-3.3,8.8-7.5,12.1c-1.7,1.3-3.5,2.8-5.3,4.6C110.4,25.7,110.2,25.8,110,25.8z M103.2,3.6c-0.5,0-1,0-1.5,0.2
		c-2.3,0.6-3.6,2.4-3.7,5c0,0,0,0.1,0,0.1c0,5.5,2.9,7.8,7,11c1.5,1.2,3.2,2.6,4.9,4.2c1.7-1.7,3.4-3,4.9-4.2c4-3.2,7-5.5,7-11
		c0,0,0-0.1,0-0.1c-0.1-2.5-1.4-4.4-3.6-4.9c-2.4-0.6-5.8,0.4-7.6,3.4c-0.1,0.2-0.4,0.3-0.6,0.3l0,0c-0.2,0-0.5-0.1-0.6-0.3
		C107.9,4.7,105.4,3.6,103.2,3.6z"/>
	<path class="st2" d="M103.2,5.1c0,0-2.2,0-2.7,3.1"/>
</g>
<g>
	<path id="XMLID_61_" class="st3" d="M34.5,14c0,6.9-5.6,12.5-12.5,12.5S9.5,20.9,9.5,14S15.1,1.5,22,1.5S34.5,7.1,34.5,14L34.5,14z
		"/>
	<path id="XMLID_60_" class="st3" d="M30.4,14c0,4.6-3.7,8.3-8.3,8.3c-4.6,0-8.4-3.7-8.4-8.3s3.7-8.3,8.3-8.3S30.4,9.4,30.4,14z"/>
	<circle id="XMLID_59_" class="st3" cx="22" cy="14" r="2.1"/>
	<line id="XMLID_58_" class="st3" x1="22" y1="16.1" x2="22" y2="22.2"/>
	<line id="XMLID_57_" class="st3" x1="22" y1="5.8" x2="22" y2="11.9"/>
	<line id="XMLID_56_" class="st3" x1="20.5" y1="15.5" x2="16.2" y2="19.8"/>
	<line id="XMLID_55_" class="st3" x1="27.8" y1="8.2" x2="23.5" y2="12.5"/>
	<line id="XMLID_54_" class="st3" x1="19.7" y1="14" x2="13.8" y2="14"/>
	<line id="XMLID_53_" class="st3" x1="30.2" y1="14" x2="24.1" y2="14"/>
	<line id="XMLID_52_" class="st3" x1="20.5" y1="12.5" x2="16.2" y2="8.2"/>
	<line id="XMLID_51_" class="st3" x1="27.8" y1="19.8" x2="23.7" y2="15.7"/>
</g>
<g>
	<path d="M53.9,13.9l-4.6,1.7l-3.6-6.2l2.6-0.7L53.9,13.9z"/>
	<path class="st0" d="M53.9,13.9l-4.6,1.7l-3.6-6.2l2.6-0.7L53.9,13.9z"/>
	<path d="M75,6.2l-27.3,9.9l4.2,5.3c1.1,1.2,3,1.3,4.1,0.9l30.4-11.1C86.4,11.2,83.3,3.2,75,6.2z"/>
	<path class="st0" d="M75,6.2l-27.3,9.9l4.2,5.3c1.1,1.2,3,1.3,4.1,0.9l30.4-11.1C86.4,11.2,83.3,3.2,75,6.2"/>
	<path d="M72.7,18.2l-3.3,1.2c-0.7,0.3-1.6-0.1-1.9-0.9l-0.4-1.2c-0.3-0.8,0.1-1.6,0.9-1.9l3.3-1.2L72.7,18.2L72.7,18.2z"/>
	<path class="st0" d="M82.9,6.8l-6.4,2.6l-1.3-2.8C77.2,5.7,80.6,5.5,82.9,6.8L82.9,6.8z"/>
	<path class="st1" d="M76.5,10c-0.2,0-0.5-0.1-0.6-0.3l-1.3-2.8c-0.1-0.2-0.1-0.3,0-0.5c0-0.2,0.2-0.3,0.3-0.4
		c2.1-0.9,5.7-1.2,8.3,0.2c0.2,0.1,0.3,0.3,0.3,0.5c0,0.2-0.2,0.5-0.4,0.6L76.8,10C76.7,10,76.6,10,76.5,10z M76,7l0.8,1.7l4.4-1.8
		C79.5,6.4,77.5,6.5,76,7z"/>
	<line class="st4" x1="65.5" y1="13" x2="65.8" y2="13.8"/>
	<path class="st1" d="M65.8,14.4c-0.2,0-0.5-0.2-0.6-0.4L65,13.2c-0.1-0.3,0-0.7,0.4-0.8c0.3-0.1,0.7,0,0.8,0.4l0.3,0.8
		c0.1,0.3,0,0.7-0.4,0.8C65.9,14.4,65.9,14.4,65.8,14.4z"/>
	<line class="st4" x1="70.3" y1="11.3" x2="70.6" y2="12"/>
	<path class="st1" d="M70.6,12.6c-0.2,0-0.5-0.2-0.6-0.4l-0.3-0.8c-0.1-0.3,0-0.7,0.4-0.8c0.3-0.1,0.7,0,0.8,0.4l0.3,0.8
		c0.1,0.3,0,0.7-0.4,0.8C70.7,12.6,70.7,12.6,70.6,12.6z"/>
	<line class="st4" x1="67.9" y1="12.1" x2="68.2" y2="12.9"/>
	<path class="st1" d="M68.2,13.5c-0.2,0-0.5-0.2-0.6-0.4l-0.3-0.8c-0.1-0.3,0-0.7,0.4-0.8c0.3-0.1,0.7,0,0.8,0.4l0.3,0.8
		c0.1,0.3,0,0.7-0.4,0.8C68.3,13.5,68.3,13.5,68.2,13.5z"/>
	<line class="st4" x1="63.1" y1="13.9" x2="63.4" y2="14.7"/>
	<path class="st1" d="M63.4,15.3c-0.2,0-0.5-0.2-0.6-0.4l-0.3-0.8c-0.1-0.3,0-0.7,0.4-0.8c0.3-0.1,0.7,0,0.8,0.4l0.3,0.8
		c0.1,0.3,0,0.7-0.4,0.8C63.5,15.3,63.5,15.3,63.4,15.3z"/>
	<line class="st4" x1="60.7" y1="14.8" x2="61" y2="15.6"/>
	<path class="st1" d="M61,16.2c-0.2,0-0.5-0.2-0.6-0.4L60.2,15c-0.1-0.3,0-0.7,0.4-0.8c0.3-0.1,0.7,0,0.8,0.4l0.3,0.8
		c0.1,0.3,0,0.7-0.4,0.8C61.2,16.2,61.1,16.2,61,16.2z"/>
	<path class="st1" d="M54.8,23.1c-1.2,0-2.4-0.4-3.2-1.3l0,0l-4.2-5.3c-0.1-0.2-0.2-0.4-0.1-0.5c0-0.2,0.2-0.3,0.4-0.4l27.2-9.9
		C83.5,2.4,86.9,10.9,87,11c0,0.2,0,0.3,0,0.5c-0.1,0.2-0.2,0.3-0.4,0.3L56.2,22.9C55.8,23,55.3,23.1,54.8,23.1z M52.4,21
		c0.9,1,2.6,1,3.4,0.7l29.7-10.8c-0.9-1.7-3.9-6.4-10.4-4l0,0l-26.4,9.6L52.4,21z"/>
	<path class="st1" d="M49.3,16.2c-0.2,0-0.4-0.1-0.5-0.3l-3.6-6.2C45,9.5,45,9.3,45,9.2c0.1-0.2,0.2-0.3,0.4-0.4L48.1,8
		c0.2,0,0.4,0,0.6,0.1l5.6,5.2c0.2,0.2,0.2,0.4,0.2,0.6c0,0.2-0.2,0.4-0.4,0.5l-4.6,1.7C49.4,16.2,49.3,16.2,49.3,16.2z M46.6,9.7
		l3,5l3.2-1.2l-4.6-4.3L46.6,9.7z"/>
	<path class="st0" d="M72.7,18.2l-3.3,1.2c-0.7,0.3-1.6-0.1-1.9-0.9l-0.4-1.2c-0.3-0.8,0.1-1.6,0.9-1.9l3.3-1.2L72.7,18.2L72.7,18.2
		z"/>
	<path class="st1" d="M68.8,20.2c-0.3,0-0.6-0.1-0.9-0.2c-0.5-0.2-0.9-0.7-1.1-1.2l-0.4-1.2c-0.4-1.1,0.2-2.3,1.2-2.7l3.3-1.2
		c0.2,0,0.3,0,0.5,0c0.2,0.1,0.2,0.2,0.3,0.4l1.4,3.9c0.1,0.2,0.1,0.5-0.1,0.7l0,0c-0.1,0.1-0.2,0.1-0.3,0.2L69.7,20
		C69.3,20.1,69.1,20.2,68.8,20.2z M70.9,15.1l-2.8,1c-0.5,0.2-0.7,0.7-0.5,1.1l0.4,1.2c0.1,0.2,0.2,0.4,0.5,0.5
		c0.2,0.1,0.4,0.1,0.6,0l2.8-1L70.9,15.1z"/>
	<polyline class="st1" points="49,16.9 45.7,18.6 46.7,19 49.9,18.3 	"/>
</g>
<polygon class="st0" points="154,2.3 164.6,13.1 164.6,25.9 143.5,25.9 143.5,12.5 145.4,10.4 145.5,4.9 149.2,4.9 149.2,6.8 "/>
<g id="Layer_1_1_">
	<path class="st5" d="M145,4.3v6.1l-3.6,3.6l1.4,0.1l0,0v12.5h7.4h7.4h7.4V14.1l0,0l1.4-0.1L154,1.4l-4.2,4.2V4.3H145z M148.7,6.7
		L146,9.4v-4h2.7V6.7z M151.3,25.5V17h5.3v8.5H151.3z M143.9,13L154,2.9L164.1,13v12.5h-6.4V16h-7.4v9.6h-6.4V13z"/>
</g>
<polygon class="st1" points="166.2,14.2 141.8,14.2 142.6,12.8 165.3,12.8 "/>
<g>
	<path class="st6" d="M253.9,5.9v1.2c0,0.4,0,3.5-0.1,4c-0.1,1.1-0.2,2.1-0.4,3.1c-2.1,9.8-10.3,13-10.7,13.1l-0.5,0.2
		c0,0-0.1,0-0.2,0c-0.1,0-0.1,0-0.2,0l-0.5-0.2c-0.3-0.1-8.5-3.3-10.7-13.1c-0.2-1-0.4-2.1-0.4-3.1c0-0.6-0.1-3.7-0.1-4V5.9
		c0-0.2,0.1-0.4,0.3-0.4c7.7-0.9,11.5-5.1,11.5-5.1s4.8,4.3,11.5,5.1C253.7,5.5,253.9,5.7,253.9,5.9z"/>
	<path class="st0" d="M252.6,6.8v1c0,0.3,0,3.1-0.1,3.6c-0.1,1-0.2,1.9-0.4,2.8c-1.9,8.8-9.2,11.6-9.6,11.7l-0.5,0.2
		c0,0-0.1,0-0.1,0c0,0-0.1,0-0.1,0l-0.5-0.2c-0.3-0.1-7.7-3-9.6-11.7c-0.2-0.9-0.3-1.9-0.4-2.8c0-0.5,0-3.3,0-3.6v-1
		c0-0.2,0.1-0.4,0.3-0.4c6.9-0.8,10.3-4.6,10.3-4.6s4.3,3.9,10.3,4.6C252.5,6.4,252.6,6.6,252.6,6.8z"/>
	<g>
		<path class="st7" d="M233.4,12.3h7.7V4.8c-1.2,1-3.7,2.5-7.6,3c-0.1,0-0.2,0.2-0.2,0.3V9c0,0.3,0,2.5,0,2.9
			C233.4,12,233.4,12.2,233.4,12.3z"/>
		<path class="st7" d="M233.7,14c0,0.1,0,0.1,0,0.2c1.4,6.3,6.1,8.8,7.5,9.4V14H233.7z"/>
	</g>
	<g>
		<path class="st7" d="M250.6,12.3c0-0.1,0-0.3,0-0.4c0-0.4,0-2.7,0-2.9V8.1c0-0.1-0.1-0.3-0.2-0.3c-3.5-0.4-6.3-2.1-7.6-3.1v7.6
			H250.6z"/>
		<path class="st7" d="M242.8,14v9.6c1.3-0.6,6.1-3.1,7.5-9.4c0-0.1,0-0.1,0-0.2H242.8z"/>
	</g>
</g>
<g>
	<polygon class="st0" points="185.4,4.1 200.4,4.1 201.9,5.6 201.9,8.4 205.9,8.4 208.8,10.2 211.3,13.3 211.5,20.8 209.6,21 
		207.4,23.7 204.7,23.4 203.2,21.3 193.8,21 191.3,24.1 188.6,23 187.3,21.2 184.6,21 184.5,4.9 185.2,4.1 	"/>
	<g id="Layer_1_2_">
		<g>
			<g>
				<path class="st1" d="M212.1,12.8l-5.2-5h-4.5V5.3c0-1-0.8-1.8-1.8-1.8h-14.8c-1,0-1.8,0.8-1.8,1.8v10.2l0,0v6.2h3.3
					c0.3,1.7,1.7,2.8,3.5,2.8s3.1-1.3,3.5-2.8h8.5c0.3,1.7,1.7,2.8,3.5,2.8s3.1-1.3,3.5-2.8h2.3L212.1,12.8L212.1,12.8z M185.4,5.3
					c0-0.3,0.2-0.5,0.5-0.5h14.8c0.3,0,0.5,0.2,0.5,0.5v10.2h-15.7V5.3z M190.8,23.2c-1.2,0-2.2-1-2.2-2.2c0-1.2,1-2.2,2.2-2.2
					s2.2,1,2.2,2.2C193,22.2,192,23.2,190.8,23.2z M190.8,17.4c-1.7,0-3.1,1.3-3.5,2.8h-2v-3.5h15.8v3.5h-6.8
					C193.9,18.7,192.5,17.4,190.8,17.4z M206.3,23.2c-1.2,0-2.2-1-2.2-2.2c0-1.2,1-2.2,2.2-2.2s2.2,1,2.2,2.2
					C208.5,22.2,207.5,23.2,206.3,23.2z M210.8,20.4h-1c-0.3-1.7-1.7-2.8-3.5-2.8c-1.7,0-3.1,1.3-3.5,2.8h-0.5v-4.1V9.2h3.9l4.4,4.2
					L210.8,20.4L210.8,20.4z"/>
				<path class="st1" d="M187.6,12.4h11.2V8h-11.2C187.6,8,187.6,12.4,187.6,12.4z M188.5,8.9h9.4v2.7h-9.4V8.9z"/>
			</g>
		</g>
	</g>
</g>
</svg>
