<?xml version="1.0" encoding="utf-8"?>
<!-- Generator: Adobe Illustrator 23.0.3, SVG Export Plug-In . SVG Version: 6.00 Build 0)  -->
<svg fill="#fff" version="1.1" id="icons" xmlns="http://www.w3.org/2000/svg" xmlns:xlink="http://www.w3.org/1999/xlink" x="0px" y="0px"
	 viewBox="0 0 128.4 120.4" style="enable-background:new 0 0 128.4 120.4;" xml:space="preserve">
<style type="text/css">
	.st0{fill:#fff;}
</style>
<g>
	<g>
		<path class="st0" d="M68.1,120.4c-18.9,0-36.4-8.6-47.9-23.7c-1-1.3-0.7-3.1,0.5-4.1c1.3-1,3.1-0.7,4.1,0.5
			c10.4,13.6,26.2,21.4,43.2,21.4c30,0,54.4-24.4,54.4-54.3S98.1,5.9,68.1,5.9c-20,0-39.1,10.4-48.7,26.4c-0.8,1.4-2.5,1.8-3.9,1.1
			l-8.6-4.7l5.2,47l41.4-23.2l-9.6-4.9c-1.4-0.7-2-2.4-1.3-3.8c4.2-9.1,14.5-15.2,25.7-15.2c22.2,0,40.2,18,40.2,40.1
			s-18,40.1-40.2,40.1c-4.3,0-8.6-0.7-12.6-2c-1.5-0.5-2.4-2.2-1.9-3.7c0.5-1.5,2.2-2.4,3.7-1.9c3.5,1.1,7.1,1.7,10.8,1.7
			c18.9,0,34.3-15.4,34.3-34.3c0-18.9-15.4-34.3-34.3-34.3c-7.7,0-15.1,3.7-18.9,9.4l11.8,6c1,0.5,1.6,1.5,1.6,2.6
			c0,1.1-0.6,2.1-1.5,2.6L11,83c-0.9,0.5-1.9,0.5-2.8,0c-0.9-0.5-1.5-1.3-1.6-2.3l-6.3-57c-0.1-1.1,0.4-2.1,1.3-2.8
			c0.9-0.6,2.1-0.7,3-0.1l11.2,6C26.9,10.5,47.1,0,68.1,0c33.2,0,60.3,27,60.3,60.2S101.4,120.4,68.1,120.4z"/>
	</g>
</g>
</svg>
