<?xml version="1.0" encoding="utf-8"?>
<!-- Generator: Adobe Illustrator 19.0.0, SVG Export Plug-In . SVG Version: 6.00 Build 0)  -->
<svg version="1.1" id="Layer_1" xmlns="http://www.w3.org/2000/svg" xmlns:xlink="http://www.w3.org/1999/xlink" x="0px" y="0px"
	 viewBox="0 0 168 28" style="enable-background:new 0 0 168 28;" xml:space="preserve">
<style type="text/css">
	.st0{fill:#3B5998;}
	.st1{fill:#FFFFFF;}
	.st2{fill:#0077B5;}
	.st3{fill:#DD4B39;}
	.st4{fill:#1DA1F2;}
	.st5{fill:#517FA6;}
	.st6{fill:#E02F2F;}
</style>
<g id="XMLID_9_">
	<circle id="XMLID_1_" class="st0" cx="14" cy="14" r="14"/>
	<path id="f_1_" class="st1" d="M15.2,21.8V15h2.9l0.5-2.9h-3.4v-1.5c0-1,0.5-1.5,1.5-1.5h1.5V6.2c-0.5,0-1.6,0-2.4,0
		c-2.4,0-3.4,1.5-3.4,3.9v2H9.4V15h2.9v6.8H15.2z"/>
</g>
<g id="XMLID_12_">
	<circle id="XMLID_31_" class="st2" cx="42" cy="14" r="14"/>
	<g id="XMLID_184_">
		<path id="XMLID_195_" class="st1" d="M35.7,11.8h2.7v8.7h-2.7V11.8z M37.1,7.5c0.9,0,1.6,0.7,1.6,1.6s-0.7,1.6-1.6,1.6
			c-0.9,0-1.6-0.7-1.6-1.6S36.2,7.5,37.1,7.5"/>
		<path id="XMLID_192_" class="st1" d="M40.1,11.8h2.6V13h0c0.4-0.7,1.2-1.4,2.6-1.4c2.7,0,3.2,1.8,3.2,4.1v4.8h-2.7v-4.2
			c0-1,0-2.3-1.4-2.3c-1.4,0-1.6,1.1-1.6,2.2v4.3h-2.7L40.1,11.8L40.1,11.8z"/>
	</g>
</g>
<g id="XMLID_13_">
	<circle id="XMLID_33_" class="st3" cx="70" cy="14" r="14"/>
	<g id="XMLID_5_">
		<path id="XMLID_7_" class="st1" d="M66.7,13.2c0,0.7,0,1.3,0,2c1.1,0,2.2,0,3.3,0c-0.5,2.4-3.8,3.2-5.6,1.6
			c-1.8-1.4-1.7-4.5,0.2-5.8c1.3-1,3.2-0.8,4.5,0.1c0.5-0.5,1-1,1.5-1.5c-1.1-0.9-2.4-1.5-3.9-1.4c-3-0.1-5.7,2.5-5.8,5.5
			c-0.2,2.4,1.4,4.8,3.7,5.7c2.3,0.9,5.1,0.3,6.6-1.7c0.9-1.3,1.2-2.9,1-4.5C70.4,13.2,68.5,13.2,66.7,13.2z"/>
		<path id="XMLID_6_" class="st1" d="M77.5,13.2c0-0.5,0-1.1,0-1.7c-0.5,0-1.1,0-1.6,0c0,0.5,0,1.1,0,1.7c-0.6,0-1.1,0-1.7,0
			c0,0.5,0,1.1,0,1.6c0.5,0,1.1,0,1.7,0c0,0.5,0,1.1,0,1.6c0.5,0,1.1,0,1.6,0c0-0.5,0-1.1,0-1.7c0.6,0,1.1,0,1.7,0
			c0-0.5,0-1.1,0-1.6C78.6,13.2,78,13.2,77.5,13.2z"/>
	</g>
</g>
<g id="XMLID_14_">
	<circle id="XMLID_32_" class="st4" cx="98" cy="14" r="14"/>
	<path id="XMLID_8_" class="st1" d="M104.6,9.9c-0.5,0.2-1,0.4-1.5,0.4c0.6-0.3,1-0.9,1.2-1.5c-0.5,0.3-1.1,0.5-1.7,0.7
		c-0.5-0.5-1.2-0.8-2-0.8c-1.5,0-2.7,1.2-2.7,2.7c0,0.2,0,0.4,0.1,0.6c-2.2-0.1-4.2-1.2-5.5-2.8C92.1,9.6,92,10,92,10.5
		c0,0.9,0.5,1.8,1.2,2.2c-0.4,0-0.9-0.1-1.2-0.3c0,0,0,0,0,0c0,1.3,0.9,2.4,2.2,2.6c-0.2,0.1-0.5,0.1-0.7,0.1c-0.2,0-0.3,0-0.5,0
		c0.3,1.1,1.3,1.8,2.5,1.9c-0.9,0.7-2.1,1.2-3.3,1.2c-0.2,0-0.4,0-0.6,0c1.2,0.8,2.6,1.2,4.1,1.2c4.9,0,7.6-4.1,7.6-7.6
		c0-0.1,0-0.2,0-0.3C103.7,10.9,104.2,10.5,104.6,9.9z"/>
</g>
<g id="XMLID_16_">
	<circle id="XMLID_35_" class="st5" cx="154" cy="14" r="14"/>
	<g id="XMLID_21_">
		<path id="XMLID_27_" class="st1" d="M154,10.3c-2,0-3.6,1.6-3.6,3.6s1.6,3.6,3.6,3.6s3.6-1.6,3.6-3.6S156,10.3,154,10.3z
			 M154,16.3c-1.3,0-2.3-1.1-2.3-2.3s1.1-2.3,2.3-2.3s2.3,1.1,2.3,2.3S155.3,16.3,154,16.3z"/>
		<circle id="XMLID_26_" class="st1" cx="157.8" cy="10.2" r="0.8"/>
		<path id="XMLID_23_" class="st1" d="M159.9,8.1c-0.7-0.8-1.8-1.2-3-1.2h-5.9c-2.5,0-4.1,1.6-4.1,4.1v5.8c0,1.2,0.4,2.3,1.2,3
			c0.8,0.7,1.8,1.1,3,1.1h5.8c1.2,0,2.2-0.4,3-1.1c0.8-0.7,1.2-1.8,1.2-3v-5.9C161.1,9.9,160.7,8.9,159.9,8.1z M159.8,16.9
			c0,0.9-0.3,1.6-0.8,2.1c-0.5,0.5-1.2,0.7-2.1,0.7h-5.8c-0.9,0-1.6-0.3-2.1-0.7c-0.5-0.5-0.8-1.2-0.8-2.1v-5.8
			c0-0.9,0.3-1.6,0.8-2.1c0.5-0.5,1.2-0.7,2.1-0.7h5.9c0.9,0,1.6,0.3,2.1,0.8c0.5,0.5,0.8,1.2,0.8,2V16.9L159.8,16.9z"/>
	</g>
</g>
<g id="XMLID_15_">
	<circle id="XMLID_34_" class="st6" cx="126" cy="14" r="14"/>
	<g id="XMLID_4_">
		<path id="XMLID_11_" class="st1" d="M132.4,11.2c0,0-0.1-1-0.5-1.4c-0.5-0.6-1.1-0.6-1.3-0.6c-1.8-0.1-4.6-0.1-4.6-0.1h0
			c0,0-2.7,0-4.6,0.1c-0.3,0-0.8,0-1.3,0.6c-0.4,0.4-0.5,1.4-0.5,1.4s-0.1,1.1-0.1,2.3v1.1c0,1.1,0.1,2.3,0.1,2.3s0.1,1,0.5,1.4
			c0.5,0.6,1.1,0.5,1.4,0.6c1,0.1,4.4,0.1,4.4,0.1s2.7,0,4.6-0.1c0.3,0,0.8,0,1.3-0.6c0.4-0.4,0.5-1.4,0.5-1.4s0.1-1.1,0.1-2.3v-1.1
			C132.5,12.3,132.4,11.2,132.4,11.2z"/>
		<polygon id="XMLID_10_" class="st6" points="124.4,11.6 124.4,16.4 128.5,14 		"/>
	</g>
</g>
</svg>
