<?xml version="1.0" encoding="UTF-8" standalone="no"?>
<svg width="32px" height="32px" viewBox="0 0 32 32" version="1.1" xmlns="http://www.w3.org/2000/svg" xmlns:xlink="http://www.w3.org/1999/xlink">
    <!-- Generator: Sketch 41.2 (35397) - http://www.bohemiancoding.com/sketch -->
    <title>clock</title>
    <desc>Created with Sketch.</desc>
    <defs></defs>
    <g id="Working" stroke="none" stroke-width="1" fill="none" fill-rule="evenodd">
        <g id="Artboard-3" stroke="#444444" stroke-width="1.28571429">
            <g id="Group" transform="translate(4.000000, 4.000000)">
                <path d="M11.9997605,23.8181376 C18.5137767,23.8181376 23.7944303,18.5374841 23.7944303,12.0234679 C23.7944303,5.50945164 18.5137767,0.228798129 11.9997605,0.228798129 C5.48574431,0.228798129 0.205090802,5.50945164 0.205090802,12.0234679 C0.205090802,18.5374841 5.48574431,23.8181376 11.9997605,23.8181376 Z" id="Oval-26" fill="#CFEAFD"></path>
                <path d="M12.0002395,20.9645885 C16.938284,20.9645885 20.9413601,16.9615124 20.9413601,12.0234679 C20.9413601,7.0854233 16.938284,3.08234726 12.0002395,3.08234726 C7.06219492,3.08234726 3.05911887,7.0854233 3.05911887,12.0234679 C3.05911887,16.9615124 7.06219492,20.9645885 12.0002395,20.9645885 Z" id="Oval-26" fill="#FFFFFF" transform="translate(12.000239, 12.023468) scale(-1, 1) translate(-12.000239, -12.023468) "></path>
                <path d="M11.3098833,20.0604255 L13.1182092,20.0604255" id="Line" stroke-linecap="round" transform="translate(12.214046, 20.060426) rotate(-270.000000) translate(-12.214046, -20.060426) "></path>
                <path d="M11.3098833,3.98651021 L13.1182092,3.98651021" id="Line" stroke-linecap="round" transform="translate(12.214046, 3.986510) rotate(-270.000000) translate(-12.214046, -3.986510) "></path>
                <path d="M19.1284822,11.9494038 L20.9368081,11.9494038" id="Line" stroke-linecap="round" transform="translate(20.032645, 11.949404) rotate(-360.000000) translate(-20.032645, -11.949404) "></path>
                <path d="M3.05456692,11.9494038 L4.86289282,11.9494038" id="Line" stroke-linecap="round" transform="translate(3.958730, 11.949404) rotate(-360.000000) translate(-3.958730, -11.949404) "></path>
                <polyline id="Line" stroke-linecap="round" transform="translate(14.143097, 11.633800) scale(-1, 1) rotate(-270.000000) translate(-14.143097, -11.633800) " points="10.620485 9.27665687 14.571668 9.27665687 17.6657082 13.9909426"></polyline>
            </g>
        </g>
    </g>
</svg>