<?xml version="1.0" encoding="UTF-8" standalone="no"?>
<svg width="32px" height="32px" viewBox="0 0 32 32" version="1.1" xmlns="http://www.w3.org/2000/svg" xmlns:xlink="http://www.w3.org/1999/xlink">
    <!-- Generator: Sketch 41.2 (35397) - http://www.bohemiancoding.com/sketch -->
    <title>fuel</title>
    <desc>Created with Sketch.</desc>
    <defs></defs>
    <g id="Working" stroke="none" stroke-width="1" fill="none" fill-rule="evenodd">
        <g id="Artboard-3">
            <g id="Group" transform="translate(4.000000, 4.000000)">
                <path d="M3.57404,1.72156 L3.57404,14.92116 C3.57404,15.47236 4.02284,15.92116 4.57404,15.92116 L14.17404,15.92116 C14.72524,15.92116 15.17404,15.47236 15.17404,14.92116 L15.17404,1.72156 L3.57404,1.72156 Z" id="Fill-258" fill="#FFFFFF" transform="translate(9.374040, 8.821360) scale(1, -1) translate(-9.374040, -8.821360) "></path>
                <circle id="Oval" stroke="#444444" stroke-width="1.2" fill="#9FD3FB" cx="9.39128852" cy="8.89273365" r="2.18407317"></circle>
                <path d="M3.57404,8.72156 L3.57404,21.92116 C3.57404,22.47236 4.02284,22.92116 4.57404,22.92116 L14.17404,22.92116 C14.72524,22.92116 15.17404,22.47236 15.17404,21.92116 L15.17404,8.72156 L3.57404,8.72156 Z" id="Fill-258" fill="#CFEAFD"></path>
                <path d="M23.37404,24.12116 L0.97404,24.12116 C0.64244,24.12116 0.37404,23.85276 0.37404,23.52116 C0.37404,23.18956 0.64244,22.92116 0.97404,22.92116 L23.37404,22.92116 C23.70564,22.92116 23.97404,23.18956 23.97404,23.52116 C23.97404,23.85276 23.70564,24.12116 23.37404,24.12116" id="Fill-247" fill="#444444"></path>
                <polygon id="Fill-248" fill="#444444" points="18.7784 17.4924 19.9784 17.4924 19.9784 11.7588 18.7784 11.7588"></polygon>
                <polygon id="Fill-249" fill="#444444" points="22.774 17.4924 23.974 17.4924 23.974 4.9588 22.774 4.9588"></polygon>
                <path d="M22.05256,7.36416 C21.41896,7.36416 20.78536,7.12296 20.30296,6.64096 C19.33816,5.67616 19.33816,4.10616 20.30256,3.14096 C20.53696,2.90656 20.91696,2.90696 21.15136,3.14096 C21.38576,3.37536 21.38576,3.75536 21.15176,3.98936 C20.65456,4.48656 20.65456,5.29536 21.15176,5.79216 C21.64816,6.28896 22.45696,6.28896 22.95416,5.79216 C23.18816,5.55816 23.56856,5.55776 23.80256,5.79256 C24.03696,6.02696 24.03696,6.40656 23.80256,6.64096 C23.31976,7.12296 22.68616,7.36416 22.05256,7.36416" id="Fill-250" fill="#444444"></path>
                <polygon id="Fill-252" fill="#444444" points="3.3812 9.1544 7.1988 9.1544 7.1988 7.9544 3.3812 7.9544"></polygon>
                <polygon id="Fill-253" fill="#444444" points="5.074 9.1544 15.3672 9.1544 15.3672 7.9544 5.074 7.9544"></polygon>
                <path d="M10.97404,7.32116 C10.82364,7.32116 10.67284,7.26476 10.55644,7.15196 C10.31844,6.92116 10.31244,6.54156 10.54324,6.30356 L12.17284,4.62276 C12.40404,4.38436 12.78364,4.37916 13.02124,4.60956 C13.25924,4.83996 13.26524,5.21996 13.03444,5.45796 L11.40484,7.13876 C11.28724,7.26036 11.13084,7.32116 10.97404,7.32116" id="Fill-254" fill="#444444"></path>
                <path d="M21.37836,20.09228 C19.94476,20.09228 18.77836,18.92588 18.77836,17.49228 C18.77836,17.16068 19.04676,16.89228 19.37836,16.89228 C19.70996,16.89228 19.97836,17.16068 19.97836,17.49228 C19.97836,18.26428 20.60636,18.89228 21.37836,18.89228 C22.15036,18.89228 22.77836,18.26428 22.77836,17.49228 C22.77836,17.16068 23.04676,16.89228 23.37836,16.89228 C23.70996,16.89228 23.97836,17.16068 23.97836,17.49228 C23.97836,18.92588 22.81196,20.09228 21.37836,20.09228" id="Fill-255" fill="#444444"></path>
                <path d="M19.37836,12.35456 C19.04676,12.35456 18.77836,12.08616 18.77836,11.75456 C18.77836,10.32096 17.61196,9.15456 16.17836,9.15456 C15.84676,9.15456 15.57836,8.88616 15.57836,8.55456 C15.57836,8.22296 15.84676,7.95456 16.17836,7.95456 C18.27356,7.95456 19.97836,9.65936 19.97836,11.75456 C19.97836,12.08616 19.70996,12.35456 19.37836,12.35456" id="Fill-256" fill="#444444"></path>
                <path d="M23.37404,7.16396 C23.04244,7.16396 22.77404,6.89556 22.77404,6.56396 L22.77404,5.05556 L18.20364,1.46956 C17.94284,1.26476 17.89764,0.88756 18.10204,0.62716 C18.30684,0.36596 18.68404,0.32116 18.94444,0.52516 L23.74444,4.29196 C23.88964,4.40556 23.97404,4.57996 23.97404,4.76396 L23.97404,6.56396 C23.97404,6.89556 23.70564,7.16396 23.37404,7.16396" id="Fill-257" fill="#444444"></path>
                <path d="M4.57404,1.72156 C4.02284,1.72156 3.57404,2.17036 3.57404,2.72156 L3.57404,21.92116 C3.57404,22.47236 4.02284,22.92116 4.57404,22.92116 L14.17404,22.92116 C14.72524,22.92116 15.17404,22.47236 15.17404,21.92116 L15.17404,2.72156 C15.17404,2.17036 14.72524,1.72156 14.17404,1.72156 L4.57404,1.72156 Z M14.17404,24.12116 L4.57404,24.12116 C3.36084,24.12116 2.37404,23.13436 2.37404,21.92116 L2.37404,2.72156 C2.37404,1.50836 3.36084,0.52156 4.57404,0.52156 L14.17404,0.52156 C15.38724,0.52156 16.37404,1.50836 16.37404,2.72156 L16.37404,21.92116 C16.37404,23.13436 15.38724,24.12116 14.17404,24.12116 L14.17404,24.12116 Z" id="Fill-258" fill="#444444"></path>
            </g>
        </g>
    </g>
</svg>